# This file uses centimeters as units for non-parametric coordinates.

mtllib CabinetGarege.mtl
g default
v -955.870314 123.891201 1027.002413
v -944.304253 123.891201 1027.002413
v -955.870314 159.693755 1027.002413
v -944.304253 159.693755 1027.002413
v -955.870314 159.693755 932.717634
v -944.304253 159.693755 932.717634
v -955.870314 123.891201 932.717634
v -944.304253 123.891201 932.717634
v -958.658841 140.111940 997.483003
v -947.092780 140.111940 997.483003
v -958.658841 143.473009 997.483003
v -947.092780 143.473009 997.483003
v -958.658841 143.473009 962.237044
v -947.092780 143.473009 962.237044
v -958.658841 140.111940 962.237044
v -947.092780 140.111940 962.237044
v -958.658841 183.487274 997.483003
v -947.092780 183.487274 997.483003
v -958.658841 186.848344 997.483003
v -947.092780 186.848344 997.483003
v -958.658841 186.848344 962.237044
v -947.092780 186.848344 962.237044
v -958.658841 183.487274 962.237044
v -947.092780 183.487274 962.237044
v -955.870314 167.266528 1027.002413
v -944.304253 167.266528 1027.002413
v -955.870314 203.069089 1027.002413
v -944.304253 203.069089 1027.002413
v -955.870314 203.069089 932.717634
v -944.304253 203.069089 932.717634
v -955.870314 167.266528 932.717634
v -944.304253 167.266528 932.717634
v -953.117088 104.944342 1034.363103
v -869.066358 104.944342 1034.363103
v -953.117088 214.520227 1034.363103
v -869.066358 214.520227 1034.363103
v -953.117088 214.520227 924.787203
v -869.066358 214.520227 924.787203
v -953.117088 104.944342 924.787203
v -869.066358 104.944342 924.787203
v -953.117088 104.944342 935.744748
v -953.117088 104.944342 1023.405557
v -869.066358 104.944342 935.744748
v -869.066358 104.944342 1023.405557
v -942.045684 104.944342 924.787203
v -880.137762 104.944342 924.787203
v -942.045684 104.944342 935.744748
v -880.137762 104.944342 935.744748
v -880.137762 104.944342 1023.405557
v -942.045684 104.944342 1023.405557
v -942.045684 104.944342 1034.363103
v -880.137762 104.944342 1034.363103
v -953.117088 21.049159 924.787203
v -942.045684 21.049159 924.787203
v -942.045684 21.049159 935.744748
v -953.117088 21.049159 935.744748
v -942.045684 21.049159 1023.405557
v -953.117088 21.049159 1023.405557
v -942.045684 21.049159 1034.363103
v -953.117088 21.049159 1034.363103
v -880.137762 21.049159 935.744748
v -880.137762 21.049159 924.787203
v -869.066358 21.049159 924.787203
v -869.066358 21.049159 935.744748
v -880.137762 21.049159 1034.363103
v -880.137762 21.049159 1023.405557
v -869.066358 21.049159 1023.405557
v -869.066358 21.049159 1034.363103
vt 0.123806 0.346769
vt 0.123806 0.033003
vt 0.242952 0.033003
vt 0.242952 0.346769
vt 0.329183 0.346769
vt 0.329183 0.033003
vt 0.448329 0.033003
vt 0.448329 0.346769
vt 0.040845 0.033003
vt 0.079335 0.033003
vt 0.079335 0.346769
vt 0.040845 0.346769
vt 0.082371 0.033003
vt 0.120861 0.033003
vt 0.120861 0.346769
vt 0.082371 0.346769
vt 0.246312 0.033003
vt 0.284802 0.033003
vt 0.284802 0.346769
vt 0.246312 0.346769
vt 0.287748 0.033003
vt 0.326238 0.033003
vt 0.326238 0.346769
vt 0.287748 0.346769
vt 0.451689 0.033003
vt 0.490179 0.033003
vt 0.490179 0.152149
vt 0.451689 0.152149
vt 0.462698 0.153994
vt 0.501188 0.153994
vt 0.501188 0.273139
vt 0.462698 0.273139
vt 0.547361 0.025128
vt 0.585851 0.025128
vt 0.585851 0.144274
vt 0.547361 0.144274
vt 0.506035 0.025128
vt 0.544525 0.025128
vt 0.544525 0.144274
vt 0.506035 0.144274
vt 0.771298 0.250737
vt 0.771298 0.041900
vt 0.791214 0.041900
vt 0.791214 0.250737
vt 0.935926 0.250737
vt 0.935926 0.041900
vt 0.955842 0.041900
vt 0.955842 0.250737
vt 0.629468 0.041901
vt 0.697999 0.041901
vt 0.697999 0.250737
vt 0.629468 0.250737
vt 0.700089 0.041901
vt 0.768619 0.041901
vt 0.768619 0.250737
vt 0.700089 0.250737
vt 0.793509 0.041901
vt 0.862040 0.041901
vt 0.862040 0.250737
vt 0.793509 0.250737
vt 0.864718 0.041901
vt 0.933248 0.041901
vt 0.933248 0.250737
vt 0.864718 0.250737
vt 0.943419 0.320606
vt 0.943419 0.252075
vt 0.963334 0.252075
vt 0.963334 0.320606
vt 0.921448 0.320606
vt 0.921448 0.252075
vt 0.941362 0.252075
vt 0.941362 0.320606
vt 0.899477 0.320606
vt 0.899477 0.252075
vt 0.919391 0.252075
vt 0.919391 0.320606
vt 0.877505 0.320606
vt 0.877505 0.252075
vt 0.897420 0.252075
vt 0.897420 0.320606
vt 0.538390 0.467757
vt 0.557798 0.467757
vt 0.713063 0.467757
vt 0.732471 0.467757
vt 0.732471 0.661838
vt 0.538390 0.661838
vt 0.538390 0.319161
vt 0.557798 0.319161
vt 0.713063 0.319161
vt 0.732471 0.319161
vt 0.752867 0.779008
vt 0.772275 0.779008
vt 0.927540 0.779008
vt 0.946948 0.779008
vt 0.946948 0.973090
vt 0.752867 0.973090
vt 0.752867 0.630412
vt 0.772275 0.630412
vt 0.927540 0.630412
vt 0.946948 0.630412
vt 0.196520 0.904854
vt 0.177112 0.904854
vt 0.177112 0.756258
vt 0.196520 0.756258
vt 0.125789 0.904854
vt 0.106381 0.904854
vt 0.106381 0.756258
vt 0.125789 0.756258
vt 0.102347 0.904854
vt 0.082939 0.904854
vt 0.082939 0.756258
vt 0.102347 0.756258
vt 0.391756 0.909654
vt 0.372348 0.909654
vt 0.372348 0.761059
vt 0.391756 0.761059
vt 0.538669 0.664463
vt 0.687540 0.664463
vt 0.687540 0.858545
vt 0.538669 0.858545
vt 0.200555 0.775666
vt 0.220165 0.775666
vt 0.220165 0.930931
vt 0.200555 0.930931
vt 0.329817 0.775666
vt 0.329817 0.930931
vt 0.220165 0.756258
vt 0.329817 0.756258
vt 0.349426 0.775666
vt 0.349426 0.930931
vt 0.220165 0.950339
vt 0.329817 0.950339
vt 0.045458 0.559552
vt 0.065067 0.559552
vt 0.174719 0.559552
vt 0.194329 0.559552
vt 0.194329 0.753633
vt 0.045458 0.753633
vt 0.045458 0.410956
vt 0.065067 0.410956
vt 0.174719 0.410956
vt 0.194329 0.410956
vt 0.199384 0.410956
vt 0.348255 0.410956
vt 0.348255 0.605038
vt 0.328645 0.605038
vt 0.218994 0.605038
vt 0.199384 0.605038
vt 0.348255 0.753633
vt 0.328645 0.753633
vt 0.218994 0.753633
vt 0.199384 0.753633
vt 0.173078 0.904854
vt 0.153468 0.904854
vt 0.153468 0.756258
vt 0.173078 0.756258
vt 0.129824 0.756258
vt 0.149433 0.756258
vt 0.149433 0.904854
vt 0.129824 0.904854
vt 0.078904 0.904854
vt 0.059294 0.904854
vt 0.059294 0.756258
vt 0.078904 0.756258
vt 0.396828 0.761059
vt 0.416438 0.761059
vt 0.416438 0.909654
vt 0.396828 0.909654
vn 0.000000 0.000000 1.000000
vn 0.000000 0.000000 1.000000
vn 0.000000 0.000000 1.000000
vn 0.000000 0.000000 1.000000
vn 0.000000 1.000000 0.000000
vn 0.000000 1.000000 0.000000
vn 0.000000 1.000000 0.000000
vn 0.000000 1.000000 0.000000
vn 0.000000 0.000000 -1.000000
vn 0.000000 0.000000 -1.000000
vn 0.000000 0.000000 -1.000000
vn 0.000000 0.000000 -1.000000
vn 0.000000 -1.000000 0.000000
vn 0.000000 -1.000000 0.000000
vn 0.000000 -1.000000 0.000000
vn 0.000000 -1.000000 0.000000
vn 1.000000 0.000000 0.000000
vn 1.000000 0.000000 0.000000
vn 1.000000 0.000000 0.000000
vn 1.000000 0.000000 0.000000
vn -1.000000 0.000000 0.000000
vn -1.000000 0.000000 0.000000
vn -1.000000 0.000000 0.000000
vn -1.000000 0.000000 0.000000
vn 0.000000 0.000000 1.000000
vn 0.000000 0.000000 1.000000
vn 0.000000 0.000000 1.000000
vn 0.000000 0.000000 1.000000
vn 0.000000 1.000000 0.000000
vn 0.000000 1.000000 0.000000
vn 0.000000 1.000000 0.000000
vn 0.000000 1.000000 0.000000
vn 0.000000 0.000000 -1.000000
vn 0.000000 0.000000 -1.000000
vn 0.000000 0.000000 -1.000000
vn 0.000000 0.000000 -1.000000
vn 0.000000 -1.000000 0.000000
vn 0.000000 -1.000000 0.000000
vn 0.000000 -1.000000 0.000000
vn 0.000000 -1.000000 0.000000
vn 1.000000 0.000000 0.000000
vn 1.000000 0.000000 0.000000
vn 1.000000 0.000000 0.000000
vn 1.000000 0.000000 0.000000
vn -1.000000 0.000000 0.000000
vn -1.000000 0.000000 0.000000
vn -1.000000 0.000000 0.000000
vn -1.000000 0.000000 0.000000
vn 0.000000 0.000000 1.000000
vn 0.000000 0.000000 1.000000
vn 0.000000 0.000000 1.000000
vn 0.000000 0.000000 1.000000
vn 0.000000 1.000000 0.000000
vn 0.000000 1.000000 0.000000
vn 0.000000 1.000000 0.000000
vn 0.000000 1.000000 0.000000
vn 0.000000 0.000000 -1.000000
vn 0.000000 0.000000 -1.000000
vn 0.000000 0.000000 -1.000000
vn 0.000000 0.000000 -1.000000
vn 0.000000 -1.000000 0.000000
vn 0.000000 -1.000000 0.000000
vn 0.000000 -1.000000 0.000000
vn 0.000000 -1.000000 0.000000
vn 1.000000 0.000000 0.000000
vn 1.000000 0.000000 0.000000
vn 1.000000 0.000000 0.000000
vn 1.000000 0.000000 0.000000
vn -1.000000 0.000000 0.000000
vn -1.000000 0.000000 0.000000
vn -1.000000 0.000000 0.000000
vn -1.000000 0.000000 0.000000
vn 0.000000 0.000000 1.000000
vn 0.000000 0.000000 1.000000
vn 0.000000 0.000000 1.000000
vn 0.000000 0.000000 1.000000
vn 0.000000 1.000000 0.000000
vn 0.000000 1.000000 0.000000
vn 0.000000 1.000000 0.000000
vn 0.000000 1.000000 0.000000
vn 0.000000 0.000000 -1.000000
vn 0.000000 0.000000 -1.000000
vn 0.000000 0.000000 -1.000000
vn 0.000000 0.000000 -1.000000
vn 0.000000 -1.000000 0.000000
vn 0.000000 -1.000000 0.000000
vn 0.000000 -1.000000 0.000000
vn 0.000000 -1.000000 0.000000
vn 1.000000 0.000000 0.000000
vn 1.000000 0.000000 0.000000
vn 1.000000 0.000000 0.000000
vn 1.000000 0.000000 0.000000
vn -1.000000 0.000000 0.000000
vn -1.000000 0.000000 0.000000
vn -1.000000 0.000000 0.000000
vn -1.000000 0.000000 0.000000
vn 0.000000 0.000000 1.000000
vn 0.000000 0.000000 1.000000
vn 0.000000 0.000000 1.000000
vn 0.000000 0.000000 1.000000
vn 0.000000 0.000000 1.000000
vn 0.000000 0.000000 1.000000
vn 0.000000 1.000000 0.000000
vn 0.000000 1.000000 0.000000
vn 0.000000 1.000000 0.000000
vn 0.000000 1.000000 0.000000
vn 0.000000 0.000000 -1.000000
vn 0.000000 0.000000 -1.000000
vn 0.000000 0.000000 -1.000000
vn 0.000000 0.000000 -1.000000
vn 0.000000 0.000000 -1.000000
vn 0.000000 0.000000 -1.000000
vn 0.000000 -1.000000 0.000000
vn 0.000000 -1.000000 0.000000
vn 0.000000 -1.000000 0.000000
vn 0.000000 -1.000000 0.000000
vn 1.000000 0.000000 0.000000
vn 1.000000 0.000000 0.000000
vn 1.000000 0.000000 0.000000
vn 1.000000 0.000000 0.000000
vn 1.000000 0.000000 0.000000
vn 1.000000 0.000000 0.000000
vn -1.000000 0.000000 0.000000
vn -1.000000 0.000000 0.000000
vn -1.000000 0.000000 0.000000
vn -1.000000 0.000000 0.000000
vn -1.000000 0.000000 0.000000
vn -1.000000 0.000000 0.000000
vn 0.000000 -1.000000 0.000000
vn 0.000000 -1.000000 0.000000
vn 0.000000 -1.000000 0.000000
vn 0.000000 -1.000000 0.000000
vn 0.000000 -1.000000 0.000000
vn 0.000000 -1.000000 0.000000
vn 0.000000 -1.000000 0.000000
vn 0.000000 -1.000000 0.000000
vn 0.000000 -1.000000 0.000000
vn 0.000000 -1.000000 0.000000
vn 0.000000 -1.000000 0.000000
vn 0.000000 -1.000000 0.000000
vn 0.000000 -1.000000 0.000000
vn 0.000000 -1.000000 0.000000
vn 0.000000 -1.000000 0.000000
vn 0.000000 -1.000000 0.000000
vn 0.000000 -1.000000 0.000000
vn 0.000000 -1.000000 0.000000
vn 0.000000 -1.000000 0.000000
vn 0.000000 -1.000000 0.000000
vn 0.000000 -1.000000 0.000000
vn 0.000000 -1.000000 0.000000
vn 0.000000 -1.000000 0.000000
vn 0.000000 -1.000000 0.000000
vn 0.000000 0.000000 -1.000000
vn 0.000000 0.000000 -1.000000
vn 1.000000 0.000000 0.000000
vn 1.000000 0.000000 0.000000
vn 1.000000 0.000000 0.000000
vn 1.000000 0.000000 0.000000
vn 0.000000 0.000000 1.000000
vn 0.000000 0.000000 1.000000
vn 0.000000 0.000000 1.000000
vn 0.000000 0.000000 1.000000
vn -1.000000 0.000000 0.000000
vn -1.000000 0.000000 0.000000
vn 0.000000 0.000000 -1.000000
vn 0.000000 0.000000 -1.000000
vn 0.000000 0.000000 -1.000000
vn 0.000000 0.000000 -1.000000
vn 1.000000 0.000000 0.000000
vn 1.000000 0.000000 0.000000
vn 1.000000 0.000000 0.000000
vn 1.000000 0.000000 0.000000
vn 0.000000 0.000000 1.000000
vn 0.000000 0.000000 1.000000
vn -1.000000 0.000000 0.000000
vn -1.000000 0.000000 0.000000
vn -1.000000 0.000000 0.000000
vn -1.000000 0.000000 0.000000
vn -1.000000 0.000000 0.000000
vn -1.000000 0.000000 0.000000
vn 0.000000 0.000000 -1.000000
vn 0.000000 0.000000 -1.000000
vn 1.000000 0.000000 0.000000
vn 1.000000 0.000000 0.000000
vn 0.000000 0.000000 1.000000
vn 0.000000 0.000000 1.000000
vn 0.000000 0.000000 1.000000
vn 0.000000 0.000000 1.000000
vn -1.000000 0.000000 0.000000
vn -1.000000 0.000000 0.000000
vn -1.000000 0.000000 0.000000
vn -1.000000 0.000000 0.000000
vn 0.000000 0.000000 -1.000000
vn 0.000000 0.000000 -1.000000
vn 0.000000 0.000000 -1.000000
vn 0.000000 0.000000 -1.000000
vn 1.000000 0.000000 0.000000
vn 1.000000 0.000000 0.000000
vn 0.000000 0.000000 1.000000
vn 0.000000 0.000000 1.000000
s off
g CabinetGarage
usemtl lambert40SG
f 1/25/1 2/26/2 4/27/3 3/28/4
f 3/9/5 4/10/6 6/11/7 5/12/8
f 5/29/9 6/30/10 8/31/11 7/32/12
f 7/13/13 8/14/14 2/15/15 1/16/16
f 2//17 8//18 6//19 4//20
f 7/1/21 1/2/22 3/3/23 5/4/24
f 9/65/25 10/66/26 12/67/27 11/68/28
f 11/49/29 12/50/30 14/51/31 13/52/32
f 13/69/33 14/70/34 16/71/35 15/72/36
f 15/53/37 16/54/38 10/55/39 9/56/40
f 10//41 16//42 14//43 12//44
f 15/41/45 9/42/46 11/43/47 13/44/48
f 17/73/49 18/74/50 20/75/51 19/76/52
f 19/57/53 20/58/54 22/59/55 21/60/56
f 21/77/57 22/78/58 24/79/59 23/80/60
f 23/61/61 24/62/62 18/63/63 17/64/64
f 18//65 24//66 22//67 20//68
f 23/45/69 17/46/70 19/47/71 21/48/72
f 25/33/73 26/34/74 28/35/75 27/36/76
f 27/17/77 28/18/78 30/19/79 29/20/80
f 29/37/81 30/38/82 32/39/83 31/40/84
f 31/21/85 32/22/86 26/23/87 25/24/88
f 26//89 32//90 30//91 28//92
f 31/5/93 25/6/94 27/7/95 29/8/96
s 1
f 33/133/97 51/134/98 52/135/99 34/136/100 36/137/101 35/138/102
s off
f 35/117/103 36/118/104 38/119/105 37/120/106
s 2
f 37/143/107 38/144/108 40/145/109 46/146/110 45/147/111 39/148/112
s 3
f 41/121/113 47/122/114 50/123/115 42/124/116
s 4
f 34/81/117 44/82/118 43/83/119 40/84/120 38/85/121 36/86/122
s 5
f 39/91/123 41/92/124 42/93/125 33/94/126 35/95/127 37/96/128
s off
f 53//129 54//130 55//131 56//132
f 58//133 57//134 59//135 60//136
f 61//137 62//138 63//139 64//140
s 3
f 49/126/141 48/125/142 43/129/143 44/130/144
s off
f 65//145 66//146 67//147 68//148
s 3
f 51/131/149 50/123/115 49/126/141 52/132/150
f 50/123/115 47/122/114 48/125/142 49/126/141
f 47/122/114 45/127/151 46/128/152 48/125/142
s 2
f 39/148/112 45/147/111 54/151/153 53/152/154
s off
f 45/101/155 47/102/156 55/103/157 54/104/158
f 47/153/159 41/154/160 56/155/161 55/156/162
s 5
f 41/92/124 39/91/123 53/97/163 56/98/164
s off
f 42/157/165 50/158/166 57/159/167 58/160/168
f 50/105/169 51/106/170 59/107/171 57/108/172
s 1
f 51/134/98 33/133/97 60/139/173 59/140/174
s 5
f 33/94/126 42/93/125 58/99/175 60/100/176
s off
f 48/109/177 46/110/178 62/111/179 61/112/180
s 2
f 46/146/110 40/145/109 63/149/181 62/150/182
s 4
f 40/84/120 43/83/119 64/89/183 63/90/184
s off
f 43/161/185 48/162/186 61/163/187 64/164/188
f 52/113/189 49/114/190 66/115/191 65/116/192
f 49/165/193 44/166/194 67/167/195 66/168/196
s 4
f 44/82/118 34/81/117 68/87/197 67/88/198
s 1
f 34/136/100 52/135/99 65/141/199 68/142/200
