# This file uses centimeters as units for non-parametric coordinates.

mtllib CAR.mtl
g default
v -1309.564248 79.975555 1190.961617
v -1142.985238 56.945176 1183.478697
v -1142.985238 79.975555 1190.961617
v -1142.985238 81.118731 1191.332999
v -1309.564248 128.481506 1190.961617
v -1302.684313 129.659586 1186.477150
v -1285.376502 200.043463 1106.113110
v -1307.604913 132.788927 1179.984906
v -1309.564248 128.481506 1042.549961
v -1307.604913 132.788927 1048.261602
v -1309.564248 50.922562 1185.435585
v -1309.564248 50.922562 1042.549961
v -1142.985238 50.922562 1042.549961
v -1142.985238 50.922562 1185.435585
v -1142.985238 128.481506 1190.961617
v -1149.865173 129.659586 1186.477150
v -1280.494557 196.623231 1107.215184
v -1283.986228 195.736001 1104.847118
v -1285.376502 204.068434 1048.149878
v -1306.461410 132.044778 1037.216552
v -1309.564248 136.964522 920.962011
v -1283.986228 199.761054 1053.861682
v -1167.172820 200.043463 1106.113110
v -1142.985238 128.481506 1190.961617
v -1144.944573 132.788927 1179.984906
v -1167.172820 200.043463 1106.113110
v -1283.174799 200.505162 1042.816632
v -1306.461410 139.683052 926.295257
v -1172.054929 196.623231 1107.215184
v -1168.563258 195.736001 1104.847118
v -1285.376502 200.043463 958.024231
v -1305.679993 138.207394 923.229933
v -1283.174799 196.480151 960.572361
v -1282.620092 196.377479 958.115731
v -1168.563258 199.761054 1053.861682
v -1142.985238 50.922562 949.506434
v -1309.564248 50.922562 949.506434
v -1142.985238 119.789802 1270.326663
v -1142.985238 51.655824 1270.326663
v -1142.985238 51.597312 1263.993932
v -1142.985238 56.945176 1265.731612
v -1142.985238 81.118731 1257.877148
v -1142.985238 96.058801 1237.313837
v -1142.985238 96.058801 1211.896472
v -1142.985238 128.481506 1042.549961
v -1167.172820 204.068434 1048.149878
v -1144.944573 132.788927 1048.261602
v -1142.985238 128.481506 1042.549961
v -1146.087912 132.044778 1037.216552
v -1167.172820 204.068434 1048.149878
v -1169.374686 200.505162 1042.816632
v -1142.985238 136.964522 920.962011
v -1167.172820 200.043463 958.024231
v -1142.985238 56.945176 951.463322
v -1309.564248 56.945176 951.463322
v -1146.087912 139.683052 926.295257
v -1169.374686 196.480151 960.572361
v -1309.564248 81.118731 943.608857
v -1142.985238 81.118731 943.608857
v -1146.869656 138.207394 923.229933
v -1169.929231 196.377479 958.115731
v -1309.564248 96.058801 923.045629
v -1142.985238 96.058801 923.045629
v -1309.564248 56.945176 869.210325
v -1309.564248 54.625652 869.964016
v -1142.985238 54.625652 869.964016
v -1142.985238 56.945176 869.210325
v -1309.564248 81.118731 877.064708
v -1142.985238 81.118731 877.064708
v -1309.564248 56.359398 846.087386
v -1142.985238 56.359398 846.087386
v -1309.564248 96.058801 897.628100
v -1142.985238 96.058801 897.628100
v -1309.564248 129.365188 846.087386
v -1142.985238 129.365188 846.087386
v -1309.564248 96.058801 920.962011
v -1142.985238 96.058801 920.962011
v -1309.564248 119.789802 1270.326663
v -1309.564248 96.058801 1211.896472
v -1309.564248 81.118731 1191.332999
v -1142.985238 56.935165 1298.706435
v -1142.985238 105.455898 1298.706435
v -1309.564248 56.945176 1183.478697
v -1309.564248 96.058801 1237.313837
v -1309.564248 56.945176 1265.731612
v -1309.564248 46.338684 1262.285447
v -1309.564248 51.101260 1298.706435
v -1309.564248 81.118731 1257.877148
v -1309.564248 105.455898 1298.706435
v -1309.564248 45.821898 1270.326663
vt 0.369934 0.909353
vt 0.584585 0.911021
vt 0.586287 0.973484
vt 0.371841 0.979327
vt 0.868713 0.607942
vt 0.762554 0.734660
vt 0.762554 0.512512
vt 0.875501 0.521956
vt 0.855863 0.968453
vt 0.740406 0.959009
vt 0.753288 0.771943
vt 0.849075 0.829750
vt 0.971430 0.736365
vt 0.971430 0.958513
vt 0.865271 0.831795
vt 0.858483 0.745809
vt 0.737786 0.969113
vt 0.622328 0.978557
vt 0.629117 0.839854
vt 0.724904 0.782047
vt 0.646859 0.770238
vt 0.646859 0.512512
vt 0.759792 0.549934
vt 0.759792 0.732815
vt 0.546064 0.512512
vt 0.644166 0.551402
vt 0.644166 0.741452
vt 0.546064 0.780342
vt 0.128476 0.780861
vt 0.127663 0.778320
vt 0.168922 0.794141
vt 0.166524 0.795944
vt 0.168922 0.871456
vt 0.166524 0.869653
vt 0.128476 0.884736
vt 0.127663 0.887277
vt 0.121708 0.794141
vt 0.121708 0.871456
vt 0.119471 0.868263
vt 0.119471 0.797334
vt 0.074901 0.887277
vt 0.075671 0.882777
vt 0.075671 0.782820
vt 0.074901 0.778320
vt 0.123338 0.887277
vt 0.123338 0.778320
vt 0.126271 0.782820
vt 0.126271 0.882777
vt 0.256713 0.984036
vt 0.179397 0.984036
vt 0.179397 0.946124
vt 0.256713 0.946124
vt 0.179397 0.887174
vt 0.256713 0.887174
vt 0.171961 0.778320
vt 0.171961 0.887277
vt 0.170478 0.884736
vt 0.170478 0.780861
vt 0.070448 0.947743
vt 0.073266 0.954923
vt 0.026458 0.899425
vt 0.029276 0.898597
vt 0.073266 0.857849
vt 0.070448 0.861585
vt 0.026643 0.865248
vt 0.023825 0.861512
vt 0.070935 0.854360
vt 0.026156 0.858023
vt 0.067717 0.778320
vt 0.065939 0.781808
vt 0.026458 0.802562
vt 0.028789 0.804229
vt 0.220313 0.819896
vt 0.173505 0.875394
vt 0.176322 0.868214
vt 0.217495 0.819068
vt 0.173505 0.778320
vt 0.176322 0.782056
vt 0.220128 0.785719
vt 0.222945 0.781983
vt 0.166166 0.971354
vt 0.116726 0.967692
vt 0.119056 0.964203
vt 0.163835 0.967866
vt 0.122274 0.888163
vt 0.124052 0.891651
vt 0.163533 0.912405
vt 0.161202 0.914071
vt 0.408053 0.831846
vt 0.396397 0.831846
vt 0.396397 0.747535
vt 0.408053 0.747535
vt 0.408632 0.747535
vt 0.408632 0.831846
vt 0.393348 0.831846
vt 0.393348 0.747535
vt 0.416193 0.831846
vt 0.416193 0.747535
vt 0.421249 0.831846
vt 0.418201 0.831846
vt 0.418201 0.747535
vt 0.421249 0.747535
vt 0.433484 0.747535
vt 0.433484 0.831846
vt 0.441046 0.747535
vt 0.441046 0.831846
vt 0.444228 0.831846
vt 0.443053 0.831846
vt 0.443053 0.747535
vt 0.444228 0.747535
vt 0.456463 0.831846
vt 0.456463 0.747535
vt 0.464024 0.831846
vt 0.464024 0.747535
vt 0.265777 0.764986
vt 0.265777 0.849297
vt 0.263070 0.849297
vt 0.260408 0.764986
vt 0.278012 0.764986
vt 0.278012 0.849297
vt 0.285574 0.764986
vt 0.285574 0.849297
vt 0.306929 0.866947
vt 0.306929 0.794627
vt 0.391240 0.794627
vt 0.391240 0.866947
vt 0.391240 0.747535
vt 0.306929 0.747535
vt 0.466212 0.747535
vt 0.478296 0.747535
vt 0.478296 0.831846
vt 0.466212 0.831846
vt 0.242458 0.766804
vt 0.243512 0.766804
vt 0.255322 0.766804
vt 0.255322 0.851115
vt 0.243512 0.851115
vt 0.242458 0.851115
vt 0.287351 0.764986
vt 0.300216 0.764986
vt 0.300216 0.849297
vt 0.287351 0.849297
vt 0.735521 0.153365
vt 0.733469 0.369732
vt 0.648156 0.372108
vt 0.644504 0.149616
vt 0.541933 0.370198
vt 0.542499 0.151452
vt 0.085613 0.370071
vt 0.087881 0.153705
vt 0.190967 0.154786
vt 0.188699 0.371151
vt 0.051020 0.153319
vt 0.048752 0.369684
vt 0.057952 0.606823
vt 0.056433 0.754952
vt 0.050802 0.754952
vt 0.050802 0.606823
vt 0.025565 0.754952
vt 0.025565 0.606823
vt 0.088648 0.135769
vt 0.089003 0.047267
vt 0.097229 0.047224
vt 0.094944 0.054161
vt 0.105021 0.085602
vt 0.131653 0.105115
vt 0.164669 0.105248
vt 0.191457 0.085949
vt 0.191946 0.084466
vt 0.191693 0.147472
vt 0.052112 0.053977
vt 0.051860 0.117002
vt 0.201785 0.054589
vt 0.199275 0.046756
vt 0.384868 0.049064
vt 0.384464 0.149808
vt 0.505771 0.038095
vt 0.503198 0.045907
vt 0.513275 0.077348
vt 0.539907 0.096861
vt 0.542614 0.096872
vt 0.572923 0.096994
vt 0.599711 0.077694
vt 0.610040 0.046335
vt 0.609072 0.043319
vt 0.640078 0.045695
vt 0.383169 0.473089
vt 0.383573 0.372345
vt 0.541302 0.424256
vt 0.538596 0.424245
vt 0.511807 0.443544
vt 0.501479 0.474903
vt 0.503990 0.482736
vt 0.190530 0.437707
vt 0.190783 0.374701
vt 0.197557 0.475474
vt 0.200130 0.467661
vt 0.638353 0.476212
vt 0.607330 0.478340
vt 0.608320 0.475331
vt 0.598244 0.443891
vt 0.571611 0.424377
vt 0.087262 0.481657
vt 0.087647 0.385577
vt 0.190054 0.436220
vt 0.163421 0.416707
vt 0.130405 0.416575
vt 0.103617 0.435874
vt 0.093289 0.467233
vt 0.097710 0.481028
vt 0.050709 0.404049
vt 0.050426 0.474652
vn 0.000000 -0.309011 0.951058
vn 0.000000 -0.309011 0.951058
vn 0.000000 -0.309011 0.951058
vn 0.000000 -0.309011 0.951058
vn 0.000000 -0.309011 0.951058
vn 0.000000 -0.309011 0.951058
vn 0.319636 0.677624 0.662312
vn 0.319636 0.677624 0.662312
vn 0.319636 0.677624 0.662312
vn 0.319636 0.677624 0.662312
vn -0.964146 0.028916 -0.263791
vn -0.964146 0.028916 -0.263791
vn -0.964146 0.028916 -0.263791
vn -0.964146 0.028916 -0.263791
vn -0.910253 0.414052 -0.000000
vn -0.910253 0.414052 -0.000000
vn -0.910253 0.414052 -0.000000
vn -0.910253 0.414052 -0.000000
vn 0.000000 -1.000000 0.000000
vn 0.000000 -1.000000 0.000000
vn 0.000000 -1.000000 0.000000
vn 0.000000 -1.000000 0.000000
vn 0.000000 0.967183 0.254081
vn 0.000000 0.967183 0.254081
vn 0.000000 0.967183 0.254081
vn 0.000000 0.967183 0.254081
vn -0.919207 0.287076 0.269530
vn -0.919207 0.287076 0.269530
vn -0.919207 0.287076 0.269530
vn -0.919207 0.287076 0.269530
vn -0.850361 0.313138 -0.422884
vn -0.850361 0.313138 -0.422884
vn -0.850361 0.313138 -0.422884
vn -0.850361 0.313138 -0.422884
vn -0.710560 0.701951 0.048670
vn -0.710560 0.701951 0.048670
vn -0.710560 0.701951 0.048670
vn -0.710560 0.701951 0.048670
vn -0.947787 -0.318038 -0.023499
vn -0.947787 -0.318038 -0.023499
vn -0.947787 -0.318038 -0.023499
vn -0.947787 -0.318038 -0.023499
vn -0.319632 0.677626 0.662312
vn -0.319632 0.677626 0.662312
vn -0.319632 0.677626 0.662312
vn -0.319632 0.677626 0.662312
vn 0.964144 0.028899 -0.263803
vn 0.964144 0.028899 -0.263803
vn 0.964144 0.028899 -0.263803
vn 0.964144 0.028899 -0.263803
vn -0.846070 -0.532491 0.024868
vn -0.846070 -0.532491 0.024868
vn -0.846070 -0.532491 0.024868
vn -0.846070 -0.532491 0.024868
vn -0.829768 -0.003516 0.558097
vn -0.829768 -0.003516 0.558097
vn -0.829768 -0.003516 0.558097
vn -0.829768 -0.003516 0.558097
vn 0.421720 0.335518 -0.842366
vn 0.421720 0.335518 -0.842366
vn 0.421720 0.335518 -0.842366
vn 0.421720 0.335518 -0.842366
vn 0.947775 -0.318071 -0.023502
vn 0.947775 -0.318071 -0.023502
vn 0.947775 -0.318071 -0.023502
vn 0.947775 -0.318071 -0.023502
vn 0.000000 -1.000000 0.000000
vn 0.000000 -1.000000 0.000000
vn 1.000000 0.000000 0.000000
vn 1.000000 0.000000 0.000000
vn 1.000000 0.000000 0.000000
vn 1.000000 0.000000 0.000000
vn 1.000000 0.000000 0.000000
vn 1.000000 0.000000 0.000000
vn 1.000000 0.000000 0.000000
vn 1.000000 0.000000 0.000000
vn 1.000000 0.000000 0.000000
vn 1.000000 0.000000 0.000000
vn 0.919204 0.287073 0.269543
vn 0.919204 0.287073 0.269543
vn 0.919204 0.287073 0.269543
vn 0.919204 0.287073 0.269543
vn 0.850360 0.313138 -0.422885
vn 0.850360 0.313138 -0.422885
vn 0.850360 0.313137 -0.422885
vn 0.850360 0.313138 -0.422885
vn 0.710579 0.701933 0.048669
vn 0.710579 0.701932 0.048669
vn 0.710579 0.701933 0.048669
vn 0.710579 0.701932 0.048669
vn 0.000000 0.000000 0.000000
vn 0.000000 0.000000 0.000000
vn 0.000000 0.000000 0.000000
vn 0.000000 0.000000 0.000000
vn 0.000000 0.306694 0.951808
vn 0.000000 0.306694 0.951808
vn 0.000000 0.306694 0.951808
vn 0.000000 0.306694 0.951808
vn 0.000000 0.000000 0.000000
vn 0.000000 0.000000 0.000000
vn 0.000000 0.000000 0.000000
vn 0.000000 0.000000 0.000000
vn 0.846052 -0.532520 0.024870
vn 0.846052 -0.532520 0.024870
vn 0.846052 -0.532520 0.024870
vn 0.846052 -0.532520 0.024870
vn 0.910253 0.414052 0.000000
vn 0.910253 0.414052 0.000000
vn 0.910253 0.414052 0.000000
vn 0.910253 0.414052 0.000000
vn 0.000000 0.309021 -0.951055
vn 0.000000 0.309021 -0.951055
vn 0.000000 0.309021 -0.951055
vn 0.000000 0.309021 -0.951055
vn 0.000000 -0.309017 -0.951056
vn 0.000000 -0.309017 -0.951056
vn 0.000000 -0.309017 -0.951056
vn 0.000000 -0.309017 -0.951056
vn 0.000000 0.997598 0.069273
vn 0.000000 0.997598 0.069273
vn 0.000000 1.000000 0.000000
vn 0.000000 1.000000 0.000000
vn 0.829768 -0.003516 0.558097
vn 0.829768 -0.003516 0.558097
vn 0.829768 -0.003516 0.558097
vn 0.829768 -0.003516 0.558097
vn -0.421712 0.335524 -0.842367
vn -0.421712 0.335524 -0.842367
vn -0.421712 0.335524 -0.842367
vn -0.421712 0.335524 -0.842367
vn 0.000000 -0.809017 -0.587785
vn 0.000000 -0.809017 -0.587785
vn 0.000000 -0.809017 -0.587785
vn 0.000000 -0.809017 -0.587785
vn 1.000000 0.000000 0.000000
vn 1.000000 0.000000 0.000000
vn 1.000000 0.000000 0.000000
vn 1.000000 0.000000 0.000000
vn 0.000000 0.000000 0.000000
vn 0.000000 0.000000 0.000000
vn 0.000000 0.000000 0.000000
vn 0.000000 0.000000 0.000000
vn 0.000000 0.309027 0.951053
vn 0.000000 0.309027 0.951053
vn 0.000000 0.309027 0.951053
vn 0.000000 0.309027 0.951053
vn 0.000000 0.000000 0.000000
vn 0.000000 0.000000 0.000000
vn 0.000000 0.000000 0.000000
vn 0.000000 0.000000 0.000000
vn 0.000000 -0.309014 0.951057
vn 0.000000 -0.309014 0.951057
vn 0.000000 -0.309014 0.951057
vn 0.000000 -0.309014 0.951057
vn 0.000000 -0.997374 -0.072422
vn 0.000000 -0.997374 -0.072422
vn 0.000000 -0.997374 -0.072422
vn 0.000000 -0.997374 -0.072422
vn 0.000000 0.999004 -0.044615
vn 0.000000 0.999004 -0.044615
vn 0.000000 -0.809019 0.587782
vn 0.000000 -0.809019 0.587782
vn 0.000000 -0.809019 0.587782
vn 0.000000 -0.809019 0.587782
vn 0.000000 0.876948 -0.480585
vn 0.000000 0.876948 -0.480585
vn 0.000000 0.876948 -0.480585
vn 0.000000 0.876948 -0.480585
vn 0.000000 -0.024953 -0.999689
vn 0.000000 -0.024953 -0.999689
vn 0.000000 -0.024953 -0.999689
vn 0.000000 -0.024953 -0.999689
vn 0.000000 0.000000 -1.000000
vn 0.000000 0.000000 -1.000000
vn 0.000000 0.000000 -1.000000
vn 0.000000 0.000000 -1.000000
vn 0.000000 0.994889 -0.100975
vn 0.000000 0.994889 -0.100975
vn 0.000000 0.994889 -0.100975
vn 0.000000 0.994889 -0.100975
vn -1.000000 0.000000 -0.000000
vn -1.000000 0.000000 -0.000000
vn -1.000000 0.000000 0.000000
vn -1.000000 0.000000 0.000000
vn -1.000000 0.000000 -0.000000
vn -1.000000 0.000000 -0.000000
vn -1.000000 0.000000 -0.000000
vn -1.000000 0.000000 -0.000000
vn -0.000000 -1.000000 0.000000
vn -0.000000 -1.000000 0.000000
vn -0.000000 -1.000000 0.000000
vn -0.000000 -1.000000 0.000000
vn -0.000000 -1.000000 0.000000
vn -0.000000 -1.000000 0.000000
vn -1.000000 0.000000 0.000000
vn -1.000000 0.000000 0.000000
vn -1.000000 0.000000 0.000000
vn -1.000000 0.000000 0.000000
vn -1.000000 0.000000 0.000000
vn -1.000000 0.000000 0.000000
vn 1.000000 0.000000 -0.000000
vn 1.000000 0.000000 -0.000000
vn 1.000000 0.000000 -0.000000
vn 1.000000 0.000000 -0.000000
vn 1.000000 0.000000 -0.000000
vn 1.000000 0.000000 -0.000000
vn 1.000000 0.000000 -0.000000
vn 1.000000 0.000000 -0.000000
vn 1.000000 0.000000 -0.000000
vn 1.000000 0.000000 -0.000000
vn 1.000000 0.000000 -0.000000
vn 1.000000 0.000000 -0.000000
vn 0.000000 0.977919 0.208986
vn 0.000000 0.977919 0.208986
vn 0.000000 0.994057 0.108865
vn 0.000000 0.994057 0.108865
vn 0.000000 -0.809020 0.587781
vn 0.000000 -0.809020 0.587781
vn 0.000000 -0.809020 0.587781
vn 0.000000 -0.809020 0.587781
vn 1.000000 0.000000 0.000000
vn 1.000000 0.000000 0.000000
vn 0.000000 -1.000000 0.000000
vn 0.000000 -1.000000 0.000000
vn 0.000000 -1.000000 0.000000
vn 0.000000 -1.000000 0.000000
vn 0.000000 0.309021 0.951055
vn 0.000000 0.309021 0.951055
vn 0.000000 0.309021 0.951055
vn 0.000000 0.309021 0.951055
vn -0.000000 0.309015 -0.951057
vn -0.000000 0.309015 -0.951057
vn -0.000000 0.309015 -0.951057
vn -0.000000 0.309015 -0.951057
vn 0.033423 -0.998934 -0.031848
vn 0.033423 -0.998934 -0.031848
vn 0.034341 -0.989464 0.140645
vn 0.034341 -0.989498 0.140409
vn 0.034411 -0.982552 0.182779
vn 0.034411 -0.982552 0.182779
vn 0.000000 -0.809018 -0.587784
vn 0.000000 -0.809018 -0.587784
vn 0.000000 -0.809018 -0.587784
vn 0.000000 -0.809018 -0.587784
vn 0.000000 0.892608 0.450834
vn 0.000000 0.892608 0.450834
vn 0.000000 -0.309017 -0.951056
vn 0.000000 -0.309017 -0.951056
vn 0.000000 -0.309017 -0.951056
vn 0.000000 -0.309017 -0.951056
vn -1.000000 0.000000 -0.000000
vn -1.000000 0.000000 -0.000000
vn -1.000000 0.000000 -0.000000
vn -1.000000 0.000000 -0.000000
vn 0.000000 0.000000 1.000000
vn 0.000000 0.000000 1.000000
vn 0.000000 0.000000 1.000000
vn 0.000000 0.000000 1.000000
vn -1.000000 0.000000 -0.000000
vn -1.000000 0.000000 0.000000
vn -1.000000 0.000000 0.000000
vn -1.000000 0.000000 -0.000000
vn -1.000000 0.000000 0.000000
vn -1.000000 0.000000 0.000000
vn -1.000000 0.000000 0.000000
vn -1.000000 0.000000 0.000000
vn -1.000000 0.000000 0.000000
vn -1.000000 0.000000 0.000000
vn 0.938466 0.345288 0.007607
vn 0.938466 0.345288 0.007607
vn 0.938466 0.345288 0.007607
vn 0.938466 0.345288 0.007607
vn 0.937958 0.346689 0.006485
vn 0.937958 0.346689 0.006485
vn 0.937958 0.346689 0.006485
vn 0.937958 0.346689 0.006485
vn 0.000000 0.763881 0.645357
vn 0.000000 0.763881 0.645357
vn 0.000000 0.763881 0.645357
vn 0.000000 0.763881 0.645357
vn -0.938466 0.345288 0.007607
vn -0.938466 0.345288 0.007607
vn -0.938466 0.345288 0.007607
vn -0.938466 0.345288 0.007607
vn -0.937958 0.346687 0.006485
vn -0.937958 0.346687 0.006485
vn -0.937958 0.346687 0.006485
vn -0.937958 0.346687 0.006485
vn 0.000000 0.514320 -0.857599
vn 0.000000 0.514320 -0.857599
vn 0.000000 0.514320 -0.857599
vn 0.000000 0.514320 -0.857599
s off
g Car
usemtl lambert75SG
f 1/89/1 83/90/2 2/91/3 3/92/4 4/93/5 80/94/6
f 7/38/7 5/41/8 6/42/9 17/39/10
f 8/59/11 5/60/12 7/61/13 18/62/14
f 9/63/15 5/60/16 8/59/17 10/64/18
s 1
f 11/123/19 12/124/20 13/125/21 14/126/22
s off
f 5/45/23 15/46/24 16/47/25 6/48/26
f 19/66/27 9/63/28 10/64/29 22/65/30
f 20/67/31 9/63/32 19/66/33 27/68/34
f 21/69/35 9/63/36 20/67/37 28/70/38
f 22/65/39 18/62/40 7/61/41 19/66/42
f 16/43/43 15/44/44 23/37/45 29/40/46
f 26/73/47 24/74/48 25/75/49 30/76/50
f 27/68/51 19/66/52 31/71/53 33/72/54
f 31/71/55 21/69/56 28/70/57 33/72/58
f 32/29/59 21/30/60 31/31/61 34/32/62
f 26/73/63 30/76/64 35/79/65 46/80/66
s 1
f 36/127/67 13/125/21 12/124/20 37/128/68
s 2
f 38/161/69 39/162/70 40/163/71 41/164/72 42/165/73 43/166/74 44/167/75 4/168/76 3/169/77 15/170/78
s off
f 47/78/79 45/77/80 46/80/81 35/79/82
f 50/81/83 48/82/84 49/83/85 51/84/86
f 49/83/87 48/82/88 52/85/89 56/86/90
f 23//91 15//92 24//93 26//94
f 23/37/95 7/38/96 17/39/97 29/40/98
f 15//99 48//100 45//101 24//102
f 53/87/103 50/81/104 51/84/105 57/88/106
f 24/74/107 45/77/108 47/78/109 25/75/110
f 54/99/111 36/100/112 37/101/113 55/102/114
f 55/102/115 58/103/116 59/104/117 54/99/118
s 3
f 7/49/119 23/50/120 50/51/121 19/52/122
s off
f 53/87/123 57/88/124 56/86/125 52/85/126
f 60/35/127 61/34/128 53/33/129 52/36/130
f 58/103/131 62/105/132 63/106/133 59/104/134
s 2
f 15/170/78 3/169/77 2/173/135 14/174/136 13/175/137 48/176/138
s off
f 50//139 23//140 26//141 46//142
f 64/107/143 65/108/144 66/109/145 67/110/146
f 48//147 50//148 46//149 45//150
f 68/111/151 64/107/152 67/110/153 69/112/154
f 65/129/155 70/130/156 71/131/157 66/132/158
s 3
f 19/52/122 50/51/121 53/53/159 31/54/160
s off
f 72/113/161 68/111/162 69/112/163 73/114/164
f 52/55/165 21/56/166 32/57/167 60/58/168
f 31/31/169 53/33/170 61/34/171 34/32/172
f 71/143/173 70/144/174 74/145/175 75/146/176
f 21/147/177 52/148/178 75/146/179 74/145/180
s 4
f 12/187/181 9/188/182 21/147/183 76/189/184 62/190/185 58/191/186 55/192/187 37/193/188
s off
f 62/133/189 76/134/190 72/135/191 73/136/192 77/137/193 63/138/194
s 4
f 76/189/184 21/147/183 74/145/195 70/198/196 65/199/197 64/200/198 68/201/199 72/202/200
s 2
f 48/176/138 13/175/137 36/177/201 54/178/202 59/179/203 63/180/204 77/181/205 52/148/206
f 52/148/206 77/181/205 73/182/207 69/183/208 67/184/209 66/185/210 71/186/211 75/146/212
s 5
f 78/149/213 38/150/214 15/151/215 5/152/216
s off
f 79/97/217 80/94/218 4/93/219 44/98/220
s 2
f 81/171/221 39/162/70 38/161/69 82/172/222
s off
f 84/139/223 79/140/224 44/141/225 43/142/226
f 83/90/227 11/95/228 14/96/229 2/91/230
f 85/115/231 41/116/232 40/117/233 86/118/234
s 6
f 86/155/235 40/156/236 39/157/237 90/158/238
f 39/157/237 81/159/239 87/160/240 90/158/238
s off
f 88/119/241 84/121/242 43/122/243 42/120/244
s 5
f 82/153/245 38/150/214 78/149/213 89/154/246
s off
f 85/115/247 88/119/248 42/120/249 41/116/250
s 4
f 1/194/251 5/195/252 9/188/182 12/187/181 11/196/253 83/197/254
s off
f 87/1/255 81/2/256 82/3/257 89/4/258
s 4
f 89/211/259 78/204/260 90/203/261 87/212/262
f 90/203/261 78/204/260 5/195/252 1/194/251 80/205/263 79/206/264 84/207/265 88/208/266 85/209/267 86/210/268
s off
f 30/5/269 25/6/270 47/7/271 35/8/272
f 51/9/273 49/10/274 56/11/275 57/12/276
f 6/21/277 16/22/278 29/23/279 17/24/280
f 10/13/281 8/14/282 18/15/283 22/16/284
f 20/17/285 27/18/286 33/19/287 28/20/288
f 32/25/289 34/26/290 61/27/291 60/28/292
