# This file uses centimeters as units for non-parametric coordinates.

mtllib ClosetGarage.mtl
g default
v -1472.944376 33.911764 718.365985
v -1556.458411 33.911764 718.365985
v -1472.944376 279.024899 718.365985
v -1556.458411 279.024899 718.365985
v -1472.944376 279.024899 855.909593
v -1556.458411 279.024899 855.909593
v -1472.944376 33.911764 855.909593
v -1556.458411 33.911764 855.909593
v -1548.107005 33.911764 855.909593
v -1548.107005 33.911764 718.365985
v -1481.401929 33.911764 855.909593
v -1481.401929 33.911764 718.365985
v -1556.458411 33.911764 727.142526
v -1548.107005 33.911764 727.243004
v -1481.401929 33.911764 728.044095
v -1472.944376 33.911764 728.145753
v -1556.458411 33.911764 846.423731
v -1548.107005 33.911764 846.390205
v -1481.401929 33.911764 846.122472
v -1472.944376 33.911764 846.088519
v -1472.944376 21.049203 855.909593
v -1481.401929 21.049203 855.909593
v -1481.401929 21.049203 846.122447
v -1472.944376 21.049203 846.088519
v -1556.458411 21.049203 846.423731
v -1548.107005 21.049203 846.390205
v -1548.107005 21.049203 855.909593
v -1556.458411 21.049203 855.909593
v -1548.107005 21.049203 727.242954
v -1548.107005 21.049203 718.365985
v -1556.458411 21.049203 727.142526
v -1556.458411 21.049203 718.365985
v -1481.401929 21.049203 728.044095
v -1472.944376 21.049203 728.145753
v -1481.401929 21.049203 718.365985
v -1472.944376 21.049203 718.365985
v -1472.944376 39.041199 850.695262
v -1472.944376 39.041199 841.442253
v -1472.944376 39.041199 732.794453
v -1472.944376 39.041199 723.580265
v -1472.944376 273.895388 723.580265
v -1472.944376 273.895388 850.695262
v -1468.817653 39.041199 850.695237
v -1468.817653 39.041199 841.442253
v -1468.817653 39.041199 732.794453
v -1468.817653 39.041199 723.580315
v -1468.817653 273.895388 723.580315
v -1468.817653 273.895388 850.695237
v -1468.817640 273.895388 786.325230
v -1468.817640 39.041199 786.305807
v -1472.944376 273.895388 786.325230
v -1472.944376 39.041199 786.305807
v -1472.944376 273.895388 783.896687
v -1468.817640 273.895388 783.896687
v -1468.817640 39.041199 784.800615
v -1472.944376 39.041199 784.800615
v -1466.240200 149.257391 776.662729
v -1501.777875 149.257391 776.662729
v -1466.240200 180.673312 776.662729
v -1501.777875 180.673312 776.662729
v -1466.240200 180.673312 779.120381
v -1501.777875 180.673312 779.120381
v -1466.240200 149.257391 779.120381
v -1501.777875 149.257391 779.120381
v -1466.240200 149.257391 791.665258
v -1501.777875 149.257391 791.665258
v -1466.240200 180.673312 791.665258
v -1501.777875 180.673312 791.665258
v -1466.240200 180.673312 794.122911
v -1501.777875 180.673312 794.122911
v -1466.240200 149.257391 794.122911
v -1501.777875 149.257391 794.122911
vt 0.782729 0.831206
vt 0.784944 0.831206
vt 0.784944 0.962486
vt 0.782729 0.962486
vt 0.780081 0.831206
vt 0.782296 0.831206
vt 0.782296 0.962486
vt 0.780081 0.962486
vt 0.806141 0.829898
vt 0.806141 0.681394
vt 0.808357 0.681394
vt 0.808357 0.829898
vt 0.837690 0.829898
vt 0.837690 0.681394
vt 0.839905 0.681394
vt 0.839905 0.829898
vt 0.816776 0.979710
vt 0.816776 0.831206
vt 0.818991 0.831206
vt 0.818991 0.979710
vt 0.785378 0.979710
vt 0.785378 0.831206
vt 0.787593 0.831206
vt 0.787593 0.979710
vt 0.777335 0.829898
vt 0.777335 0.681394
vt 0.805650 0.681394
vt 0.805650 0.829898
vt 0.808897 0.829898
vt 0.808897 0.681394
vt 0.837212 0.681394
vt 0.837212 0.829898
vt 0.819425 0.979710
vt 0.819425 0.831206
vt 0.847740 0.831206
vt 0.847740 0.979710
vt 0.788027 0.979710
vt 0.788027 0.831206
vt 0.816342 0.831206
vt 0.816342 0.979710
vt 0.638043 0.597254
vt 0.636271 0.136910
vt 0.738210 0.136910
vt 0.756270 0.136910
vt 0.756270 0.597254
vt 0.781630 0.136910
vt 0.799767 0.136910
vt 0.907841 0.136910
vt 0.907803 0.597254
vt 0.781630 0.597254
vt 0.963027 0.136910
vt 0.963027 0.244984
vt 0.954938 0.244984
vt 0.954938 0.136910
vt 0.951983 0.136910
vt 0.951983 0.255138
vt 0.943894 0.255138
vt 0.943894 0.136910
vt 0.932850 0.136910
vt 0.940939 0.136910
vt 0.940939 0.263083
vt 0.932850 0.263083
vt 0.965983 0.136910
vt 0.974072 0.136910
vt 0.974072 0.238849
vt 0.965983 0.238849
vt 0.767630 0.136910
vt 0.767630 0.597254
vt 0.759541 0.597254
vt 0.759541 0.136910
vt 0.778674 0.136910
vt 0.778674 0.597254
vt 0.770585 0.597254
vt 0.770585 0.136910
vt 0.910762 0.597254
vt 0.910762 0.136910
vt 0.918851 0.136910
vt 0.918851 0.597254
vt 0.921806 0.597254
vt 0.921806 0.136910
vt 0.929895 0.136910
vt 0.929895 0.597254
vt 0.349305 0.097783
vt 0.363000 0.097783
vt 0.549126 0.097783
vt 0.563928 0.097783
vt 0.563928 0.480257
vt 0.349305 0.480257
vt 0.349305 0.077713
vt 0.363000 0.077713
vt 0.549126 0.077713
vt 0.563928 0.077713
vt 0.259083 0.503071
vt 0.243811 0.503071
vt 0.243811 0.483000
vt 0.259083 0.483000
vt 0.071746 0.575297
vt 0.056422 0.575297
vt 0.056422 0.555227
vt 0.071746 0.555227
vt 0.078996 0.583301
vt 0.064558 0.583301
vt 0.255784 0.575297
vt 0.248530 0.583301
vt 0.167380 0.583301
vt 0.165031 0.583301
vt 0.056422 0.957772
vt 0.064558 0.949767
vt 0.271045 0.575297
vt 0.262908 0.583301
vt 0.165001 0.949767
vt 0.168791 0.949767
vt 0.271045 0.957772
vt 0.262908 0.949767
vt 0.255784 0.555227
vt 0.271045 0.555227
vt 0.204934 0.503071
vt 0.190080 0.503071
vt 0.190080 0.483000
vt 0.204934 0.483000
vt 0.185864 0.503071
vt 0.172012 0.503071
vt 0.172012 0.483000
vt 0.185864 0.483000
vt 0.133135 0.503071
vt 0.118033 0.503071
vt 0.118033 0.483000
vt 0.133135 0.483000
vt 0.271350 0.483000
vt 0.275185 0.483000
vt 0.275185 0.532022
vt 0.271350 0.532022
vt 0.263299 0.483000
vt 0.267134 0.483000
vt 0.267134 0.532022
vt 0.263299 0.532022
vt 0.413933 0.483000
vt 0.544248 0.483000
vt 0.544248 0.697623
vt 0.413933 0.697623
vt 0.100620 0.483000
vt 0.113817 0.483000
vt 0.113817 0.498272
vt 0.100620 0.498325
vt 0.091662 0.515805
vt 0.078631 0.515858
vt 0.078631 0.501004
vt 0.091662 0.501004
vt 0.396685 0.497854
vt 0.292598 0.498272
vt 0.292598 0.483000
vt 0.396685 0.483000
vt 0.396685 0.683771
vt 0.292598 0.682521
vt 0.292598 0.697623
vt 0.396685 0.697623
vt 0.279401 0.498325
vt 0.279401 0.682363
vt 0.409716 0.683928
vt 0.409716 0.497802
vt 0.117605 0.519666
vt 0.117605 0.505814
vt 0.130636 0.505971
vt 0.130636 0.519666
vt 0.083207 0.483000
vt 0.096404 0.483159
vt 0.096404 0.498261
vt 0.083207 0.498261
vt 0.102615 0.501068
vt 0.102615 0.515506
vt 0.096176 0.515506
vt 0.096176 0.501068
vt 0.113330 0.501068
vt 0.113330 0.515446
vt 0.106890 0.515446
vt 0.106890 0.501068
vt 0.078631 0.097783
vt 0.091828 0.097783
vt 0.195915 0.097783
vt 0.208946 0.097783
vt 0.208946 0.480257
vt 0.078631 0.480257
vt 0.078631 0.077713
vt 0.091828 0.077713
vt 0.195915 0.077713
vt 0.208946 0.077713
vt 0.214035 0.077713
vt 0.344350 0.077713
vt 0.344350 0.460187
vt 0.331319 0.460187
vt 0.227232 0.460187
vt 0.214035 0.460187
vt 0.344350 0.480257
vt 0.331319 0.480257
vt 0.227232 0.480257
vt 0.214035 0.480257
vt 0.239595 0.503071
vt 0.226398 0.503071
vt 0.226398 0.483000
vt 0.239595 0.483000
vt 0.222182 0.503071
vt 0.209150 0.503071
vt 0.209150 0.483000
vt 0.222182 0.483000
vt 0.154764 0.483000
vt 0.167796 0.483000
vt 0.167796 0.503071
vt 0.154764 0.503071
vt 0.137351 0.483000
vt 0.150548 0.483000
vt 0.150548 0.503071
vt 0.137351 0.503071
vn 0.000000 0.000000 -1.000000
vn 0.000000 0.000000 -1.000000
vn 0.000000 0.000000 -1.000000
vn 0.000000 0.000000 -1.000000
vn 0.000000 0.000000 -1.000000
vn 0.000000 0.000000 -1.000000
vn 0.000000 1.000000 -0.000000
vn 0.000000 1.000000 -0.000000
vn 0.000000 1.000000 -0.000000
vn 0.000000 1.000000 -0.000000
vn -0.000000 0.000000 1.000000
vn -0.000000 0.000000 1.000000
vn -0.000000 0.000000 1.000000
vn -0.000000 0.000000 1.000000
vn -0.000000 0.000000 1.000000
vn -0.000000 0.000000 1.000000
vn 0.000000 -1.000000 0.000000
vn 0.000000 -1.000000 0.000000
vn 0.000000 -1.000000 0.000000
vn 0.000000 -1.000000 0.000000
vn -1.000000 0.000000 -0.000000
vn -1.000000 0.000000 -0.000000
vn -1.000000 0.000000 -0.000000
vn -1.000000 0.000000 -0.000000
vn -1.000000 0.000000 -0.000000
vn -1.000000 0.000000 -0.000000
vn 1.000000 0.000000 -0.000000
vn 1.000000 0.000000 -0.000000
vn 1.000000 0.000000 -0.000000
vn 1.000000 0.000000 -0.000000
vn 1.000000 0.000000 -0.000000
vn 0.000000 -1.000000 0.000000
vn 0.000000 -1.000000 0.000000
vn 0.000000 -1.000000 0.000000
vn 0.000000 -1.000000 0.000000
vn 0.000000 -1.000000 0.000000
vn 0.000000 -1.000000 0.000000
vn 0.000000 -1.000000 0.000000
vn 0.000000 -1.000000 0.000000
vn 0.000000 -1.000000 0.000000
vn 0.000000 -1.000000 0.000000
vn 0.000000 -1.000000 0.000000
vn 0.000000 -1.000000 0.000000
vn 0.000000 -1.000000 0.000000
vn 0.000000 -1.000000 0.000000
vn 0.000000 -1.000000 0.000000
vn 0.000000 -1.000000 0.000000
vn 0.000000 -1.000000 0.000000
vn 0.000000 -1.000000 0.000000
vn 0.000000 -1.000000 0.000000
vn 0.000000 -1.000000 0.000000
vn 0.000000 -1.000000 0.000000
vn 0.000000 -1.000000 0.000000
vn 0.000000 -1.000000 0.000000
vn 0.000000 -1.000000 0.000000
vn -0.000000 0.000000 1.000000
vn -0.000000 0.000000 1.000000
vn -1.000000 0.000000 -0.000000
vn -1.000000 0.000000 -0.000000
vn -1.000000 0.000000 -0.000000
vn -1.000000 0.000000 -0.000000
vn -0.004015 0.000001 -0.999992
vn -0.004015 0.000001 -0.999992
vn -0.004015 0.000001 -0.999992
vn -0.004015 0.000001 -0.999992
vn 1.000000 0.000000 0.000000
vn 1.000000 0.000000 0.000000
vn 1.000000 0.000000 0.000000
vn 1.000000 0.000000 0.000000
vn -0.004014 0.000000 -0.999992
vn -0.004014 0.000000 -0.999992
vn -0.004014 0.000000 -0.999992
vn -0.004014 0.000000 -0.999992
vn 1.000000 0.000000 0.000000
vn 1.000000 0.000000 0.000000
vn 1.000000 0.000000 0.000000
vn 1.000000 0.000000 0.000000
vn -0.000000 0.000000 1.000000
vn -0.000000 0.000000 1.000000
vn -1.000000 0.000000 -0.000000
vn -1.000000 0.000000 -0.000000
vn 1.000000 0.000000 0.000000
vn 1.000000 0.000000 0.000000
vn 1.000000 0.000000 0.000000
vn 1.000000 0.000000 0.000000
vn -0.012026 -0.000002 0.999928
vn -0.012026 -0.000002 0.999928
vn -0.012026 -0.000002 0.999928
vn -0.012026 -0.000002 0.999928
vn -1.000000 0.000000 -0.000000
vn -1.000000 0.000000 -0.000000
vn 0.000000 0.000000 -1.000000
vn 0.000000 0.000000 -1.000000
vn -0.012018 0.000000 0.999928
vn -0.012018 0.000000 0.999928
vn -0.012018 0.000000 0.999928
vn -0.012018 0.000000 0.999928
vn -1.000000 0.000000 -0.000000
vn -1.000000 0.000000 -0.000000
vn -1.000000 0.000000 -0.000000
vn -1.000000 0.000000 -0.000000
vn 0.000000 0.000000 -1.000000
vn 0.000000 0.000000 -1.000000
vn 1.000000 0.000000 0.000000
vn 1.000000 0.000000 0.000000
vn 1.000000 0.000000 0.000000
vn 1.000000 0.000000 0.000000
vn 1.000000 0.000001 0.000000
vn 1.000000 0.000001 0.000000
vn 1.000000 0.000001 0.000000
vn 1.000000 0.000001 0.000000
vn 1.000000 -0.000001 0.000000
vn 1.000000 -0.000001 0.000000
vn 1.000000 -0.000001 0.000000
vn 1.000000 -0.000001 0.000000
vn 1.000000 -0.000001 0.000000
vn 1.000000 -0.000001 0.000000
vn 1.000000 0.000000 0.000000
vn 1.000000 0.000000 0.000000
vn 1.000000 0.000000 0.000000
vn 1.000000 0.000000 0.000000
vn 1.000000 0.000000 0.000000
vn 1.000000 0.000000 0.000000
vn 1.000000 0.000000 0.000000
vn 1.000000 0.000000 0.000000
vn 1.000000 -0.000001 0.000000
vn 1.000000 -0.000001 0.000000
vn 1.000000 -0.000001 0.000000
vn 1.000000 -0.000001 0.000000
vn 1.000000 -0.000001 0.000000
vn 1.000000 -0.000001 0.000000
vn 1.000000 0.000000 0.000000
vn 1.000000 0.000000 0.000000
vn 1.000000 0.000000 0.000000
vn 1.000000 0.000000 0.000000
vn 0.000000 -1.000000 0.000000
vn 0.000000 -1.000000 0.000000
vn 0.000000 -1.000000 0.000000
vn 0.000000 -1.000000 0.000000
vn 0.000000 -1.000000 0.000000
vn 0.000000 -1.000000 0.000000
vn -0.000000 -1.000000 0.000000
vn 0.000000 -1.000000 0.000000
vn 0.000000 -1.000000 0.000000
vn -0.000000 -1.000000 0.000000
vn 0.000011 0.000000 -1.000000
vn 0.000011 0.000000 -1.000000
vn 0.000011 0.000000 -1.000000
vn 0.000011 0.000000 -1.000000
vn 0.000000 1.000000 -0.000000
vn 0.000000 1.000000 -0.000000
vn 0.000000 1.000000 -0.000000
vn 0.000000 1.000000 -0.000000
vn 0.000005 0.000000 1.000000
vn 0.000005 0.000000 1.000000
vn 0.000005 0.000000 1.000000
vn 0.000005 0.000000 1.000000
vn 1.000000 0.000000 0.000000
vn 1.000000 0.000000 0.000000
vn 1.000000 0.000000 0.000000
vn 1.000000 0.000000 0.000000
vn 1.000000 0.000000 0.000000
vn 0.000000 1.000000 -0.000000
vn 0.000000 1.000000 -0.000000
vn 0.000000 1.000000 -0.000000
vn 0.000000 1.000000 -0.000000
vn -0.000000 -1.000000 0.000000
vn -0.000000 -1.000000 0.000000
vn 1.000000 0.000000 0.000000
vn 1.000000 0.000000 0.000000
vn 1.000000 0.000000 0.000000
vn 1.000000 0.000000 0.000000
vn 0.000000 0.000083 -1.000000
vn 0.000000 0.000083 -1.000000
vn 0.000000 0.000083 -1.000000
vn 0.000000 0.000083 -1.000000
vn -0.000000 0.003849 0.999992
vn -0.000000 0.003849 0.999992
vn -0.000000 0.003849 0.999992
vn -0.000000 0.003849 0.999992
vn 0.000000 0.000000 -1.000000
vn 0.000000 0.000000 -1.000000
vn 0.000000 0.000000 -1.000000
vn 0.000000 0.000000 -1.000000
vn 0.000000 1.000000 -0.000000
vn 0.000000 1.000000 -0.000000
vn 0.000000 1.000000 -0.000000
vn 0.000000 1.000000 -0.000000
vn -0.000000 0.000000 1.000000
vn -0.000000 0.000000 1.000000
vn -0.000000 0.000000 1.000000
vn -0.000000 0.000000 1.000000
vn 0.000000 -1.000000 0.000000
vn 0.000000 -1.000000 0.000000
vn 0.000000 -1.000000 0.000000
vn 0.000000 -1.000000 0.000000
vn -1.000000 0.000000 -0.000000
vn -1.000000 0.000000 -0.000000
vn -1.000000 0.000000 -0.000000
vn -1.000000 0.000000 -0.000000
vn 1.000000 0.000000 0.000000
vn 1.000000 0.000000 0.000000
vn 1.000000 0.000000 0.000000
vn 1.000000 0.000000 0.000000
vn 0.000000 0.000000 -1.000000
vn 0.000000 0.000000 -1.000000
vn 0.000000 0.000000 -1.000000
vn 0.000000 0.000000 -1.000000
vn 0.000000 1.000000 -0.000000
vn 0.000000 1.000000 -0.000000
vn 0.000000 1.000000 -0.000000
vn 0.000000 1.000000 -0.000000
vn -0.000000 0.000000 1.000000
vn -0.000000 0.000000 1.000000
vn -0.000000 0.000000 1.000000
vn -0.000000 0.000000 1.000000
vn 0.000000 -1.000000 0.000000
vn 0.000000 -1.000000 0.000000
vn 0.000000 -1.000000 0.000000
vn 0.000000 -1.000000 0.000000
vn -1.000000 0.000000 -0.000000
vn -1.000000 0.000000 -0.000000
vn -1.000000 0.000000 -0.000000
vn -1.000000 0.000000 -0.000000
vn 1.000000 0.000000 0.000000
vn 1.000000 0.000000 0.000000
vn 1.000000 0.000000 0.000000
vn 1.000000 0.000000 0.000000
s 1
g ClosetGarage
usemtl lambert39SG
f 1/177/1 12/178/2 10/179/3 2/180/4 4/181/5 3/182/6
s off
f 3/137/7 4/138/8 6/139/9 5/140/10
s 2
f 5/187/11 6/188/12 8/189/13 9/190/14 11/191/15 7/192/16
s off
f 21/141/17 22/142/18 23/143/19 24/144/20
s 3
f 2/83/21 13/84/22 17/85/23 8/86/24 6/87/25 4/88/26
s off
f 54/41/27 55/42/28 45/43/29 46/44/30 47/45/31
f 25/145/32 26/146/33 27/147/34 28/148/35
s 4
f 18/149/36 19/150/37 11/151/38 9/152/39
s off
f 30/161/40 29/162/41 31/163/42 32/164/43
s 4
f 12/155/44 15/154/45 14/153/46 10/156/47
s off
f 34/165/48 33/166/49 35/167/50 36/168/51
s 4
f 13/159/52 14/153/46 18/149/36 17/160/53
f 14/153/46 15/154/45 19/150/37 18/149/36
f 20/157/54 19/150/37 15/154/45 16/158/55
s 2
f 7/192/16 11/191/15 22/195/56 21/196/57
s off
f 11/93/58 19/94/59 23/95/60 22/96/61
f 19/197/62 20/198/63 24/199/64 23/200/65
f 20/97/66 7/98/67 21/99/68 24/100/69
f 17/201/70 18/202/71 26/203/72 25/204/73
f 18/117/74 9/118/75 27/119/76 26/120/77
s 2
f 9/190/14 8/189/13 28/193/78 27/194/79
s 3
f 8/86/24 17/85/23 25/91/80 28/92/81
s off
f 10/121/82 14/122/83 29/123/84 30/124/85
f 14/205/86 13/206/87 31/207/88 29/208/89
s 3
f 13/84/22 2/83/21 32/89/90 31/90/91
s 1
f 2/180/4 10/179/3 30/185/92 32/186/93
s off
f 16/209/94 15/210/95 33/211/96 34/212/97
f 15/125/98 12/126/99 35/127/100 33/128/101
s 1
f 12/178/2 1/177/1 36/183/102 35/184/103
s off
f 1/109/104 16/103/105 34/115/106 36/116/107
f 7/98/108 20/97/109 38/101/110 37/102/111
f 20/97/112 16/103/113 39/104/114 56/105/115 52/106/116 38/101/117
f 16/103/118 1/109/119 40/110/120 39/104/121
f 1/109/122 3/113/123 41/114/124 40/110/125
f 3/113/126 5/107/127 42/108/128 51/111/129 53/112/130 41/114/131
f 5/107/132 7/98/133 37/102/134 42/108/135
s 5
f 37/169/136 38/170/137 44/171/138 43/172/139
f 38/51/137 52/52/140 50/53/141 44/54/138
s 6
f 39/173/142 40/174/143 46/175/144 45/176/145
s off
f 40/67/146 41/68/147 47/69/148 46/70/149
f 41/55/150 53/56/151 54/57/152 47/58/153
f 42/71/154 37/72/155 43/73/156 48/74/157
f 43/46/158 44/47/159 50/48/160 49/49/161 48/50/162
f 49/59/163 51/60/164 42/61/165 48/62/166
s 6
f 55/63/167 56/64/168 39/65/142 45/66/145
s off
f 51/111/169 52/106/170 56/105/171 53/112/172
f 49/75/173 50/76/174 52/77/175 51/78/176
f 55/79/177 54/80/178 53/81/179 56/82/180
f 57/25/181 58/26/182 60/27/183 59/28/184
f 59/9/185 60/10/186 62/11/187 61/12/188
f 61/29/189 62/30/190 64/31/191 63/32/192
f 63/13/193 64/14/194 58/15/195 57/16/196
f 58/129/197 64/130/198 62/131/199 60/132/200
f 63/1/201 57/2/202 59/3/203 61/4/204
f 65/33/205 66/34/206 68/35/207 67/36/208
f 67/17/209 68/18/210 70/19/211 69/20/212
f 69/37/213 70/38/214 72/39/215 71/40/216
f 71/21/217 72/22/218 66/23/219 65/24/220
f 66/133/221 72/134/222 70/135/223 68/136/224
f 71/5/225 65/6/226 67/7/227 69/8/228
