# This file uses centimeters as units for non-parametric coordinates.

mtllib GarageGate.mtl
g default
v -1472.716972 21.049151 1468.687437
v -951.899928 21.049151 1468.690780
v -1472.716972 300.106979 1468.687437
v -951.899928 300.106979 1468.690780
v -1472.716972 300.106979 1466.230386
v -951.899928 300.106979 1466.233728
v -1472.716972 21.049151 1466.230386
v -951.899928 21.049151 1466.233728
vt 0.295180 0.981509
vt 0.295180 0.023357
vt 0.808565 0.023357
vt 0.808565 0.981509
vt 0.808162 0.022891
vt 0.809905 0.981041
vt 0.296521 0.981975
vt 0.294778 0.023825
vn -0.000006 0.000000 1.000000
vn -0.000006 0.000000 1.000000
vn -0.000006 0.000000 1.000000
vn -0.000006 0.000000 1.000000
vn 0.000000 1.000000 0.000000
vn 0.000000 1.000000 0.000000
vn 0.000000 1.000000 0.000000
vn 0.000000 1.000000 0.000000
vn 0.000006 0.000000 -1.000000
vn 0.000006 0.000000 -1.000000
vn 0.000006 0.000000 -1.000000
vn 0.000006 0.000000 -1.000000
vn 0.000000 -1.000000 0.000000
vn 0.000000 -1.000000 0.000000
vn 0.000000 -1.000000 0.000000
vn 0.000000 -1.000000 0.000000
vn 1.000000 0.000000 0.000000
vn 1.000000 0.000000 0.000000
vn 1.000000 0.000000 0.000000
vn 1.000000 0.000000 0.000000
vn -1.000000 0.000000 0.000000
vn -1.000000 0.000000 0.000000
vn -1.000000 0.000000 0.000000
vn -1.000000 0.000000 0.000000
s off
g pCube2
usemtl lambert76SG
f 1/1/1 2/2/2 4/3/3 3/4/4
f 3//5 4//6 6//7 5//8
f 5/5/9 6/6/10 8/7/11 7/8/12
f 7//13 8//14 2//15 1//16
f 2//17 8//18 6//19 4//20
f 7//21 1//22 3//23 5//24
