# This file uses centimeters as units for non-parametric coordinates.

mtllib GarageWalls.mtl
g default
v -1570.578125 21.049187 1477.698242
v -1556.458496 21.049187 1477.698242
v -1556.458496 371.238953 1477.698242
v -1570.578125 371.238953 1477.698242
v -1472.717041 300.106995 1477.694702
v -1472.717041 21.049183 1477.694702
v -1472.717041 21.049183 1459.737915
v -1472.717041 300.106995 1459.737915
v -869.066406 45.803009 743.688477
v -869.066406 45.803139 1401.122559
v -855.170898 45.803139 1401.122559
v -855.170898 45.803009 743.688477
v -855.170898 21.049156 743.688477
v -855.170898 21.049156 1477.669678
v -869.066406 21.049156 1477.669678
v -869.066406 21.049156 1459.712891
v -869.066406 21.049156 743.688477
v -951.899963 300.106995 1477.673096
v -951.899963 300.106995 1459.716309
v -951.899963 21.049160 1459.716309
v -951.899963 21.049160 1477.673096
v -1556.458496 371.238953 1459.741455
v -869.066406 371.238922 1477.669678
v -869.066406 371.238922 1459.712891
v -869.066406 371.238922 1423.712646
v -855.170898 371.238922 1423.712646
v -855.170898 371.238922 1477.669678
v -1556.458496 21.049187 1459.741455
v -1556.458496 371.238953 579.492432
v -1570.578125 371.238953 579.492432
v -855.170898 45.802994 579.463867
v -855.170898 45.803139 564.324463
v -869.066406 45.802994 579.463867
v -1570.578125 165.430130 1144.056763
v -1570.578125 312.352570 1144.056763
v -1556.458496 312.352570 1144.056763
v -1556.458496 165.430130 1144.056763
v -1281.879150 45.803185 564.344482
v -1570.578125 312.352570 914.310181
v -1556.458496 312.352570 914.310181
v -855.170898 21.049156 564.324463
v -869.066406 45.802994 584.413574
v -855.170898 45.802994 584.413574
v -855.170898 21.049156 579.463867
v -855.170898 21.049156 584.413574
v -869.066406 21.049156 584.413574
v -869.066406 21.049156 579.463867
v -1304.429199 371.238922 564.345337
v -1570.578125 371.238953 564.353027
v -1304.429199 371.238922 579.484741
v -1556.458496 21.049187 579.492432
v -1281.879150 45.803185 579.483887
v -1570.578125 21.049187 564.353027
v -1556.458496 165.430130 914.310181
v -1570.578125 165.430130 914.310181
v -1570.578125 21.049187 579.492432
vt 0.318843 0.250000
vt 0.318843 0.057765
vt 0.274572 0.057765
vt 0.274572 0.250000
vt 0.625000 0.306210
vt 0.375000 0.306157
vt 0.375000 0.350428
vt 0.625000 0.350482
vt 0.725482 0.250000
vt 0.725482 0.057765
vt 0.681210 0.057765
vt 0.681210 0.250000
vt 0.261176 0.518837
vt 0.261176 0.001992
vt 0.513952 0.001992
vt 0.513952 0.027978
vt 0.279044 0.044284
vt 0.279044 0.518837
vt 0.773122 0.498170
vt 0.520346 0.498170
vt 0.520346 0.001992
vt 0.773122 0.001992
vt 0.773122 0.061783
vt 0.571691 0.061783
vt 0.571691 0.437723
vt 0.773122 0.437723
vt 0.662495 0.501830
vt 0.680363 0.501830
vt 0.662495 0.998008
vt 0.680363 0.799809
vt 0.915271 0.998008
vt 0.915271 0.816087
vt 0.001827 0.001992
vt 0.254603 0.001992
vt 0.212097 0.243672
vt 0.106045 0.243672
vt 0.106045 0.409509
vt 0.212097 0.409509
vt 0.254603 0.637379
vt 0.001827 0.637379
vn 0.000000 0.000000 1.000000
vn 0.000000 0.000000 1.000000
vn 0.000000 0.000000 1.000000
vn 0.000000 0.000000 1.000000
vn 1.000000 0.000000 0.000000
vn 1.000000 0.000000 0.000000
vn 1.000000 0.000000 0.000000
vn 1.000000 0.000000 0.000000
vn 0.000000 1.000000 -0.000000
vn 0.000000 1.000000 -0.000000
vn 0.000000 1.000000 -0.000000
vn 0.000000 1.000000 -0.000000
vn 0.000000 -1.000000 0.000000
vn 0.000000 -1.000000 0.000000
vn 0.000000 -1.000000 0.000000
vn 0.000000 -1.000000 0.000000
vn 0.000000 -1.000000 0.000000
vn 0.000000 -1.000000 0.000000
vn 0.000000 -1.000000 0.000000
vn 0.000000 -1.000000 0.000000
vn 0.000000 -1.000000 0.000000
vn -0.000000 -1.000000 0.000000
vn -0.000000 -1.000000 0.000000
vn -0.000000 -1.000000 0.000000
vn -0.000000 -1.000000 0.000000
vn 0.000000 1.000000 0.000000
vn 0.000000 1.000000 0.000000
vn 0.000000 1.000000 0.000000
vn 0.000000 1.000000 0.000000
vn -1.000000 0.000000 0.000000
vn -1.000000 0.000000 0.000000
vn -1.000000 0.000000 0.000000
vn -1.000000 0.000000 0.000000
vn 0.000000 0.069248 -0.997599
vn 0.000000 0.069248 -0.997599
vn 0.000000 0.069248 -0.997599
vn 0.000000 0.069248 -0.997599
vn -1.000000 0.000000 0.000000
vn -1.000000 0.000000 0.000000
vn -1.000000 0.000000 0.000000
vn -1.000000 0.000000 0.000000
vn 1.000000 0.000000 0.000000
vn 1.000000 0.000000 0.000000
vn 1.000000 0.000000 0.000000
vn 1.000000 0.000000 0.000000
vn 0.000000 0.000000 1.000000
vn 0.000000 0.000000 1.000000
vn 0.000000 0.000000 1.000000
vn 0.000000 0.000000 1.000000
vn -1.000000 -0.000002 0.000000
vn -1.000000 -0.000002 0.000000
vn -1.000000 -0.000002 0.000000
vn -1.000000 -0.000002 0.000000
vn -1.000000 -0.000002 0.000000
vn -1.000000 -0.000002 0.000000
vn 1.000000 0.000000 0.000000
vn 1.000000 0.000000 0.000000
vn 1.000000 0.000000 0.000000
vn 1.000000 0.000000 0.000000
vn 1.000000 0.000000 0.000000
vn 1.000000 0.000000 0.000000
vn 0.000000 1.000000 0.000000
vn 0.000000 1.000000 0.000000
vn 0.000000 1.000000 0.000000
vn 0.000000 1.000000 0.000000
vn 0.000000 1.000000 0.000000
vn -0.000042 0.000000 -1.000000
vn -0.000042 0.000000 -1.000000
vn -0.000042 0.000000 -1.000000
vn -0.000042 0.000000 -1.000000
vn -0.000042 0.000000 -1.000000
vn -0.000042 0.000000 -1.000000
vn -0.000042 0.000000 -1.000000
vn -0.000042 0.000000 -1.000000
vn 0.000042 -0.000000 1.000000
vn 0.000042 -0.000000 1.000000
vn 0.000042 -0.000000 1.000000
vn 0.000042 -0.000000 1.000000
vn 0.000042 -0.000000 1.000000
vn 0.000042 -0.000000 1.000000
vn 0.000042 -0.000000 1.000000
vn 0.000042 -0.000000 1.000000
vn -0.000000 -1.000000 0.000000
vn -0.000000 -1.000000 0.000000
vn -0.000000 -1.000000 0.000000
vn -0.000000 -1.000000 0.000000
vn 0.000000 0.000000 -1.000000
vn 0.000000 0.000000 -1.000000
vn 0.000000 0.000000 -1.000000
vn 0.000000 0.000000 -1.000000
vn 0.000000 1.000000 0.000000
vn 0.000000 1.000000 0.000000
vn 0.000000 1.000000 0.000000
vn 0.000000 1.000000 0.000000
vn 0.000000 1.000000 0.000000
vn 0.000000 1.000000 0.000005
vn 0.000000 1.000000 0.000005
vn 0.000000 1.000000 0.000005
vn 0.000000 1.000000 0.000005
vn 0.000000 1.000000 0.000005
vn 0.000000 0.000000 -1.000000
vn 0.000000 0.000000 -1.000000
vn 0.000000 0.000000 -1.000000
vn 0.000000 0.000000 -1.000000
vn 0.000000 -1.000000 0.000000
vn 0.000000 -1.000000 0.000000
vn 0.000000 -1.000000 0.000000
vn 0.000000 -1.000000 0.000000
vn 0.000000 1.000000 0.000000
vn 0.000000 1.000000 0.000000
vn 0.000000 1.000000 0.000000
vn 0.000000 1.000000 0.000000
vn 1.000000 0.000000 0.000000
vn 1.000000 0.000000 0.000000
vn 1.000000 0.000000 0.000000
vn 1.000000 0.000000 0.000000
vn 0.000000 0.000000 1.000000
vn 0.000000 0.000000 1.000000
vn 0.000000 0.000000 1.000000
vn 0.000000 0.000000 1.000000
vn 1.000000 0.000000 0.000000
vn 1.000000 0.000000 0.000000
vn 1.000000 0.000000 0.000000
vn 1.000000 0.000000 0.000000
vn -1.000000 0.000000 0.000000
vn -1.000000 0.000000 0.000000
vn -1.000000 0.000000 0.000000
vn -1.000000 0.000000 0.000000
vn 0.000000 1.000000 0.000000
vn 0.000000 1.000000 0.000000
vn 0.000000 1.000000 0.000000
vn 0.000000 1.000000 0.000000
vn 0.000000 1.000000 0.000000
vn 0.000000 -1.000000 0.000000
vn 0.000000 -1.000000 0.000000
vn 0.000000 -1.000000 0.000000
vn 0.000000 -1.000000 0.000000
vn 0.000033 -0.000010 1.000000
vn 0.000033 -0.000010 1.000000
vn 0.000033 -0.000010 1.000000
vn 0.000033 -0.000010 1.000000
vn 0.000033 -0.000010 1.000000
vn 0.000033 -0.000010 1.000000
vn 0.000000 1.000000 0.000000
vn 0.000000 1.000000 0.000000
vn 0.000000 1.000000 0.000000
vn 0.000000 1.000000 0.000000
vn -0.000031 0.000010 -1.000000
vn -0.000031 0.000010 -1.000000
vn -0.000031 0.000010 -1.000000
vn -0.000031 0.000010 -1.000000
vn -0.000031 0.000010 -1.000000
vn -0.000031 0.000010 -1.000000
vn 0.000000 0.000000 1.000000
vn 0.000000 0.000000 1.000000
vn 0.000000 0.000000 1.000000
vn 0.000000 0.000000 1.000000
vn 0.997608 0.069126 0.000000
vn 0.997608 0.069126 0.000000
vn 0.997608 0.069126 0.000000
vn 0.997608 0.069126 0.000000
vn 1.000000 0.000000 0.000000
vn 1.000000 0.000000 0.000000
vn 1.000000 0.000000 0.000000
vn 1.000000 0.000000 0.000000
vn -1.000000 -0.000000 0.000000
vn -1.000000 -0.000000 0.000000
vn -1.000000 -0.000000 0.000000
vn -1.000000 -0.000001 0.000000
vn 0.000000 -1.000000 0.000000
vn 0.000000 -1.000000 0.000000
vn 0.000000 -1.000000 0.000000
vn 0.000000 -1.000000 0.000000
vn 0.000000 -1.000000 0.000000
vn -1.000000 0.000000 0.000000
vn -1.000000 0.000000 0.000000
vn -1.000000 0.000000 0.000000
vn -1.000000 0.000000 0.000000
vn 1.000000 0.000000 0.000000
vn 1.000000 0.000000 0.000000
vn 1.000000 0.000000 0.000000
vn 1.000000 0.000000 0.000000
vn -1.000000 -0.000001 0.000000
vn -1.000000 -0.000001 0.000000
vn -1.000000 -0.000001 0.000000
vn -1.000000 -0.000001 0.000000
vn -0.000000 -1.000000 -0.000000
vn -0.000000 -1.000000 -0.000000
vn -0.000000 -1.000000 -0.000000
vn -0.000000 -1.000000 -0.000000
vn -0.000000 -1.000000 -0.000000
vn -0.000000 -1.000000 -0.000000
s off
g GarageWalls1
usemtl lambert73SG
f 1//1 2//2 3//3 4//4
usemtl initialShadingGroup
f 5/1/5 6/2/6 7/3/7 8/4/8
usemtl lambert73SG
f 9//9 10//10 11//11 12//12
f 13//13 14//14 15//15 16//16 17//17
usemtl initialShadingGroup
f 18/5/18 5/6/19 8/7/20 19/8/21
usemtl lambert73SG
f 20//22 16//23 15//24 21//25
f 22//26 3//27 23//28 24//29
usemtl initialShadingGroup
f 19/9/30 20/10/31 21/11/32 18/12/33
usemtl lambert73SG
f 11//34 10//35 25//36 26//37
f 24//38 16//39 15//40 23//41
f 16//42 24//43 23//44 15//45
f 23//46 15//47 14//48 27//49
f 17/13/50 16/14/51 24/15/52 25/16/53 10/17/54 9/18/55
f 12//56 11//57 26//58 27//59 14//60 13//61
f 26//62 25//63 24//64 23//65 27//66
f 28/19/67 22/20/68 24/21/69 16/22/70 20/23/71 19/24/72 8/25/73 7/26/74
f 3//75 2//76 6//77 5//78 18//79 21//80 15//81 23//82
f 2//83 28//84 7//85 6//86
f 12//87 13//88 17//89 9//90
f 29//91 30//92 4//93 3//94 22//95
f 33//96 31//97 32//98 38//99 52//100
f 34//101 35//102 36//103 37//104
f 36//105 35//106 39//107 40//108
f 31//109 33//110 42//111 43//112
f 44//113 31//114 43//115 45//116
f 45//117 43//118 42//119 46//120
f 44//121 41//122 32//123 31//124
f 33//125 47//126 46//127 42//128
f 29//129 50//130 48//131 49//132 30//133
f 47//134 44//135 45//136 46//137
f 50/32/138 29/31/139 51/29/140 47/27/141 33/28/142 52/30/143
f 34//144 37//145 54//146 55//147
f 53//148 49//149 48//150 38//151 32//152 41//153
f 54//154 40//155 39//156 55//157
f 48//158 50//159 52//160 38//161
s 1
f 51/33/162 29/34/163 40/35/164 54/36/165
s 2
f 30//166 56//167 55//168 39//169
s off
f 56//170 51//171 28//172 2//173 1//174
f 53//175 56//176 30//177 49//178
s 1
f 51/33/162 54/36/165 37/37/179 36/38/180 40/35/164 29/34/163 22/39/181 28/40/182
s 2
f 30//166 39//169 35//183 34//184 55//168 56//167 1//185 4//186
s off
f 53//187 41//188 44//189 47//190 51//191 56//192
