# This file uses centimeters as units for non-parametric coordinates.

mtllib Bookcase3.mtl
g default
v 1164.475555 348.703458 -688.299253
v 930.136537 348.703458 -688.299256
v 1164.475541 348.703458 -578.697006
v 930.136537 348.703458 -578.697006
v 1164.475541 130.802740 -578.696993
v 930.136537 130.802740 -578.696993
v 930.136537 130.802877 -688.299249
v 1164.475555 130.802877 -688.299246
v 1050.480757 348.703458 -578.697033
v 1044.939101 348.703458 -578.697033
v 1052.514621 130.802740 -578.697019
v 1045.640056 130.802740 -578.697019
v 1164.566456 119.605603 -687.796799
v 930.045538 119.605603 -687.796746
v 1052.623178 119.605603 -554.333997
v 1052.518643 130.802740 -554.333997
v 1045.638827 130.802740 -554.334062
v 1045.674752 119.605603 -554.334062
v 930.092511 119.605603 -554.333984
v 930.092511 130.802740 -554.333984
v 1164.367340 119.605603 -554.334023
v 1164.367340 130.802740 -554.333984
v 1164.566456 20.822193 -560.909248
v 1053.545674 20.822193 -560.909235
v 1045.992894 20.822193 -560.909235
v 930.045538 20.822193 -560.909248
v 930.045538 20.822193 -687.796733
v 1164.566456 20.822193 -687.796786
v 930.045538 119.605603 -560.909183
v 1052.623178 119.605603 -560.909261
v 1045.674752 119.605603 -560.909313
v 1164.566456 119.605603 -560.909261
v 1053.545660 20.822193 -556.863759
v 1052.623178 119.605603 -556.863694
v 1045.674752 119.605603 -556.863759
v 1045.992880 20.822193 -556.863759
v 1052.514621 130.802740 -569.858388
v 1050.480757 348.703458 -569.858401
v 1044.939101 348.703458 -569.858401
v 1045.640056 130.802740 -569.858388
v 1052.623178 117.252166 -552.012697
v 1052.518643 133.156206 -552.012697
v 1045.638827 133.156206 -552.012749
v 1045.674752 117.252166 -552.012749
v 1052.514621 133.156206 -581.018336
v 1045.640056 133.156206 -581.018336
v 1045.674752 117.252166 -559.840978
v 1052.623178 117.252166 -559.840926
v 1041.154246 116.475811 -560.909326
v 1041.445445 23.951985 -560.909326
v 935.257095 116.475811 -560.909274
v 935.257095 23.951985 -560.909326
v 1056.986574 116.475811 -560.909274
v 1159.508069 116.475811 -560.909300
v 1057.831620 23.951985 -560.909326
v 1159.508069 23.951985 -560.909326
v 1041.154246 116.475811 -558.021319
v 1041.445445 23.951985 -558.021319
v 935.257095 116.475811 -558.021254
v 935.257095 23.951985 -558.021319
v 1056.986574 116.475811 -558.021254
v 1159.508069 116.475811 -558.021293
v 1057.831620 23.951985 -558.021319
v 1159.508069 23.951985 -558.021319
v 1040.344064 342.532404 -578.697033
v 1040.979762 136.973745 -578.697033
v 936.220055 342.532404 -578.697006
v 936.220055 136.973745 -578.697006
v 1158.508373 342.532404 -578.697006
v 1055.117138 342.532404 -578.697033
v 1056.961768 136.973745 -578.697033
v 1158.508373 136.973745 -578.697006
v 1040.344064 342.532404 -572.313846
v 1040.979762 136.973745 -572.313846
v 936.220055 342.532404 -572.313820
v 936.220055 136.973745 -572.313820
v 1158.508373 342.532404 -572.313820
v 1055.117138 342.532404 -572.313846
v 1056.961768 136.973745 -572.313846
v 1158.508373 136.973745 -572.313820
vt 0.030245 0.820649
vt 0.142788 0.820447
vt 0.142738 0.827256
vt 0.030285 0.826994
vt 0.028407 0.751347
vt 0.143812 0.751347
vt 0.143806 0.819765
vt 0.028412 0.819756
vt 0.028456 0.827584
vt 0.143761 0.827579
vt 0.143767 0.978564
vt 0.028452 0.978564
vt 0.247521 0.344901
vt 0.248670 0.712791
vt 0.436903 0.712791
vt 0.436903 0.344901
vt 0.246680 0.142625
vt 0.247206 0.308216
vt 0.438644 0.308216
vt 0.438644 0.142625
vt 0.033248 0.308216
vt 0.218584 0.308216
vt 0.217058 0.142625
vt 0.033248 0.142625
vt 0.035055 0.712791
vt 0.221964 0.712791
vt 0.218629 0.344901
vt 0.035055 0.344901
vt 0.575414 0.962783
vt 0.575414 0.857624
vt 0.664402 0.857626
vt 0.664415 0.962779
vt 0.284137 0.857625
vt 0.284114 0.962784
vt 0.195910 0.962777
vt 0.195959 0.857624
vt 0.854789 0.746547
vt 0.853838 0.844880
vt 0.636826 0.842540
vt 0.637560 0.743933
vt 0.190642 0.840441
vt 0.190799 0.742103
vt 0.406971 0.742632
vt 0.406736 0.841243
vt 0.523654 0.842319
vt 0.518244 0.842300
vt 0.421748 0.857624
vt 0.430976 0.857624
vt 0.472964 0.699349
vt 0.472549 0.365179
vt 0.482078 0.365179
vt 0.481701 0.700606
vt 0.484290 0.706222
vt 0.484868 0.372047
vt 0.493447 0.370794
vt 0.493823 0.706222
vt 0.507652 0.502878
vt 0.507715 0.365954
vt 0.569703 0.365181
vt 0.569703 0.502878
vt 0.603022 0.497414
vt 0.602959 0.365181
vt 0.665010 0.365188
vt 0.665010 0.498656
vt 0.572214 0.502917
vt 0.572214 0.365177
vt 0.588734 0.365857
vt 0.588962 0.502917
vt 0.667519 0.498527
vt 0.667519 0.365177
vt 0.684267 0.365177
vt 0.684037 0.497367
vt 0.505506 0.502901
vt 0.495969 0.502870
vt 0.495969 0.365173
vt 0.505506 0.365173
vt 0.591276 0.498640
vt 0.591276 0.365173
vt 0.600813 0.365298
vt 0.600813 0.498640
vt 0.847365 0.365395
vt 0.847365 0.518528
vt 0.828610 0.518528
vt 0.828610 0.365395
vt 0.849748 0.518528
vt 0.849748 0.365395
vt 0.868522 0.365395
vt 0.868522 0.518528
vt 0.763378 0.365395
vt 0.763378 0.703179
vt 0.722383 0.703179
vt 0.722383 0.365395
vt 0.765831 0.703179
vt 0.765831 0.365395
vt 0.806816 0.365395
vt 0.806816 0.703179
vt 0.891419 0.489135
vt 0.908772 0.489135
vt 0.912418 0.499903
vt 0.887763 0.499903
vt 0.908772 0.376153
vt 0.912418 0.365395
vt 0.891419 0.458650
vt 0.887763 0.463597
vt 0.935334 0.376163
vt 0.917990 0.376163
vt 0.914335 0.365395
vt 0.938990 0.365395
vt 0.917990 0.406659
vt 0.914335 0.401692
vt 0.935334 0.489145
vt 0.938990 0.499913
vt 0.870871 0.365395
vt 0.885786 0.365395
vt 0.885786 0.499913
vt 0.870867 0.499913
vt 0.955369 0.365395
vt 0.970438 0.365395
vt 0.970438 0.401702
vt 0.955369 0.401702
vt 0.940882 0.365395
vt 0.952901 0.365395
vt 0.952901 0.406381
vt 0.940882 0.406381
vt 0.972872 0.390090
vt 0.973101 0.365415
vt 0.988021 0.365415
vt 0.987941 0.390090
vt 0.809300 0.518548
vt 0.811301 0.365415
vt 0.826370 0.365415
vt 0.825685 0.518548
vt 0.703608 0.703189
vt 0.708024 0.365415
vt 0.720044 0.365415
vt 0.718524 0.703189
vt 0.531046 0.135792
vt 0.531046 0.241522
vt 0.521175 0.241522
vt 0.521175 0.135792
vt 0.521168 0.241518
vt 0.521168 0.135795
vt 0.531038 0.135795
vt 0.531053 0.241518
vt 0.531053 0.135795
vt 0.531053 0.241518
vt 0.521183 0.241518
vt 0.521168 0.135795
vt 0.531046 0.135792
vt 0.531046 0.241522
vt 0.521175 0.241522
vt 0.521175 0.135792
vt 0.531024 0.135770
vt 0.531024 0.241544
vt 0.521198 0.241544
vt 0.521198 0.135770
vt 0.521198 0.241544
vt 0.521198 0.135770
vt 0.531024 0.135770
vt 0.531024 0.241544
vt 0.531024 0.135770
vt 0.531024 0.241544
vt 0.521198 0.241544
vt 0.521198 0.135770
vt 0.531024 0.135770
vt 0.531024 0.241544
vt 0.521197 0.241544
vt 0.521197 0.135770
vt 0.641881 0.269204
vt 0.641881 0.099892
vt 0.651766 0.099892
vt 0.651752 0.269204
vt 0.641901 0.269220
vt 0.641901 0.099876
vt 0.651746 0.099876
vt 0.651746 0.269220
vt 0.641728 0.269047
vt 0.641728 0.100049
vt 0.651919 0.100049
vt 0.651919 0.269047
vt 0.663871 0.118420
vt 0.663871 0.280995
vt 0.654000 0.280995
vt 0.654000 0.118420
vt 0.618852 0.267232
vt 0.618852 0.100747
vt 0.640673 0.100747
vt 0.640673 0.267232
vt 0.640614 0.100688
vt 0.640614 0.267290
vt 0.618910 0.267290
vt 0.618910 0.100688
vt 0.618783 0.267163
vt 0.618783 0.100815
vt 0.640741 0.100815
vt 0.640741 0.267163
vt 0.640917 0.100992
vt 0.640917 0.266987
vt 0.618607 0.266987
vt 0.618607 0.100992
vt 0.617181 0.286993
vt 0.504297 0.286495
vt 0.507871 0.279261
vt 0.613608 0.279729
vt 0.504330 0.101645
vt 0.507871 0.109964
vt 0.617181 0.101616
vt 0.613608 0.109964
vt 0.503985 0.283152
vt 0.503952 0.104180
vt 0.507525 0.111181
vt 0.507525 0.275088
vt 0.616836 0.105674
vt 0.613263 0.112528
vt 0.616836 0.283172
vt 0.613263 0.275088
vt 0.490230 0.338193
vt 0.491350 0.089198
vt 0.498695 0.096257
vt 0.497677 0.331134
vt 0.674904 0.089198
vt 0.665179 0.096257
vt 0.674883 0.338174
vt 0.665179 0.331134
vt 0.490705 0.089406
vt 0.674427 0.087004
vt 0.667047 0.094217
vt 0.500416 0.096396
vt 0.674428 0.338028
vt 0.667168 0.331006
vt 0.494010 0.340367
vt 0.503511 0.333146
vt 0.481629 0.426199
vt 0.472925 0.381666
vt 0.493300 0.645172
vt 0.484692 0.689698
vn -0.000000 -0.044830 -0.998995
vn -0.000000 -0.044830 -0.998995
vn -0.000000 -0.044830 -0.998995
vn -0.000000 -0.044830 -0.998995
vn -0.000000 1.000000 0.000000
vn -0.000000 1.000000 0.000000
vn -0.000000 1.000000 0.000000
vn -0.000000 1.000000 0.000000
vn -0.000000 1.000000 0.000000
vn -0.000000 1.000000 0.000000
vn -0.000007 -0.000000 1.000000
vn -0.000007 -0.000000 1.000000
vn -0.000007 -0.000000 1.000000
vn -0.000007 -0.000000 1.000000
vn 0.000000 -1.000000 0.000000
vn 0.000000 -1.000000 0.000000
vn 0.000000 -1.000000 0.000000
vn 0.000000 -1.000000 0.000000
vn 0.000000 -1.000000 0.000000
vn 0.000000 -1.000000 0.000000
vn -0.999971 0.007664 0.000011
vn -0.999971 0.007664 0.000011
vn -0.999971 0.007664 0.000011
vn -0.999971 0.007664 0.000011
vn -0.999971 0.007664 0.000011
vn -0.999971 0.007664 0.000011
vn 0.999963 0.008562 0.001149
vn 0.999963 0.008562 0.001149
vn 0.999963 0.008562 0.001149
vn 0.999963 0.008562 0.001149
vn 0.999963 0.008562 0.001149
vn 0.999963 0.008562 0.001149
vn -0.000000 -0.000000 -1.000000
vn -0.000000 -0.000000 -1.000000
vn -0.000000 -0.000000 -1.000000
vn -0.000000 -0.000000 -1.000000
vn -1.000000 0.000000 0.000000
vn -1.000000 0.000000 0.000000
vn -1.000000 0.000000 0.000000
vn -1.000000 0.000000 0.000000
vn -0.000004 -0.000000 1.000000
vn -0.000004 -0.000000 1.000000
vn -0.000004 -0.000000 1.000000
vn -0.000004 -0.000000 1.000000
vn 1.000000 -0.000000 -0.000000
vn 1.000000 -0.000000 -0.000000
vn 1.000000 -0.000000 -0.000000
vn 1.000000 -0.000000 -0.000000
vn 0.000000 0.000000 1.000000
vn 0.000000 0.000000 1.000000
vn 0.000000 0.000000 1.000000
vn 0.000000 0.000000 1.000000
vn -1.000000 0.000000 0.000000
vn -1.000000 0.000000 0.000000
vn -1.000000 0.000000 0.000000
vn -1.000000 0.000000 0.000000
vn 0.000000 -0.000000 -1.000000
vn 0.000000 -0.000000 -1.000000
vn 0.000000 -0.000000 -1.000000
vn 0.000000 -0.000000 -1.000000
vn 1.000000 -0.000000 0.000000
vn 1.000000 -0.000000 0.000000
vn 1.000000 -0.000000 0.000000
vn 1.000000 -0.000000 0.000000
vn 0.000000 0.000000 1.000000
vn 0.000000 0.000000 1.000000
vn 0.000000 0.000000 1.000000
vn 0.000000 0.000000 1.000000
vn 0.000001 0.000000 1.000000
vn 0.000001 0.000000 1.000000
vn 0.000001 0.000000 1.000000
vn 0.000001 0.000000 1.000000
vn 0.000000 -0.000000 1.000000
vn 0.000000 -0.000000 1.000000
vn 0.000000 -0.000000 1.000000
vn 0.000000 -0.000000 1.000000
vn 0.000000 -0.000000 1.000000
vn 0.000000 -0.000000 1.000000
vn 0.000000 -0.000000 1.000000
vn 0.000000 -0.000000 1.000000
vn 0.000000 -0.000002 1.000000
vn 0.000000 -0.000002 1.000000
vn 0.000000 -0.000002 1.000000
vn 0.000000 -0.000002 1.000000
vn -0.000000 -0.000000 1.000000
vn -0.000000 -0.000000 1.000000
vn -0.000000 -0.000000 1.000000
vn -0.000000 -0.000000 1.000000
vn -0.000000 1.000000 -0.000000
vn -0.000000 1.000000 -0.000000
vn -0.000000 1.000000 -0.000000
vn -0.000000 1.000000 -0.000000
vn -0.000000 1.000000 -0.000000
vn -0.000000 1.000000 -0.000000
vn -0.000000 1.000000 -0.000000
vn -0.000000 1.000000 -0.000000
vn -0.000000 1.000000 -0.000000
vn -0.000000 1.000000 -0.000000
vn -0.000000 1.000000 -0.000000
vn -0.000000 1.000000 -0.000000
vn 0.000000 -1.000000 0.000000
vn 0.000000 -1.000000 0.000000
vn 0.000000 -1.000000 0.000000
vn 0.000000 -1.000000 0.000000
vn 0.000000 -1.000000 0.000000
vn 0.000000 -1.000000 0.000000
vn 0.000000 -1.000000 0.000000
vn 0.000000 -1.000000 0.000000
vn -0.000000 -1.000000 -0.000000
vn -0.000000 -1.000000 -0.000000
vn -0.000000 -1.000000 -0.000000
vn -0.000000 -1.000000 -0.000000
vn 0.999956 0.009338 0.000002
vn 0.999956 0.009338 0.000002
vn 0.999956 0.009338 0.000002
vn 0.999956 0.009338 0.000002
vn -0.000000 1.000000 0.000000
vn -0.000000 1.000000 0.000000
vn -0.000000 1.000000 0.000000
vn -0.000000 1.000000 0.000000
vn -0.999995 -0.003221 -0.000002
vn -0.999995 -0.003221 -0.000002
vn -0.999995 -0.003221 -0.000002
vn -0.999995 -0.003221 -0.000002
vn 0.000000 -1.000000 0.000000
vn 0.000000 -1.000000 0.000000
vn 0.999956 0.009333 -0.000000
vn 0.999956 0.009333 -0.000000
vn 0.999956 0.009333 -0.000000
vn 0.999956 0.009333 -0.000000
vn -0.000000 1.000000 0.000000
vn -0.000000 1.000000 0.000000
vn -0.999995 -0.003217 0.000000
vn -0.999995 -0.003217 0.000000
vn -0.999995 -0.003217 0.000000
vn -0.999995 -0.003217 0.000000
vn 0.000000 -1.000000 0.000000
vn 0.000000 -1.000000 0.000000
vn 0.000000 -1.000000 0.000000
vn 0.000000 -1.000000 0.000000
vn 0.999970 0.007714 -0.000000
vn 0.999970 0.007714 -0.000000
vn 0.999970 0.007714 -0.000000
vn 0.999970 0.007714 -0.000000
vn -0.999997 -0.002651 0.000000
vn -0.999997 -0.002651 0.000000
vn -0.999997 -0.002651 0.000000
vn -0.999997 -0.002651 0.000000
vn -0.000000 -0.702227 -0.711953
vn -0.000000 -0.702227 -0.711953
vn -0.000000 -0.702227 -0.711953
vn -0.000000 -0.702227 -0.711953
vn -1.000000 -0.000000 -0.000046
vn -1.000000 -0.000000 -0.000046
vn -1.000000 -0.000000 -0.000046
vn -1.000000 -0.000000 -0.000046
vn 1.000000 -0.000000 -0.000151
vn 1.000000 -0.000000 -0.000151
vn 1.000000 -0.000000 -0.000151
vn 1.000000 -0.000000 -0.000151
vn -1.000000 0.000000 0.000000
vn -1.000000 0.000000 0.000000
vn -1.000000 0.000000 0.000000
vn -1.000000 0.000000 0.000000
vn 0.000007 -0.413352 -0.910572
vn 0.000007 -0.413352 -0.910572
vn 0.000007 -0.413352 -0.910572
vn 0.000007 -0.413352 -0.910572
vn 1.000000 0.000000 -0.000000
vn 1.000000 0.000000 -0.000000
vn 1.000000 0.000000 -0.000000
vn 1.000000 0.000000 -0.000000
vn -0.000013 0.000000 1.000000
vn -0.000013 0.000000 1.000000
vn -0.000013 0.000000 1.000000
vn -0.000013 0.000000 1.000000
vn 0.000001 -0.000017 1.000000
vn 0.000001 -0.000017 1.000000
vn 0.000001 -0.000017 1.000000
vn 0.000001 -0.000017 1.000000
vn 0.000016 -0.000001 1.000000
vn 0.000016 -0.000001 1.000000
vn 0.000016 -0.000001 1.000000
vn 0.000016 -0.000001 1.000000
vn -0.000000 0.000027 1.000000
vn -0.000000 0.000027 1.000000
vn -0.000000 0.000027 1.000000
vn -0.000000 0.000027 1.000000
vn 0.000000 -0.000008 1.000000
vn 0.000000 -0.000008 1.000000
vn 0.000000 -0.000008 1.000000
vn 0.000000 -0.000008 1.000000
vn 0.000011 -0.000000 1.000000
vn 0.000011 -0.000000 1.000000
vn 0.000011 -0.000000 1.000000
vn 0.000011 -0.000000 1.000000
vn 0.000000 0.000027 1.000000
vn 0.000000 0.000027 1.000000
vn 0.000000 0.000027 1.000000
vn 0.000000 0.000027 1.000000
vn -0.000011 -0.000000 1.000000
vn -0.000011 -0.000000 1.000000
vn -0.000011 -0.000000 1.000000
vn -0.000011 -0.000000 1.000000
vn 0.999995 0.003147 -0.000000
vn 0.999995 0.003147 -0.000000
vn 0.999995 0.003147 -0.000000
vn 0.999995 0.003147 -0.000000
vn -0.000000 1.000000 0.000000
vn -0.000000 1.000000 0.000000
vn -0.000000 1.000000 0.000000
vn -0.000000 1.000000 0.000000
vn -1.000000 0.000000 0.000000
vn -1.000000 0.000000 0.000000
vn -1.000000 0.000000 0.000000
vn -1.000000 0.000000 0.000000
vn 0.000000 -1.000000 0.000000
vn 0.000000 -1.000000 0.000000
vn 0.000000 -1.000000 0.000000
vn 0.000000 -1.000000 0.000000
vn -0.000000 1.000000 0.000000
vn -0.000000 1.000000 0.000000
vn -0.000000 1.000000 0.000000
vn -0.000000 1.000000 0.000000
vn -0.999958 -0.009133 0.000000
vn -0.999958 -0.009133 0.000000
vn -0.999958 -0.009133 0.000000
vn -0.999958 -0.009133 0.000000
vn 0.000000 -1.000000 0.000000
vn 0.000000 -1.000000 0.000000
vn 0.000000 -1.000000 0.000000
vn 0.000000 -1.000000 0.000000
vn 1.000000 0.000000 -0.000000
vn 1.000000 0.000000 -0.000000
vn 1.000000 0.000000 -0.000000
vn 1.000000 0.000000 -0.000000
vn -0.000001 0.000000 1.000000
vn -0.000001 0.000000 1.000000
vn -0.000001 0.000000 1.000000
vn -0.000001 0.000000 1.000000
vn 0.000000 0.000000 1.000000
vn 0.000000 0.000000 1.000000
vn 0.000000 0.000000 1.000000
vn 0.000000 0.000000 1.000000
vn 0.000000 0.000000 1.000000
vn 0.000000 0.000000 1.000000
vn 0.000000 0.000000 1.000000
vn 0.000000 0.000000 1.000000
vn 0.000000 0.000002 1.000000
vn 0.000000 0.000002 1.000000
vn 0.000000 0.000002 1.000000
vn 0.000000 0.000002 1.000000
vn -0.000000 0.000000 1.000000
vn -0.000000 0.000000 1.000000
vn -0.000000 0.000000 1.000000
vn -0.000000 0.000000 1.000000
vn 0.000001 0.000000 1.000000
vn 0.000001 0.000000 1.000000
vn 0.000001 0.000000 1.000000
vn 0.000001 0.000000 1.000000
vn -0.000000 0.000002 1.000000
vn -0.000000 0.000002 1.000000
vn -0.000000 0.000002 1.000000
vn -0.000000 0.000002 1.000000
vn -0.000001 0.000000 1.000000
vn -0.000001 0.000000 1.000000
vn -0.000001 0.000000 1.000000
vn -0.000001 0.000000 1.000000
vn 0.999995 0.003093 -0.000000
vn 0.999995 0.003093 -0.000000
vn 0.999995 0.003093 -0.000000
vn 0.999995 0.003093 -0.000000
vn -0.000000 1.000000 0.000000
vn -0.000000 1.000000 0.000000
vn -0.000000 1.000000 0.000000
vn -0.000000 1.000000 0.000000
vn -1.000000 0.000000 0.000000
vn -1.000000 0.000000 0.000000
vn -1.000000 0.000000 0.000000
vn -1.000000 0.000000 0.000000
vn 0.000000 -1.000000 0.000000
vn 0.000000 -1.000000 0.000000
vn 0.000000 -1.000000 0.000000
vn 0.000000 -1.000000 0.000000
vn -0.000000 1.000000 0.000000
vn -0.000000 1.000000 0.000000
vn -0.000000 1.000000 0.000000
vn -0.000000 1.000000 0.000000
vn -0.999960 -0.008973 0.000000
vn -0.999960 -0.008973 0.000000
vn -0.999960 -0.008973 0.000000
vn -0.999960 -0.008973 0.000000
vn 0.000000 -1.000000 0.000000
vn 0.000000 -1.000000 0.000000
vn 0.000000 -1.000000 0.000000
vn 0.000000 -1.000000 0.000000
vn 1.000000 0.000000 -0.000000
vn 1.000000 0.000000 -0.000000
vn 1.000000 0.000000 -0.000000
vn 1.000000 0.000000 -0.000000
s off
g Bookcase2
usemtl lambert28SG
f 13/1/1 14/2/2 7/3/3 8/4/4
s 1
f 1/43/5 2/40/6 4/39/7 10/45/8 9/46/9 3/44/10
s off
f 41/125/11 42/126/12 43/127/13 44/128/14
s 2
f 23/33/15 24/47/16 25/48/17 26/30/18 27/29/19 28/34/20
s off
f 14/49/21 29/234/22 19/50/23 20/51/24 6/233/25 7/52/26
f 21/53/27 32/236/28 13/54/29 8/55/30 5/235/31 22/56/32
f 28/5/33 27/6/34 14/7/35 13/8/36
f 27/29/37 26/30/38 29/31/39 14/32/40
f 33/129/41 34/130/42 35/131/43 36/132/44
f 23/33/45 28/34/46 13/35/47 32/36/48
f 37/133/49 38/134/50 39/135/51 40/136/52
f 7/37/53 6/38/54 4/39/55 2/40/56
f 8/9/57 7/10/58 2/11/59 1/12/60
f 5/41/61 8/42/62 1/43/63 3/44/64
f 74/13/65 73/14/66 75/15/67 76/16/68
f 18/73/69 17/74/70 20/75/71 19/76/72
f 58/17/73 57/18/74 59/19/75 60/20/76
f 62/21/77 61/22/78 63/23/79 64/24/80
f 22/77/81 16/78/82 15/79/83 21/80/84
f 77/25/85 78/26/86 79/27/87 80/28/88
f 45/113/89 46/114/90 43/115/91 42/116/92
f 12/57/93 6/58/94 20/59/95 17/60/96
f 5/61/97 11/62/98 16/63/99 22/64/100
f 41/117/101 44/118/102 47/119/103 48/120/104
f 18/65/105 19/66/106 29/67/107 31/68/108
f 21/69/109 15/70/110 30/71/111 32/72/112
f 24/81/113 30/82/114 34/83/115 33/84/116
f 30//117 31//118 35//119 34//120
f 31/85/121 25/86/122 36/87/123 35/88/124
s 2
f 25//17 24//16 33//125 36//126
s off
f 11/89/127 9/90/128 38/91/129 37/92/130
s 1
f 9/121/9 10/122/8 39/123/131 38/124/132
s off
f 10/93/133 12/94/134 40/95/135 39/96/136
f 12//137 11//138 37//139 40//140
f 15/97/141 16/98/142 42/99/143 41/100/144
f 17/105/145 18/106/146 44/107/147 43/108/148
f 11//149 12//150 46//151 45//152
f 12/111/153 17/105/154 43/108/155 46/112/156
f 16/98/157 11/101/158 45/102/159 42/99/160
f 18/106/161 31/109/162 47/110/163 44/107/164
f 31//165 30//166 48//167 47//168
f 30/103/169 15/97/170 41/100/171 48/104/172
f 25/201/173 31/202/174 49/203/175 50/204/176
f 31/202/177 29/205/178 51/206/179 49/203/180
f 29/205/181 26/207/182 52/208/183 51/206/184
f 26/207/185 25/201/186 50/204/187 52/208/188
f 32/209/189 30/210/190 53/211/191 54/212/192
f 30/210/193 24/213/194 55/214/195 53/211/196
f 24/213/197 23/215/198 56/216/199 55/214/200
f 23/215/201 32/209/202 54/212/203 56/216/204
f 50/137/205 49/138/206 57/139/207 58/140/208
f 49/169/209 51/170/210 59/171/211 57/172/212
f 51/141/213 52/142/214 60/143/215 59/144/216
f 52/173/217 50/174/218 58/175/219 60/176/220
f 54/177/221 53/178/222 61/179/223 62/180/224
f 53/145/225 55/146/226 63/147/227 61/148/228
f 55/181/229 56/182/230 64/183/231 63/184/232
f 56/149/233 54/150/234 62/151/235 64/152/236
f 12/217/237 10/218/238 65/219/239 66/220/240
f 10/218/241 4/221/242 67/222/243 65/219/244
f 4/221/245 6/223/246 68/224/247 67/222/248
f 6/223/249 12/217/250 66/220/251 68/224/252
f 3/225/253 9/226/254 70/227/255 69/228/256
f 9/226/257 11/229/258 71/230/259 70/227/260
f 11/229/261 5/231/262 72/232/263 71/230/264
f 5/231/265 3/225/266 69/228/267 72/232/268
f 66/153/269 65/154/270 73/155/271 74/156/272
f 65/185/273 67/186/274 75/187/275 73/188/276
f 67/157/277 68/158/278 76/159/279 75/160/280
f 68/189/281 66/190/282 74/191/283 76/192/284
f 69/193/285 70/194/286 78/195/287 77/196/288
f 70/161/289 71/162/290 79/163/291 78/164/292
f 71/197/293 72/198/294 80/199/295 79/200/296
f 72/165/297 69/166/298 77/167/299 80/168/300
