# This file uses centimeters as units for non-parametric coordinates.

mtllib DiningRoomWalls.mtl
g default
v -525.690430 21.052361 860.207181
v -525.690430 21.052361 875.346585
v -525.690430 45.806175 875.346585
v -525.690430 45.806358 860.207181
v -511.570679 21.052361 875.346585
v -511.570679 21.052361 1233.745877
v -525.690430 21.052361 1233.745877
v -525.690430 45.806301 1233.745877
v -511.570679 45.806175 875.346585
v -511.570679 45.806301 1233.745877
v 71.301208 45.806358 860.207181
v 71.301208 21.052361 860.207181
v 71.301208 21.052361 875.346585
v 71.301208 45.806175 875.346585
v -525.690430 21.052361 1393.020780
v -525.690430 45.806355 1393.020780
v -511.570679 45.806355 1393.020780
v -511.570679 21.052361 1393.020780
v -525.690430 45.806358 1401.122586
v -511.570679 45.806358 1401.122586
v -525.690430 371.242104 1423.712674
v -511.570679 371.242104 1423.712674
v 230.576110 45.806358 860.207181
v 230.576110 21.052361 860.207181
v 230.576110 21.052361 875.346585
v 230.576110 45.806175 875.346585
v 281.422118 45.806358 860.207181
v 281.422118 21.052361 860.207181
v -525.690430 21.052361 1477.501492
v -511.570679 21.052361 1477.501492
v -511.570679 371.242104 1477.501492
v -525.690430 371.242104 1477.501492
v 267.526611 21.052361 875.346585
v 267.526611 45.806175 875.346585
v 281.422118 45.806358 1401.122586
v 267.526611 45.806358 1401.124783
v 281.422118 371.242104 1424.036405
v 281.422118 21.052361 875.346585
v 281.422118 45.806175 875.346585
v 267.526611 371.242104 1423.712674
v -511.570679 21.052361 1459.544705
v 267.526611 21.052361 1459.544705
v 267.526611 21.052361 1477.501492
v -511.570679 371.242104 1459.544705
v 267.526611 371.242104 1459.544705
v 267.526611 371.242104 1477.501492
v 281.422118 21.052361 1477.501492
v 281.422118 371.242104 1477.501492
v -239.477540 165.430123 1458.814237
v -9.730897 165.430123 1458.814237
v -9.730897 312.352608 1458.814237
v -239.477540 312.352608 1458.814237
v -239.477540 312.352608 1477.633450
v -9.730897 312.352608 1477.633573
v -9.730897 165.430123 1477.633573
v -239.477540 165.430123 1477.633450
vt 0.400000 0.000000
vt 0.400000 0.000000
vt 0.400000 0.250000
vt 0.400000 0.250000
vt 0.399994 0.103064
vt 0.399994 0.103064
vt 0.399994 0.207952
vt 0.399994 0.207952
vn -1.000000 0.000000 0.000000
vn -1.000000 0.000000 0.000000
vn -1.000000 0.000000 0.000000
vn -1.000000 0.000000 0.000000
vn 0.000000 -1.000000 0.000000
vn 0.000000 -1.000000 0.000000
vn 0.000000 -1.000000 0.000000
vn 0.000000 -1.000000 0.000000
vn -1.000000 0.000000 0.000000
vn -1.000000 0.000000 0.000000
vn -1.000000 0.000000 0.000000
vn -1.000000 0.000000 0.000000
vn 1.000000 0.000000 0.000000
vn 1.000000 0.000000 0.000000
vn 1.000000 0.000000 0.000000
vn 1.000000 0.000000 0.000000
vn 0.000000 1.000000 -0.000000
vn 0.000000 1.000000 -0.000000
vn 0.000000 1.000000 -0.000000
vn 0.000000 1.000000 -0.000000
vn 0.000000 0.000000 -1.000000
vn 0.000000 0.000000 -1.000000
vn 0.000000 0.000000 -1.000000
vn 0.000000 0.000000 -1.000000
vn 0.000000 0.000000 1.000000
vn 0.000000 0.000000 1.000000
vn 0.000000 0.000000 1.000000
vn 0.000000 0.000000 1.000000
vn 0.000000 0.000000 1.000000
vn 0.000000 0.000000 1.000000
vn 0.000000 0.000000 1.000000
vn 0.000000 0.000000 1.000000
vn 0.000000 -1.000000 -0.000000
vn 0.000000 -1.000000 -0.000000
vn 0.000000 -1.000000 -0.000000
vn 0.000000 -1.000000 -0.000000
vn 0.000000 -1.000000 -0.000000
vn 0.000000 1.000000 0.000012
vn 0.000000 1.000000 0.000012
vn 0.000000 1.000000 0.000012
vn 0.000000 1.000000 0.000012
vn 0.000000 1.000000 0.000012
vn 0.000000 0.000000 -1.000000
vn 0.000000 0.000000 -1.000000
vn 0.000000 0.000000 -1.000000
vn 0.000000 0.000000 -1.000000
vn 0.000000 1.000000 -0.000001
vn 0.000000 1.000000 -0.000001
vn 0.000000 1.000000 -0.000001
vn 0.000000 1.000000 -0.000001
vn 1.000000 0.000000 0.000000
vn 1.000000 0.000000 0.000000
vn 1.000000 0.000000 0.000000
vn 1.000000 0.000000 0.000000
vn 0.000000 0.069248 -0.997599
vn 0.000000 0.069248 -0.997599
vn 0.000000 0.069248 -0.997599
vn 0.000000 0.069248 -0.997599
vn -1.000000 0.000000 0.000000
vn -1.000000 0.000000 0.000000
vn -1.000000 0.000000 0.000000
vn -1.000000 0.000000 0.000000
vn 0.000000 0.000000 -1.000000
vn 0.000000 0.000000 -1.000000
vn 0.000000 0.000000 -1.000000
vn 0.000000 0.000000 -1.000000
vn 0.000000 0.000000 1.000000
vn 0.000000 0.000000 1.000000
vn 0.000000 0.000000 1.000000
vn 0.000000 0.000000 1.000000
vn 0.000000 0.000000 1.000000
vn 0.000000 0.000000 1.000000
vn 0.000000 0.000000 1.000000
vn 0.000000 0.000000 1.000000
vn 0.011539 0.069734 -0.997499
vn 0.011539 0.069734 -0.997499
vn 0.011539 0.069734 -0.997499
vn 0.011539 0.069734 -0.997499
vn 1.000000 0.000000 0.000000
vn 1.000000 0.000000 0.000000
vn 1.000000 0.000000 0.000000
vn 1.000000 0.000000 0.000000
vn 0.000000 -1.000000 0.000000
vn 0.000000 -1.000000 0.000000
vn 0.000000 -1.000000 0.000000
vn 0.000000 -1.000000 0.000000
vn 0.000000 -1.000000 0.000000
vn 0.000000 -1.000000 0.000000
vn 0.000000 -1.000000 0.000000
vn 0.000000 -1.000000 0.000000
vn 0.000000 -1.000000 0.000000
vn -0.000000 1.000000 -0.000000
vn -0.000000 1.000000 -0.000000
vn -0.000000 1.000000 -0.000000
vn -0.000000 1.000000 -0.000000
vn -0.000689 0.000000 -1.000000
vn 0.000182 0.000000 -1.000000
vn 0.001059 0.000000 -0.999999
vn 0.001059 0.000000 -0.999999
vn 0.000334 0.000000 -1.000000
vn -0.001619 0.000000 -0.999999
vn 0.001059 0.000000 -0.999999
vn 0.001059 0.000000 -0.999999
vn -0.000292 0.000000 1.000000
vn 0.000061 0.000000 1.000000
vn 0.000191 0.000000 1.000000
vn 0.000191 0.000000 1.000000
vn 0.000033 0.000000 1.000000
vn -0.000124 0.000000 1.000000
vn 0.000191 0.000000 1.000000
vn 0.000191 0.000000 1.000000
vn 0.000000 -1.000000 0.000000
vn 0.000000 -1.000000 0.000000
vn 0.000000 -1.000000 0.000000
vn 0.000000 -1.000000 0.000000
vn 0.000000 -1.000000 0.000000
vn 0.000000 1.000000 0.000012
vn 0.000000 1.000000 0.000012
vn 0.000000 1.000000 0.000012
vn 0.000000 1.000000 0.000012
vn 0.000000 1.000000 0.000012
vn 0.000000 1.000000 0.000000
vn 0.000000 1.000000 0.000000
vn 0.000000 1.000000 0.000000
vn 0.000000 1.000000 0.000000
vn 0.000000 1.000000 0.000000
vn 0.000000 1.000000 0.000000
vn 0.000000 1.000000 0.000000
vn 0.000000 1.000000 0.000000
vn 0.000000 1.000000 0.000000
vn 1.000000 0.000000 0.000000
vn 1.000000 0.000000 0.000000
vn 1.000000 0.000000 0.000000
vn 1.000000 0.000000 0.000000
vn -1.000000 0.000000 0.000000
vn -1.000000 0.000000 0.000000
vn -1.000000 0.000000 0.000000
vn -1.000000 0.000000 0.000000
vn 0.000000 0.000000 1.000000
vn 0.000000 0.000000 1.000000
vn 0.000000 0.000000 1.000000
vn 0.000000 0.000000 1.000000
vn -1.000000 -0.000000 0.000000
vn -1.000000 -0.000000 0.000000
vn -1.000000 -0.000000 0.000000
vn -1.000000 -0.000000 0.000000
vn -1.000000 -0.000000 0.000000
vn -1.000000 -0.000000 0.000000
vn 1.000000 0.000000 0.000000
vn 1.000000 0.000000 0.000000
vn 1.000000 0.000000 0.000000
vn 1.000000 0.000000 0.000000
vn 1.000000 0.000000 0.000000
vn 1.000000 0.000000 0.000000
vn 0.000000 -1.000000 0.000000
vn 0.000000 -1.000000 0.000000
vn 0.000000 -1.000000 0.000000
vn 0.000000 -1.000000 0.000000
vn 0.000000 -1.000000 0.000000
vn 0.000000 1.000000 0.000000
vn 0.000000 1.000000 0.000000
vn 0.000000 1.000000 0.000000
vn 0.000000 1.000000 0.000000
vn 0.000000 1.000000 0.000000
vn -1.000000 0.000001 0.000000
vn -1.000000 0.000001 0.000000
vn -1.000000 0.000001 0.000000
vn -1.000000 0.000001 0.000000
vn -1.000000 0.000001 0.000000
vn -1.000000 0.000001 0.000000
vn 1.000000 0.000000 0.000000
vn 1.000000 0.000000 0.000000
vn 1.000000 0.000000 0.000000
vn 1.000000 0.000000 0.000000
vn 1.000000 0.000000 0.000000
vn 1.000000 0.000000 0.000000
vn 0.000000 -1.000000 0.000000
vn 0.000000 -1.000000 0.000000
vn 0.000000 -1.000000 0.000000
vn 0.000000 -1.000000 0.000000
vn 0.000000 1.000000 0.000000
vn 0.000000 1.000000 0.000000
vn 0.000000 1.000000 0.000000
vn 0.000000 1.000000 0.000000
vn -1.000000 0.000000 0.000000
vn -1.000000 0.000000 0.000000
vn -1.000000 0.000000 0.000000
vn -1.000000 0.000000 0.000000
vn 1.000000 0.000000 0.000000
vn 1.000000 0.000000 0.000000
vn 1.000000 0.000000 0.000000
vn 1.000000 0.000000 0.000000
s off
g DinnerWalls
usemtl lambert70SG
f 1//1 2//2 3//3 4//4
f 2//5 5//6 6//7 7//8
f 3//9 2//10 7//11 8//12
f 5//13 9//14 10//15 6//16
f 9//17 3//18 8//19 10//20
f 4//21 11//22 12//23 1//24
f 9//25 5//26 13//27 14//28
f 8//29 7//30 6//31 10//32
f 1//33 12//34 13//35 5//36 2//37
f 3//38 9//39 14//40 11//41 4//42
f 15//43 16//44 17//45 18//46
f 16//47 19//48 20//49 17//50
f 12//51 11//52 14//53 13//54
f 20//55 19//56 21//57 22//58
f 23//59 24//60 25//61 26//62
f 23//63 27//64 28//65 24//66
f 29//67 30//68 31//69 32//70
f 25//71 33//72 34//73 26//74
f 37//75 35//76 36//77 40//78
f 38//79 28//80 27//81 39//82
f 18//83 41//84 30//85 29//86 15//87
f 30//88 41//89 42//90 43//91
f 39//92 34//93 36//94 35//95
s 1
f 41/1/96 49/5/97 50/6/98 51/7/99 52/8/100 44/3/101 45/4/102 42/2/103
s 2
f 31//104 53//105 54//106 55//107 56//108 30//109 43//110 46//111
s off
f 24//112 28//113 38//114 33//115 25//116
f 26//117 34//118 39//119 27//120 23//121
f 44//122 31//123 46//124 45//125
f 22//126 21//127 32//128 31//129 44//130
f 42//131 45//132 46//133 43//134
f 45//135 42//136 43//137 46//138
f 46//139 43//140 47//141 48//142
f 15//143 29//144 32//145 21//146 19//147 16//148
f 17//149 20//150 22//151 44//152 41//153 18//154
f 33//155 38//156 47//157 43//158 42//159
f 37//160 40//161 45//162 46//163 48//164
f 34//165 33//166 42//167 45//168 40//169 36//170
f 38//171 39//172 35//173 37//174 48//175 47//176
s 1
f 41/1/96 44/3/101 52/8/100 49/5/97
s 2
f 31//104 30//109 56//108 53//105
s off
usemtl initialShadingGroup
f 53//177 52//178 51//179 54//180
f 49//181 56//182 55//183 50//184
f 55//185 54//186 51//187 50//188
f 49//189 52//190 53//191 56//192
