# This file uses centimeters as units for non-parametric coordinates.

mtllib DiningRoomFloor.mtl
g default
v -525.621317 3.648132 1477.653281
v 281.503266 3.648132 1477.633451
v -525.621317 21.054778 1477.653359
v 281.503266 21.054779 1477.633530
v -525.690467 21.052351 860.207196
v 281.434129 21.052352 860.187249
v -525.690467 3.645677 860.206921
v 281.434129 3.645677 860.187131
vt 0.096075 0.966244
vt 0.096075 0.025469
vt 0.881118 0.025568
vt 0.881118 0.966342
vn 0.000025 -0.000005 1.000000
vn 0.000025 -0.000005 1.000000
vn 0.000025 -0.000005 1.000000
vn 0.000025 -0.000005 1.000000
vn -0.000000 1.000000 -0.000004
vn -0.000000 1.000000 -0.000004
vn -0.000000 1.000000 -0.000004
vn -0.000000 1.000000 -0.000004
vn -0.000025 0.000011 -1.000000
vn -0.000025 0.000011 -1.000000
vn -0.000025 0.000011 -1.000000
vn -0.000025 0.000011 -1.000000
vn 0.000000 -1.000000 0.000004
vn 0.000000 -1.000000 0.000004
vn 0.000000 -1.000000 0.000004
vn 0.000000 -1.000000 0.000004
vn 1.000000 0.000001 -0.000112
vn 1.000000 0.000001 -0.000112
vn 1.000000 0.000001 -0.000112
vn 1.000000 0.000001 -0.000112
vn -1.000000 0.000000 0.000112
vn -1.000000 0.000000 0.000112
vn -1.000000 0.000000 0.000112
vn -1.000000 0.000000 0.000112
s off
g DinnerRoomFloor
usemtl lambert61SG
f 1//1 2//2 4//3 3//4
f 3/1/5 4/2/6 6/3/7 5/4/8
f 5//9 6//10 8//11 7//12
f 7//13 8//14 2//15 1//16
f 2//17 8//18 6//19 4//20
f 7//21 1//22 3//23 5//24
