# This file uses centimeters as units for non-parametric coordinates.

mtllib TableDinner.mtl
g default
v -149.748380 126.150796 1047.822562
v -149.748380 126.150796 1050.967269
v -149.748380 123.006101 1047.822562
v -149.748380 123.006101 1050.967269
v -229.851436 123.006101 1047.822562
v -229.851436 123.006101 1050.967269
v -229.851436 126.150796 1047.822562
v -229.851436 126.150796 1050.967269
v -227.005412 123.006101 1047.822562
v -227.005412 123.006101 1050.967269
v -227.005434 126.150796 1050.967269
v -227.005434 126.150796 1047.822562
v -227.005412 21.055233 1047.822562
v -227.005412 21.055233 1050.967269
v -229.851436 21.055233 1050.967269
v -229.851436 21.055233 1047.822562
v -227.005412 23.832187 1047.822562
v -227.005412 23.832187 1050.967269
v -229.851436 23.832187 1050.967269
v -229.851436 23.832187 1047.822562
v -149.748380 126.150796 1164.184570
v -149.748380 126.150796 1161.039841
v -149.748380 123.006101 1164.184570
v -149.748380 123.006101 1161.039841
v -229.851436 123.006101 1164.184570
v -229.851436 123.006101 1161.039841
v -229.851436 126.150796 1164.184570
v -229.851436 126.150796 1161.039841
v -227.005412 123.006101 1164.184570
v -227.005412 123.006101 1161.039841
v -227.005434 126.150796 1161.039841
v -227.005434 126.150796 1164.184570
v -227.005412 21.055233 1164.184570
v -227.005412 21.055233 1161.039841
v -229.851436 21.055233 1161.039841
v -229.851436 21.055233 1164.184570
v -227.005412 23.832187 1164.184570
v -227.005412 23.832187 1161.039841
v -229.851436 23.832187 1161.039841
v -229.851436 23.832187 1164.184570
v -44.828858 126.150796 1047.822562
v -44.828858 126.150796 1050.967269
v -44.828858 123.006101 1047.822562
v -44.828858 123.006101 1050.967269
v 43.606129 123.006101 1047.822562
v 43.606129 123.006101 1050.967269
v 43.606129 126.150796 1047.822562
v 43.606129 126.150796 1050.967269
v 40.760105 123.006101 1047.822562
v 40.760105 123.006101 1050.967269
v 40.760127 126.150796 1050.967269
v 40.760127 126.150796 1047.822562
v 40.760105 21.055233 1047.822562
v 40.760105 21.055233 1050.967269
v 43.606129 21.055233 1050.967269
v 43.606129 21.055233 1047.822562
v 40.760105 23.832187 1047.822562
v 40.760105 23.832187 1050.967269
v 43.606129 23.832187 1050.967269
v 43.606129 23.832187 1047.822562
v -44.828836 126.150796 1164.184570
v -44.828836 126.150796 1161.039841
v -44.828836 123.006101 1164.184570
v -44.828836 123.006101 1161.039841
v 43.606129 123.006101 1164.184570
v 43.606129 123.006101 1161.039841
v 43.606129 126.150796 1164.184570
v 43.606129 126.150796 1161.039841
v 40.760105 123.006101 1164.184570
v 40.760105 123.006101 1161.039841
v 40.760127 126.150796 1161.039841
v 40.760127 126.150796 1164.184570
v 40.760105 21.055233 1164.184570
v 40.760105 21.055233 1161.039841
v 43.606129 21.055233 1161.039841
v 43.606129 21.055233 1164.184570
v 40.760105 23.832187 1164.184570
v 40.760105 23.832187 1161.039841
v 43.606129 23.832187 1161.039841
v 43.606129 23.832187 1164.184570
v 51.408024 132.511644 1039.745598
v 51.408024 132.511644 1172.261528
v 51.408024 126.108762 1039.745598
v 51.408024 126.108762 1172.261533
v -237.653331 126.108762 1039.745598
v -237.653331 126.108762 1172.261533
v -237.653331 132.512895 1039.745598
v -237.653331 132.512895 1172.261528
vt 0.751702 0.756630
vt 0.751702 0.752635
vt 0.755317 0.752635
vt 0.755317 0.756630
vt 0.653558 0.752635
vt 0.653558 0.756630
vt 0.755317 0.882616
vt 0.751702 0.882616
vt 0.628488 0.602434
vt 0.632103 0.602434
vt 0.632103 0.606429
vt 0.628488 0.606429
vt 0.730246 0.602434
vt 0.730246 0.606429
vt 0.632103 0.732414
vt 0.628488 0.732414
vt 0.632103 0.735942
vt 0.628488 0.735942
vt 0.762991 0.756630
vt 0.759375 0.756630
vt 0.759375 0.752635
vt 0.762991 0.752635
vt 0.762991 0.882616
vt 0.759375 0.882616
vt 0.861134 0.752635
vt 0.861134 0.756630
vt 0.624827 0.695095
vt 0.624827 0.699090
vt 0.621212 0.699090
vt 0.621212 0.695095
vt 0.624827 0.825075
vt 0.621212 0.825075
vt 0.523069 0.699090
vt 0.523069 0.695095
vt 0.624827 0.828603
vt 0.621212 0.828603
vt 0.868807 0.756630
vt 0.865192 0.756630
vt 0.865192 0.752635
vt 0.868807 0.752635
vt 0.868807 0.882616
vt 0.865192 0.882616
vt 0.977535 0.752635
vt 0.977535 0.756630
vt 0.533221 0.830984
vt 0.533221 0.834979
vt 0.529606 0.834979
vt 0.529606 0.830984
vt 0.533221 0.960964
vt 0.529606 0.960964
vt 0.420878 0.834979
vt 0.420878 0.830984
vt 0.533221 0.964492
vt 0.529606 0.964492
vt 0.354502 0.784824
vt 0.354502 0.780829
vt 0.358117 0.780829
vt 0.358117 0.784824
vt 0.245775 0.780829
vt 0.245775 0.784824
vt 0.358117 0.910810
vt 0.354502 0.910810
vt 0.537276 0.830984
vt 0.540892 0.830984
vt 0.540892 0.834979
vt 0.537276 0.834979
vt 0.649619 0.830984
vt 0.649619 0.834979
vt 0.540892 0.960964
vt 0.537276 0.960964
vt 0.540892 0.964492
vt 0.537276 0.964492
vt 0.619837 0.600053
vt 0.619837 0.596058
vt 0.623452 0.596058
vt 0.623452 0.600053
vt 0.619837 0.456228
vt 0.623452 0.456228
vt 0.619837 0.452233
vt 0.623452 0.452233
vt 0.207497 0.780829
vt 0.211492 0.780829
vt 0.211492 0.784445
vt 0.207497 0.784445
vt 0.211492 0.882588
vt 0.207497 0.882588
vt 0.192186 0.780829
vt 0.196181 0.780829
vt 0.196181 0.878973
vt 0.192186 0.878973
vt 0.744798 0.742264
vt 0.741183 0.742264
vt 0.741183 0.602434
vt 0.744798 0.602434
vt 0.203837 0.780829
vt 0.203837 0.784445
vt 0.199842 0.784445
vt 0.199842 0.780829
vt 0.203837 0.882588
vt 0.199842 0.882588
vt 0.188526 0.780829
vt 0.188526 0.878973
vt 0.184531 0.878973
vt 0.184531 0.780829
vt 0.902529 0.600053
vt 0.898914 0.600053
vt 0.898914 0.596058
vt 0.902529 0.596058
vt 0.898914 0.456228
vt 0.902529 0.456228
vt 0.902529 0.452233
vt 0.898914 0.452233
vt 0.238119 0.893173
vt 0.238119 0.889557
vt 0.242114 0.889557
vt 0.242114 0.893173
vt 0.238119 0.780829
vt 0.242114 0.780829
vt 0.222808 0.889557
vt 0.222808 0.780829
vt 0.226803 0.780829
vt 0.226803 0.889557
vt 0.733907 0.742264
vt 0.733907 0.602434
vt 0.737522 0.602434
vt 0.737522 0.742264
vt 0.234458 0.893173
vt 0.230464 0.893173
vt 0.230464 0.889557
vt 0.234458 0.889557
vt 0.230464 0.780829
vt 0.234458 0.780829
vt 0.219148 0.889557
vt 0.215153 0.889557
vt 0.215153 0.780829
vt 0.219148 0.780829
vt 0.176876 0.784824
vt 0.176876 0.780829
vt 0.180870 0.780829
vt 0.180870 0.784824
vt 0.757489 0.600053
vt 0.757489 0.596058
vt 0.761484 0.596058
vt 0.761484 0.600053
vt 0.631504 0.600053
vt 0.631504 0.596058
vt 0.627976 0.600053
vt 0.627976 0.596058
vt 0.627976 0.456228
vt 0.631504 0.456228
vt 0.627976 0.452233
vt 0.631504 0.452233
vt 0.757489 0.456228
vt 0.757489 0.452233
vt 0.761484 0.452233
vt 0.761484 0.456228
vt 0.891174 0.600053
vt 0.891174 0.596058
vt 0.894702 0.596058
vt 0.894702 0.600053
vt 0.765189 0.600053
vt 0.765189 0.596058
vt 0.891174 0.456228
vt 0.894702 0.456228
vt 0.891174 0.452233
vt 0.894702 0.452233
vt 0.765189 0.452233
vt 0.765189 0.456228
vt 0.169220 0.780829
vt 0.173215 0.780829
vt 0.173215 0.784824
vt 0.169220 0.784824
vt 0.165560 0.784824
vt 0.161565 0.784824
vt 0.161565 0.780830
vt 0.165560 0.780830
vt 0.741904 0.428511
vt 0.737909 0.428511
vt 0.737909 0.424516
vt 0.741904 0.424516
vt 0.867889 0.424516
vt 0.867889 0.428511
vt 0.871417 0.424516
vt 0.871417 0.428511
vt 0.867889 0.284686
vt 0.871417 0.284686
vt 0.867889 0.280691
vt 0.871417 0.280691
vt 0.741904 0.284686
vt 0.741904 0.280691
vt 0.737909 0.284686
vt 0.737909 0.280691
vt 0.751987 0.750254
vt 0.748459 0.750254
vt 0.748459 0.746259
vt 0.751987 0.746259
vt 0.748459 0.606429
vt 0.751987 0.606429
vt 0.877972 0.750254
vt 0.877972 0.746259
vt 0.751987 0.602434
vt 0.748459 0.602434
vt 0.877972 0.602434
vt 0.877972 0.606429
vt 0.157904 0.780830
vt 0.157904 0.784824
vt 0.153909 0.784824
vt 0.153909 0.780830
vt 0.509441 0.630141
vt 0.509438 0.026156
vt 0.521017 0.026156
vt 0.521017 0.630141
vt 0.525165 0.630141
vt 0.525168 0.026156
vt 0.536744 0.026156
vt 0.536744 0.630141
vt 0.021785 0.026156
vt 0.261381 0.026156
vt 0.261381 0.630141
vt 0.021785 0.630141
vt 0.505263 0.026156
vt 0.505263 0.630141
vt 0.265668 0.630141
vt 0.265668 0.026156
vt 0.540893 0.303044
vt 0.540893 0.026156
vt 0.552469 0.026156
vt 0.552469 0.303044
vt 0.556620 0.303044
vt 0.556620 0.026156
vt 0.568199 0.026156
vt 0.568199 0.303044
vn 1.000000 -0.000000 0.000000
vn 1.000000 -0.000000 0.000000
vn 1.000000 -0.000000 0.000000
vn 1.000000 -0.000000 0.000000
vn -0.000000 -1.000000 -0.000000
vn -0.000000 -1.000000 -0.000000
vn -0.000000 -1.000000 -0.000000
vn -0.000000 -1.000000 -0.000000
vn -1.000000 0.000000 -0.000000
vn -1.000000 0.000000 -0.000000
vn -1.000000 0.000000 -0.000000
vn -1.000000 0.000000 -0.000000
vn 0.000000 1.000000 0.000000
vn 0.000000 1.000000 0.000000
vn 0.000000 1.000000 0.000000
vn 0.000000 1.000000 0.000000
vn -0.000000 0.000000 1.000000
vn -0.000000 0.000000 1.000000
vn -0.000000 0.000000 1.000000
vn -0.000000 0.000000 1.000000
vn 0.000000 -0.000000 -1.000000
vn 0.000000 -0.000000 -1.000000
vn 0.000000 -0.000000 -1.000000
vn 0.000000 -0.000000 -1.000000
vn -0.000000 -1.000000 -0.000000
vn -0.000000 -1.000000 -0.000000
vn -0.000000 -1.000000 -0.000000
vn -0.000000 -1.000000 -0.000000
vn -0.000000 0.000000 1.000000
vn -0.000000 0.000000 1.000000
vn 0.000000 1.000000 0.000000
vn 0.000000 1.000000 0.000000
vn 0.000000 -0.000000 -1.000000
vn 0.000000 -0.000000 -1.000000
vn 1.000000 -0.000000 0.000000
vn 1.000000 -0.000000 0.000000
vn 1.000000 -0.000000 0.000000
vn 1.000000 -0.000000 0.000000
vn -1.000000 0.000000 -0.000000
vn -1.000000 0.000000 -0.000000
vn -1.000000 0.000000 -0.000000
vn -1.000000 0.000000 -0.000000
vn 0.000000 -0.000000 -1.000000
vn 0.000000 -0.000000 -1.000000
vn 0.000000 -0.000000 -1.000000
vn 0.000000 -0.000000 -1.000000
vn 1.000000 -0.000000 0.000000
vn 1.000000 -0.000000 0.000000
vn -0.000000 0.000000 1.000000
vn -0.000000 0.000000 1.000000
vn 0.000000 1.000000 0.000000
vn 0.000000 1.000000 0.000000
vn 0.000000 1.000000 0.000000
vn 0.000000 1.000000 0.000000
vn -1.000000 0.000000 -0.000000
vn -1.000000 0.000000 -0.000000
vn -0.000000 -1.000000 -0.000000
vn -0.000000 -1.000000 -0.000000
vn 1.000000 -0.000000 0.000000
vn 1.000000 -0.000000 0.000000
vn 1.000000 -0.000000 0.000000
vn 1.000000 -0.000000 0.000000
vn 1.000000 -0.000000 0.000000
vn 1.000000 -0.000000 0.000000
vn -0.000000 -1.000000 -0.000000
vn -0.000000 -1.000000 -0.000000
vn -1.000000 0.000000 -0.000000
vn -1.000000 0.000000 -0.000000
vn -1.000000 0.000000 -0.000000
vn -1.000000 0.000000 -0.000000
vn 0.000000 1.000000 0.000000
vn 0.000000 1.000000 0.000000
vn 0.000000 1.000000 0.000000
vn 0.000000 1.000000 0.000000
vn 0.000000 0.000000 -1.000000
vn 0.000000 0.000000 -1.000000
vn 0.000000 0.000001 -1.000000
vn 0.000000 0.000000 -1.000000
vn -0.000000 0.000001 1.000000
vn -0.000000 0.000000 1.000000
vn -0.000000 0.000000 1.000000
vn -0.000000 0.000001 1.000000
vn -0.000000 -1.000000 -0.000000
vn -0.000000 -1.000000 -0.000000
vn -0.000000 -1.000000 -0.000000
vn -0.000000 -1.000000 -0.000000
vn 0.000000 -0.000000 -1.000000
vn 0.000000 -0.000000 -1.000000
vn 0.000000 1.000000 0.000000
vn 0.000000 1.000000 0.000000
vn -0.000000 0.000001 1.000000
vn -0.000000 0.000001 1.000000
vn 1.000000 -0.000000 0.000000
vn 1.000000 -0.000000 0.000000
vn -1.000000 0.000000 -0.000000
vn -1.000000 0.000000 -0.000000
vn -0.000000 0.000000 1.000000
vn -0.000000 0.000000 1.000000
vn -0.000000 0.000000 1.000000
vn -0.000000 0.000000 1.000000
vn 1.000000 -0.000000 0.000000
vn 1.000000 -0.000000 0.000000
vn 0.000000 -0.000000 -1.000000
vn 0.000000 -0.000000 -1.000000
vn -1.000000 0.000000 -0.000000
vn -1.000000 0.000000 -0.000000
vn -1.000000 0.000000 -0.000000
vn -1.000000 0.000000 -0.000000
vn -0.000000 -1.000000 -0.000000
vn -0.000000 -1.000000 -0.000000
vn -0.000000 -1.000000 -0.000000
vn -0.000000 -1.000000 -0.000000
vn 1.000000 -0.000000 0.000000
vn 1.000000 -0.000000 0.000000
vn 1.000000 -0.000000 0.000000
vn 1.000000 -0.000000 0.000000
vn 0.000000 1.000000 0.000000
vn 0.000000 1.000000 0.000000
vn 0.000000 1.000000 0.000000
vn 0.000000 1.000000 0.000000
vn -0.000000 0.000000 1.000000
vn -0.000000 0.000000 1.000000
vn -0.000000 0.000000 1.000000
vn -0.000000 0.000000 1.000000
vn 0.000000 -0.000000 -1.000000
vn 0.000000 -0.000000 -1.000000
vn 0.000000 0.000000 -1.000000
vn 0.000000 0.000000 -1.000000
vn -0.000000 -1.000000 -0.000000
vn -0.000000 -1.000000 -0.000000
vn -0.000000 -1.000000 -0.000000
vn -0.000000 -1.000000 -0.000000
vn -0.000000 0.000000 1.000000
vn -0.000000 0.000000 1.000000
vn 0.000000 1.000000 0.000000
vn 0.000000 1.000000 0.000000
vn 0.000000 0.000000 -1.000000
vn 0.000000 0.000000 -1.000000
vn -1.000000 0.000000 -0.000000
vn -1.000000 0.000000 -0.000000
vn -1.000000 0.000000 -0.000000
vn -1.000000 0.000000 -0.000000
vn 1.000000 -0.000000 0.000000
vn 1.000000 -0.000000 0.000000
vn 1.000000 -0.000000 0.000000
vn 1.000000 -0.000000 0.000000
vn 0.000000 -0.000000 -1.000000
vn 0.000000 -0.000000 -1.000000
vn 0.000000 -0.000000 -1.000000
vn 0.000000 -0.000000 -1.000000
vn -1.000000 0.000000 -0.000000
vn -1.000000 0.000000 -0.000000
vn -0.000000 0.000000 1.000000
vn -0.000000 0.000000 1.000000
vn 0.000000 1.000000 0.000000
vn 0.000000 1.000000 0.000000
vn 0.000000 1.000000 0.000000
vn 0.000000 1.000000 0.000000
vn 1.000000 -0.000000 0.000000
vn 1.000000 -0.000000 0.000000
vn -0.000000 -1.000000 -0.000000
vn -0.000000 -1.000000 -0.000000
vn -1.000000 0.000000 -0.000000
vn -1.000000 0.000000 -0.000000
vn -1.000000 0.000000 -0.000000
vn -1.000000 0.000000 -0.000000
vn -1.000000 0.000000 -0.000000
vn -1.000000 0.000000 -0.000000
vn -0.000000 -1.000000 -0.000000
vn -0.000000 -1.000000 -0.000000
vn 1.000000 -0.000000 0.000000
vn 1.000000 -0.000000 0.000000
vn 1.000000 -0.000000 0.000000
vn 1.000000 -0.000000 0.000000
vn 0.000000 1.000000 0.000000
vn 0.000000 1.000000 0.000000
vn 0.000000 1.000000 0.000000
vn 0.000000 1.000000 0.000000
vn 0.000000 0.000000 -1.000000
vn 0.000000 0.000000 -1.000000
vn 0.000000 0.000001 -1.000000
vn 0.000000 0.000000 -1.000000
vn -0.000000 0.000001 1.000000
vn -0.000000 0.000000 1.000000
vn -0.000000 0.000000 1.000000
vn -0.000000 0.000000 1.000000
vn -0.000000 -1.000000 -0.000000
vn -0.000000 -1.000000 -0.000000
vn -0.000000 -1.000000 -0.000000
vn -0.000000 -1.000000 -0.000000
vn 0.000000 -0.000000 -1.000000
vn 0.000000 -0.000000 -1.000000
vn 0.000000 1.000000 0.000000
vn 0.000000 1.000000 0.000000
vn -0.000000 0.000000 1.000000
vn -0.000000 0.000000 1.000000
vn -1.000000 0.000000 -0.000000
vn -1.000000 0.000000 -0.000000
vn 1.000000 -0.000000 0.000000
vn 1.000000 -0.000000 0.000000
vn -0.000000 0.000000 1.000000
vn -0.000000 0.000000 1.000000
vn -0.000000 0.000000 1.000000
vn -0.000000 0.000000 1.000000
vn -1.000000 0.000000 -0.000000
vn -1.000000 0.000000 -0.000000
vn 0.000000 -0.000000 -1.000000
vn 0.000000 -0.000000 -1.000000
vn 1.000000 -0.000000 0.000000
vn 1.000000 -0.000000 0.000000
vn 1.000000 -0.000000 0.000000
vn 1.000000 -0.000000 0.000000
vn -0.000000 -1.000000 -0.000000
vn -0.000000 -1.000000 -0.000000
vn -0.000000 -1.000000 -0.000000
vn -0.000000 -1.000000 -0.000000
vn -1.000000 0.000000 -0.000000
vn -1.000000 0.000000 -0.000000
vn -1.000000 0.000000 -0.000000
vn -1.000000 0.000000 -0.000000
vn 0.000004 1.000000 0.000000
vn 0.000004 1.000000 0.000000
vn 0.000004 1.000000 0.000000
vn 0.000004 1.000000 0.000000
vn 0.000000 0.000001 1.000000
vn 0.000000 0.000001 1.000000
vn 0.000000 0.000001 1.000000
vn 0.000000 0.000001 1.000000
vn 0.000000 -0.000000 -1.000000
vn 0.000000 -0.000000 -1.000000
vn 0.000000 -0.000000 -1.000000
vn 0.000000 -0.000000 -1.000000
s off
g DinnerTable
usemtl lambert47SG
f 1/137/1 2/138/2 4/139/3 3/140/4
s 1
f 13/73/5 14/74/6 15/75/7 16/76/8
s 2
f 5/141/9 6/142/10 8/143/11 7/144/12
s 3
f 7/81/13 8/82/14 11/83/15 12/84/16
s 4
f 10/1/17 11/2/18 8/3/19 6/4/20
s 5
f 7/9/21 12/10/22 9/11/23 5/12/24
s off
f 3/87/25 4/88/26 10/89/27 9/90/28
s 4
f 2/5/29 11/2/18 10/1/17 4/6/30
s 3
f 12/84/16 11/83/15 2/85/31 1/86/32
s 5
f 9/11/23 12/10/22 1/13/33 3/14/34
s 6
f 17/157/35 18/158/36 14/159/37 13/160/38
s 2
f 19/146/39 20/145/40 16/147/41 15/148/42
s 5
f 20/16/43 17/15/44 13/17/45 16/18/46
s 6
f 9/161/47 10/162/48 18/158/36 17/157/35
s 4
f 10/1/17 6/4/20 19/7/49 18/8/50
s 2
f 6/142/10 5/141/9 20/145/40 19/146/39
s 5
f 5/12/24 9/11/23 17/15/44 20/16/43
s off
f 18/91/51 19/92/52 39/93/53 38/94/54
s 2
f 19/146/39 15/148/42 35/149/55 39/150/56
s 1
f 15/75/7 14/74/6 34/77/57 35/78/58
s 6
f 14/159/37 18/158/36 38/163/59 34/164/60
s off
f 21/169/61 23/170/62 24/171/63 22/172/64
s 1
f 33/79/65 36/80/66 35/78/58 34/77/57
s 2
f 25/154/67 27/155/68 28/156/69 26/153/70
s 8
f 27/95/71 32/96/72 31/97/73 28/98/74
s 9
f 30/19/75 26/20/76 28/21/77 31/22/78
s 10
f 27/27/79 25/28/80 29/29/81 32/30/82
s off
f 23/101/83 29/102/84 30/103/85 24/104/86
s 9
f 22/25/87 24/26/88 30/19/75 31/22/78
s 8
f 32/96/72 21/99/89 22/100/90 31/97/73
s 10
f 29/29/81 23/33/91 21/34/92 32/30/82
s 6
f 37/165/93 33/166/94 34/164/60 38/163/59
s 2
f 39/150/56 35/149/55 36/151/95 40/152/96
s 10
f 40/31/97 36/35/98 33/36/99 37/32/100
s 6
f 29/167/101 37/165/93 38/163/59 30/168/102
s 9
f 30/19/75 38/23/103 39/24/104 26/20/76
s 2
f 26/153/70 39/150/56 40/152/96 25/154/67
s 10
f 25/28/80 40/31/97 37/32/100 29/29/81
s off
f 41/173/105 43/174/106 44/175/107 42/176/108
s 11
f 53/105/109 56/106/110 55/107/111 54/108/112
s 12
f 45/177/113 47/178/114 48/179/115 46/180/116
s 13
f 47/113/117 52/114/118 51/115/119 48/116/120
s 14
f 50/37/121 46/38/122 48/39/123 51/40/124
s 15
f 47/45/125 45/46/126 49/47/127 52/48/128
s off
f 43/119/129 49/120/130 50/121/131 44/122/132
s 14
f 42/43/133 44/44/134 50/37/121 51/40/124
s 13
f 52/114/118 41/117/135 42/118/136 51/115/119
s 15
f 49/47/127 43/51/137 41/52/138 52/48/128
s 16
f 57/193/139 53/194/140 54/195/141 58/196/142
s 12
f 59/181/143 55/183/144 56/184/145 60/182/146
s 15
f 60/49/147 56/53/148 53/54/149 57/50/150
s 16
f 49/199/151 57/193/139 58/196/142 50/200/152
s 14
f 50/37/121 58/41/153 59/42/154 46/38/122
s 12
f 46/180/116 59/181/143 60/182/146 45/177/113
s 15
f 45/46/126 60/49/147 57/50/150 49/47/127
s off
f 58/123/155 78/124/156 79/125/157 59/126/158
s 12
f 59/181/143 79/185/159 75/186/160 55/183/144
s 11
f 55/107/111 75/109/161 74/110/162 54/108/112
s 16
f 54/195/141 74/197/163 78/198/164 58/196/142
s off
f 61/205/165 62/206/166 64/207/167 63/208/168
s 11
f 73/111/169 74/110/162 75/109/161 76/112/170
s 12
f 65/190/171 66/189/172 68/191/173 67/192/174
s 19
f 67/127/175 68/128/176 71/129/177 72/130/178
s 20
f 70/55/179 71/56/180 68/57/181 66/58/182
s 21
f 67/63/183 72/64/184 69/65/185 65/66/186
s off
f 63/133/187 64/134/188 70/135/189 69/136/190
s 20
f 62/59/191 71/56/180 70/55/179 64/60/192
s 19
f 72/130/178 71/129/177 62/131/193 61/132/194
s 21
f 69/65/185 72/64/184 61/67/195 63/68/196
s 16
f 77/201/197 78/198/164 74/197/163 73/202/198
s 12
f 79/185/159 80/187/199 76/188/200 75/186/160
s 21
f 80/70/201 77/69/202 73/71/203 76/72/204
s 16
f 69/203/205 70/204/206 78/198/164 77/201/197
s 20
f 70/55/179 66/58/182 79/61/207 78/62/208
s 12
f 66/189/172 65/190/171 80/187/199 79/185/159
s 21
f 65/66/186 69/65/185 77/69/202 80/70/201
s off
f 81/225/209 82/226/210 84/227/211 83/228/212
f 83/217/213 84/218/214 86/219/215 85/220/216
f 85/229/217 86/230/218 88/231/219 87/232/220
f 88/221/221 82/222/222 81/223/223 87/224/224
f 82/209/225 88/210/226 86/211/227 84/212/228
f 87/213/229 81/214/230 83/215/231 85/216/232
