# This file uses centimeters as units for non-parametric coordinates.

g default
v -1570.578082 21.049187 1477.698283
v -1556.458453 21.049187 1477.698283
v -1570.578082 371.238945 1477.698283
v -1556.458453 371.238945 1477.698283
v -1570.578082 371.238945 564.353008
v -1556.458453 371.238945 564.353008
v -1570.578082 21.049187 564.353008
v -1556.458453 21.049187 564.353008
v -1570.578082 371.238945 579.492534
v -1556.458453 371.238945 579.492534
v -1556.458453 21.049187 579.492290
v -1570.578082 21.049187 579.492290
v -1570.578082 371.238914 1459.737956
v -1556.458453 371.238914 1459.737956
v -1556.458453 21.049187 1459.737956
v -1570.578082 21.049187 1459.737956
v 1279.779584 21.049187 1459.737956
v 1279.779584 21.049187 1477.698283
v 1279.779584 371.238914 1459.737956
v 1279.779584 371.238945 1477.698283
v 1265.884076 21.049187 1459.737956
v 1265.884076 371.238914 1459.737956
v 1265.884076 371.238945 1477.698283
v 1265.884076 21.049187 1477.698283
v 1265.884076 21.049187 843.152751
v 1265.884076 371.238914 843.152751
v 1279.779584 371.238914 843.152751
v 1279.779584 21.049187 843.152751
v 1265.884076 21.049187 860.207622
v 1265.884076 371.238914 860.207622
v 1279.779584 371.238914 860.207622
v 1279.779584 21.049187 860.207622
v 1948.809613 371.238914 860.207622
v 1948.809613 21.049187 860.207622
v 1948.809613 21.049187 843.152751
v 1948.809613 371.238914 843.152751
v 1934.914105 371.238914 860.207622
v 1934.914105 21.049187 860.207622
v 1934.914105 21.049187 843.152751
v 1934.914105 371.238914 843.152751
v 1934.914105 21.049187 170.379558
v 1934.914105 371.238914 170.379558
v 1948.809613 371.238914 170.379558
v 1948.809613 21.049187 170.379558
v 1934.914105 21.049187 185.518840
v 1934.914105 371.238914 185.518840
v 1948.809613 371.238914 185.518840
v 1948.809613 21.049187 185.518840
v 1525.938519 21.049187 185.518840
v 1525.938519 371.238914 185.518840
v 1525.938519 371.238914 170.379558
v 1525.938519 21.049187 170.379558
v 1539.834027 21.049187 185.518840
v 1539.834027 371.238914 185.518840
v 1539.834027 371.238914 170.379558
v 1539.834027 21.049187 170.379558
v 1539.834027 371.238914 -703.511922
v 1539.834027 21.049187 -703.511922
v 1525.938519 21.049187 -703.511922
v 1525.938519 371.238914 -703.511922
v 1539.834027 371.238914 -688.372761
v 1539.834027 21.049187 -688.372761
v 1525.938519 21.049187 -688.372761
v 1525.938519 371.238914 -688.372761
v 846.713666 21.049187 -688.372761
v 846.713666 371.238914 -688.372761
v 846.713666 371.238914 -703.511922
v 846.713666 21.049187 -703.511922
v 860.610883 21.049187 -688.372761
v 860.610883 371.238914 -688.372761
v 860.610883 371.238914 -703.511922
v 860.610883 21.049187 -703.511922
v 860.610883 371.238914 -1202.725056
v 860.610883 21.049187 -1202.725056
v 846.713666 21.049187 -1202.725056
v 846.713666 371.238914 -1202.725056
v 860.610883 371.238914 -1202.725056
v 860.610883 21.049187 -1202.725056
v 846.713666 21.049187 -1202.725056
v 846.713666 371.238914 -1202.725056
v 860.610883 371.238914 -1202.725056
v 860.610883 21.049187 -1202.725056
v 846.713666 21.049187 -1202.725056
v 846.713666 371.238914 -1202.725056
v 860.610883 371.238914 -1187.585652
v 860.610883 21.049187 -1187.585652
v 846.713666 21.049187 -1187.585652
v 846.713666 371.238914 -1187.585652
v -855.228107 21.049187 -1187.585652
v -855.228107 371.238914 -1187.585652
v -855.228107 371.238914 -1202.725056
v -855.228107 21.049187 -1202.725056
v -841.108295 21.049187 -1187.585652
v -841.108295 371.238914 -1187.585652
v -841.108295 371.238914 -1202.725056
v -841.108295 21.049187 -1202.725056
v -841.108295 21.049187 -688.372517
v -841.108295 371.238914 -688.372517
v -855.228107 371.238914 -688.372517
v -855.228107 21.049187 -688.372517
v -841.108295 21.049187 -703.511922
v -841.108295 371.238914 -703.511922
v -855.228107 371.238914 -703.511922
v -855.228107 21.049187 -703.511922
v -1354.468341 371.238914 -703.511922
v -1354.468341 21.049187 -703.511922
v -1354.468341 21.049187 -688.372517
v -1354.468341 371.238914 -688.372517
v -1340.294391 371.238945 579.492534
v -1340.294391 21.049187 579.492290
v -1340.294391 21.049187 564.353008
v -1340.294391 371.238945 564.353008
v -1354.414142 371.238945 579.492534
v -1354.414142 21.049187 579.492290
v -1354.414142 21.049187 564.353008
v -1354.414142 371.238945 564.353008
v -1340.348514 371.238914 -688.372517
v -1340.348514 21.049187 -688.372517
v -1340.348514 371.238914 -703.511922
v -1340.348514 21.049187 -703.511922
vt 0.375000 0.000000
vt 0.625000 0.000000
vt 0.375000 0.250000
vt 0.625000 0.250000
vt 0.375000 0.500000
vt 0.625000 0.500000
vt 0.375000 0.750000
vt 0.625000 0.750000
vt 0.375000 1.000000
vt 0.625000 1.000000
vt 0.875000 0.000000
vt 0.875000 0.250000
vt 0.125000 0.000000
vt 0.125000 0.250000
vt 0.137588 0.250000
vt 0.375000 0.487412
vt 0.625000 0.487412
vt 0.862412 0.250000
vt 0.625000 0.762588
vt 0.862412 0.000000
vt 0.137588 0.000000
vt 0.375000 0.762588
vt 0.360241 0.250000
vt 0.375000 0.264759
vt 0.625000 0.264759
vt 0.639759 0.250000
vt 0.625000 0.985241
vt 0.639759 0.000000
vt 0.360241 0.000000
vt 0.375000 0.985241
vt 0.625000 0.000000
vt 0.639759 0.000000
vt 0.639759 0.250000
vt 0.625000 0.250000
vt 0.639759 0.000000
vt 0.639759 0.250000
vt 0.625000 0.250000
vt 0.625000 0.000000
vt 0.639759 0.000000
vt 0.639759 0.250000
vt 0.639759 0.250000
vt 0.639759 0.000000
vt 0.639759 0.000000
vt 0.639759 0.250000
vt 0.639759 0.250000
vt 0.639759 0.000000
vt 0.639759 0.250000
vt 0.639759 0.000000
vt 0.639759 0.000000
vt 0.639759 0.250000
vt 0.639759 0.250000
vt 0.639759 0.000000
vt 0.639759 0.000000
vt 0.639759 0.250000
vt 0.639759 0.000000
vt 0.639759 0.250000
vt 0.639759 0.250000
vt 0.639759 0.000000
vt 0.639759 0.000000
vt 0.639759 0.250000
vt 0.639759 0.250000
vt 0.639759 0.000000
vt 0.639759 0.000000
vt 0.639759 0.250000
vt 0.639759 0.250000
vt 0.639759 0.000000
vt 0.639759 0.000000
vt 0.639759 0.250000
vt 0.639759 0.250000
vt 0.639759 0.000000
vt 0.639759 0.250000
vt 0.639759 0.000000
vt 0.639759 0.000000
vt 0.639759 0.250000
vt 0.639759 0.250000
vt 0.639759 0.000000
vt 0.639759 0.000000
vt 0.639759 0.250000
vt 0.639759 0.000000
vt 0.639759 0.250000
vt 0.639759 0.250000
vt 0.639759 0.000000
vt 0.639759 0.000000
vt 0.639759 0.250000
vt 0.639759 0.250000
vt 0.639759 0.000000
vt 0.639759 0.250000
vt 0.639759 0.000000
vt 0.639759 0.000000
vt 0.639759 0.250000
vt 0.639759 0.250000
vt 0.639759 0.000000
vt 0.639759 0.000000
vt 0.639759 0.250000
vt 0.639759 0.250000
vt 0.639759 0.000000
vt 0.639759 0.000000
vt 0.639759 0.250000
vt 0.639759 0.250000
vt 0.639759 0.000000
vt 0.639759 0.000000
vt 0.639759 0.250000
vt 0.639759 0.000000
vt 0.639759 0.250000
vt 0.639759 0.250000
vt 0.639759 0.000000
vt 0.639759 0.000000
vt 0.639759 0.250000
vt 0.639759 0.250000
vt 0.639759 0.000000
vt 0.639759 0.000000
vt 0.639759 0.250000
vt 0.639759 0.250000
vt 0.639759 0.000000
vt 0.639759 0.000000
vt 0.639759 0.250000
vt 0.639759 0.250000
vt 0.639759 0.000000
vt 0.639759 0.250000
vt 0.639759 0.000000
vt 0.639759 0.000000
vt 0.639759 0.250000
vt 0.862412 0.250000
vt 0.862412 0.000000
vt 0.875000 0.000000
vt 0.875000 0.250000
vt 0.862412 0.250000
vt 0.862412 0.000000
vt 0.875000 0.000000
vt 0.875000 0.250000
vt 0.875000 0.000000
vt 0.875000 0.250000
vt 0.875000 0.250000
vt 0.875000 0.000000
vt 0.639759 0.250000
vt 0.639759 0.000000
vt 0.639759 0.000000
vt 0.639759 0.250000
vn 0.000000 0.000000 1.000000
vn 0.000000 0.000000 1.000000
vn 0.000000 0.000000 1.000000
vn 0.000000 0.000000 1.000000
vn 0.000000 1.000000 0.000000
vn 0.000000 1.000000 0.000000
vn 0.000000 1.000000 0.000000
vn 0.000000 1.000000 0.000000
vn 0.000000 0.000000 -1.000000
vn 0.000000 0.000000 -1.000000
vn 0.000000 0.000000 -1.000000
vn 0.000000 0.000000 -1.000000
vn 0.000000 -1.000000 0.000000
vn 0.000000 -1.000000 0.000000
vn 0.000000 -1.000000 0.000000
vn 0.000000 -1.000000 0.000000
vn 1.000000 0.000000 0.000000
vn 1.000000 0.000000 0.000000
vn 1.000000 0.000000 -0.000043
vn 1.000000 0.000000 -0.000043
vn -1.000000 0.000000 0.000000
vn -1.000000 0.000000 0.000000
vn -1.000000 0.000000 0.000000
vn -1.000000 0.000000 0.000000
vn 0.000000 1.000000 -0.000000
vn 0.000000 1.000000 -0.000001
vn 1.000000 0.000000 0.000000
vn 1.000000 0.000000 0.000000
vn 1.000000 0.000000 0.000000
vn 1.000000 0.000000 0.000000
vn 0.000000 -1.000000 0.000000
vn 0.000000 -1.000000 0.000000
vn -1.000000 0.000000 0.000000
vn -1.000000 0.000000 0.000000
vn 0.000000 1.000000 -0.000002
vn 0.000000 1.000000 -0.000001
vn 1.000000 0.000000 0.000000
vn 1.000000 0.000000 0.000000
vn 1.000000 0.000000 0.000000
vn 1.000000 0.000000 0.000000
vn 0.000000 -1.000000 0.000000
vn 0.000000 -1.000000 0.000000
vn -1.000000 0.000000 0.000000
vn -1.000000 0.000000 0.000000
vn 0.000000 -1.000000 0.000000
vn 0.000000 -1.000000 0.000000
vn 0.000000 -1.000000 0.000000
vn 0.000000 -1.000000 0.000000
vn 0.000000 0.000000 -1.000000
vn 0.000000 0.000000 -1.000000
vn 0.000000 0.000000 -1.000000
vn 0.000000 0.000000 -1.000000
vn 0.000000 1.000000 -0.000001
vn 0.000000 1.000000 -0.000001
vn 0.000000 1.000000 -0.000002
vn 0.000000 1.000000 -0.000000
vn 0.000000 0.000000 1.000000
vn 0.000000 0.000000 1.000000
vn 0.000000 0.000000 1.000000
vn 0.000000 0.000000 1.000000
vn 0.000000 0.000000 -1.000000
vn 0.000000 0.000000 -1.000000
vn 0.000000 0.000000 -1.000000
vn 0.000000 0.000000 -1.000000
vn -1.000000 0.000000 0.000000
vn -1.000000 0.000000 0.000000
vn -1.000000 0.000000 0.000000
vn -1.000000 0.000000 0.000000
vn 0.000000 1.000000 0.000000
vn 0.000000 1.000000 0.000000
vn 0.000000 1.000000 0.000000
vn 0.000000 1.000000 0.000000
vn 1.000000 0.000000 0.000000
vn 1.000000 0.000000 0.000000
vn 1.000000 0.000000 0.000000
vn 1.000000 0.000000 0.000000
vn 0.000000 -1.000000 0.000000
vn 0.000000 -1.000000 0.000000
vn 0.000000 -1.000000 0.000000
vn 0.000000 -1.000000 0.000000
vn -1.000000 0.000000 0.000000
vn -1.000000 0.000000 0.000000
vn 1.000000 0.000000 0.000000
vn 1.000000 0.000000 0.000000
vn 0.000000 0.000000 1.000000
vn 0.000000 0.000000 1.000000
vn 0.000000 0.000000 1.000000
vn 0.000000 0.000000 1.000000
vn 0.000000 -1.000000 0.000000
vn 0.000000 -1.000000 0.000000
vn 0.000000 -1.000000 0.000000
vn 0.000000 -1.000000 0.000000
vn 0.000000 0.000000 -1.000000
vn 0.000000 0.000000 -1.000000
vn 0.000000 0.000000 -1.000000
vn 0.000000 0.000000 -1.000000
vn 0.000000 1.000000 0.000000
vn 0.000000 1.000000 0.000000
vn 0.000000 1.000000 0.000000
vn 0.000000 1.000000 0.000000
vn 0.000000 0.000000 1.000000
vn 0.000000 0.000000 1.000000
vn 0.000000 -1.000000 0.000000
vn 0.000000 -1.000000 0.000000
vn 0.000000 0.000000 -1.000000
vn 0.000000 0.000000 -1.000000
vn 0.000000 0.000000 -1.000000
vn 0.000000 0.000000 -1.000000
vn 0.000000 1.000000 0.000000
vn 0.000000 1.000000 0.000000
vn -1.000000 0.000000 0.000000
vn -1.000000 0.000000 0.000000
vn -1.000000 0.000000 0.000000
vn -1.000000 0.000000 0.000000
vn 0.000000 1.000000 0.000000
vn 0.000000 1.000000 0.000000
vn 0.000000 1.000000 0.000000
vn 0.000000 1.000000 0.000000
vn 1.000000 0.000000 0.000000
vn 1.000000 0.000000 0.000000
vn 1.000000 0.000000 0.000000
vn 1.000000 0.000000 0.000000
vn 0.000000 -1.000000 0.000000
vn 0.000000 -1.000000 0.000000
vn 0.000000 -1.000000 0.000000
vn 0.000000 -1.000000 0.000000
vn -1.000000 0.000000 0.000000
vn -1.000000 0.000000 0.000000
vn -1.000000 0.000000 0.000000
vn -1.000000 0.000000 0.000000
vn 0.000000 1.000000 0.000000
vn 0.000000 1.000000 0.000000
vn 1.000000 0.000000 0.000000
vn 1.000000 0.000000 0.000000
vn 0.000000 -1.000000 0.000000
vn 0.000000 -1.000000 0.000000
vn 0.000000 0.000000 1.000000
vn 0.000000 0.000000 1.000000
vn 0.000000 0.000000 1.000000
vn 0.000000 0.000000 1.000000
vn 0.000000 1.000000 0.000000
vn 0.000000 1.000000 0.000000
vn 0.000000 1.000000 0.000000
vn 0.000000 1.000000 0.000000
vn 0.000000 0.000000 -1.000000
vn 0.000000 0.000000 -1.000000
vn 0.000000 0.000000 -1.000000
vn 0.000000 0.000000 -1.000000
vn 0.000000 -1.000000 0.000000
vn 0.000000 -1.000000 0.000000
vn 0.000000 -1.000000 0.000000
vn 0.000000 -1.000000 0.000000
vn 0.000000 0.000000 1.000000
vn 0.000000 0.000000 1.000000
vn 0.000000 0.000000 -1.000000
vn 0.000000 0.000000 -1.000000
vn 1.000000 0.000000 0.000000
vn 1.000000 0.000000 0.000000
vn 1.000000 0.000000 0.000000
vn 1.000000 0.000000 0.000000
vn 0.000000 -1.000000 0.000000
vn 0.000000 -1.000000 0.000000
vn 0.000000 -1.000000 0.000000
vn 0.000000 -1.000000 0.000000
vn -1.000000 0.000000 0.000000
vn -1.000000 0.000000 0.000000
vn -1.000000 0.000000 0.000000
vn -1.000000 0.000000 0.000000
vn 0.000000 1.000000 0.000000
vn 0.000000 1.000000 0.000000
vn 0.000000 1.000000 0.000000
vn 0.000000 1.000000 0.000000
vn 1.000000 0.000000 0.000000
vn 1.000000 0.000000 0.000000
vn 0.000000 -1.000000 0.000000
vn 0.000000 -1.000000 0.000000
vn -1.000000 0.000000 0.000000
vn -1.000000 0.000000 0.000000
vn -1.000000 0.000000 0.000000
vn -1.000000 0.000000 0.000000
vn 0.000000 1.000000 0.000000
vn 0.000000 1.000000 0.000000
vn 0.000000 0.000000 1.000000
vn 0.000000 0.000000 1.000000
vn 0.000000 0.000000 1.000000
vn 0.000000 0.000000 1.000000
vn 0.000000 1.000000 0.000000
vn 0.000000 1.000000 0.000000
vn 0.000000 1.000000 0.000000
vn 0.000000 1.000000 0.000000
vn 0.000000 0.000000 -1.000000
vn 0.000000 0.000000 -1.000000
vn 0.000000 0.000000 -1.000000
vn 0.000000 0.000000 -1.000000
vn 0.000000 -1.000000 0.000000
vn 0.000000 -1.000000 0.000000
vn 0.000000 -1.000000 0.000000
vn 0.000000 -1.000000 0.000000
vn 0.000000 0.000000 1.000000
vn 0.000000 0.000000 1.000000
vn 0.000000 0.000000 -1.000000
vn 0.000000 0.000000 -1.000000
vn 1.000000 0.000000 0.000000
vn 1.000000 0.000000 0.000000
vn 1.000000 0.000000 0.000000
vn 1.000000 0.000000 0.000000
vn 0.000000 -1.000000 0.000000
vn 0.000000 -1.000000 0.000000
vn 0.000000 -1.000000 0.000000
vn 0.000000 -1.000000 0.000000
vn -1.000000 0.000000 0.000000
vn -1.000000 0.000000 0.000000
vn -1.000000 0.000000 0.000000
vn -1.000000 0.000000 0.000000
vn 0.000000 1.000000 0.000000
vn 0.000000 1.000000 0.000000
vn 0.000000 1.000000 0.000000
vn 0.000000 1.000000 0.000000
vn 0.000000 0.000000 0.000000
vn 0.000000 0.000000 0.000000
vn 0.000000 0.000000 0.000000
vn 0.000000 0.000000 0.000000
vn 0.000000 0.000000 0.000000
vn 0.000000 0.000000 0.000000
vn 0.000000 0.000000 0.000000
vn 0.000000 0.000000 0.000000
vn 0.000000 0.000000 0.000000
vn 0.000000 0.000000 0.000000
vn 0.000000 0.000000 0.000000
vn 0.000000 0.000000 0.000000
vn 0.000000 0.000000 0.000000
vn 0.000000 0.000000 0.000000
vn 0.000000 0.000000 0.000000
vn 0.000000 0.000000 0.000000
vn 0.000000 0.000000 0.000000
vn 0.000000 0.000000 0.000000
vn 0.000000 0.000000 0.000000
vn 0.000000 0.000000 0.000000
vn 0.000000 0.000000 0.000000
vn 0.000000 0.000000 0.000000
vn 0.000000 0.000000 0.000000
vn 0.000000 0.000000 0.000000
vn 0.000000 0.000000 0.000000
vn 0.000000 0.000000 0.000000
vn 0.000000 0.000000 0.000000
vn 0.000000 0.000000 0.000000
vn 0.000000 0.000000 0.000000
vn 0.000000 0.000000 0.000000
vn 0.000000 0.000000 0.000000
vn 0.000000 0.000000 0.000000
vn 1.000000 0.000000 0.000000
vn 1.000000 0.000000 0.000000
vn -1.000000 0.000000 0.000000
vn -1.000000 0.000000 0.000000
vn 0.000000 0.000000 1.000000
vn 0.000000 0.000000 1.000000
vn 0.000000 0.000000 1.000000
vn 0.000000 0.000000 1.000000
vn 0.000000 1.000000 0.000000
vn 0.000000 1.000000 0.000000
vn 0.000000 1.000000 0.000000
vn 0.000000 1.000000 0.000000
vn 0.000000 0.000000 -1.000000
vn 0.000000 0.000000 -1.000000
vn 0.000000 0.000000 -1.000000
vn 0.000000 0.000000 -1.000000
vn 0.000000 -1.000000 0.000000
vn 0.000000 -1.000000 0.000000
vn 0.000000 -1.000000 0.000000
vn 0.000000 -1.000000 0.000000
vn 0.000000 0.000000 1.000000
vn 0.000000 0.000000 1.000000
vn 0.000000 0.000000 1.000000
vn 0.000000 0.000000 1.000000
vn 0.000000 0.000000 -1.000000
vn 0.000000 0.000000 -1.000000
vn 1.000000 0.000000 0.000000
vn 1.000000 0.000000 0.000000
vn 1.000000 0.000000 0.000000
vn 1.000000 0.000000 0.000000
vn 0.000000 1.000000 0.000000
vn 0.000000 1.000000 0.000000
vn 0.000000 1.000000 0.000000
vn 0.000000 1.000000 0.000000
vn -1.000000 0.000000 0.000000
vn -1.000000 0.000000 0.000000
vn -1.000000 0.000000 0.000000
vn -1.000000 0.000000 0.000000
vn 0.000000 -1.000000 0.000000
vn 0.000000 -1.000000 0.000000
vn 0.000000 -1.000000 0.000000
vn 0.000000 -1.000000 0.000000
vn 1.000000 0.000000 0.000000
vn 1.000000 0.000000 0.000000
vn -1.000000 0.000000 0.000000
vn -1.000000 0.000000 0.000000
vn 0.000000 0.000000 -1.000000
vn 0.000000 0.000000 -1.000000
vn 0.000000 0.000000 -1.000000
vn 0.000000 0.000000 -1.000000
vn 0.000000 -1.000000 0.000000
vn 0.000000 -1.000000 0.000000
vn 0.000000 -1.000000 0.000000
vn 0.000000 -1.000000 0.000000
vn 0.000000 1.000000 0.000000
vn 0.000000 1.000000 0.000000
vn 0.000000 1.000000 0.000000
vn 0.000000 1.000000 0.000000
vn 0.000000 -0.000001 1.000000
vn 0.000000 -0.000001 1.000000
vn 0.000000 -0.000001 1.000000
vn 0.000000 -0.000001 1.000000
vn 0.000000 -1.000000 0.000000
vn 0.000000 -1.000000 -0.000000
vn 0.000000 -1.000000 -0.000000
vn 0.000000 -1.000000 0.000000
vn 0.000000 1.000000 -0.000000
vn 0.000000 1.000000 0.000000
vn 0.000000 1.000000 0.000000
vn 0.000000 1.000000 -0.000000
vn 0.000000 -0.000001 1.000000
vn 0.000000 -0.000001 1.000000
vn 0.000000 0.000000 -1.000000
vn 0.000000 0.000000 -1.000000
vn -1.000000 0.000000 0.000043
vn -1.000000 0.000000 0.000043
vn -1.000000 0.000000 0.000043
vn -1.000000 0.000000 0.000043
vn 0.000000 1.000000 -0.000000
vn 0.000000 1.000000 -0.000000
vn 1.000000 0.000000 -0.000043
vn 1.000000 0.000000 -0.000043
vn 0.000000 -1.000000 -0.000000
vn 0.000000 -1.000000 -0.000000
vn 0.000000 0.000000 -1.000000
vn 0.000000 0.000000 -1.000000
vn 0.000000 0.000000 1.000000
vn 0.000000 0.000000 1.000000
s 1
g pCube3
f 1/1/1 2/2/2 4/4/3 3/3/4
s 2
f 9/16/5 10/17/6 6/6/7 5/5/8
s 3
f 5/5/9 6/6/10 8/8/11 7/7/12
s 4
f 7/7/13 8/8/14 11/19/15 12/22/16
s 5
f 109/123/17 110/124/18 111/125/19 112/126/20
s 6
f 7/13/21 12/21/22 9/15/23 5/14/24
s 2
f 13/24/25 14/25/26 10/17/6 9/16/5
s off
f 14/26/27 15/28/28 11/20/29 10/18/30
s 4
f 12/22/16 11/19/15 15/27/31 16/30/32
s 6
f 9/15/23 12/21/22 16/29/33 13/23/34
s 2
f 3/3/35 4/4/36 14/25/26 13/24/25
s 7
f 18/31/37 17/32/38 19/33/39 20/34/40
s 4
f 16/30/32 15/27/31 2/10/41 1/9/42
s 6
f 13/23/34 16/29/33 1/1/43 3/3/44
s 4
f 24/38/45 21/35/46 17/32/47 18/31/48
s off
f 25/39/49 26/40/50 27/41/51 28/42/52
s 2
f 22/36/53 23/37/54 20/34/55 19/33/56
s 1
f 23/37/57 24/38/58 18/31/59 20/34/60
s off
f 15/28/61 14/26/62 22/36/63 21/35/64
s 2
f 14/26/26 4/4/36 23/37/54 22/36/53
s 1
f 4/4/3 2/2/2 24/38/58 23/37/57
s 4
f 2/2/41 15/28/31 21/35/46 24/38/45
s 8
f 29/43/65 30/44/66 26/40/67 25/39/68
s 2
f 30/44/69 31/45/70 27/41/71 26/40/72
s off
f 33/47/73 34/48/74 35/49/75 36/50/76
s 4
f 32/46/77 29/43/78 25/39/79 28/42/80
s 8
f 21/35/81 22/36/82 30/44/66 29/43/65
s 2
f 22/36/53 19/33/56 31/45/70 30/44/69
s 7
f 19/33/39 17/32/38 32/46/83 31/45/84
s 4
f 17/32/47 21/35/46 29/43/78 32/46/77
s 9
f 37/51/85 38/52/86 34/48/87 33/47/88
s 10
f 38/52/89 39/53/90 35/49/91 34/48/92
s 11
f 41/55/93 42/56/94 43/57/95 44/58/96
s 12
f 40/54/97 37/51/98 33/47/99 36/50/100
s 9
f 31/45/101 32/46/102 38/52/86 37/51/85
s 10
f 32/46/103 28/42/104 39/53/90 38/52/89
s off
f 28/42/105 27/41/106 40/54/107 39/53/108
s 12
f 27/41/109 31/45/110 37/51/98 40/54/97
s off
f 49/63/111 50/64/112 51/65/113 52/66/114
s 13
f 46/60/115 47/61/116 43/57/117 42/56/118
s 14
f 47/61/119 48/62/120 44/58/121 43/57/122
s 15
f 48/62/123 45/59/124 41/55/125 44/58/126
s off
f 39/53/127 40/54/128 46/60/129 45/59/130
s 13
f 40/54/131 36/50/132 47/61/116 46/60/115
s 14
f 36/50/133 35/49/134 48/62/120 47/61/119
s 15
f 35/49/135 39/53/136 45/59/124 48/62/123
s 16
f 53/67/137 54/68/138 50/64/139 49/63/140
s 13
f 54/68/141 55/69/142 51/65/143 50/64/144
s 17
f 57/71/145 58/72/146 59/73/147 60/74/148
s 15
f 56/70/149 53/67/150 49/63/151 52/66/152
s 16
f 45/59/153 46/60/154 54/68/138 53/67/137
s 13
f 46/60/115 42/56/118 55/69/142 54/68/141
s 11
f 42/56/94 41/55/93 56/70/155 55/69/156
s 15
f 41/55/125 45/59/124 53/67/150 56/70/149
s 18
f 61/75/157 62/76/158 58/72/159 57/71/160
s 19
f 62/76/161 63/77/162 59/73/163 58/72/164
s 20
f 65/79/165 66/80/166 67/81/167 68/82/168
s 21
f 64/78/169 61/75/170 57/71/171 60/74/172
s 18
f 55/69/173 56/70/174 62/76/158 61/75/157
s 19
f 56/70/175 52/66/176 63/77/162 62/76/161
s off
f 52/66/177 51/65/178 64/78/179 63/77/180
s 21
f 51/65/181 55/69/182 61/75/170 64/78/169
s 22
f 69/83/183 70/84/184 66/80/185 65/79/186
s 21
f 70/84/187 71/85/188 67/81/189 66/80/190
s off
f 81/95/191 82/96/192 83/97/193 84/98/194
s 19
f 72/86/195 69/83/196 65/79/197 68/82/198
s 22
f 63/77/199 64/78/200 70/84/184 69/83/183
s 21
f 64/78/169 60/74/172 71/85/188 70/84/187
s 17
f 60/74/148 59/73/147 72/86/201 71/85/202
s 19
f 59/73/163 63/77/162 69/83/196 72/86/195
s 23
f 85/99/203 86/100/204 74/88/205 73/87/206
s 19
f 86/100/207 87/101/208 75/89/209 74/88/210
s 24
f 89/103/211 90/104/212 91/105/213 92/106/214
s 21
f 88/102/215 85/99/216 73/87/217 76/90/218
s off
f 73/87/219 74/88/220 78/92/221 77/91/222
f 74/88/223 75/89/224 79/93/225 78/92/226
f 75/89/227 76/90/228 80/94/229 79/93/230
f 76/90/231 73/87/232 77/91/233 80/94/234
f 77/91/235 78/92/236 82/96/237 81/95/238
f 78/92/239 79/93/240 83/97/241 82/96/242
f 79/93/243 80/94/244 84/98/245 83/97/246
f 80/94/247 77/91/248 81/95/249 84/98/250
s 23
f 71/85/251 72/86/252 86/100/204 85/99/203
s 19
f 72/86/195 68/82/198 87/101/208 86/100/207
s 20
f 68/82/168 67/81/167 88/102/253 87/101/254
s 21
f 67/81/189 71/85/188 85/99/216 88/102/215
s 25
f 97/111/255 98/112/256 99/113/257 100/114/258
s 21
f 94/108/259 95/109/260 91/105/261 90/104/262
s 26
f 95/109/263 96/110/264 92/106/265 91/105/266
s 19
f 96/110/267 93/107/268 89/103/269 92/106/270
s off
f 87/101/271 88/102/272 94/108/273 93/107/274
s 21
f 88/102/215 76/90/218 95/109/260 94/108/259
s 26
f 76/90/275 75/89/276 96/110/264 95/109/263
s 19
f 75/89/209 87/101/208 93/107/268 96/110/267
s 27
f 101/115/277 102/116/278 98/112/279 97/111/280
s 21
f 102/116/281 103/117/282 99/113/283 98/112/284
s off
f 105/119/285 106/120/286 107/121/287 108/122/288
s 19
f 104/118/289 101/115/290 97/111/291 100/114/292
s 27
f 93/107/293 94/108/294 102/116/278 101/115/277
s 21
f 94/108/259 90/104/262 103/117/282 102/116/281
s 24
f 90/104/212 89/103/211 104/118/295 103/117/296
s 19
f 89/103/269 93/107/268 101/115/290 104/118/289
s 28
f 119/135/297 120/136/298 106/120/299 105/119/300
s 19
f 120/136/301 118/137/302 107/121/303 106/120/304
s 21
f 117/138/305 119/135/306 105/119/307 108/122/308
s 29
f 113/127/309 114/128/310 110/124/311 109/123/312
s 4
f 114/128/313 115/129/314 111/125/315 110/124/316
s 2
f 116/130/317 113/127/318 109/123/319 112/126/320
s 29
f 10/18/321 11/20/322 114/128/310 113/127/309
s 4
f 11/20/15 8/11/14 115/129/314 114/128/313
s 3
f 8/11/11 6/12/10 116/130/323 115/129/324
s 2
f 6/12/7 10/18/6 113/127/318 116/130/317
s off
f 115/129/325 116/130/326 108/132/327 107/131/328
s 2
f 116/130/317 112/126/320 117/133/329 108/132/330
s 5
f 112/126/20 111/125/19 118/134/331 117/133/332
s 4
f 111/125/315 115/129/314 107/131/333 118/134/334
s 28
f 103/117/335 104/118/336 120/136/298 119/135/297
s 19
f 104/118/289 100/114/292 118/137/302 120/136/301
s 25
f 100/114/258 99/113/257 117/138/337 118/137/338
s 21
f 99/113/283 103/117/282 119/135/306 117/138/305
