# This file uses centimeters as units for non-parametric coordinates.

mtllib Bed.mtl
g default
v 271.795809 63.121527 -1188.422963
v 271.795809 63.121527 -919.397078
v 271.758771 86.254019 -1188.422963
v 271.758771 86.254019 -919.397078
v 437.330480 85.887107 -1188.422963
v 437.330480 85.887107 -919.397078
v 437.367594 62.754615 -1188.422963
v 437.367594 62.754615 -919.397078
v 442.015443 62.744314 -1188.469062
v 442.015443 62.744314 -914.520067
v 267.147960 63.131828 -914.520067
v 267.147960 63.131828 -1188.469062
v 442.026123 56.078869 -1188.469062
v 442.026123 56.078869 -914.520067
v 267.158564 56.466384 -914.520067
v 267.158564 56.466384 -1188.469062
v 267.158564 56.466384 -1178.834717
v 442.026123 56.078869 -1178.576142
v 442.026123 56.078869 -924.650854
v 267.158564 56.466384 -924.299716
v 432.240751 56.100553 -914.520067
v 432.139786 56.100779 -924.633291
v 430.744235 56.103867 -1178.592818
v 430.645618 56.104093 -1188.469062
v 276.995593 56.444584 -914.520067
v 276.992639 56.444590 -924.317722
v 277.661897 56.443101 -1178.821565
v 277.659171 56.443112 -1188.469062
v 442.082778 20.719328 -1188.469062
v 442.082778 20.719328 -1178.576142
v 430.800814 20.744326 -1178.592818
v 430.702198 20.744541 -1188.469062
v 432.297406 20.741012 -914.520067
v 432.196441 20.741232 -924.633291
v 442.082778 20.719328 -924.650854
v 442.082778 20.719328 -914.520067
v 277.049218 21.085043 -924.317722
v 267.215219 21.106832 -924.299716
v 277.052248 21.085037 -914.520067
v 267.215219 21.106832 -914.520067
v 277.718553 21.083559 -1178.821565
v 277.715750 21.083565 -1188.469062
v 267.215219 21.106832 -1178.834717
v 267.215219 21.106832 -1188.469062
v 276.973627 68.319275 -924.317722
v 277.642886 68.317797 -1178.821565
v 430.725148 67.978552 -1178.592818
v 432.120775 67.975464 -924.633291
vt 0.643663 0.228106
vt 0.584831 0.228185
vt 0.584177 0.109769
vt 0.643243 0.109692
vt 0.545256 0.228186
vt 0.487350 0.228143
vt 0.487085 0.109727
vt 0.545117 0.109769
vt 0.754812 0.230292
vt 0.704282 0.230255
vt 0.702564 0.109037
vt 0.755749 0.109077
vt 0.848347 0.230231
vt 0.795560 0.230291
vt 0.795686 0.111875
vt 0.848631 0.111816
vt 0.589013 0.432736
vt 0.536740 0.432737
vt 0.536670 0.311723
vt 0.590318 0.311846
vt 0.681247 0.432700
vt 0.629768 0.432736
vt 0.629893 0.314320
vt 0.681525 0.314284
vt 0.871422 0.455168
vt 0.813688 0.455217
vt 0.813813 0.336801
vt 0.871639 0.336750
vt 0.773891 0.455217
vt 0.720875 0.455178
vt 0.718418 0.333988
vt 0.774505 0.334069
vt 0.756431 0.045407
vt 0.701289 0.045246
vt 0.536826 0.250323
vt 0.592120 0.250664
vt 0.716336 0.273298
vt 0.775374 0.273504
vt 0.680880 0.228206
vt 0.681348 0.109793
vt 0.886987 0.230293
vt 0.887277 0.111880
vt 0.499995 0.432627
vt 0.500508 0.314208
vt 0.908705 0.455202
vt 0.908861 0.336782
vt 0.639476 0.107208
vt 0.682976 0.107792
vt 0.682905 0.064664
vt 0.639478 0.063708
vt 0.116469 0.460533
vt 0.422098 0.460059
vt 0.424991 0.539922
vt 0.110504 0.541350
vt 0.114495 0.987102
vt 0.111835 0.908545
vt 0.421895 0.907832
vt 0.420129 0.985912
vt 0.428709 0.985879
vt 0.105915 0.987136
vt 0.026900 0.903551
vt 0.026900 0.542596
vt 0.509987 0.539977
vt 0.509987 0.903082
vt 0.305127 0.100243
vt 0.304148 0.369449
vt 0.080991 0.369206
vt 0.078956 0.100576
vt 0.734940 0.568721
vt 0.736386 0.951502
vt 0.711536 0.951477
vt 0.711454 0.929948
vt 0.710171 0.590110
vt 0.710093 0.568695
vt 0.342073 0.069233
vt 0.340855 0.404246
vt 0.319904 0.404268
vt 0.319983 0.382463
vt 0.321049 0.089370
vt 0.321122 0.069252
vt 0.556121 0.938315
vt 0.555328 0.563545
vt 0.583033 0.563587
vt 0.583824 0.938358
vt 0.637470 0.943417
vt 0.638107 0.563591
vt 0.660099 0.563545
vt 0.659462 0.943374
vt 0.975180 0.556461
vt 0.978597 0.918533
vt 0.950974 0.918510
vt 0.950974 0.556489
vt 0.354653 0.416043
vt 0.354653 0.044261
vt 0.372232 0.033091
vt 0.372232 0.416109
vt 0.062678 0.044261
vt 0.046306 0.033091
vt 0.062678 0.416043
vt 0.046306 0.416109
vt 0.699153 0.943566
vt 0.674237 0.943573
vt 0.673435 0.563747
vt 0.699153 0.563499
vt 0.598373 0.563782
vt 0.621490 0.563541
vt 0.620953 0.938312
vt 0.598373 0.938319
vt 0.900680 0.919356
vt 0.874964 0.919336
vt 0.876602 0.556483
vt 0.900680 0.556461
vt 0.790717 0.947019
vt 0.790717 0.556455
vt 0.818129 0.556455
vt 0.818129 0.570908
vt 0.818129 0.932930
vt 0.818129 0.947019
vt 0.860761 0.556463
vt 0.860761 0.947031
vt 0.831422 0.947031
vt 0.831422 0.933297
vt 0.831422 0.570405
vt 0.831422 0.556463
vt 0.935523 0.556455
vt 0.935526 0.919296
vt 0.913535 0.919296
vt 0.913532 0.556455
vt 0.752536 0.945246
vt 0.752529 0.563811
vt 0.777377 0.563811
vt 0.777384 0.945246
vn -0.999999 -0.001601 0.000000
vn -0.999999 -0.001601 0.000000
vn -0.999999 -0.001601 0.000000
vn -0.999999 -0.001601 0.000000
vn 0.002216 0.999997 -0.000000
vn 0.002216 0.999997 -0.000000
vn 0.002216 0.999997 -0.000000
vn 0.002216 0.999997 -0.000000
vn 0.999999 0.001604 -0.000000
vn 0.999999 0.001604 -0.000000
vn 0.999999 0.001604 -0.000000
vn 0.999999 0.001604 -0.000000
vn -0.002216 -0.999997 0.000000
vn -0.002216 -0.999997 0.000000
vn -0.002216 -0.999997 0.000000
vn -0.002216 -0.999997 0.000000
vn 0.000000 -0.000000 1.000000
vn 0.000000 -0.000000 1.000000
vn 0.000000 -0.000000 1.000000
vn 0.000000 -0.000000 1.000000
vn 0.000005 0.002049 -0.999998
vn 0.000005 0.002049 -0.999998
vn 0.000005 0.002049 -0.999998
vn 0.000005 0.002049 -0.999998
vn 0.000005 0.002049 -0.999998
vn 0.000005 0.002049 -0.999998
vn 0.002216 0.999997 -0.000000
vn 0.002216 0.999997 -0.000000
vn 0.002216 0.999997 -0.000000
vn 0.002216 0.999998 -0.000000
vn 0.002216 0.999997 -0.000000
vn 0.002216 0.999997 -0.000000
vn 0.002216 0.999998 -0.000000
vn 0.002216 0.999998 -0.000000
vn 0.002217 0.999998 -0.000000
vn 0.002217 0.999997 -0.000000
vn 0.002217 0.999998 -0.000000
vn 0.002217 0.999997 -0.000000
vn 0.999999 0.001602 -0.000000
vn 0.999999 0.001602 -0.000000
vn 0.999999 0.001602 -0.000000
vn 0.999999 0.001602 -0.000000
vn 0.999999 0.001602 -0.000000
vn 0.999999 0.001602 -0.000000
vn 0.000000 -0.000000 1.000000
vn 0.000000 -0.000000 1.000000
vn 0.000000 -0.000000 1.000000
vn 0.000000 -0.000000 1.000000
vn 0.000000 -0.000000 1.000000
vn 0.000000 -0.000000 1.000000
vn -0.999999 -0.001591 0.000000
vn -0.999999 -0.001591 0.000000
vn -0.999999 -0.001593 0.000000
vn -0.999999 -0.001592 0.000000
vn -0.999999 -0.001592 0.000000
vn -0.999999 -0.001593 0.000000
vn -0.000000 0.000001 -1.000000
vn -0.000000 0.000001 -1.000000
vn -0.000000 0.000000 -1.000000
vn -0.000000 0.000000 -1.000000
vn -0.000000 0.000001 -1.000000
vn -0.000000 0.000000 -1.000000
vn -0.002216 -0.999997 0.000000
vn -0.002216 -0.999997 0.000000
vn -0.002216 -0.999997 0.000000
vn -0.002216 -0.999997 0.000000
vn -0.002216 -0.999997 0.000000
vn -0.002216 -0.999997 0.000000
vn -0.002216 -0.999997 0.000000
vn -0.002216 -0.999997 0.000000
vn -0.002216 -0.999997 -0.000000
vn -0.002216 -0.999997 -0.000000
vn -0.002216 -0.999997 -0.000000
vn -0.002216 -0.999997 -0.000000
vn -0.002216 -0.999997 -0.000000
vn -0.002216 -0.999997 -0.000000
vn -0.002216 -0.999998 -0.000000
vn -0.002216 -0.999997 -0.000000
vn -0.002216 -0.999997 -0.000001
vn -0.002216 -0.999997 -0.000001
vn -0.002216 -0.999997 -0.000001
vn -0.002216 -0.999998 -0.000001
vn -0.002215 -0.999997 0.000000
vn -0.002215 -0.999997 0.000000
vn -0.002215 -0.999997 0.000000
vn -0.002215 -0.999997 0.000000
vn -0.002216 -0.999997 0.000000
vn -0.002216 -0.999997 0.000000
vn -0.002216 -0.999997 0.000000
vn -0.002216 -0.999997 0.000000
vn -0.002216 -0.999997 0.000000
vn -0.002216 -0.999997 0.000000
vn -0.002216 -0.999997 0.000000
vn -0.002216 -0.999997 0.000000
vn 0.999999 0.001602 -0.000000
vn 0.999999 0.001602 -0.000000
vn -0.001478 -0.000002 0.999999
vn -0.001478 -0.000002 0.999999
vn -0.001478 -0.000002 0.999999
vn -0.001478 -0.000002 0.999999
vn -0.999949 -0.001600 0.009985
vn -0.999949 -0.001600 0.009985
vn -0.999949 -0.001600 0.009985
vn -0.999949 -0.001600 0.009985
vn -0.000000 0.000000 -1.000000
vn -0.000000 0.000000 -1.000000
vn -0.999949 -0.001602 0.009983
vn -0.999949 -0.001602 0.009983
vn -0.999949 -0.001602 0.009983
vn -0.999949 -0.001602 0.009983
vn -0.001776 -0.000003 -0.999999
vn -0.001776 -0.000003 -0.999998
vn -0.001776 -0.000003 -0.999999
vn -0.001776 -0.000003 -0.999998
vn 0.999999 0.001602 -0.000000
vn 0.999999 0.001602 -0.000000
vn 0.000000 -0.000000 1.000000
vn 0.000000 -0.000000 1.000000
vn -0.001831 -0.000003 -0.999998
vn -0.001831 -0.000003 -0.999998
vn -0.001831 -0.000003 -0.999998
vn -0.001831 -0.000003 -0.999998
vn 0.999999 0.001601 -0.000305
vn 0.999999 0.001601 -0.000305
vn 0.999999 0.001601 -0.000305
vn 0.999999 0.001601 -0.000305
vn 0.000000 -0.000000 1.000000
vn 0.000000 -0.000000 1.000000
vn -0.999999 -0.001602 0.000000
vn -0.999999 -0.001602 0.000000
vn 0.999999 0.001601 -0.000287
vn 0.999999 0.001601 -0.000287
vn 0.999999 0.001601 -0.000287
vn 0.999999 0.001601 -0.000287
vn -0.001252 -0.000002 0.999999
vn -0.001252 -0.000002 0.999999
vn -0.001252 -0.000002 0.999999
vn -0.001252 -0.000002 0.999999
vn -0.999999 -0.001602 0.000000
vn -0.999999 -0.001602 0.000000
vn -0.000000 0.000000 -1.000000
vn -0.000000 0.000000 -1.000000
vn 0.999995 0.001601 0.002630
vn 0.999995 0.001601 0.002630
vn 0.999995 0.001601 0.002630
vn 0.999995 0.001601 0.002630
vn -0.001494 -0.000002 0.999999
vn -0.001494 -0.000002 0.999999
vn -0.001494 -0.000002 0.999999
vn -0.001494 -0.000002 0.999999
vn -0.999984 -0.001604 0.005495
vn -0.999984 -0.001604 0.005495
vn -0.999984 -0.001604 0.005495
vn -0.999984 -0.001604 0.005495
vn -0.002034 -0.000004 -0.999998
vn -0.002034 -0.000004 -0.999998
vn -0.002034 -0.000004 -0.999998
vn -0.002034 -0.000004 -0.999998
s off
g Bed2
usemtl lambert17SG
f 1/61/1 2/62/2 4/54/3 3/56/4
f 3/56/5 4/54/6 6/53/7 5/57/8
f 5/57/9 6/53/10 8/63/11 7/64/12
f 22/89/13 23/90/14 18/91/15 19/92/16
f 2/51/17 8/52/18 6/53/19 4/54/20
f 1/55/21 3/56/22 5/57/23 7/58/24 9/59/25 12/60/26
f 7/93/27 8/94/28 10/95/29 9/96/30
f 8/94/31 2/97/32 11/98/33 10/95/34
f 2/97/35 1/99/36 12/100/37 11/98/38
s 1
f 9/113/39 10/114/40 14/115/41 19/116/42 18/117/43 13/118/44
s 2
f 10/69/45 11/70/46 15/71/47 25/72/48 21/73/49 14/74/50
s 3
f 11/119/51 12/120/52 16/121/53 17/122/54 20/123/55 15/124/56
s 4
f 12/75/57 9/76/58 13/77/59 24/78/60 28/79/61 16/80/62
s off
f 29/47/63 30/48/64 31/49/65 32/50/66
f 33/33/67 34/12/68 35/11/69 36/34/70
f 25/101/71 26/102/72 22/103/73 21/104/74
f 45/65/75 46/66/76 47/67/77 48/68/78
f 24/105/79 23/106/80 27/107/81 28/108/82
f 38/20/83 37/19/84 39/35/85 40/36/86
f 17/109/87 27/110/88 26/111/89 20/112/90
f 42/31/91 41/37/92 43/38/93 44/32/94
s 1
f 13/39/44 18/1/43 30/4/95 29/40/96
s off
f 18/1/97 23/2/98 31/3/99 30/4/100
f 23/2/101 24/5/102 32/8/103 31/3/104
s 4
f 24/5/60 13/6/59 29/7/105 32/8/106
s off
f 21/14/107 22/9/108 34/12/109 33/15/110
f 22/9/111 19/10/112 35/11/113 34/12/114
s 1
f 19/41/42 14/13/41 36/16/115 35/42/116
s 2
f 14/13/50 21/14/49 33/15/117 36/16/118
s off
f 20/17/119 26/18/120 37/19/121 38/20/122
f 26/18/123 25/43/124 39/44/125 37/19/126
s 2
f 25/21/48 15/22/47 40/23/127 39/24/128
s 3
f 15/22/56 20/17/55 38/20/129 40/23/130
s off
f 28/45/131 27/25/132 41/28/133 42/46/134
f 27/25/135 17/26/136 43/27/137 41/28/138
s 3
f 17/26/54 16/29/53 44/32/139 43/27/140
s 4
f 16/29/62 28/30/61 42/31/141 44/32/142
s off
f 26/125/143 27/126/144 46/127/145 45/128/146
f 27/81/147 23/82/148 47/83/149 46/84/150
f 23/129/151 22/130/152 48/131/153 47/132/154
f 22/85/155 26/86/156 45/87/157 48/88/158
