# This file uses centimeters as units for non-parametric coordinates.

mtllib Bathroom1Walls.mtl
g default
v -855.225098 45.802818 -322.948764
v -855.225098 45.802818 -341.015525
v -869.120606 45.802635 -322.948764
v -869.120606 45.802635 -340.905551
v -869.120606 45.802818 -629.957400
v -869.120606 45.802735 -500.290408
v -869.120606 21.048821 -322.948764
v -855.225098 21.048821 -322.948764
v -869.120606 45.802635 -341.015525
v -855.225098 21.048821 -341.015525
v -855.225098 371.238564 -688.372592
v -869.120606 371.238564 -688.372592
v -869.120606 371.238564 -652.537417
v -855.225098 371.238564 -652.537417
v -869.120606 21.048821 -340.905551
v -869.120606 21.048821 -341.015525
v -1340.348511 371.238564 -340.905551
v -1340.348511 371.238564 -322.948764
v -1304.433472 371.238564 -322.948764
v -1304.433472 371.238564 -340.905551
v -855.225098 45.802818 -629.957400
v -855.225098 21.048821 -688.372592
v -855.225098 21.048821 -703.511966
v -855.225098 371.238564 -703.511966
v -1281.929200 45.802818 -340.905551
v -1281.929200 45.802818 -322.948764
v -855.225098 45.802818 -500.290408
v -1340.348511 21.048821 -322.948764
v -1340.348511 21.048821 -340.905551
v -869.120606 21.048821 -688.372592
v -855.225098 21.048821 -500.290408
v -869.120606 21.048821 -500.290408
v -1354.468262 21.048821 -322.948764
v -1354.468262 371.238564 -322.948764
v -1340.348511 371.238564 -688.372592
v -1340.348511 21.048821 -688.372592
v -1354.468262 371.238564 -703.511966
v -1354.468262 21.048821 -703.511966
v -1354.468262 371.238564 -688.372592
v -1354.468262 21.048821 -688.372592
vt 0.932029 0.574972
vt 0.932029 0.998008
vt 0.512283 0.998008
vt 0.512283 0.574972
vt 0.279346 0.998008
vt 0.279346 0.574972
vt 0.506553 0.574972
vt 0.506553 0.604875
vt 0.349913 0.604875
vt 0.322636 0.998008
vt 0.424896 0.571244
vt 0.001860 0.571244
vt 0.001860 0.001992
vt 0.424896 0.001992
vt 0.854623 0.571244
vt 0.431588 0.571244
vt 0.431588 0.527858
vt 0.824720 0.500673
vt 0.824720 0.001992
vt 0.854623 0.001992
vn -0.000013 1.000000 0.000000
vn -0.000013 1.000000 0.000000
vn -0.000013 1.000000 0.000000
vn -0.000013 1.000000 0.000000
vn -0.000013 1.000000 0.000000
vn -0.000003 1.000000 0.000000
vn -0.000003 1.000000 0.000000
vn -0.000003 1.000000 0.000000
vn -0.000003 1.000000 0.000000
vn -0.000000 0.000000 1.000000
vn -0.000000 0.000000 1.000000
vn -0.000000 0.000000 1.000000
vn -0.000000 0.000000 1.000000
vn 1.000000 0.000000 0.000000
vn 1.000000 0.000000 0.000000
vn 1.000000 0.000000 0.000000
vn 1.000000 0.000000 0.000000
vn 0.000000 1.000000 0.000000
vn 0.000000 1.000000 0.000000
vn 0.000000 1.000000 0.000000
vn 0.000000 1.000000 0.000000
vn 1.000000 0.000000 0.000000
vn 1.000000 0.000000 0.000000
vn 1.000000 0.000000 0.000000
vn 1.000000 0.000000 0.000000
vn -1.000000 0.000000 0.000000
vn -1.000000 0.000000 0.000000
vn -1.000000 0.000000 0.000000
vn -1.000000 0.000000 0.000000
vn -1.000000 0.000000 0.000000
vn -1.000000 0.000000 0.000000
vn -1.000000 0.000000 0.000000
vn -1.000000 0.000000 0.000000
vn 0.000000 1.000000 0.000000
vn 0.000000 1.000000 0.000000
vn 0.000000 1.000000 0.000000
vn 0.000000 1.000000 0.000000
vn 0.000000 0.069218 0.997602
vn 0.000000 0.069218 0.997602
vn 0.000000 0.069218 0.997602
vn 0.000000 0.069218 0.997602
vn 1.000000 0.000000 0.000000
vn 1.000000 0.000000 0.000000
vn 1.000000 0.000000 0.000000
vn 1.000000 0.000000 0.000000
vn 0.000000 1.000000 0.000000
vn 0.000000 1.000000 0.000000
vn 0.000000 1.000000 0.000000
vn 0.000000 1.000000 0.000000
vn 0.000000 -1.000000 0.000000
vn 0.000000 -1.000000 0.000000
vn 0.000000 -1.000000 0.000000
vn 0.000000 -1.000000 0.000000
vn 0.997618 0.068987 0.000000
vn 0.997618 0.068987 0.000000
vn 0.997618 0.068987 0.000000
vn 0.997618 0.068987 0.000000
vn 0.000000 -1.000000 0.000000
vn 0.000000 -1.000000 0.000000
vn 0.000000 -1.000000 0.000000
vn 0.000000 -1.000000 0.000000
vn 0.000000 0.000000 1.000000
vn 0.000000 0.000000 1.000000
vn 0.000000 0.000000 1.000000
vn 0.000000 0.000000 1.000000
vn 0.000000 0.000000 1.000000
vn 0.000000 0.000000 1.000000
vn 0.000000 0.000000 1.000000
vn 0.000000 0.000000 1.000000
vn 0.000000 0.000000 -1.000000
vn 0.000000 0.000000 -1.000000
vn 0.000000 0.000000 -1.000000
vn 0.000000 0.000000 -1.000000
vn 1.000000 0.000000 0.000000
vn 1.000000 0.000000 0.000000
vn 1.000000 0.000000 0.000000
vn 1.000000 0.000000 0.000000
vn -1.000000 0.000000 0.000000
vn -1.000000 0.000000 0.000000
vn -1.000000 0.000000 0.000000
vn -1.000000 0.000000 0.000000
vn -1.000000 0.000000 0.000000
vn -1.000000 0.000000 0.000000
vn -1.000000 0.000000 0.000000
vn -1.000000 0.000000 0.000000
vn -0.000000 0.000000 -1.000000
vn -0.000000 0.000000 -1.000000
vn -0.000000 0.000000 -1.000000
vn -0.000000 0.000000 -1.000000
vn 0.000000 -1.000000 0.000000
vn 0.000000 -1.000000 0.000000
vn 0.000000 -1.000000 0.000000
vn 0.000000 -1.000000 0.000000
vn 0.000000 -1.000000 0.000000
vn 0.000000 0.000000 1.000000
vn 0.000000 0.000000 1.000000
vn 0.000000 0.000000 1.000000
vn 0.000000 0.000000 1.000000
vn 0.000000 1.000000 0.000000
vn 0.000000 1.000000 0.000000
vn 0.000000 1.000000 0.000000
vn 0.000000 1.000000 0.000000
vn 0.000000 1.000000 0.000000
vn 0.000000 -1.000000 0.000000
vn 0.000000 -1.000000 0.000000
vn 0.000000 -1.000000 0.000000
vn 0.000000 -1.000000 0.000000
vn 0.000000 -1.000000 0.000000
vn 1.000000 0.000000 0.000000
vn 1.000000 0.000000 0.000000
vn 1.000000 0.000000 0.000000
vn 1.000000 0.000000 0.000000
vn 1.000000 0.000000 0.000000
vn 1.000000 0.000000 0.000000
vn -1.000000 0.000001 0.000000
vn -1.000000 0.000001 0.000000
vn -1.000000 0.000001 0.000000
vn -1.000000 0.000001 0.000000
vn -1.000000 0.000001 0.000000
vn -1.000000 0.000001 0.000000
vn 0.000000 0.000000 1.000000
vn 0.000000 0.000000 1.000000
vn 0.000000 0.000000 1.000000
vn 0.000000 0.000000 1.000000
vn 0.000000 0.000000 1.000000
vn 0.000000 0.000000 1.000000
vn -0.000000 0.000000 -1.000000
vn -0.000000 0.000000 -1.000000
vn -0.000000 0.000000 -1.000000
vn -0.000000 0.000000 -1.000000
vn -0.000000 0.000000 -1.000000
vn -0.000000 0.000000 -1.000000
vn 0.000000 1.000000 0.000002
vn 0.000000 1.000000 0.000002
vn 0.000000 1.000000 0.000002
vn 0.000000 1.000000 0.000002
vn 0.000000 1.000000 0.000002
vn 0.000000 1.000000 0.000002
vn 0.000000 -1.000000 -0.000000
vn 0.000000 -1.000000 -0.000000
vn 0.000000 -1.000000 -0.000000
vn 0.000000 -1.000000 -0.000000
vn 0.000000 -1.000000 -0.000000
vn 0.000000 -1.000000 -0.000000
s off
g Bathroom1Walls
usemtl lambert69SG
f 4//1 3//2 1//3 2//4 9//5
f 5//6 6//7 27//8 21//9
f 3//10 7//11 8//12 1//13
f 2//14 1//15 8//16 10//17
f 11//18 12//19 13//20 14//21
f 15//22 4//23 3//24 7//25
f 4//26 15//27 7//28 3//29
f 16//30 15//31 4//32 9//33
f 17//34 18//35 19//36 20//37
f 14//38 13//39 5//40 21//41
f 22//42 23//43 24//44 11//45
f 25//46 26//47 3//48 4//49
f 28//50 29//51 15//52 7//53
f 20//54 19//55 26//56 25//57
f 30//58 22//59 31//60 32//61
f 33//62 28//63 18//64 34//65
f 35/11/66 36/12/67 30/13/68 12/14/69
f 37//70 24//71 23//72 38//73
f 36/1/74 35/2/75 17/3/76 29/4/77
f 39//78 40//79 33//80 34//81
f 38//82 40//83 39//84 37//85
f 2//86 10//87 16//88 9//89
f 10//90 8//91 7//92 15//93 16//94
f 27//95 6//96 32//97 31//98
f 35//99 39//100 34//101 18//102 17//103
f 40//104 36//105 29//106 28//107 33//108
f 22//109 11//110 14//111 21//112 27//113 31//114
f 12/5/115 30/6/116 32/7/117 6/8/118 5/9/119 13/10/120
f 18//121 28//122 7//123 3//124 26//125 19//126
f 29/15/127 17/16/128 20/17/129 25/18/130 4/19/131 15/20/132
f 39//133 35//134 12//135 11//136 24//137 37//138
f 38//139 23//140 22//141 30//142 36//143 40//144
