# This file uses centimeters as units for non-parametric coordinates.

mtllib CorridorFloor.mtl
g default
v -1625.418127 0.097060 1043.057434
v 12.443353 0.097105 1043.056882
v -1625.418127 17.503708 1043.057434
v 12.443353 17.503755 1043.056882
v -1625.596113 17.503708 696.949030
v 12.443376 17.375485 696.076484
v -1625.596113 0.097060 696.949030
v 12.443376 -0.031166 696.076484
v -1395.748845 0.097060 696.949030
v -1395.716968 17.503708 696.949030
v -1625.465054 17.503708 -151.025413
v -1395.716875 17.503708 -151.025413
v -1395.749125 0.097060 -151.025176
v -1625.465054 0.097060 -151.025413
v -1395.749125 0.097060 156.421552
v -1395.716875 17.503708 156.035560
v -1191.149252 0.097060 156.421552
v -1191.107841 17.503708 156.035560
v -1191.149252 0.097060 -151.025176
v -1191.107841 17.503708 -151.025413
vt 0.001720 0.998008
vt 0.001720 0.001992
vt 0.251632 0.001992
vt 0.250980 0.858247
vt 0.250980 0.998008
vt 0.640466 0.858247
vt 0.861606 0.858247
vt 0.861606 0.998008
vt 0.640466 0.733850
vt 0.861606 0.733850
vn 0.000000 0.000000 1.000000
vn 0.000000 0.000000 1.000000
vn 0.000000 0.000000 1.000000
vn 0.000000 0.000000 1.000000
vn 0.000039 1.000000 -0.000159
vn 0.000039 1.000000 -0.000159
vn 0.000039 1.000000 -0.000159
vn 0.000033 1.000000 -0.000136
vn 0.000029 1.000000 -0.000118
vn -0.000620 0.000001 -1.000000
vn -0.000620 0.000001 -1.000000
vn -0.000620 0.000001 -1.000000
vn -0.000620 0.000001 -1.000000
vn -0.000029 -1.000000 0.000118
vn -0.000033 -1.000000 0.000136
vn -0.000039 -1.000000 0.000159
vn -0.000039 -1.000000 0.000159
vn -0.000039 -1.000000 0.000159
vn 1.000000 0.000000 0.000000
vn 1.000000 0.000000 0.000000
vn 1.000000 0.000000 0.000000
vn 1.000000 0.000000 0.000000
vn -1.000000 0.000000 0.000039
vn -1.000000 0.000000 0.000514
vn -1.000000 0.000000 0.000514
vn -1.000000 0.000000 0.000039
vn 0.000000 -0.000007 -1.000000
vn 0.000000 -0.000007 -1.000000
vn 0.000000 -0.000007 -1.000000
vn 0.000000 -0.000007 -1.000000
vn 0.000000 1.000000 0.000000
vn 0.000000 1.000000 0.000000
vn 0.000000 1.000000 0.000000
vn 0.999998 -0.001835 -0.000000
vn 0.999998 -0.001835 -0.000000
vn 0.999998 -0.001835 -0.000000
vn 0.999998 -0.001835 -0.000000
vn 0.000000 -1.000000 0.000000
vn 0.000000 -1.000000 0.000000
vn 0.000000 -1.000000 0.000000
vn -1.000000 0.000000 -0.000155
vn -1.000000 0.000000 -0.000155
vn 0.999997 -0.002384 0.000000
vn 0.999997 -0.002384 0.000000
vn 0.999997 -0.002384 0.000000
vn 0.999997 -0.002384 0.000000
vn 0.000000 0.022170 0.999754
vn 0.000000 0.022170 0.999754
vn 0.000000 0.022170 0.999754
vn 0.000000 0.022170 0.999754
vn 0.000000 -1.000000 0.000000
vn 0.000000 -1.000000 0.000000
vn 0.000000 -1.000000 0.000000
vn 0.000000 -1.000000 0.000000
vn 0.000000 -0.000014 -1.000000
vn 0.000000 -0.000014 -1.000000
vn 0.000000 -0.000014 -1.000000
vn 0.000000 -0.000014 -1.000000
vn 0.000000 1.000000 0.000000
vn 0.000000 1.000000 0.000000
vn 0.000000 1.000000 0.000000
vn 0.000000 1.000000 0.000000
s off
g CorridorFloor
usemtl lambert23SG
f 1//1 2//2 4//3 3//4
s 1
f 3/1/5 4/2/6 6/3/7 10/4/8 5/5/9
s off
f 9//10 10//11 6//12 8//13
s 2
f 7//14 9//15 8//16 2//17 1//18
s off
f 2//19 8//20 6//21 4//22
s 3
f 7//23 1//24 3//25 5//26
s off
f 11//27 12//28 13//29 14//30
s 1
f 5/5/9 10/4/8 16/6/31 12/7/32 11/8/33
s off
f 10//34 9//35 15//36 16//37
s 2
f 9//15 7//14 14//38 13//39 15//40
s 3
f 7//23 5//26 11//41 14//42
s off
f 18//43 17//44 19//45 20//46
f 16//47 15//48 17//49 18//50
f 15//51 13//52 19//53 17//54
f 13//55 12//56 20//57 19//58
f 12/7/59 16/6/60 18/9/61 20/10/62
