# This file uses centimeters as units for non-parametric coordinates.

mtllib Stairs.mtl
g default
v -1395.751099 -62.625115 258.348325
v -1201.885010 -62.779404 257.475736
v -1395.751099 -30.731481 258.348325
v -1201.885010 -30.885752 257.475736
v -1395.751343 -30.731481 207.289029
v -1201.885010 -30.731554 207.289029
v -1395.751343 -62.625133 207.289029
v -1201.885010 -62.625206 207.289029
v -1395.749390 -285.880258 615.763638
v -1201.883301 -286.034566 614.891019
v -1395.749390 -253.986624 615.763638
v -1201.883301 -254.140932 614.891019
v -1395.749634 -253.986661 564.704312
v -1201.883301 -253.986734 564.704312
v -1395.749634 -285.880295 564.704312
v -1201.883301 -285.880368 564.704312
v -1395.749146 -317.773892 666.822965
v -1201.883057 -317.928163 665.950345
v -1395.749146 -285.880221 666.822965
v -1201.883057 -286.034529 665.950345
v -1395.749390 -285.880258 615.763638
v -1201.883057 -285.880332 615.763638
v -1395.749390 -317.773892 615.763638
v -1201.883057 -317.773965 615.763638
v -1395.749878 -222.093064 513.644956
v -1201.883789 -222.247371 512.772367
v -1395.749878 -190.199430 513.644956
v -1201.883789 -190.353737 512.772367
v -1395.750122 -190.199467 462.585660
v -1201.883789 -190.199540 462.585660
v -1395.750122 -222.093101 462.585660
v -1201.883789 -222.093174 462.585660
v -1395.749634 -253.986698 564.704312
v -1201.883545 -254.140968 563.831693
v -1395.749634 -222.093027 564.704312
v -1201.883545 -222.247335 563.831693
v -1395.749878 -222.093064 513.644986
v -1201.883545 -222.093137 513.644986
v -1395.749878 -253.986698 513.644986
v -1201.883545 -253.986771 513.644986
v -1395.750610 -126.412309 360.466977
v -1201.884521 -126.566598 359.594388
v -1395.750610 -94.518675 360.466977
v -1201.884521 -94.672946 359.594388
v -1395.750854 -94.518675 309.407681
v -1201.884521 -94.518749 309.407681
v -1395.750854 -126.412327 309.407681
v -1201.884521 -126.412401 309.407681
v -1395.750854 -94.518712 309.407651
v -1201.884766 -94.673001 308.535062
v -1395.750854 -62.625078 309.407651
v -1201.884766 -62.779349 308.535062
v -1395.751099 -62.625078 258.348355
v -1201.884766 -62.625151 258.348355
v -1395.751099 -94.518730 258.348355
v -1201.884766 -94.518804 258.348355
v -1395.751343 -30.731518 207.288999
v -1201.885254 -30.885807 206.416409
v -1395.751343 1.162126 207.288999
v -1201.885254 1.007836 206.416409
v -1395.751587 1.162107 156.229703
v -1201.885254 1.162034 156.229703
v -1395.751587 -30.731536 156.229703
v -1201.885254 -30.731609 156.229703
v -1395.750122 -190.199503 462.585629
v -1201.884033 -190.353774 461.713040
v -1395.750122 -158.305833 462.585629
v -1201.884033 -158.460140 461.713040
v -1395.750366 -158.305870 411.526334
v -1201.884033 -158.305943 411.526334
v -1395.750366 -190.199503 411.526334
v -1201.884033 -190.199577 411.526334
v -1395.750366 -158.305870 411.526303
v -1201.884277 -158.460177 410.653714
v -1395.750366 -126.412236 411.526303
v -1201.884277 -126.566543 410.653714
v -1395.750610 -126.412272 360.467008
v -1201.884277 -126.412346 360.467008
v -1395.750610 -158.305906 360.467008
v -1201.884277 -158.305980 360.467008
v -1395.748901 -349.667453 717.882230
v -1201.882813 -349.821760 717.009610
v -1395.748901 -317.773819 717.882230
v -1201.882813 -317.928126 717.009610
v -1395.749146 -317.773855 666.822965
v -1201.882813 -317.773929 666.822965
v -1395.749146 -349.667489 666.822965
v -1201.882813 -349.667563 666.822965
vt 0.073332 0.375231
vt 0.074823 0.025561
vt 0.160595 0.025561
vt 0.160595 0.375231
vt 0.217478 0.375231
vt 0.218969 0.025561
vt 0.304741 0.025561
vt 0.304741 0.375232
vt 0.361624 0.375231
vt 0.363116 0.025561
vt 0.448887 0.025561
vt 0.448887 0.375231
vt 0.505770 0.375231
vt 0.507262 0.025561
vt 0.593033 0.025561
vt 0.593033 0.375232
vt 0.649916 0.375231
vt 0.651408 0.025561
vt 0.737179 0.025561
vt 0.737179 0.375232
vt 0.845124 0.374863
vt 0.846615 0.025193
vt 0.932387 0.025193
vt 0.932387 0.374863
vt 0.908328 0.750902
vt 0.909819 0.401232
vt 0.995591 0.401232
vt 0.995591 0.750902
vt 0.765662 0.750902
vt 0.767153 0.401232
vt 0.852925 0.401232
vt 0.852925 0.750902
vt 0.622996 0.750902
vt 0.624487 0.401232
vt 0.710259 0.401232
vt 0.710259 0.750902
vt 0.480331 0.750902
vt 0.481822 0.401232
vt 0.567593 0.401232
vt 0.567593 0.750902
vt 0.337665 0.750902
vt 0.339156 0.401232
vt 0.424928 0.401232
vt 0.424928 0.750902
vt 0.021690 0.375231
vt 0.021471 0.025561
vt 0.066790 0.025561
vt 0.067010 0.375231
vt 0.165993 0.375231
vt 0.165774 0.025561
vt 0.211093 0.025561
vt 0.211312 0.375231
vt 0.310139 0.375231
vt 0.309920 0.025561
vt 0.355239 0.025561
vt 0.355458 0.375231
vt 0.454285 0.375231
vt 0.454066 0.025561
vt 0.499385 0.025561
vt 0.499604 0.375231
vt 0.598431 0.375231
vt 0.598212 0.025561
vt 0.643531 0.025561
vt 0.643751 0.375231
vt 0.742577 0.375231
vt 0.742358 0.025561
vt 0.787677 0.025561
vt 0.787896 0.375231
vt 0.794872 0.374863
vt 0.794653 0.025193
vt 0.839972 0.025193
vt 0.840191 0.374863
vt 0.858076 0.750902
vt 0.857857 0.401232
vt 0.903176 0.401232
vt 0.903395 0.750902
vt 0.715410 0.750902
vt 0.715191 0.401232
vt 0.760510 0.401232
vt 0.760730 0.750902
vt 0.572745 0.750902
vt 0.572526 0.401232
vt 0.617845 0.401232
vt 0.618064 0.750902
vt 0.430079 0.750902
vt 0.429860 0.401232
vt 0.475179 0.401232
vt 0.475398 0.750902
vt 0.165314 0.956492
vt 0.165397 0.924143
vt 0.182490 0.924143
vt 0.182407 0.956492
vt 0.063005 0.823810
vt 0.063005 0.790898
vt 0.080097 0.790898
vt 0.080097 0.823810
vt 0.184627 0.956492
vt 0.184710 0.924143
vt 0.201802 0.924143
vt 0.201720 0.956492
vt 0.043816 0.823810
vt 0.043816 0.790898
vt 0.060908 0.790898
vt 0.060908 0.823810
vt 0.203940 0.956492
vt 0.204022 0.924143
vt 0.221115 0.924143
vt 0.221032 0.956492
vt 0.024627 0.823810
vt 0.024627 0.790898
vt 0.041719 0.790898
vt 0.041719 0.823810
vt 0.223252 0.956492
vt 0.223335 0.924143
vt 0.240427 0.924143
vt 0.240345 0.956492
vt 0.010747 0.858086
vt 0.010747 0.825174
vt 0.027840 0.825174
vt 0.027840 0.858086
vt 0.242565 0.956492
vt 0.242647 0.924143
vt 0.259740 0.924143
vt 0.259657 0.956492
vt 0.030127 0.858086
vt 0.030127 0.825174
vt 0.047219 0.825174
vt 0.047219 0.858086
vt 0.261877 0.956492
vt 0.261960 0.924143
vt 0.279052 0.924143
vt 0.278970 0.956492
vt 0.049439 0.858086
vt 0.049439 0.825174
vt 0.066532 0.825174
vt 0.066532 0.858086
vt 0.281190 0.956492
vt 0.281272 0.924143
vt 0.298365 0.924143
vt 0.298282 0.956492
vt 0.068752 0.957055
vt 0.068752 0.924143
vt 0.085844 0.924143
vt 0.085844 0.957055
vt 0.300502 0.956492
vt 0.300585 0.924143
vt 0.317678 0.924143
vt 0.317595 0.956492
vt 0.088064 0.957055
vt 0.088064 0.924143
vt 0.105157 0.924143
vt 0.105157 0.957055
vt 0.319815 0.956492
vt 0.319898 0.924143
vt 0.336990 0.924143
vt 0.336908 0.956492
vt 0.107377 0.957055
vt 0.107377 0.924143
vt 0.124469 0.924143
vt 0.124469 0.957055
vt 0.333908 0.990205
vt 0.333990 0.957856
vt 0.351083 0.957856
vt 0.351000 0.990205
vt 0.126689 0.957055
vt 0.126689 0.924143
vt 0.143782 0.924143
vt 0.143782 0.957055
vt 0.314636 0.990205
vt 0.314719 0.957856
vt 0.331811 0.957856
vt 0.331729 0.990205
vt 0.146002 0.957055
vt 0.146002 0.924143
vt 0.163094 0.924143
vt 0.163094 0.957055
vt 0.030127 0.789534
vt 0.030127 0.657654
vt 0.062476 0.657654
vt 0.063038 0.789534
vt 0.084734 0.789534
vt 0.084734 0.657654
vt 0.117084 0.657654
vt 0.117646 0.789534
vt 0.139342 0.789534
vt 0.139342 0.657654
vt 0.171692 0.657654
vt 0.172254 0.789534
vt 0.193950 0.789534
vt 0.193950 0.657654
vt 0.226300 0.657654
vt 0.226862 0.789534
vt 0.248558 0.789534
vt 0.248558 0.657654
vt 0.280908 0.657654
vt 0.281470 0.789534
vt 0.303166 0.789534
vt 0.303166 0.657654
vt 0.335516 0.657654
vt 0.336078 0.789534
vt 0.298982 0.922779
vt 0.298982 0.790898
vt 0.331331 0.790898
vt 0.331894 0.922779
vt 0.244785 0.922779
vt 0.244785 0.790898
vt 0.277134 0.790898
vt 0.277697 0.922779
vt 0.190588 0.922779
vt 0.190588 0.790898
vt 0.222937 0.790898
vt 0.223500 0.922779
vt 0.136391 0.922779
vt 0.136391 0.790898
vt 0.168740 0.790898
vt 0.169302 0.922779
vt 0.082194 0.922779
vt 0.082194 0.790898
vt 0.114543 0.790898
vt 0.115105 0.922779
vt 0.010747 0.789534
vt 0.010747 0.657654
vt 0.027840 0.657654
vt 0.027840 0.789534
vt 0.065422 0.789534
vt 0.065422 0.657654
vt 0.082514 0.657654
vt 0.082514 0.789534
vt 0.120030 0.789534
vt 0.120030 0.657654
vt 0.137122 0.657654
vt 0.137122 0.789534
vt 0.174638 0.789535
vt 0.174638 0.657654
vt 0.191730 0.657654
vt 0.191730 0.789535
vt 0.229246 0.789534
vt 0.229246 0.657654
vt 0.246338 0.657654
vt 0.246338 0.789534
vt 0.283854 0.789534
vt 0.283854 0.657654
vt 0.300946 0.657654
vt 0.300946 0.789534
vt 0.333990 0.922779
vt 0.333990 0.790898
vt 0.351083 0.790898
vt 0.351083 0.922779
vt 0.279793 0.922779
vt 0.279793 0.790898
vt 0.296886 0.790898
vt 0.296886 0.922779
vt 0.225596 0.922779
vt 0.225596 0.790898
vt 0.242688 0.790898
vt 0.242688 0.922779
vt 0.171399 0.922779
vt 0.171399 0.790899
vt 0.188491 0.790899
vt 0.188491 0.922779
vt 0.117202 0.922779
vt 0.117202 0.790898
vt 0.134294 0.790898
vt 0.134294 0.922779
vn 0.004501 0.000000 0.999990
vn 0.004501 0.000000 0.999990
vn 0.004501 0.000000 0.999990
vn 0.004501 0.000000 0.999990
vn 0.000401 0.999999 0.001523
vn 0.000401 0.999999 0.001523
vn 0.000401 0.999999 0.001523
vn 0.000401 0.999999 0.001523
vn 0.000000 0.000000 -1.000000
vn 0.000000 0.000000 -1.000000
vn 0.000000 0.000000 -1.000000
vn 0.000000 0.000000 -1.000000
vn -0.000402 -0.999999 -0.001523
vn -0.000402 -0.999999 -0.001523
vn -0.000402 -0.999999 -0.001523
vn -0.000402 -0.999999 -0.001523
vn 1.000000 0.000000 0.000000
vn 1.000000 0.000000 0.000000
vn 1.000000 0.000000 0.000000
vn 1.000000 0.000000 0.000000
vn -1.000000 0.000000 0.000005
vn -1.000000 0.000000 0.000005
vn -1.000000 0.000000 0.000005
vn -1.000000 0.000000 0.000005
vn 0.004501 0.000000 0.999990
vn 0.004501 0.000000 0.999990
vn 0.004501 0.000000 0.999990
vn 0.004501 0.000000 0.999990
vn 0.000402 0.999999 0.001523
vn 0.000402 0.999999 0.001523
vn 0.000402 0.999999 0.001523
vn 0.000402 0.999999 0.001523
vn 0.000000 0.000000 -1.000000
vn 0.000000 0.000000 -1.000000
vn 0.000000 0.000000 -1.000000
vn 0.000000 0.000000 -1.000000
vn -0.000402 -0.999999 -0.001523
vn -0.000402 -0.999999 -0.001523
vn -0.000402 -0.999999 -0.001523
vn -0.000402 -0.999999 -0.001523
vn 1.000000 0.000000 0.000000
vn 1.000000 0.000000 0.000000
vn 1.000000 0.000000 0.000000
vn 1.000000 0.000000 0.000000
vn -1.000000 0.000000 0.000005
vn -1.000000 0.000000 0.000005
vn -1.000000 0.000000 0.000005
vn -1.000000 0.000000 0.000005
vn 0.004501 0.000000 0.999990
vn 0.004501 0.000000 0.999990
vn 0.004501 0.000000 0.999990
vn 0.004501 0.000000 0.999990
vn 0.000402 0.999999 0.001523
vn 0.000402 0.999999 0.001523
vn 0.000402 0.999999 0.001523
vn 0.000402 0.999999 0.001523
vn 0.000000 0.000000 -1.000000
vn 0.000000 0.000000 -1.000000
vn 0.000000 0.000000 -1.000000
vn 0.000000 0.000000 -1.000000
vn -0.000401 -0.999999 -0.001523
vn -0.000401 -0.999999 -0.001523
vn -0.000401 -0.999999 -0.001523
vn -0.000401 -0.999999 -0.001523
vn 1.000000 0.000000 0.000000
vn 1.000000 0.000000 0.000000
vn 1.000000 0.000000 0.000000
vn 1.000000 0.000000 0.000000
vn -1.000000 0.000000 0.000005
vn -1.000000 0.000000 0.000005
vn -1.000000 0.000000 0.000005
vn -1.000000 0.000000 0.000005
vn 0.004501 0.000000 0.999990
vn 0.004501 0.000000 0.999990
vn 0.004501 0.000000 0.999990
vn 0.004501 0.000000 0.999990
vn 0.000402 0.999999 0.001523
vn 0.000402 0.999999 0.001523
vn 0.000402 0.999999 0.001523
vn 0.000402 0.999999 0.001523
vn 0.000000 0.000000 -1.000000
vn 0.000000 0.000000 -1.000000
vn 0.000000 0.000000 -1.000000
vn 0.000000 0.000000 -1.000000
vn -0.000402 -0.999999 -0.001523
vn -0.000402 -0.999999 -0.001523
vn -0.000402 -0.999999 -0.001523
vn -0.000402 -0.999999 -0.001523
vn 1.000000 0.000000 0.000000
vn 1.000000 0.000000 0.000000
vn 1.000000 0.000000 0.000000
vn 1.000000 0.000000 0.000000
vn -1.000000 0.000000 0.000005
vn -1.000000 0.000000 0.000005
vn -1.000000 0.000000 0.000005
vn -1.000000 0.000000 0.000005
vn 0.004501 0.000000 0.999990
vn 0.004501 0.000000 0.999990
vn 0.004501 0.000000 0.999990
vn 0.004501 0.000000 0.999990
vn 0.000402 0.999999 0.001523
vn 0.000402 0.999999 0.001523
vn 0.000402 0.999999 0.001523
vn 0.000402 0.999999 0.001523
vn 0.000000 0.000000 -1.000000
vn 0.000000 0.000000 -1.000000
vn 0.000000 0.000000 -1.000000
vn 0.000000 0.000000 -1.000000
vn -0.000401 -0.999999 -0.001523
vn -0.000401 -0.999999 -0.001523
vn -0.000401 -0.999999 -0.001523
vn -0.000401 -0.999999 -0.001523
vn 1.000000 0.000000 0.000000
vn 1.000000 0.000000 0.000000
vn 1.000000 0.000000 0.000000
vn 1.000000 0.000000 0.000000
vn -1.000000 0.000000 0.000005
vn -1.000000 0.000000 0.000005
vn -1.000000 0.000000 0.000005
vn -1.000000 0.000000 0.000005
vn 0.004501 0.000000 0.999990
vn 0.004501 0.000000 0.999990
vn 0.004501 0.000000 0.999990
vn 0.004501 0.000000 0.999990
vn 0.000401 0.999999 0.001523
vn 0.000401 0.999999 0.001523
vn 0.000401 0.999999 0.001523
vn 0.000401 0.999999 0.001523
vn 0.000000 0.000000 -1.000000
vn 0.000000 0.000000 -1.000000
vn 0.000000 0.000000 -1.000000
vn 0.000000 0.000000 -1.000000
vn -0.000402 -0.999999 -0.001523
vn -0.000402 -0.999999 -0.001523
vn -0.000402 -0.999999 -0.001523
vn -0.000402 -0.999999 -0.001523
vn 1.000000 0.000000 0.000000
vn 1.000000 0.000000 0.000000
vn 1.000000 0.000000 0.000000
vn 1.000000 0.000000 0.000000
vn -1.000000 0.000000 0.000005
vn -1.000000 0.000000 0.000005
vn -1.000000 0.000000 0.000005
vn -1.000000 0.000000 0.000005
vn 0.004501 0.000000 0.999990
vn 0.004501 0.000000 0.999990
vn 0.004501 0.000000 0.999990
vn 0.004501 0.000000 0.999990
vn 0.000401 0.999999 0.001523
vn 0.000401 0.999999 0.001523
vn 0.000401 0.999999 0.001523
vn 0.000401 0.999999 0.001523
vn 0.000000 0.000000 -1.000000
vn 0.000000 0.000000 -1.000000
vn 0.000000 0.000000 -1.000000
vn 0.000000 0.000000 -1.000000
vn -0.000402 -0.999999 -0.001523
vn -0.000402 -0.999999 -0.001523
vn -0.000402 -0.999999 -0.001523
vn -0.000402 -0.999999 -0.001523
vn 1.000000 0.000000 0.000000
vn 1.000000 0.000000 0.000000
vn 1.000000 0.000000 0.000000
vn 1.000000 0.000000 0.000000
vn -1.000000 0.000000 0.000005
vn -1.000000 0.000000 0.000005
vn -1.000000 0.000000 0.000005
vn -1.000000 0.000000 0.000005
vn 0.004501 0.000000 0.999990
vn 0.004501 0.000000 0.999990
vn 0.004501 0.000000 0.999990
vn 0.004501 0.000000 0.999990
vn 0.000402 0.999999 0.001523
vn 0.000402 0.999999 0.001523
vn 0.000402 0.999999 0.001523
vn 0.000402 0.999999 0.001523
vn 0.000000 0.000000 -1.000000
vn 0.000000 0.000000 -1.000000
vn 0.000000 0.000000 -1.000000
vn 0.000000 0.000000 -1.000000
vn -0.000402 -0.999999 -0.001523
vn -0.000402 -0.999999 -0.001523
vn -0.000402 -0.999999 -0.001523
vn -0.000402 -0.999999 -0.001523
vn 1.000000 0.000000 0.000000
vn 1.000000 0.000000 0.000000
vn 1.000000 0.000000 0.000000
vn 1.000000 0.000000 0.000000
vn -1.000000 0.000000 0.000005
vn -1.000000 0.000000 0.000005
vn -1.000000 0.000000 0.000005
vn -1.000000 0.000000 0.000005
vn 0.004501 0.000000 0.999990
vn 0.004501 0.000000 0.999990
vn 0.004501 0.000000 0.999990
vn 0.004501 0.000000 0.999990
vn 0.000402 0.999999 0.001523
vn 0.000402 0.999999 0.001523
vn 0.000402 0.999999 0.001523
vn 0.000402 0.999999 0.001523
vn 0.000000 0.000000 -1.000000
vn 0.000000 0.000000 -1.000000
vn 0.000000 0.000000 -1.000000
vn 0.000000 0.000000 -1.000000
vn -0.000401 -0.999999 -0.001523
vn -0.000401 -0.999999 -0.001523
vn -0.000401 -0.999999 -0.001523
vn -0.000401 -0.999999 -0.001523
vn 1.000000 0.000000 0.000000
vn 1.000000 0.000000 0.000000
vn 1.000000 0.000000 0.000000
vn 1.000000 0.000000 0.000000
vn -1.000000 0.000000 0.000005
vn -1.000000 0.000000 0.000005
vn -1.000000 0.000000 0.000005
vn -1.000000 0.000000 0.000005
vn 0.004501 0.000000 0.999990
vn 0.004501 0.000000 0.999990
vn 0.004501 0.000000 0.999990
vn 0.004501 0.000000 0.999990
vn 0.000402 0.999999 0.001523
vn 0.000402 0.999999 0.001523
vn 0.000402 0.999999 0.001523
vn 0.000402 0.999999 0.001523
vn 0.000000 0.000000 -1.000000
vn 0.000000 0.000000 -1.000000
vn 0.000000 0.000000 -1.000000
vn 0.000000 0.000000 -1.000000
vn -0.000402 -0.999999 -0.001522
vn -0.000402 -0.999999 -0.001522
vn -0.000402 -0.999999 -0.001522
vn -0.000402 -0.999999 -0.001522
vn 1.000000 0.000000 0.000000
vn 1.000000 0.000000 0.000000
vn 1.000000 0.000000 0.000000
vn 1.000000 0.000000 0.000000
vn -1.000000 0.000000 0.000005
vn -1.000000 0.000000 0.000005
vn -1.000000 0.000000 0.000005
vn -1.000000 0.000000 0.000005
vn 0.004501 0.000000 0.999990
vn 0.004501 0.000000 0.999990
vn 0.004501 0.000000 0.999990
vn 0.004501 0.000000 0.999990
vn 0.000402 0.999999 0.001523
vn 0.000402 0.999999 0.001523
vn 0.000402 0.999999 0.001523
vn 0.000402 0.999999 0.001523
vn 0.000000 0.000000 -1.000000
vn 0.000000 0.000000 -1.000000
vn 0.000000 0.000000 -1.000000
vn 0.000000 0.000000 -1.000000
vn -0.000402 -0.999999 -0.001523
vn -0.000402 -0.999999 -0.001523
vn -0.000402 -0.999999 -0.001523
vn -0.000402 -0.999999 -0.001523
vn 1.000000 0.000000 0.000000
vn 1.000000 0.000000 0.000000
vn 1.000000 0.000000 0.000000
vn 1.000000 0.000000 0.000000
vn -1.000000 0.000000 0.000005
vn -1.000000 0.000000 0.000005
vn -1.000000 0.000000 0.000005
vn -1.000000 0.000000 0.000005
s off
g Stairs
usemtl lambert14SG
f 1/45/1 2/46/2 4/47/3 3/48/4
f 3/1/5 4/2/6 6/3/7 5/4/8
f 5/221/9 6/222/10 8/223/11 7/224/12
f 7/177/13 8/178/14 2/179/15 1/180/16
f 2/89/17 8/90/18 6/91/19 4/92/20
f 7/93/21 1/94/22 3/95/23 5/96/24
f 9/49/25 10/50/26 12/51/27 11/52/28
f 11/5/29 12/6/30 14/7/31 13/8/32
f 13/225/33 14/226/34 16/227/35 15/228/36
f 15/181/37 16/182/38 10/183/39 9/184/40
f 10/97/41 16/98/42 14/99/43 12/100/44
f 15/101/45 9/102/46 11/103/47 13/104/48
f 17/53/49 18/54/50 20/55/51 19/56/52
f 19/9/53 20/10/54 22/11/55 21/12/56
f 21/229/57 22/230/58 24/231/59 23/232/60
f 23/185/61 24/186/62 18/187/63 17/188/64
f 18/105/65 24/106/66 22/107/67 20/108/68
f 23/109/69 17/110/70 19/111/71 21/112/72
f 25/57/73 26/58/74 28/59/75 27/60/76
f 27/13/77 28/14/78 30/15/79 29/16/80
f 29/233/81 30/234/82 32/235/83 31/236/84
f 31/189/85 32/190/86 26/191/87 25/192/88
f 26/113/89 32/114/90 30/115/91 28/116/92
f 31/117/93 25/118/94 27/119/95 29/120/96
f 33/61/97 34/62/98 36/63/99 35/64/100
f 35/17/101 36/18/102 38/19/103 37/20/104
f 37/237/105 38/238/106 40/239/107 39/240/108
f 39/193/109 40/194/110 34/195/111 33/196/112
f 34/121/113 40/122/114 38/123/115 36/124/116
f 39/125/117 33/126/118 35/127/119 37/128/120
f 41/65/121 42/66/122 44/67/123 43/68/124
f 43/21/125 44/22/126 46/23/127 45/24/128
f 45/241/129 46/242/130 48/243/131 47/244/132
f 47/197/133 48/198/134 42/199/135 41/200/136
f 42/129/137 48/130/138 46/131/139 44/132/140
f 47/133/141 41/134/142 43/135/143 45/136/144
f 49/69/145 50/70/146 52/71/147 51/72/148
f 51/25/149 52/26/150 54/27/151 53/28/152
f 53/245/153 54/246/154 56/247/155 55/248/156
f 55/201/157 56/202/158 50/203/159 49/204/160
f 50/137/161 56/138/162 54/139/163 52/140/164
f 55/141/165 49/142/166 51/143/167 53/144/168
f 57/73/169 58/74/170 60/75/171 59/76/172
f 59/29/173 60/30/174 62/31/175 61/32/176
f 61/249/177 62/250/178 64/251/179 63/252/180
f 63/205/181 64/206/182 58/207/183 57/208/184
f 58/145/185 64/146/186 62/147/187 60/148/188
f 63/149/189 57/150/190 59/151/191 61/152/192
f 65/77/193 66/78/194 68/79/195 67/80/196
f 67/33/197 68/34/198 70/35/199 69/36/200
f 69/253/201 70/254/202 72/255/203 71/256/204
f 71/209/205 72/210/206 66/211/207 65/212/208
f 66/153/209 72/154/210 70/155/211 68/156/212
f 71/157/213 65/158/214 67/159/215 69/160/216
f 73/81/217 74/82/218 76/83/219 75/84/220
f 75/37/221 76/38/222 78/39/223 77/40/224
f 77/257/225 78/258/226 80/259/227 79/260/228
f 79/213/229 80/214/230 74/215/231 73/216/232
f 74/161/233 80/162/234 78/163/235 76/164/236
f 79/165/237 73/166/238 75/167/239 77/168/240
f 81/85/241 82/86/242 84/87/243 83/88/244
f 83/41/245 84/42/246 86/43/247 85/44/248
f 85/261/249 86/262/250 88/263/251 87/264/252
f 87/217/253 88/218/254 82/219/255 81/220/256
f 82/169/257 88/170/258 86/171/259 84/172/260
f 87/173/261 81/174/262 83/175/263 85/176/264
