# This file uses centimeters as units for non-parametric coordinates.

mtllib Cabinet1.mtl
g default
v -454.893250 180.963442 323.791262
v -454.893250 180.963442 360.514554
v -454.893250 184.839426 323.791262
v -454.893250 184.839426 360.514554
v -445.494743 184.839426 323.791262
v -445.494743 184.839426 360.514554
v -445.494743 180.963442 323.791262
v -445.494743 180.963442 360.514554
v -456.209999 149.084384 299.064663
v -456.209999 149.084384 385.275356
v -456.209999 190.111030 299.064663
v -456.209999 190.111030 385.275356
v -449.908111 190.111030 299.064663
v -449.908111 190.111030 385.275356
v -449.908111 149.084384 299.064663
v -449.908111 149.084384 385.275356
v -454.893250 78.419236 323.791262
v -454.893250 78.419236 360.514554
v -454.893250 82.295221 323.791262
v -454.893250 82.295221 360.514554
v -445.494743 82.295221 323.791262
v -445.494743 82.295221 360.514554
v -445.494743 78.419236 323.791262
v -445.494743 78.419236 360.514554
v -456.209999 46.540167 299.064663
v -456.209999 46.540167 385.275356
v -456.209999 87.566824 299.064663
v -456.209999 87.566824 385.275356
v -449.908111 87.566824 299.064663
v -449.908111 87.566824 385.275356
v -449.908111 46.540167 299.064663
v -449.908111 46.540167 385.275356
v -560.601894 12.423975 288.641312
v -560.601894 12.423975 395.706626
v -560.601894 199.615477 288.641312
v -560.601894 199.615477 395.706626
v -453.536580 199.615477 288.641312
v -453.536580 199.615477 395.706626
v -453.536580 12.423975 288.641312
v -453.536580 12.423975 395.706626
v -560.601894 12.423975 299.347862
v -560.601894 12.423975 385.000099
v -453.536580 12.423975 299.347862
v -453.536580 12.423975 385.000099
v -464.243130 12.423975 288.641312
v -549.895344 12.423975 288.641312
v -549.895344 12.423975 299.347862
v -464.243130 12.423975 299.347862
v -464.243130 12.423975 385.000076
v -549.895344 12.423975 385.000099
v -464.243130 12.423975 395.706626
v -549.895344 12.423975 395.706626
v -549.895344 -0.000000 288.641312
v -549.895344 -0.000000 299.347862
v -560.601894 -0.000000 299.347862
v -560.601894 -0.000000 288.641312
v -549.895344 -0.000000 385.000099
v -560.601894 -0.000000 385.000099
v -549.895344 -0.000000 395.706626
v -560.601894 -0.000000 395.706626
v -453.536580 -0.000000 288.641312
v -453.536580 -0.000000 299.347862
v -464.243130 -0.000000 299.347862
v -464.243130 -0.000000 288.641312
v -464.243130 -0.000000 395.706626
v -464.243130 -0.000000 385.000076
v -453.536580 -0.000000 385.000099
v -453.536580 -0.000000 395.706626
v -454.893250 129.900441 323.791262
v -454.893250 129.900441 360.514554
v -454.893250 133.776426 323.791262
v -454.893250 133.776426 360.514554
v -445.494743 133.776426 323.791262
v -445.494743 133.776426 360.514554
v -445.494743 129.900441 323.791262
v -445.494743 129.900441 360.514554
v -456.209999 98.021372 299.064663
v -456.209999 98.021372 385.275356
v -456.209999 139.048030 299.064663
v -456.209999 139.048030 385.275356
v -449.908111 139.048030 299.064663
v -449.908111 139.048030 385.275356
v -449.908111 98.021372 299.064663
v -449.908111 98.021372 385.275356
vt 0.781012 0.024835
vt 0.801327 0.024835
vt 0.963848 0.024835
vt 0.984163 0.024835
vt 0.984163 0.380020
vt 0.781012 0.380020
vt 0.777634 0.383016
vt 0.797949 0.383016
vt 0.960470 0.383016
vt 0.980784 0.383016
vt 0.980784 0.738202
vt 0.777634 0.738202
vt 0.569878 0.383016
vt 0.773029 0.383016
vt 0.773029 0.586167
vt 0.569878 0.586167
vt 0.382437 0.586167
vt 0.382437 0.565852
vt 0.544958 0.565852
vt 0.544958 0.586167
vt 0.382437 0.403331
vt 0.544958 0.403331
vt 0.362123 0.403331
vt 0.362123 0.565852
vt 0.382437 0.383016
vt 0.544958 0.383016
vt 0.565273 0.565852
vt 0.565273 0.403331
vt 0.363942 0.024835
vt 0.384257 0.024835
vt 0.546777 0.024835
vt 0.567092 0.024835
vt 0.567092 0.380020
vt 0.363942 0.380020
vt 0.571819 0.024835
vt 0.774969 0.024835
vt 0.774969 0.380020
vt 0.754654 0.380020
vt 0.592134 0.380020
vt 0.571819 0.380020
vt 0.209637 0.982251
vt 0.177196 0.982251
vt 0.177196 0.946290
vt 0.210670 0.945687
vt 0.276445 0.983848
vt 0.243368 0.982634
vt 0.243030 0.945878
vt 0.276653 0.947887
vt 0.211702 0.914093
vt 0.242692 0.914093
vt 0.308232 0.985036
vt 0.308648 0.949077
vt 0.071913 0.978428
vt 0.040860 0.978351
vt 0.040860 0.942389
vt 0.072332 0.941518
vt 0.135080 0.978678
vt 0.103254 0.978504
vt 0.103498 0.941557
vt 0.135209 0.942717
vt 0.072751 0.909580
vt 0.103741 0.909580
vt 0.166616 0.979075
vt 0.166875 0.943115
vt 0.140156 0.904249
vt 0.107156 0.904065
vt 0.108013 0.867922
vt 0.140262 0.868288
vt 0.074653 0.903835
vt 0.043374 0.903835
vt 0.043374 0.867874
vt 0.076266 0.867807
vt 0.077879 0.836750
vt 0.108869 0.836750
vt 0.171930 0.904386
vt 0.172143 0.868425
vt 0.279704 0.904563
vt 0.246261 0.904569
vt 0.245738 0.868579
vt 0.279538 0.868603
vt 0.213451 0.904646
vt 0.182173 0.904646
vt 0.182173 0.868684
vt 0.213838 0.868618
vt 0.214225 0.837561
vt 0.245215 0.837561
vt 0.311614 0.904349
vt 0.311283 0.868389
vt 0.601152 0.767518
vt 0.615156 0.767518
vt 0.615156 0.858682
vt 0.601152 0.858682
vt 0.584555 0.767518
vt 0.598558 0.767518
vt 0.598558 0.858682
vt 0.584555 0.858682
vt 0.567957 0.767518
vt 0.581960 0.767518
vt 0.581960 0.858682
vt 0.567957 0.858682
vt 0.551359 0.767518
vt 0.565362 0.767518
vt 0.565362 0.858682
vt 0.551359 0.858682
vt 0.534761 0.767518
vt 0.548764 0.767518
vt 0.548764 0.858682
vt 0.534761 0.858682
vt 0.517629 0.768125
vt 0.531632 0.768125
vt 0.531632 0.859289
vt 0.517629 0.859289
vt 0.155102 0.801516
vt 0.155102 0.609950
vt 0.169105 0.609950
vt 0.169105 0.801516
vt 0.266382 0.801515
vt 0.266382 0.609950
vt 0.280385 0.609950
vt 0.280385 0.801515
vt 0.377662 0.801516
vt 0.377662 0.609950
vt 0.391666 0.609950
vt 0.391666 0.801516
vt 0.838464 0.959083
vt 0.838464 0.767518
vt 0.852467 0.767518
vt 0.852467 0.959083
vt 0.728107 0.959083
vt 0.728107 0.767518
vt 0.742110 0.767518
vt 0.742110 0.959083
vt 0.617750 0.959083
vt 0.617750 0.767518
vt 0.631754 0.767518
vt 0.631754 0.959083
vt 0.061050 0.801516
vt 0.061050 0.609950
vt 0.152214 0.609950
vt 0.152214 0.801516
vt 0.172413 0.801516
vt 0.172413 0.609950
vt 0.263576 0.609950
vt 0.263576 0.801516
vt 0.283693 0.801516
vt 0.283693 0.609950
vt 0.374856 0.609950
vt 0.374856 0.801516
vt 0.855062 0.959083
vt 0.855062 0.767518
vt 0.946226 0.767518
vt 0.946226 0.959083
vt 0.744705 0.959083
vt 0.744705 0.767518
vt 0.835869 0.767518
vt 0.835869 0.959083
vt 0.634349 0.959083
vt 0.634349 0.767518
vt 0.725512 0.767518
vt 0.725512 0.959083
vt 0.133801 0.240254
vt 0.133801 0.195022
vt 0.152455 0.195022
vt 0.152455 0.240254
vt 0.113105 0.240254
vt 0.113105 0.195022
vt 0.131759 0.195022
vt 0.131759 0.240254
vt 0.092410 0.240254
vt 0.092410 0.195022
vt 0.111064 0.195022
vt 0.111064 0.240254
vt 0.071714 0.240254
vt 0.071714 0.195022
vt 0.090368 0.195022
vt 0.090368 0.240254
vt 0.051018 0.240254
vt 0.051018 0.195022
vt 0.069672 0.195022
vt 0.069672 0.240254
vt 0.030323 0.240254
vt 0.030323 0.195022
vt 0.048977 0.195022
vt 0.048977 0.240254
vt 0.055204 0.193694
vt 0.055204 0.016956
vt 0.100436 0.016956
vt 0.100436 0.193694
vt 0.123303 0.193694
vt 0.123303 0.016956
vt 0.168535 0.016956
vt 0.168535 0.193694
vt 0.191402 0.193694
vt 0.191402 0.016956
vt 0.236634 0.016956
vt 0.236634 0.193694
vt 0.259501 0.193694
vt 0.259501 0.016956
vt 0.304733 0.016956
vt 0.304733 0.193694
vt 0.222466 0.371759
vt 0.222466 0.195022
vt 0.267697 0.195022
vt 0.267697 0.371759
vt 0.154497 0.371760
vt 0.154497 0.195022
vt 0.199728 0.195022
vt 0.199728 0.371760
vt 0.034385 0.193694
vt 0.034385 0.016956
vt 0.053039 0.016956
vt 0.053039 0.193694
vt 0.102549 0.193694
vt 0.102549 0.016956
vt 0.121203 0.016956
vt 0.121203 0.193694
vt 0.170648 0.193694
vt 0.170648 0.016956
vt 0.189302 0.016956
vt 0.189302 0.193694
vt 0.238747 0.193694
vt 0.238747 0.016956
vt 0.257401 0.016956
vt 0.257401 0.193694
vt 0.306846 0.193694
vt 0.306846 0.016956
vt 0.325500 0.016956
vt 0.325500 0.193694
vt 0.201770 0.371760
vt 0.201770 0.195022
vt 0.220424 0.195022
vt 0.220424 0.371760
vn -1.000000 0.000000 -0.000000
vn -1.000000 0.000000 -0.000000
vn -1.000000 0.000000 -0.000000
vn -1.000000 0.000000 -0.000000
vn 0.000000 1.000000 0.000000
vn 0.000000 1.000000 0.000000
vn 0.000000 1.000000 0.000000
vn 0.000000 1.000000 0.000000
vn 1.000000 0.000000 0.000000
vn 1.000000 0.000000 0.000000
vn 1.000000 0.000000 0.000000
vn 1.000000 0.000000 0.000000
vn -0.000000 -1.000000 0.000000
vn -0.000000 -1.000000 0.000000
vn -0.000000 -1.000000 0.000000
vn -0.000000 -1.000000 0.000000
vn -0.000000 0.000000 1.000000
vn -0.000000 0.000000 1.000000
vn -0.000000 0.000000 1.000000
vn -0.000000 0.000000 1.000000
vn 0.000000 0.000000 -1.000000
vn 0.000000 0.000000 -1.000000
vn 0.000000 0.000000 -1.000000
vn 0.000000 0.000000 -1.000000
vn -1.000000 0.000000 -0.000000
vn -1.000000 0.000000 -0.000000
vn -1.000000 0.000000 -0.000000
vn -1.000000 0.000000 -0.000000
vn 0.000000 1.000000 0.000000
vn 0.000000 1.000000 0.000000
vn 0.000000 1.000000 0.000000
vn 0.000000 1.000000 0.000000
vn 1.000000 0.000000 0.000000
vn 1.000000 0.000000 0.000000
vn 1.000000 0.000000 0.000000
vn 1.000000 0.000000 0.000000
vn -0.000000 -1.000000 0.000000
vn -0.000000 -1.000000 0.000000
vn -0.000000 -1.000000 0.000000
vn -0.000000 -1.000000 0.000000
vn -0.000000 0.000000 1.000000
vn -0.000000 0.000000 1.000000
vn -0.000000 0.000000 1.000000
vn -0.000000 0.000000 1.000000
vn 0.000000 0.000000 -1.000000
vn 0.000000 0.000000 -1.000000
vn 0.000000 0.000000 -1.000000
vn 0.000000 0.000000 -1.000000
vn -1.000000 0.000000 -0.000000
vn -1.000000 0.000000 -0.000000
vn -1.000000 0.000000 -0.000000
vn -1.000000 0.000000 -0.000000
vn 0.000000 1.000000 0.000000
vn 0.000000 1.000000 0.000000
vn 0.000000 1.000000 0.000000
vn 0.000000 1.000000 0.000000
vn 1.000000 0.000000 0.000000
vn 1.000000 0.000000 0.000000
vn 1.000000 0.000000 0.000000
vn 1.000000 0.000000 0.000000
vn -0.000000 -1.000000 0.000000
vn -0.000000 -1.000000 0.000000
vn -0.000000 -1.000000 0.000000
vn -0.000000 -1.000000 0.000000
vn -0.000000 0.000000 1.000000
vn -0.000000 0.000000 1.000000
vn -0.000000 0.000000 1.000000
vn -0.000000 0.000000 1.000000
vn 0.000000 0.000000 -1.000000
vn 0.000000 0.000000 -1.000000
vn 0.000000 0.000000 -1.000000
vn 0.000000 0.000000 -1.000000
vn -1.000000 0.000000 -0.000000
vn -1.000000 0.000000 -0.000000
vn -1.000000 0.000000 -0.000000
vn -1.000000 0.000000 -0.000000
vn 0.000000 1.000000 0.000000
vn 0.000000 1.000000 0.000000
vn 0.000000 1.000000 0.000000
vn 0.000000 1.000000 0.000000
vn 1.000000 0.000000 0.000000
vn 1.000000 0.000000 0.000000
vn 1.000000 0.000000 0.000000
vn 1.000000 0.000000 0.000000
vn -0.000000 -1.000000 0.000000
vn -0.000000 -1.000000 0.000000
vn -0.000000 -1.000000 0.000000
vn -0.000000 -1.000000 0.000000
vn -0.000000 0.000000 1.000000
vn -0.000000 0.000000 1.000000
vn -0.000000 0.000000 1.000000
vn -0.000000 0.000000 1.000000
vn 0.000000 0.000000 -1.000000
vn 0.000000 0.000000 -1.000000
vn 0.000000 0.000000 -1.000000
vn 0.000000 0.000000 -1.000000
vn -1.000000 0.000000 -0.000000
vn -1.000000 0.000000 -0.000000
vn -1.000000 0.000000 -0.000000
vn -1.000000 0.000000 -0.000000
vn -1.000000 0.000000 -0.000000
vn -1.000000 0.000000 -0.000000
vn 0.000000 1.000000 0.000000
vn 0.000000 1.000000 0.000000
vn 0.000000 1.000000 0.000000
vn 0.000000 1.000000 0.000000
vn 1.000000 0.000000 0.000000
vn 1.000000 0.000000 0.000000
vn 1.000000 0.000000 0.000000
vn 1.000000 0.000000 0.000000
vn 1.000000 0.000000 0.000000
vn 1.000000 0.000000 0.000000
vn -0.000000 -1.000000 0.000000
vn 0.000000 -1.000000 0.000000
vn 0.000000 -1.000000 0.000000
vn -0.000000 -1.000000 0.000000
vn -0.000000 0.000000 1.000000
vn -0.000000 0.000000 1.000000
vn -0.000000 0.000000 1.000000
vn -0.000000 0.000000 1.000000
vn -0.000000 0.000000 1.000000
vn -0.000000 0.000000 1.000000
vn 0.000000 0.000000 -1.000000
vn 0.000000 0.000000 -1.000000
vn 0.000000 0.000000 -1.000000
vn 0.000000 0.000000 -1.000000
vn 0.000000 0.000000 -1.000000
vn 0.000000 0.000000 -1.000000
vn -0.000000 -1.000000 0.000000
vn -0.000000 -1.000000 0.000000
vn -0.000000 -1.000000 0.000000
vn -0.000000 -1.000000 0.000000
vn -0.000000 -1.000000 0.000000
vn -0.000000 -1.000000 0.000000
vn -0.000000 -1.000000 0.000000
vn -0.000000 -1.000000 0.000000
vn -0.000000 -1.000000 0.000000
vn -0.000000 -1.000000 0.000000
vn -0.000000 -1.000000 0.000000
vn -0.000000 -1.000000 0.000000
vn -0.000000 -1.000000 -0.000000
vn -0.000000 -1.000000 -0.000000
vn -0.000000 -1.000000 -0.000000
vn -0.000000 -1.000000 -0.000000
vn -0.000000 -1.000000 0.000000
vn -0.000000 -1.000000 0.000000
vn -0.000000 -1.000000 0.000000
vn -0.000000 -1.000000 0.000000
vn -0.000000 -1.000000 0.000000
vn -0.000000 -1.000000 0.000000
vn -0.000000 -1.000000 0.000000
vn -0.000000 -1.000000 0.000000
vn 1.000000 0.000000 0.000000
vn 1.000000 0.000000 0.000000
vn 1.000000 0.000000 0.000000
vn 1.000000 0.000000 0.000000
vn -0.000000 0.000000 1.000000
vn -0.000000 0.000000 1.000000
vn -0.000000 0.000000 1.000000
vn -0.000000 0.000000 1.000000
vn -1.000000 0.000000 -0.000000
vn -1.000000 0.000000 -0.000000
vn -1.000000 0.000000 -0.000000
vn -1.000000 0.000000 -0.000000
vn 0.000000 0.000000 -1.000000
vn 0.000000 0.000000 -1.000000
vn 0.000000 0.000000 -1.000000
vn 0.000000 0.000000 -1.000000
vn 0.000000 0.000000 -1.000000
vn 0.000000 0.000000 -1.000000
vn 0.000000 0.000000 -1.000000
vn 0.000000 0.000000 -1.000000
vn 1.000000 0.000000 0.000000
vn 1.000000 0.000000 0.000000
vn 1.000000 0.000000 0.000000
vn 1.000000 0.000000 0.000000
vn -0.000000 0.000000 1.000000
vn -0.000000 0.000000 1.000000
vn -0.000000 0.000000 1.000000
vn -0.000000 0.000000 1.000000
vn -1.000000 0.000000 -0.000000
vn -1.000000 0.000000 -0.000000
vn -1.000000 0.000000 -0.000000
vn -1.000000 0.000000 -0.000000
vn 1.000000 0.000000 0.000000
vn 1.000000 0.000000 0.000000
vn 1.000000 0.000000 0.000000
vn 1.000000 0.000000 0.000000
vn -0.000000 0.000000 1.000000
vn -0.000000 0.000000 1.000000
vn -0.000000 0.000000 1.000000
vn -0.000000 0.000000 1.000000
vn -1.000000 0.000000 -0.000000
vn -1.000000 0.000000 -0.000000
vn -1.000000 0.000000 -0.000000
vn -1.000000 0.000000 -0.000000
vn 0.000000 0.000000 -1.000000
vn 0.000000 0.000000 -1.000000
vn 0.000000 0.000000 -1.000000
vn 0.000000 0.000000 -1.000000
vn -1.000000 0.000000 -0.000000
vn -1.000000 0.000000 -0.000000
vn -1.000000 0.000000 -0.000000
vn -1.000000 0.000000 -0.000000
vn 0.000002 0.000000 -1.000000
vn 0.000002 0.000000 -1.000000
vn 0.000002 0.000000 -1.000000
vn 0.000002 0.000000 -1.000000
vn 1.000000 0.000000 0.000000
vn 1.000000 0.000000 0.000000
vn 1.000000 0.000000 0.000000
vn 1.000000 0.000000 0.000000
vn -0.000000 0.000000 1.000000
vn -0.000000 0.000000 1.000000
vn -0.000000 0.000000 1.000000
vn -0.000000 0.000000 1.000000
vn -1.000000 0.000000 -0.000000
vn -1.000000 0.000000 -0.000000
vn -1.000000 0.000000 -0.000000
vn -1.000000 0.000000 -0.000000
vn 0.000000 1.000000 0.000000
vn 0.000000 1.000000 0.000000
vn 0.000000 1.000000 0.000000
vn 0.000000 1.000000 0.000000
vn 1.000000 0.000000 0.000000
vn 1.000000 0.000000 0.000000
vn 1.000000 0.000000 0.000000
vn 1.000000 0.000000 0.000000
vn -0.000000 -1.000000 0.000000
vn -0.000000 -1.000000 0.000000
vn -0.000000 -1.000000 0.000000
vn -0.000000 -1.000000 0.000000
vn -0.000000 0.000000 1.000000
vn -0.000000 0.000000 1.000000
vn -0.000000 0.000000 1.000000
vn -0.000000 0.000000 1.000000
vn 0.000000 0.000000 -1.000000
vn 0.000000 0.000000 -1.000000
vn 0.000000 0.000000 -1.000000
vn 0.000000 0.000000 -1.000000
vn -1.000000 0.000000 -0.000000
vn -1.000000 0.000000 -0.000000
vn -1.000000 0.000000 -0.000000
vn -1.000000 0.000000 -0.000000
vn 0.000000 1.000000 0.000000
vn 0.000000 1.000000 0.000000
vn 0.000000 1.000000 0.000000
vn 0.000000 1.000000 0.000000
vn 1.000000 0.000000 0.000000
vn 1.000000 0.000000 0.000000
vn 1.000000 0.000000 0.000000
vn 1.000000 0.000000 0.000000
vn -0.000000 -1.000000 0.000000
vn -0.000000 -1.000000 0.000000
vn -0.000000 -1.000000 0.000000
vn -0.000000 -1.000000 0.000000
vn -0.000000 0.000000 1.000000
vn -0.000000 0.000000 1.000000
vn -0.000000 0.000000 1.000000
vn -0.000000 0.000000 1.000000
vn 0.000000 0.000000 -1.000000
vn 0.000000 0.000000 -1.000000
vn 0.000000 0.000000 -1.000000
vn 0.000000 0.000000 -1.000000
s off
g Cabinet1
usemtl lambert8SG
f 1/209/1 2/210/2 4/211/3 3/212/4
f 3/185/5 4/186/6 6/187/7 5/188/8
f 5/213/9 6/214/10 8/215/11 7/216/12
f 7/189/13 8/190/14 2/191/15 1/192/16
f 2/161/17 8/162/18 6/163/19 4/164/20
f 7/165/21 1/166/22 3/167/23 5/168/24
f 9/137/25 10/138/26 12/139/27 11/140/28
f 11/113/29 12/114/30 14/115/31 13/116/32
f 13/141/33 14/142/34 16/143/35 15/144/36
f 15/117/37 16/118/38 10/119/39 9/120/40
f 10/89/41 16/90/42 14/91/43 12/92/44
f 15/93/45 9/94/46 11/95/47 13/96/48
f 17/217/49 18/218/50 20/219/51 19/220/52
f 19/193/53 20/194/54 22/195/55 21/196/56
f 21/221/57 22/222/58 24/223/59 23/224/60
f 23/197/61 24/198/62 18/199/63 17/200/64
f 18/169/65 24/170/66 22/171/67 20/172/68
f 23/173/69 17/174/70 19/175/71 21/176/72
f 25/145/73 26/146/74 28/147/75 27/148/76
f 27/121/77 28/122/78 30/123/79 29/124/80
f 29/149/81 30/150/82 32/151/83 31/152/84
f 31/125/85 32/126/86 26/127/87 25/128/88
f 26/97/89 32/98/90 30/99/91 28/100/92
f 31/101/93 25/102/94 27/103/95 29/104/96
f 33/29/97 41/30/98 42/31/99 34/32/100 36/33/101 35/34/102
f 35/13/103 36/14/104 38/15/105 37/16/106
f 37/35/107 38/36/108 40/37/109 44/38/110 43/39/111 39/40/112
s 1
f 41/17/113 47/18/114 50/19/115 42/20/116
s off
f 34/1/117 52/2/118 51/3/119 40/4/120 38/5/121 36/6/122
f 39/7/123 45/8/124 46/9/125 33/10/126 35/11/127 37/12/128
f 53/85/129 54/86/130 55/79/131 56/84/132
f 58/56/133 57/61/134 59/62/135 60/59/136
f 61/73/137 62/74/138 63/67/139 64/72/140
s 1
f 49/22/141 48/21/142 43/25/143 44/26/144
s off
f 65/47/145 66/44/146 67/49/147 68/50/148
s 1
f 52/27/149 50/19/115 49/22/141 51/28/150
f 50/19/115 47/18/114 48/21/142 49/22/141
f 45/23/151 48/21/142 47/18/114 46/24/152
s off
f 46/87/153 47/77/154 54/80/155 53/88/156
f 47/77/157 41/78/158 55/79/159 54/80/160
f 41/78/161 33/81/162 56/84/163 55/79/164
f 33/81/165 46/82/166 53/83/167 56/84/168
f 42/53/169 50/54/170 57/55/171 58/56/172
f 50/63/173 52/57/174 59/60/175 57/64/176
f 52/57/177 34/58/178 60/59/179 59/60/180
f 34/58/181 42/53/182 58/56/183 60/59/184
f 39/75/185 43/65/186 62/68/187 61/76/188
f 43/65/189 48/66/190 63/67/191 62/68/192
f 48/66/193 45/69/194 64/72/195 63/67/196
f 45/69/197 39/70/198 61/71/199 64/72/200
f 51/46/201 49/41/202 66/44/203 65/47/204
f 49/41/205 44/42/206 67/43/207 66/44/208
f 44/51/209 40/45/210 68/48/211 67/52/212
f 40/45/213 51/46/214 65/47/215 68/48/216
f 69/225/217 70/226/218 72/227/219 71/228/220
f 71/201/221 72/202/222 74/203/223 73/204/224
f 73/229/225 74/230/226 76/231/227 75/232/228
f 75/205/229 76/206/230 70/207/231 69/208/232
f 70/177/233 76/178/234 74/179/235 72/180/236
f 75/181/237 69/182/238 71/183/239 73/184/240
f 77/153/241 78/154/242 80/155/243 79/156/244
f 79/129/245 80/130/246 82/131/247 81/132/248
f 81/157/249 82/158/250 84/159/251 83/160/252
f 83/133/253 84/134/254 78/135/255 77/136/256
f 78/105/257 84/106/258 82/107/259 80/108/260
f 83/109/261 77/110/262 79/111/263 81/112/264
