# This file uses centimeters as units for non-parametric coordinates.

mtllib TerraceFloor.mtl
g default
v -2044.598477 0.097060 704.710364
v -1625.418222 0.097060 704.710364
v -2044.598477 17.503707 704.710364
v -1625.418222 17.503707 704.710364
v -2044.598477 17.503707 144.628078
v -1625.418222 17.503707 144.628078
v -2044.598477 0.097060 144.628078
v -1625.418222 0.097060 144.628078
v -2031.435127 17.503707 144.628078
v -2031.424914 17.503707 704.710364
v -2044.598477 159.408423 704.710364
v -2031.424914 159.408423 704.710364
v -2031.435127 159.408423 144.628078
v -2044.598477 159.408423 144.628078
vt 0.618985 0.029480
vt 0.776672 0.029480
vt 0.776672 0.624677
vt 0.618985 0.624677
vt 0.781555 0.029480
vt 0.939239 0.029480
vt 0.939239 0.624677
vt 0.781555 0.624677
vt 0.605936 0.684645
vt 0.014120 0.684597
vt 0.014120 0.013740
vt 0.605936 0.013740
vt 0.949679 0.005920
vt 0.972732 0.005920
vt 0.972706 0.632498
vt 0.949679 0.632498
vn 0.000000 0.000000 1.000000
vn 0.000000 0.000000 1.000000
vn 0.000000 0.000000 1.000000
vn 0.000000 0.000000 1.000000
vn 0.000000 0.000000 1.000000
vn 0.000000 1.000000 0.000000
vn 0.000000 1.000000 0.000000
vn 0.000000 1.000000 0.000000
vn 0.000000 1.000000 0.000000
vn 0.000000 0.000000 -1.000000
vn 0.000000 0.000000 -1.000000
vn 0.000000 0.000000 -1.000000
vn 0.000000 0.000000 -1.000000
vn 0.000000 0.000000 -1.000000
vn 0.000000 -1.000000 0.000000
vn 0.000000 -1.000000 0.000000
vn 0.000000 -1.000000 0.000000
vn 0.000000 -1.000000 0.000000
vn 1.000000 0.000000 0.000000
vn 1.000000 0.000000 0.000000
vn 1.000000 0.000000 0.000000
vn 1.000000 0.000000 0.000000
vn -1.000000 0.000000 0.000000
vn -1.000000 0.000000 0.000000
vn -1.000000 0.000000 0.000000
vn -1.000000 0.000000 0.000000
vn 0.000000 1.000000 0.000000
vn 0.000000 1.000000 0.000000
vn 0.000000 1.000000 0.000000
vn 0.000000 1.000000 0.000000
vn 0.000000 0.000000 1.000000
vn 0.000000 0.000000 1.000000
vn 0.000000 0.000000 1.000000
vn 0.000000 0.000000 1.000000
vn 1.000000 0.000000 -0.000018
vn 1.000000 0.000000 -0.000018
vn 1.000000 0.000000 -0.000018
vn 1.000000 0.000000 -0.000018
vn 0.000000 0.000000 -1.000000
vn 0.000000 0.000000 -1.000000
vn 0.000000 0.000000 -1.000000
vn 0.000000 0.000000 -1.000000
vn -1.000000 0.000000 0.000000
vn -1.000000 0.000000 0.000000
vn -1.000000 0.000000 0.000000
vn -1.000000 0.000000 0.000000
s off
g TerraceFloor
usemtl lambert31SG
f 1//1 2//2 4//3 10//4 3//5
f 9/9/6 10/10/7 4/11/8 6/12/9
f 5//10 9//11 6//12 8//13 7//14
f 7//15 8//16 2//17 1//18
f 2//19 8//20 6//21 4//22
f 7//23 1//24 3//25 5//26
f 11/13/27 12/14/28 13/15/29 14/16/30
f 3//31 10//32 12//33 11//34
f 10/1/35 9/2/36 13/3/37 12/4/38
f 9//39 5//40 14//41 13//42
f 5/5/43 3/6/44 11/7/45 14/8/46
