# This file uses centimeters as units for non-parametric coordinates.

mtllib Bedroom2Door.mtl
g default
v -804.802023 16.253240 698.491890
v -652.234045 16.253240 698.491890
v -804.802023 293.226701 698.491890
v -652.234045 293.226701 698.491890
v -804.802023 293.226701 688.739254
v -652.234045 293.226701 688.739254
v -804.802023 16.253240 688.739254
v -652.234045 16.253240 688.739254
vt 0.552996 0.030488
vt 0.102257 0.030488
vt 0.102257 0.977837
vt 0.552996 0.977837
vt 0.552847 0.977837
vt 0.102108 0.977837
vt 0.102108 0.030488
vt 0.552847 0.030488
vt 0.822258 0.418432
vt 0.873471 0.418432
vt 0.873471 0.579158
vt 0.822258 0.579158
vt 0.875440 0.418432
vt 0.926654 0.418432
vt 0.926654 0.579158
vt 0.875440 0.579158
vt 0.716320 0.584812
vt 0.716320 0.418432
vt 0.767534 0.418432
vt 0.767534 0.584812
vt 0.769075 0.584812
vt 0.769075 0.418432
vt 0.820289 0.418432
vt 0.820289 0.584812
vn 0.000000 0.000000 1.000000
vn 0.000000 0.000000 1.000000
vn 0.000000 0.000000 1.000000
vn 0.000000 0.000000 1.000000
vn 0.000000 1.000000 0.000000
vn 0.000000 1.000000 0.000000
vn 0.000000 1.000000 0.000000
vn 0.000000 1.000000 0.000000
vn 0.000000 0.000000 -1.000000
vn 0.000000 0.000000 -1.000000
vn 0.000000 0.000000 -1.000000
vn 0.000000 0.000000 -1.000000
vn 0.000000 -1.000000 0.000000
vn 0.000000 -1.000000 0.000000
vn 0.000000 -1.000000 0.000000
vn 0.000000 -1.000000 0.000000
vn 1.000000 0.000000 0.000000
vn 1.000000 0.000000 0.000000
vn 1.000000 0.000000 0.000000
vn 1.000000 0.000000 0.000000
vn -1.000000 0.000000 0.000000
vn -1.000000 0.000000 0.000000
vn -1.000000 0.000000 0.000000
vn -1.000000 0.000000 0.000000
s off
g Bedroom2Door Door
usemtl lambert36SG
f 1/1/1 2/2/2 4/3/3 3/4/4
f 3/17/5 4/18/6 6/19/7 5/20/8
f 5/5/9 6/6/10 8/7/11 7/8/12
f 7/21/13 8/22/14 2/23/15 1/24/16
f 2/9/17 8/10/18 6/11/19 4/12/20
f 7/13/21 1/14/22 3/15/23 5/16/24
