# This file uses centimeters as units for non-parametric coordinates.

mtllib Bedroom2Floor.mtl
g default
v -1191.149242 -0.031166 696.076431
v -578.575802 -0.031166 696.076431
v -1191.149242 17.375471 696.076431
v -578.575802 17.375471 696.076431
v -1191.149242 17.503706 257.445307
v -578.575802 17.503706 257.445307
v -1191.149242 0.097060 257.445260
v -578.575802 0.097060 257.445260
vt 0.001426 0.998008
vt 0.001426 0.001992
vt 0.714595 0.001992
vt 0.714595 0.998008
vn 0.000000 0.000000 1.000000
vn 0.000000 0.000000 1.000000
vn 0.000000 0.000000 1.000000
vn 0.000000 0.000000 1.000000
vn 0.000000 1.000000 0.000292
vn 0.000000 1.000000 0.000292
vn 0.000000 1.000000 0.000292
vn 0.000000 1.000000 0.000292
vn 0.000000 0.000003 -1.000000
vn 0.000000 0.000003 -1.000000
vn 0.000000 0.000003 -1.000000
vn 0.000000 0.000003 -1.000000
vn 0.000000 -1.000000 -0.000292
vn 0.000000 -1.000000 -0.000292
vn 0.000000 -1.000000 -0.000292
vn 0.000000 -1.000000 -0.000292
vn 1.000000 -0.000001 0.000000
vn 1.000000 -0.000001 0.000000
vn 1.000000 -0.000001 0.000000
vn 1.000000 -0.000001 0.000000
vn -1.000000 -0.000001 0.000000
vn -1.000000 -0.000001 0.000000
vn -1.000000 -0.000001 0.000000
vn -1.000000 -0.000001 0.000000
s off
g Bedroom2Floor
usemtl lambert24SG
f 1//1 2//2 4//3 3//4
f 3/1/5 4/2/6 6/3/7 5/4/8
f 5//9 6//10 8//11 7//12
f 7//13 8//14 2//15 1//16
f 2//17 8//18 6//19 4//20
f 7//21 1//22 3//23 5//24
