# This file uses centimeters as units for non-parametric coordinates.

mtllib Bedroom2Walls.mtl
g default
v -807.694275 293.527527 696.076111
v -807.694275 17.503710 696.076172
v -807.694275 17.503710 680.936829
v -807.694275 293.527527 680.936707
v -594.169617 17.503704 271.902283
v -594.208984 367.693420 680.936707
v -594.169434 367.693420 271.902435
v -594.209229 17.503708 680.936829
v -647.281677 17.503708 680.936829
v -594.209229 17.503708 696.076172
v -647.281677 17.503708 696.076172
v -578.615479 17.503708 680.936829
v -578.615479 17.503708 696.076172
v -578.615234 367.693420 680.936707
v -578.575684 367.693420 271.902435
v -1177.264282 17.503712 680.936829
v -1177.264404 367.693420 680.936707
v -647.281677 293.527527 680.936707
v -647.281677 293.527527 696.076111
v -1177.264404 367.693420 696.076111
v -594.208984 367.693420 696.076111
v -1177.264282 17.503712 696.076172
v -578.615234 367.693420 696.076111
v -578.575867 17.503704 271.902283
v -578.575684 367.693420 271.902130
v -578.575989 17.503712 271.902283
v -578.575867 17.503712 257.448303
v -578.575562 367.693420 257.448151
v -1191.149536 367.693420 696.076111
v -1191.149536 367.693420 680.936707
v -1177.222900 367.693420 257.444916
v -1177.223022 367.693420 271.898895
v -1191.149414 17.503708 696.076172
v -1191.149414 17.503708 680.936829
v -1191.108154 367.693420 271.898895
v -1177.222900 17.503712 271.899048
v -1177.222778 17.503712 257.445068
v -1191.108032 17.503708 271.899048
v -1191.108032 367.693420 257.444916
v -1191.107910 17.503708 257.445068
vt 0.622418 0.589756
vt 0.622418 0.969618
vt 0.297203 0.969618
vt 0.297203 0.589756
vt 0.952892 0.955141
vt 0.627678 0.955141
vt 0.627678 0.575276
vt 0.952892 0.575276
vt 0.755115 0.571854
vt 0.429901 0.571854
vt 0.429901 0.030382
vt 0.755115 0.030382
vt 0.755115 0.120188
vt 0.498778 0.120188
vt 0.498778 0.228641
vt 0.755115 0.228641
vt 0.424059 0.586334
vt 0.098845 0.586333
vt 0.098845 0.030382
vt 0.424059 0.030382
vn 1.000000 -0.000000 0.000000
vn 1.000000 -0.000000 0.000000
vn 1.000000 -0.000000 0.000000
vn 1.000000 -0.000000 0.000000
vn -1.000000 0.000001 -0.000097
vn -1.000000 0.000001 -0.000097
vn -1.000000 0.000001 -0.000097
vn -1.000000 0.000001 -0.000097
vn 0.000000 -1.000000 0.000000
vn 0.000000 -1.000000 0.000000
vn 0.000000 -1.000000 0.000000
vn 0.000000 -1.000000 0.000000
vn 0.000000 -1.000000 0.000000
vn 0.000000 -1.000000 0.000000
vn 1.000000 -0.000001 0.000097
vn 1.000000 -0.000001 0.000093
vn 1.000000 -0.000001 0.000093
vn 1.000000 -0.000001 0.000097
vn -0.000000 -0.000000 -1.000000
vn -0.000000 -0.000000 -1.000000
vn -0.000000 -0.000000 -1.000000
vn -0.000000 -0.000000 -1.000000
vn -0.000000 -0.000000 -1.000000
vn -0.000000 -0.000000 -1.000000
vn -0.000000 -0.000000 -1.000000
vn -0.000000 -0.000000 -1.000000
vn -1.000000 0.000000 0.000000
vn -1.000000 0.000000 0.000000
vn -1.000000 0.000000 0.000000
vn -1.000000 0.000000 0.000000
vn 0.000000 1.000000 0.000000
vn 0.000000 1.000000 0.000000
vn 0.000000 1.000000 0.000000
vn 0.000000 1.000000 0.000000
vn 0.000000 0.000000 1.000000
vn 0.000000 0.000000 1.000000
vn 0.000000 0.000000 1.000000
vn 0.000000 0.000000 1.000000
vn 0.000000 0.000000 1.000000
vn 0.000000 0.000000 1.000000
vn 0.000000 0.000000 1.000000
vn 0.000000 0.000000 1.000000
vn 0.000000 -1.000000 0.000000
vn 0.000000 -1.000000 0.000000
vn 0.000000 -1.000000 0.000000
vn 0.000000 -1.000000 0.000000
vn 0.000000 1.000000 0.000000
vn 0.000000 1.000000 0.000000
vn 0.000000 1.000000 0.000000
vn 0.000000 0.000000 1.000000
vn 0.000000 0.000000 1.000000
vn 1.000000 -0.000001 0.000000
vn 1.000000 -0.000001 0.000000
vn 0.000000 1.000000 0.000000
vn 0.000000 -1.000000 0.000000
vn 0.000000 -1.000000 0.000000
vn 1.000000 -0.000001 0.000008
vn 1.000000 -0.000001 0.000008
vn 1.000000 -0.000001 0.000008
vn 1.000000 -0.000001 0.000008
vn 0.000000 0.000000 -1.000000
vn 0.000000 0.000000 -1.000000
vn 0.000000 0.000000 -1.000000
vn 0.000000 0.000000 -1.000000
vn 0.000000 1.000000 0.000000
vn 0.000000 1.000000 0.000000
vn 0.000000 1.000000 -0.000000
vn 0.000000 1.000000 -0.000000
vn 0.000000 1.000000 0.000000
vn 0.000000 1.000000 0.000000
vn 0.000000 -1.000000 0.000000
vn 0.000000 -1.000000 0.000000
vn -0.000000 -1.000000 0.000000
vn -0.000000 -1.000000 0.000000
vn 0.000000 0.000000 1.000000
vn 0.000000 0.000000 1.000000
vn -1.000000 -0.000001 -0.000098
vn -1.000000 -0.000000 0.000000
vn -1.000000 -0.000000 0.000000
vn -1.000000 -0.000001 -0.000098
vn 0.000000 1.000000 -0.000000
vn -0.000005 0.000000 1.000000
vn -0.000005 0.000000 1.000000
vn -0.000005 0.000000 1.000000
vn -0.000005 0.000000 1.000000
vn 0.000005 -0.000000 -1.000000
vn 0.000005 -0.000000 -1.000000
vn 0.000005 -0.000000 -1.000000
vn 0.000005 -0.000000 -1.000000
vn 0.000000 -1.000000 0.000000
vn 0.000000 -1.000000 0.000000
vn 1.000000 0.000000 0.000101
vn 1.000000 0.000000 0.000101
vn 1.000000 0.000000 0.000101
vn 1.000000 0.000000 0.000101
vn -1.000000 -0.000001 -0.000098
vn -1.000000 -0.000001 -0.000098
vn 0.000000 1.000000 -0.000000
vn 0.000000 -1.000000 0.000000
vn 0.000000 -1.000000 0.000000
vn 0.000000 -1.000000 0.000000
vn 0.000000 -1.000000 0.000000
vn 0.000000 -1.000000 0.000000
vn -1.000000 -0.000000 -0.000008
vn -1.000000 -0.000000 -0.000008
vn 0.000000 -0.000000 -1.000000
vn 0.000000 -0.000000 -1.000000
vn 0.000000 -1.000000 0.000000
s off
g Bedroom2Walls
usemtl lambert26SG
f 1//1 2//2 3//3 4//4
f 6/1/5 7/2/6 5/3/7 8/4/8
s 1
f 9//9 8//10 10//11 11//12
f 10//11 8//10 12//13 13//14
s 2
f 15//15 14//16 12//17 24//18
s off
f 16/9/19 17/10/20 6/11/21 8/12/22 9/13/23 18/14/24 4/15/25 3/16/26
f 18//27 9//28 11//29 19//30
s 3
f 17//31 20//32 21//33 6//34
s 4
f 20//35 22//36 2//37 1//38 19//39 11//40 10//41 21//42
s off
f 19//43 1//44 4//45 18//46
s 3
f 6//34 14//47 15//48 7//49
s 4
f 21//42 10//41 13//50 23//51
s 2
f 13//52 12//17 14//16 23//53
s 3
f 6//34 21//33 23//54 14//47
s 1
f 12//13 8//10 5//55 24//56
s off
f 25//57 26//58 27//59 28//60
f 5//61 7//62 15//63 24//64
s 3
f 29//65 20//32 17//31 30//66
f 31//67 32//68 25//69 28//70
s 6
f 22//71 16//72 3//73 2//74
s 4
f 33//75 22//36 20//35 29//76
s 7
f 34//77 33//78 29//79 30//80
s 3
f 30//66 17//31 32//68 35//81
s off
f 32/17/82 36/18/83 26/19/84 25/20/85
s 8
f 37//86 31//87 28//88 27//89
s 6
f 34//90 16//72 22//71 33//91
s off
f 17/5/92 16/6/93 36/7/94 32/8/95
s 7
f 34//77 30//80 35//96 38//97
s 3
f 35//81 32//68 31//67 39//98
s 6
f 36//99 37//100 27//101 26//102
f 16//72 34//90 38//103 36//99
s 7
f 38//97 35//96 39//104 40//105
s 8
f 39//106 31//87 37//86 40//107
s 6
f 36//99 38//103 40//108 37//100
