# This file uses centimeters as units for non-parametric coordinates.

mtllib Dresser.mtl
g default
v -673.065753 46.448666 467.287079
v -670.960963 46.448666 467.287079
v -673.065753 68.749917 467.287079
v -670.960963 68.749917 467.287079
v -673.065753 68.749917 323.301007
v -670.960963 68.749917 323.301007
v -673.065753 46.448666 323.301007
v -670.960963 46.448666 323.301007
v -674.417074 56.713783 439.940366
v -672.569728 56.713783 439.940366
v -674.417074 58.274642 439.940366
v -672.569728 58.274642 439.940366
v -674.417074 58.274642 350.538946
v -672.569728 58.274642 350.538946
v -674.417074 56.713783 350.538946
v -672.569728 56.713783 350.538946
v -608.194032 17.145865 484.981456
v -601.542549 17.145865 484.981456
v -608.194032 49.432772 464.392010
v -601.542549 49.432772 464.392010
v -608.194032 44.660806 439.033073
v -601.542549 44.660806 439.033073
v -608.194032 17.145811 473.662091
v -601.542549 17.145811 473.662091
v -608.194032 17.145806 320.861938
v -601.542549 17.145806 320.861938
v -608.194032 44.660801 355.490961
v -601.542549 44.660801 355.490961
v -608.194032 49.432764 330.132002
v -601.542549 49.432764 330.132002
v -608.194032 17.145853 309.542578
v -601.542549 17.145853 309.542578
v -665.988751 17.145853 484.981456
v -659.337290 17.145853 484.981456
v -665.988751 49.432764 464.392010
v -659.337290 49.432764 464.392010
v -665.988751 44.660801 439.033073
v -659.337290 44.660801 439.033073
v -665.988751 17.145806 473.662091
v -659.337290 17.145806 473.662091
v -665.988751 17.145806 320.861938
v -659.337290 17.145806 320.861938
v -665.988751 44.660801 355.490961
v -659.337290 44.660801 355.490961
v -665.988751 49.432764 330.132002
v -659.337290 49.432764 330.132002
v -665.988751 17.145853 309.542578
v -659.337290 17.145853 309.542578
v -670.865007 39.805392 492.729436
v -593.847039 39.805392 492.729436
v -670.865007 39.805392 297.749867
v -593.847039 39.805392 297.749867
v -670.865007 127.127207 474.909070
v -670.865007 112.200353 509.048241
v -670.865007 119.663780 504.474472
v -670.865007 125.127380 491.978667
v -593.847039 127.127207 474.909070
v -593.847039 125.127380 491.978667
v -593.847039 119.663780 504.474472
v -593.847039 112.200353 509.048241
v -670.865007 112.200353 281.431074
v -670.865007 127.127207 315.570244
v -670.865007 125.127380 298.500670
v -670.865007 119.663780 286.004853
v -593.847039 112.200353 281.431074
v -593.847039 119.663780 286.004853
v -593.847039 125.127380 298.500670
v -593.847039 127.127207 315.570244
v -672.923644 99.349892 467.287079
v -670.818854 99.349892 467.287079
v -672.923644 121.651128 467.287079
v -670.818854 121.651128 467.287079
v -672.923644 121.651128 323.301007
v -670.818854 121.651128 323.301007
v -672.923644 99.349892 323.301007
v -670.818854 99.349892 323.301007
v -674.274987 109.126645 439.940366
v -672.427575 109.126645 439.940366
v -674.274987 110.687499 439.940366
v -672.427575 110.687499 439.940366
v -674.274987 110.687499 350.538946
v -672.427575 110.687499 350.538946
v -674.274987 109.126645 350.538946
v -672.427575 109.126645 350.538946
v -673.065753 72.798272 467.287079
v -670.960963 72.798272 467.287079
v -673.065753 95.099525 467.287079
v -670.960963 95.099525 467.287079
v -673.065753 95.099525 323.301007
v -670.960963 95.099525 323.301007
v -673.065753 72.798272 323.301007
v -670.960963 72.798272 323.301007
v -674.417074 83.063388 439.940366
v -672.569728 83.063388 439.940366
v -674.417074 84.624248 439.940366
v -672.569728 84.624248 439.940366
v -674.417074 84.624248 350.538946
v -672.569728 84.624248 350.538946
v -674.417074 83.063388 350.538946
v -672.569728 83.063388 350.538946
vt 0.279826 0.037204
vt 0.304889 0.069011
vt 0.301905 0.219282
vt 0.233518 0.160656
vt 0.336070 0.069705
vt 0.361395 0.034054
vt 0.405642 0.166535
vt 0.333491 0.219351
vt 0.306913 0.021264
vt 0.335868 0.021740
vt 0.388484 0.020332
vt 0.436019 0.161169
vt 0.062953 0.038834
vt 0.087527 0.068448
vt 0.084352 0.216407
vt 0.018392 0.158662
vt 0.118611 0.069310
vt 0.143017 0.035359
vt 0.185941 0.166389
vt 0.115343 0.217267
vt 0.089998 0.019518
vt 0.118949 0.020165
vt 0.169888 0.021447
vt 0.216122 0.162003
vt 0.554612 0.072514
vt 0.580364 0.037305
vt 0.623772 0.169292
vt 0.551353 0.221865
vt 0.499067 0.041839
vt 0.523414 0.072168
vt 0.520269 0.221522
vt 0.453730 0.163163
vt 0.525294 0.023240
vt 0.554414 0.023825
vt 0.655546 0.163218
vt 0.608632 0.022409
vt 0.769585 0.071597
vt 0.795832 0.039893
vt 0.837128 0.165486
vt 0.766356 0.221568
vt 0.714294 0.040855
vt 0.738655 0.070929
vt 0.735395 0.220898
vt 0.668792 0.162119
vt 0.740598 0.021312
vt 0.769960 0.021901
vt 0.868126 0.155758
vt 0.825505 0.027716
vt 0.170647 0.841781
vt 0.021471 0.808642
vt 0.021471 0.412690
vt 0.170647 0.379551
vt 0.186027 0.388839
vt 0.197285 0.414215
vt 0.201605 0.448878
vt 0.201605 0.772454
vt 0.197285 0.807118
vt 0.186027 0.832493
vt 0.361872 0.448860
vt 0.367373 0.414178
vt 0.378642 0.388808
vt 0.394025 0.379526
vt 0.543187 0.412728
vt 0.543015 0.808680
vt 0.393825 0.841757
vt 0.378450 0.832462
vt 0.367203 0.807081
vt 0.361802 0.772435
vt 0.201805 0.414215
vt 0.360507 0.414215
vt 0.201805 0.807117
vt 0.360507 0.807117
vt 0.201805 0.388839
vt 0.360507 0.388839
vt 0.201805 0.832493
vt 0.360507 0.832493
vt 0.201806 0.378732
vt 0.360508 0.378803
vt 0.201364 0.842459
vt 0.360066 0.842204
vt 0.205335 0.422739
vt 0.357096 0.422739
vt 0.357096 0.801373
vt 0.205335 0.801373
vt 0.201945 0.230897
vt 0.360647 0.231041
vt 0.360111 0.989641
vt 0.201410 0.990151
vt 0.649669 0.259179
vt 0.648958 0.604526
vt 0.592970 0.604537
vt 0.593681 0.259189
vt 0.657288 0.605068
vt 0.657328 0.258166
vt 0.712204 0.258134
vt 0.712341 0.605096
vt 0.966000 0.937362
vt 0.965490 0.681119
vt 0.971567 0.681119
vt 0.971301 0.937362
vt 0.956599 0.680423
vt 0.957024 0.936602
vt 0.950089 0.936601
vt 0.950876 0.680423
vt 0.718302 0.259178
vt 0.718302 0.604526
vt 0.943882 0.936600
vt 0.943911 0.681118
vt 0.657574 0.252160
vt 0.711849 0.252040
vt 0.712135 0.610714
vt 0.657860 0.610712
vt 0.966510 0.943401
vt 0.971036 0.943401
vt 0.951634 0.674449
vt 0.956160 0.674449
vt 0.861421 0.586899
vt 0.861160 0.242009
vt 0.917100 0.242515
vt 0.916956 0.586583
vt 0.853354 0.242829
vt 0.853079 0.586182
vt 0.798140 0.586092
vt 0.798690 0.242738
vt 0.790663 0.685725
vt 0.789420 0.938095
vt 0.782158 0.938087
vt 0.782979 0.685707
vt 0.797510 0.937505
vt 0.798088 0.685431
vt 0.805923 0.685426
vt 0.805651 0.937497
vt 0.922971 0.586286
vt 0.923521 0.242933
vt 0.812864 0.685726
vt 0.812864 0.937496
vt 0.862391 0.592628
vt 0.916353 0.592605
vt 0.915848 0.236356
vt 0.861886 0.236163
vt 0.798290 0.675906
vt 0.806196 0.675906
vt 0.782304 0.946675
vt 0.789144 0.946675
vt 0.652362 0.633618
vt 0.652048 0.976030
vt 0.597261 0.975982
vt 0.597575 0.633569
vt 0.659453 0.976162
vt 0.659584 0.633486
vt 0.715506 0.633432
vt 0.715531 0.976136
vt 0.884313 0.933917
vt 0.883936 0.679650
vt 0.889979 0.679650
vt 0.889586 0.933917
vt 0.875241 0.679345
vt 0.875204 0.933738
vt 0.867535 0.933724
vt 0.869476 0.679339
vt 0.721522 0.633596
vt 0.721522 0.976009
vt 0.860904 0.933691
vt 0.862185 0.679621
vt 0.660688 0.628096
vt 0.714501 0.627935
vt 0.714624 0.981522
vt 0.660810 0.981572
vt 0.884691 0.939360
vt 0.889192 0.939360
vt 0.870135 0.673774
vt 0.874637 0.673774
vn 0.000000 0.000000 1.000000
vn 0.000000 0.000000 1.000000
vn 0.000000 0.000000 1.000000
vn 0.000000 0.000000 1.000000
vn 0.000000 1.000000 0.000000
vn 0.000000 1.000000 0.000000
vn 0.000000 1.000000 0.000000
vn 0.000000 1.000000 0.000000
vn 0.000000 0.000000 -1.000000
vn 0.000000 0.000000 -1.000000
vn 0.000000 0.000000 -1.000000
vn 0.000000 0.000000 -1.000000
vn 0.000000 -1.000000 0.000000
vn 0.000000 -1.000000 0.000000
vn 0.000000 -1.000000 0.000000
vn 0.000000 -1.000000 0.000000
vn 1.000000 0.000000 0.000000
vn 1.000000 0.000000 0.000000
vn 1.000000 0.000000 0.000000
vn 1.000000 0.000000 0.000000
vn -1.000000 0.000000 0.000000
vn -1.000000 0.000000 0.000000
vn -1.000000 0.000000 0.000000
vn -1.000000 0.000000 0.000000
vn 0.000000 0.000000 1.000000
vn 0.000000 0.000000 1.000000
vn 0.000000 0.000000 1.000000
vn 0.000000 0.000000 1.000000
vn 0.000000 1.000000 0.000000
vn 0.000000 1.000000 0.000000
vn 0.000000 1.000000 0.000000
vn 0.000000 1.000000 0.000000
vn 0.000000 0.000000 -1.000000
vn 0.000000 0.000000 -1.000000
vn 0.000000 0.000000 -1.000000
vn 0.000000 0.000000 -1.000000
vn 0.000000 -1.000000 0.000000
vn 0.000000 -1.000000 0.000000
vn 0.000000 -1.000000 0.000000
vn 0.000000 -1.000000 0.000000
vn 1.000000 0.000000 0.000000
vn 1.000000 0.000000 0.000000
vn 1.000000 0.000000 0.000000
vn 1.000000 0.000000 0.000000
vn -1.000000 0.000000 0.000000
vn -1.000000 0.000000 0.000000
vn -1.000000 0.000000 0.000000
vn -1.000000 0.000000 0.000000
vn 0.000000 0.537679 0.843149
vn 0.000000 0.537679 0.843149
vn 0.000000 0.537679 0.843149
vn 0.000000 0.537679 0.843149
vn 0.000000 0.982751 -0.184932
vn 0.000000 0.982751 -0.184932
vn 0.000000 0.982751 -0.184932
vn 0.000000 0.982751 -0.184932
vn 0.000000 -0.782940 -0.622097
vn 0.000000 -0.782940 -0.622097
vn 0.000000 -0.782940 -0.622097
vn 0.000000 -0.782940 -0.622097
vn 0.000000 -1.000000 0.000005
vn 0.000000 -1.000000 0.000005
vn 0.000000 -1.000000 0.000005
vn 0.000000 -1.000000 0.000005
vn 1.000000 0.000000 0.000000
vn 1.000000 0.000000 0.000000
vn 1.000000 0.000000 0.000000
vn 1.000000 0.000000 0.000000
vn -1.000000 0.000000 0.000000
vn -1.000000 0.000000 0.000000
vn -1.000000 0.000000 0.000000
vn -1.000000 0.000000 0.000000
vn 0.000000 -0.782940 0.622097
vn 0.000000 -0.782940 0.622097
vn 0.000000 -0.782940 0.622097
vn 0.000000 -0.782940 0.622097
vn 0.000000 0.982752 0.184931
vn 0.000000 0.982752 0.184931
vn 0.000000 0.982752 0.184931
vn 0.000000 0.982752 0.184931
vn 0.000000 0.537678 -0.843150
vn 0.000000 0.537678 -0.843150
vn 0.000000 0.537678 -0.843150
vn 0.000000 0.537678 -0.843150
vn 0.000000 -1.000000 -0.000004
vn 0.000000 -1.000000 -0.000004
vn 0.000000 -1.000000 -0.000004
vn 0.000000 -1.000000 -0.000004
vn 1.000000 0.000000 0.000000
vn 1.000000 0.000000 0.000000
vn 1.000000 0.000000 0.000000
vn 1.000000 0.000000 0.000000
vn -1.000000 0.000001 0.000000
vn -1.000000 0.000001 0.000000
vn -1.000000 0.000001 0.000000
vn -1.000000 0.000001 0.000000
vn 0.000000 0.537679 0.843149
vn 0.000000 0.537679 0.843149
vn 0.000000 0.537679 0.843149
vn 0.000000 0.537679 0.843149
vn 0.000000 0.982752 -0.184931
vn 0.000000 0.982752 -0.184931
vn 0.000000 0.982752 -0.184931
vn 0.000000 0.982752 -0.184931
vn 0.000000 -0.782940 -0.622097
vn 0.000000 -0.782940 -0.622097
vn 0.000000 -0.782940 -0.622097
vn 0.000000 -0.782940 -0.622097
vn 0.000000 -1.000000 0.000004
vn 0.000000 -1.000000 0.000004
vn 0.000000 -1.000000 0.000004
vn 0.000000 -1.000000 0.000004
vn 1.000000 0.000001 0.000000
vn 1.000000 0.000001 0.000000
vn 1.000000 0.000001 0.000000
vn 1.000000 0.000001 0.000000
vn -1.000000 -0.000002 0.000000
vn -1.000000 -0.000002 0.000000
vn -1.000000 -0.000002 0.000000
vn -1.000000 -0.000002 0.000000
vn 0.000000 -0.782941 0.622095
vn 0.000000 -0.782941 0.622095
vn 0.000000 -0.782941 0.622095
vn 0.000000 -0.782941 0.622095
vn 0.000000 0.982752 0.184931
vn 0.000000 0.982752 0.184931
vn 0.000000 0.982752 0.184931
vn 0.000000 0.982752 0.184931
vn 0.000000 0.537678 -0.843150
vn 0.000000 0.537678 -0.843150
vn 0.000000 0.537678 -0.843150
vn 0.000000 0.537678 -0.843150
vn 0.000000 -1.000000 -0.000004
vn 0.000000 -1.000000 -0.000004
vn 0.000000 -1.000000 -0.000004
vn 0.000000 -1.000000 -0.000004
vn 1.000000 0.000002 0.000000
vn 1.000000 0.000002 0.000000
vn 1.000000 0.000002 0.000000
vn 1.000000 0.000002 0.000000
vn -1.000000 0.000001 0.000000
vn -1.000000 0.000001 0.000000
vn -1.000000 0.000001 0.000000
vn -1.000000 0.000001 0.000000
vn 0.000000 -0.219896 0.975523
vn 0.000000 -0.219896 0.975523
vn 0.000000 -0.145508 0.989357
vn 0.000000 -0.145508 0.989357
vn 0.000000 0.999936 0.011336
vn 0.000000 0.999936 0.011336
vn 0.000000 0.999936 -0.011336
vn 0.000000 0.999936 -0.011336
vn 0.000000 -0.145508 -0.989357
vn 0.000000 -0.145508 -0.989357
vn 0.000000 -0.219896 -0.975523
vn 0.000000 -0.219896 -0.975523
vn 0.000000 -1.000000 0.000000
vn 0.000000 -1.000000 0.000000
vn 0.000000 -1.000000 0.000000
vn 0.000000 -1.000000 0.000000
vn 0.000000 0.969584 0.244760
vn 0.000000 0.969584 0.244760
vn 0.000000 0.916247 0.400615
vn 0.000000 0.916247 0.400615
vn 0.000000 0.522513 0.852631
vn 0.000000 0.522513 0.852631
vn 0.000000 0.522514 -0.852631
vn 0.000000 0.522514 -0.852631
vn 0.000000 0.916247 -0.400615
vn 0.000000 0.969584 -0.244760
vn 0.000000 0.969584 -0.244760
vn 0.000000 0.916247 -0.400615
vn -1.000000 0.000000 0.000000
vn -1.000000 0.000000 0.000000
vn -1.000000 0.000000 0.000000
vn -1.000000 0.000000 0.000000
vn -1.000000 0.000000 0.000000
vn -1.000000 0.000000 0.000000
vn -1.000000 0.000000 0.000000
vn -1.000000 0.000000 0.000000
vn -1.000000 0.000000 0.000000
vn -1.000000 0.000000 0.000000
vn 1.000000 -0.000000 0.000000
vn 1.000000 -0.000000 0.000000
vn 1.000000 -0.000000 0.000000
vn 1.000000 -0.000000 0.000000
vn 1.000000 -0.000000 0.000000
vn 1.000000 -0.000000 0.000000
vn 1.000000 -0.000000 0.000000
vn 1.000000 -0.000000 0.000000
vn 1.000000 -0.000000 0.000000
vn 1.000000 -0.000000 0.000000
vn 0.000000 0.000000 1.000000
vn 0.000000 0.000000 1.000000
vn 0.000000 0.000000 1.000000
vn 0.000000 0.000000 1.000000
vn 0.000000 1.000000 0.000000
vn 0.000000 1.000000 0.000000
vn 0.000000 1.000000 0.000000
vn 0.000000 1.000000 0.000000
vn 0.000000 0.000000 -1.000000
vn 0.000000 0.000000 -1.000000
vn 0.000000 0.000000 -1.000000
vn 0.000000 0.000000 -1.000000
vn 0.000000 -1.000000 0.000000
vn 0.000000 -1.000000 0.000000
vn 0.000000 -1.000000 0.000000
vn 0.000000 -1.000000 0.000000
vn 1.000000 0.000000 0.000000
vn 1.000000 0.000000 0.000000
vn 1.000000 0.000000 0.000000
vn 1.000000 0.000000 0.000000
vn -1.000000 0.000000 0.000000
vn -1.000000 0.000000 0.000000
vn -1.000000 0.000000 0.000000
vn -1.000000 0.000000 0.000000
vn 0.000000 0.000000 1.000000
vn 0.000000 0.000000 1.000000
vn 0.000000 0.000000 1.000000
vn 0.000000 0.000000 1.000000
vn 0.000000 1.000000 0.000000
vn 0.000000 1.000000 0.000000
vn 0.000000 1.000000 0.000000
vn 0.000000 1.000000 0.000000
vn 0.000000 0.000000 -1.000000
vn 0.000000 0.000000 -1.000000
vn 0.000000 0.000000 -1.000000
vn 0.000000 0.000000 -1.000000
vn 0.000000 -1.000000 0.000000
vn 0.000000 -1.000000 0.000000
vn 0.000000 -1.000000 0.000000
vn 0.000000 -1.000000 0.000000
vn 1.000000 0.000000 0.000000
vn 1.000000 0.000000 0.000000
vn 1.000000 0.000000 0.000000
vn 1.000000 0.000000 0.000000
vn -1.000000 0.000000 0.000000
vn -1.000000 0.000000 0.000000
vn -1.000000 0.000000 0.000000
vn -1.000000 0.000000 0.000000
vn 0.000000 0.000000 1.000000
vn 0.000000 0.000000 1.000000
vn 0.000000 0.000000 1.000000
vn 0.000000 0.000000 1.000000
vn 0.000000 1.000000 0.000000
vn 0.000000 1.000000 0.000000
vn 0.000000 1.000000 0.000000
vn 0.000000 1.000000 0.000000
vn 0.000000 0.000000 -1.000000
vn 0.000000 0.000000 -1.000000
vn 0.000000 0.000000 -1.000000
vn 0.000000 0.000000 -1.000000
vn 0.000000 -1.000000 0.000000
vn 0.000000 -1.000000 0.000000
vn 0.000000 -1.000000 0.000000
vn 0.000000 -1.000000 0.000000
vn 1.000000 0.000000 0.000000
vn 1.000000 0.000000 0.000000
vn 1.000000 0.000000 0.000000
vn 1.000000 0.000000 0.000000
vn -1.000000 0.000000 0.000000
vn -1.000000 0.000000 0.000000
vn -1.000000 0.000000 0.000000
vn -1.000000 0.000000 0.000000
vn 0.000000 0.000000 1.000000
vn 0.000000 0.000000 1.000000
vn 0.000000 0.000000 1.000000
vn 0.000000 0.000000 1.000000
vn 0.000000 1.000000 0.000000
vn 0.000000 1.000000 0.000000
vn 0.000000 1.000000 0.000000
vn 0.000000 1.000000 0.000000
vn 0.000000 0.000000 -1.000000
vn 0.000000 0.000000 -1.000000
vn 0.000000 0.000000 -1.000000
vn 0.000000 0.000000 -1.000000
vn 0.000000 -1.000000 0.000000
vn 0.000000 -1.000000 0.000000
vn 0.000000 -1.000000 0.000000
vn 0.000000 -1.000000 0.000000
vn 1.000000 0.000000 0.000000
vn 1.000000 0.000000 0.000000
vn 1.000000 0.000000 0.000000
vn 1.000000 0.000000 0.000000
vn -1.000000 0.000000 0.000000
vn -1.000000 0.000000 0.000000
vn -1.000000 0.000000 0.000000
vn -1.000000 0.000000 0.000000
s off
g Dresser
usemtl lambert10SG
f 1/150/1 2/165/2 4/166/3 3/151/4
f 3/151/5 4/161/6 6/162/7 5/152/8
f 5/152/9 6/167/10 8/168/11 7/149/12
f 7/149/13 8/146/14 2/145/15 1/150/16
f 2/145/17 8/146/18 6/147/19 4/148/20
f 7/149/21 1/150/22 3/151/23 5/152/24
f 9/169/25 10/153/26 12/156/27 11/170/28
f 11/159/29 12/163/30 14/164/31 13/160/32
f 13/160/33 14/171/34 16/172/35 15/157/36
f 15/157/37 16/154/38 10/153/39 9/158/40
f 10/153/41 16/154/42 14/155/43 12/156/44
f 15/157/45 9/158/46 11/159/47 13/160/48
f 17/18/49 18/23/50 20/24/51 19/19/52
f 19//53 20//54 22//55 21//56
f 21/20/57 22/15/58 24/14/59 23/17/60
f 23/17/61 24/14/62 18/21/63 17/22/64
f 18/13/65 24/14/66 22/15/67 20/16/68
f 23/17/69 17/18/70 19/19/71 21/20/72
f 25/42/73 26/37/74 28/40/75 27/43/76
f 27//77 28//78 30//79 29//80
f 29/47/81 30/39/82 32/38/83 31/48/84
f 31/45/85 32/46/86 26/37/87 25/42/88
f 26/37/89 32/38/90 30/39/91 28/40/92
f 31/41/93 25/42/94 27/43/95 29/44/96
f 33/6/97 34/11/98 36/12/99 35/7/100
f 35//101 36//102 38//103 37//104
f 37/8/105 38/3/106 40/2/107 39/5/108
f 39/5/109 40/2/110 34/9/111 33/10/112
f 34/1/113 40/2/114 38/3/115 36/4/116
f 39/5/117 33/6/118 35/7/119 37/8/120
f 41/30/121 42/25/122 44/28/123 43/31/124
f 43//125 44//126 46//127 45//128
f 45/35/129 46/27/130 48/26/131 47/36/132
f 47/33/133 48/34/134 42/25/135 41/30/136
f 42/25/137 48/26/138 46/27/139 44/28/140
f 47/29/141 41/30/142 43/31/143 45/32/144
s 1
f 49/85/145 50/86/146 60/78/147 54/77/148
s 2
f 53/55/149 57/59/150 68/68/151 62/56/152
s 3
f 61/79/153 65/80/154 52/87/155 51/88/156
s off
f 51/81/157 52/82/158 50/83/159 49/84/160
s 2
f 53/55/149 56/69/161 58/70/162 57/59/150
f 56/69/161 55/73/163 59/74/164 58/70/162
s 1
f 55/73/165 54/77/148 60/78/147 59/74/166
s 3
f 61/79/153 64/75/167 66/76/168 65/80/154
s 2
f 64/75/169 63/71/170 67/72/171 66/76/172
f 63/71/170 62/56/152 68/68/151 67/72/171
s off
f 61/49/173 51/50/174 49/51/175 54/52/176 55/53/177 56/54/178 53/55/179 62/56/180 63/57/181 64/58/182
f 57/59/183 58/60/184 59/61/185 60/62/186 50/63/187 52/64/188 65/65/189 66/66/190 67/67/191 68/68/192
f 69/137/193 70/117/194 72/120/195 71/138/196
f 71/133/197 72/120/198 74/119/199 73/134/200
f 73/139/201 74/119/202 76/118/203 75/140/204
f 75/121/205 76/118/206 70/117/207 69/122/208
f 70/117/209 76/118/210 74/119/211 72/120/212
f 75/121/213 69/122/214 71/123/215 73/124/216
f 77/130/217 78/141/218 80/142/219 79/131/220
f 79/131/221 80/135/222 82/136/223 81/132/224
f 81/143/225 82/127/226 84/126/227 83/144/228
f 83/129/229 84/126/230 78/125/231 77/130/232
f 78/125/233 84/126/234 82/127/235 80/128/236
f 83/129/237 77/130/238 79/131/239 81/132/240
f 85/94/241 86/109/242 88/110/243 87/95/244
f 87/95/245 88/105/246 90/106/247 89/96/248
f 89/96/249 90/111/250 92/112/251 91/93/252
f 91/93/253 92/90/254 86/89/255 85/94/256
f 86/89/257 92/90/258 90/91/259 88/92/260
f 91/93/261 85/94/262 87/95/263 89/96/264
f 93/113/265 94/97/266 96/100/267 95/114/268
f 95/103/269 96/107/270 98/108/271 97/104/272
f 97/104/273 98/115/274 100/116/275 99/101/276
f 99/101/277 100/98/278 94/97/279 93/102/280
f 94/97/281 100/98/282 98/99/283 96/100/284
f 99/101/285 93/102/286 95/103/287 97/104/288
