# This file uses centimeters as units for non-parametric coordinates.

mtllib Bathroom1Door.mtl
g default
v -1623.480277 14.760122 27.989797
v -1623.480277 14.760122 -116.610319
v -1623.480277 293.464002 27.989816
v -1623.480277 293.464002 -116.610319
v -1633.232785 293.464002 27.989816
v -1633.232785 293.464002 -116.610319
v -1633.232785 14.760122 27.989797
v -1633.232785 14.760122 -116.610319
vt 0.101381 0.028716
vt 0.552254 0.028716
vt 0.552254 0.974405
vt 0.101381 0.974405
vt 0.101381 0.974405
vt 0.552254 0.974405
vt 0.552254 0.028716
vt 0.101381 0.028716
vt 0.657842 0.392990
vt 0.728004 0.392990
vt 0.728004 0.614563
vt 0.657842 0.614563
vt 0.730290 0.392990
vt 0.800452 0.392990
vt 0.800452 0.614563
vt 0.730290 0.614563
vt 0.802673 0.609029
vt 0.802673 0.392990
vt 0.872836 0.392990
vt 0.872836 0.609029
vt 0.875057 0.609029
vt 0.875057 0.392990
vt 0.945219 0.392990
vt 0.945219 0.609029
vn 1.000000 0.000000 0.000000
vn 1.000000 0.000000 0.000000
vn 1.000000 0.000000 0.000000
vn 1.000000 0.000000 0.000000
vn 0.000000 1.000000 0.000000
vn 0.000000 1.000000 0.000000
vn 0.000000 1.000000 0.000000
vn 0.000000 1.000000 0.000000
vn -1.000000 0.000000 -0.000000
vn -1.000000 0.000000 -0.000000
vn -1.000000 0.000000 -0.000000
vn -1.000000 0.000000 -0.000000
vn 0.000000 -1.000000 0.000000
vn 0.000000 -1.000000 0.000000
vn 0.000000 -1.000000 0.000000
vn 0.000000 -1.000000 0.000000
vn 0.000000 0.000000 -1.000000
vn 0.000000 0.000000 -1.000000
vn 0.000000 0.000000 -1.000000
vn 0.000000 0.000000 -1.000000
vn 0.000000 -0.000000 1.000000
vn 0.000000 -0.000000 1.000000
vn 0.000000 -0.000000 1.000000
vn 0.000000 -0.000000 1.000000
s off
g Bathroom1Door Door
usemtl lambert36SG
f 1/1/1 2/2/2 4/3/3 3/4/4
f 3/17/5 4/18/6 6/19/7 5/20/8
f 5/5/9 6/6/10 8/7/11 7/8/12
f 7/21/13 8/22/14 2/23/15 1/24/16
f 2/9/17 8/10/18 6/11/19 4/12/20
f 7/13/21 1/14/22 3/15/23 5/16/24
