# This file uses centimeters as units for non-parametric coordinates.

mtllib Toilet.mtl
g default
v -1726.852525 15.789417 125.168752
v -1695.586051 15.789417 125.168752
v -1726.267655 52.026712 123.619450
v -1696.170726 52.026712 123.619450
v -1732.079905 59.829377 123.991984
v -1690.358475 59.829377 123.991984
v -1738.367265 83.982424 124.070474
v -1684.071507 83.982424 124.070474
v -1738.367265 136.392832 124.070474
v -1684.071507 136.392832 124.070474
v -1739.565427 136.392832 124.976350
v -1682.873542 136.392832 124.976350
v -1739.565427 144.489500 124.976350
v -1682.873542 144.489500 124.976350
v -1685.753427 83.982415 98.633731
v -1736.685198 83.982415 98.505783
v -1685.753427 85.388605 98.633731
v -1736.685198 85.388605 98.505783
v -1684.340422 85.388613 100.201415
v -1738.098742 85.388613 100.066345
v -1684.340422 90.817365 100.201415
v -1738.098742 90.817365 100.066345
v -1735.852752 66.636507 124.039072
v -1738.367265 76.157534 124.070474
v -1686.586020 66.636507 124.039072
v -1684.071507 76.157534 124.070474
v -1714.230177 52.026712 61.842658
v -1722.742162 52.026712 64.676565
v -1726.267655 52.026712 71.518236
v -1726.852525 15.789417 64.329924
v -1723.228248 15.789417 56.439621
v -1714.478120 15.789417 53.171341
v -1696.170726 52.026712 71.518236
v -1699.696610 52.026712 64.676565
v -1708.208596 52.026712 61.842658
v -1695.586051 15.789417 64.329924
v -1707.961045 15.789417 53.171341
v -1699.210525 15.789417 56.439621
v -1690.358475 59.829377 60.013650
v -1693.237552 59.829377 52.718212
v -1700.187596 59.829377 49.696333
v -1722.250981 59.829377 49.696333
v -1729.201024 59.829377 52.718212
v -1732.079905 59.829377 60.013650
v -1694.239124 83.982424 40.506796
v -1687.049565 83.982424 43.311124
v -1684.071507 83.982424 50.081335
v -1685.753427 83.982415 51.719374
v -1688.731681 83.982415 44.949155
v -1695.921239 83.982424 42.144835
v -1738.367265 83.982424 50.081335
v -1735.389403 83.982424 43.311124
v -1728.199453 83.982424 40.506796
v -1726.517190 83.982424 42.144835
v -1733.706944 83.982415 44.949155
v -1736.685198 83.982415 51.719374
v -1685.753427 85.388605 51.735303
v -1688.736581 85.388605 44.953821
v -1695.938488 85.388613 42.144835
v -1726.500726 85.388613 42.144835
v -1733.702044 85.388605 44.953821
v -1736.685198 85.388605 51.735303
v -1684.340422 85.388613 50.167521
v -1687.322988 85.388613 43.386042
v -1694.524895 85.388613 40.577056
v -1727.913681 85.388613 40.577056
v -1735.115588 85.388613 43.386042
v -1738.098742 85.388613 50.167521
v -1694.508039 90.817365 40.577056
v -1684.340422 90.817365 50.151588
v -1687.318088 90.817365 43.381376
v -1738.098742 90.817365 50.151588
v -1727.930734 90.817365 40.577056
v -1735.120488 90.817365 43.381376
v -1736.024646 67.013796 53.692643
v -1733.080889 67.050951 46.766583
v -1725.945035 67.066347 43.895770
v -1728.184556 76.326205 40.506789
v -1735.384895 76.320529 43.315193
v -1738.367265 76.306835 50.095258
v -1696.493542 67.066347 43.895770
v -1689.357492 67.050951 46.766587
v -1686.413930 67.013796 53.692643
v -1684.071507 76.306835 50.095258
v -1687.053681 76.320529 43.315193
v -1694.254020 76.326205 40.506789
v -1684.071507 83.982424 98.365145
v -1685.752815 83.982424 98.635558
v -1686.133255 83.982424 103.130145
v -1684.071507 83.982424 105.077123
v -1684.071507 136.392832 105.083471
v -1686.140115 136.392832 103.130108
v -1738.367265 83.982424 98.234833
v -1738.367265 83.982424 104.940669
v -1736.299637 83.982424 102.999044
v -1736.685174 83.982424 98.506181
v -1736.293169 136.392832 102.999044
v -1738.367265 136.392832 104.946597
v -1682.873542 136.392832 104.189657
v -1684.942149 136.392832 102.236198
v -1737.491331 136.392832 102.093389
v -1739.565427 136.392832 104.040831
v -1684.935289 144.489500 102.236213
v -1682.873542 144.489500 104.183331
v -1739.565427 144.489500 104.034888
v -1737.497407 144.489500 102.093374
vt 0.292038 0.034005
vt 0.488802 0.034005
vt 0.471900 0.158912
vt 0.297050 0.156836
vt 0.498144 0.149302
vt 0.514322 0.034005
vt 0.507264 0.186524
vt 0.295845 0.183284
vt 0.523206 0.207637
vt 0.295693 0.206358
vt 0.529673 0.179914
vt 0.545605 0.207763
vt 0.295591 0.238631
vt 0.534841 0.239137
vt 0.556768 0.239183
vt 0.534885 0.265154
vt 0.378726 0.265154
vt 0.357018 0.265154
vt 0.295591 0.265154
vt 0.556781 0.265154
vt 0.356999 0.442806
vt 0.295591 0.442806
vt 0.101278 0.159497
vt 0.084977 0.034005
vt 0.281741 0.034005
vt 0.276730 0.156836
vt 0.081746 0.157475
vt 0.059458 0.034005
vt 0.277935 0.183284
vt 0.070090 0.183948
vt 0.278087 0.206358
vt 0.050574 0.207637
vt 0.278189 0.238631
vt 0.038939 0.239137
vt 0.046007 0.184183
vt 0.028173 0.207763
vt 0.278189 0.265154
vt 0.216319 0.265154
vt 0.194631 0.265154
vt 0.038894 0.265154
vt 0.017011 0.239183
vt 0.216338 0.442806
vt 0.278189 0.442806
vt 0.016998 0.265154
vt 0.679286 0.954794
vt 0.769162 0.954794
vt 0.769162 0.963578
vt 0.679286 0.963578
vt 0.859040 0.954794
vt 0.859015 0.963578
vt 0.562531 0.954794
vt 0.562503 0.963578
vt 0.886085 0.963578
vt 0.589547 0.954794
vt 0.589572 0.963578
vt 0.578068 0.903969
vt 0.663611 0.903969
vt 0.663611 0.922967
vt 0.578068 0.922967
vt 0.749874 0.903969
vt 0.749896 0.922967
vt 0.774049 0.903969
vt 0.833474 0.903969
vt 0.833499 0.922967
vt 0.774024 0.922967
vt 0.857626 0.922967
vt 0.691215 0.725630
vt 0.701404 0.725630
vt 0.701393 0.776853
vt 0.691238 0.776853
vt 0.887031 0.725630
vt 0.887042 0.776853
vt 0.170110 0.484405
vt 0.556015 0.485025
vt 0.555865 0.578175
vt 0.541816 0.586873
vt 0.184021 0.586938
vt 0.169959 0.578220
vt 0.161819 0.676336
vt 0.509466 0.676895
vt 0.517132 0.679733
vt 0.154144 0.679150
vt 0.509561 0.617676
vt 0.517236 0.614900
vt 0.161915 0.616690
vt 0.154249 0.613853
vt 0.496325 0.611562
vt 0.504001 0.608786
vt 0.175204 0.610637
vt 0.167538 0.607800
vt 0.599018 0.618552
vt 0.683629 0.618552
vt 0.683629 0.678550
vt 0.599018 0.678550
vt 0.588044 0.671595
vt 0.583499 0.654804
vt 0.583499 0.642298
vt 0.588044 0.625507
vt 0.499653 0.961141
vt 0.320949 0.961141
vt 0.320466 0.735362
vt 0.499653 0.735362
vt 0.523892 0.747870
vt 0.533932 0.778065
vt 0.533932 0.918437
vt 0.523892 0.948633
vt 0.764724 0.029484
vt 0.895093 0.029484
vt 0.892655 0.157886
vt 0.767162 0.157886
vt 0.916890 0.185534
vt 0.742927 0.185534
vt 0.932620 0.209654
vt 0.727197 0.209654
vt 0.716712 0.243390
vt 0.943105 0.243390
vt 0.943105 0.271116
vt 0.716712 0.271116
vt 0.943105 0.456825
vt 0.716712 0.456825
vt 0.945430 0.864706
vt 0.685072 0.864686
vt 0.685075 0.816794
vt 0.945434 0.816814
vt 0.872145 0.954794
vt 0.872146 0.963578
vt 0.576442 0.954794
vt 0.576441 0.963578
vt 0.761596 0.903969
vt 0.761595 0.922967
vt 0.845927 0.903969
vt 0.845928 0.922967
vt 0.424541 0.301528
vt 0.464230 0.294769
vt 0.463148 0.448362
vt 0.424887 0.448362
vt 0.490561 0.294769
vt 0.491643 0.448362
vt 0.526678 0.299280
vt 0.529904 0.448362
vt 0.134172 0.488782
vt 0.134263 0.526490
vt 0.078329 0.538665
vt 0.078293 0.500618
vt 0.032094 0.538687
vt 0.032094 0.500696
vt 0.078293 0.321321
vt 0.134172 0.333154
vt 0.032094 0.321242
vt 0.134263 0.295449
vt 0.078329 0.283274
vt 0.177840 0.352676
vt 0.177840 0.469262
vt 0.032094 0.283252
vt 0.943781 0.922967
vt 0.943781 0.903969
vt 0.857648 0.903969
vt 0.591913 0.450601
vt 0.590549 0.486898
vt 0.664020 0.338393
vt 0.671998 0.382191
vt 0.676494 0.538855
vt 0.897210 0.776853
vt 0.897232 0.725630
vt 0.643455 0.567307
vt 0.576276 0.538052
vt 0.635731 0.359613
vt 0.581495 0.399143
vt 0.647138 0.523203
vt 0.644482 0.402351
vt 0.981373 0.481035
vt 0.981373 0.497635
vt 0.741459 0.497658
vt 0.741459 0.481035
vt 0.981373 0.679533
vt 0.741459 0.679509
vt 0.981373 0.696155
vt 0.741459 0.696155
vt 0.635760 0.725630
vt 0.635760 0.776853
vt 0.953062 0.725630
vt 0.953062 0.776853
vt 0.673693 0.583892
vt 0.886056 0.954794
vt 0.946768 0.954794
vt 0.946741 0.963578
vt 0.259487 0.959188
vt 0.259735 0.722078
vt 0.262770 0.715500
vt 0.262509 0.965768
vt 0.168939 0.722078
vt 0.165904 0.715500
vt 0.168939 0.959188
vt 0.165904 0.965768
vt 0.155810 0.735966
vt 0.152775 0.729385
vt 0.155810 0.945300
vt 0.152775 0.951881
vt 0.150372 0.769494
vt 0.147337 0.762913
vt 0.150372 0.911774
vt 0.147337 0.918352
vt 0.126939 0.715500
vt 0.140046 0.729364
vt 0.136875 0.737195
vt 0.123768 0.723330
vt 0.145476 0.762835
vt 0.142304 0.770666
vt 0.032938 0.723327
vt 0.033462 0.715500
vt 0.032941 0.723330
vt 0.145476 0.920935
vt 0.142304 0.913103
vt 0.024236 0.725098
vt 0.020467 0.715500
vt 0.033188 0.960440
vt 0.024490 0.958645
vt 0.033189 0.960440
vt 0.140046 0.954407
vt 0.136875 0.946574
vt 0.033714 0.968271
vt 0.020732 0.968271
vt 0.126939 0.968271
vt 0.123768 0.960440
vn 0.000000 0.042715 0.999087
vn 0.000000 0.042715 0.999087
vn 0.000000 0.042715 0.999087
vn 0.000000 0.042715 0.999087
vn 0.000000 1.000000 0.000000
vn 0.000000 1.000000 0.000000
vn 0.000000 1.000000 0.000000
vn 0.000000 1.000000 0.000000
vn 0.000000 1.000000 0.000000
vn 0.000000 1.000000 0.000000
vn 0.000000 -0.047690 0.998862
vn 0.000000 -0.047690 0.998862
vn 0.000000 -0.016531 0.999863
vn 0.000000 -0.016531 0.999863
vn 0.000000 0.000000 1.000000
vn 0.000000 0.000000 1.000000
vn 0.000000 0.000000 1.000000
vn 0.000000 0.000000 1.000000
vn 0.000000 -1.000000 -0.000001
vn 0.000000 -1.000000 -0.000001
vn 0.000000 -1.000000 -0.000001
vn 0.000000 -1.000000 -0.000001
vn 0.000000 0.000000 1.000000
vn 0.000000 0.000000 1.000000
vn 0.000000 0.000000 1.000000
vn 0.000000 0.000000 1.000000
vn -0.002512 0.000000 0.999997
vn -0.002512 0.000000 0.999997
vn -0.002512 0.000000 0.999997
vn -0.002512 0.000000 0.999997
vn -0.000002 -1.000000 0.000004
vn 0.000002 -1.000000 0.000004
vn 0.000004 -1.000000 0.000002
vn -0.000004 -1.000000 0.000002
vn -0.002513 0.000000 0.999997
vn -0.002513 0.000000 0.999997
vn -0.002513 0.000000 0.999997
vn -0.002513 0.000000 0.999997
vn 0.000000 -0.001560 0.999999
vn 0.000000 -0.004124 0.999991
vn 0.000000 -0.004124 0.999992
vn 0.000000 -0.001560 0.999999
vn -0.998347 0.026791 -0.050841
vn -0.645337 0.177438 -0.743005
vn -0.630887 0.180133 -0.754675
vn -0.997666 0.029079 -0.061788
vn -0.195370 0.226976 -0.954103
vn -0.195249 0.226982 -0.954126
vn 0.195369 0.226975 -0.954103
vn 0.645321 0.177439 -0.743018
vn 0.630872 0.180133 -0.754687
vn 0.195245 0.226982 -0.954127
vn 0.998347 0.026787 -0.050845
vn 0.997665 0.029076 -0.061793
vn -0.000005 1.000000 0.000000
vn -0.000003 1.000000 0.000002
vn -0.000001 1.000000 0.000002
vn -0.000005 1.000000 0.000000
vn -0.000000 1.000000 0.000002
vn -0.000000 1.000000 0.000001
vn 0.000000 1.000000 0.000000
vn 0.000003 1.000000 0.000001
vn 0.000001 1.000000 0.000001
vn 0.000000 1.000000 0.000001
vn 0.000005 1.000000 0.000000
vn 0.000005 1.000000 0.000000
vn -0.073428 -0.471860 -0.878611
vn -0.593970 -0.540381 -0.595976
vn -0.690663 -0.226719 -0.686719
vn -0.081872 -0.190303 -0.978306
vn -0.936123 -0.349784 -0.036389
vn -0.989853 -0.136972 -0.037805
vn 0.936130 -0.349767 -0.036386
vn 0.593976 -0.540377 -0.595974
vn 0.690674 -0.226705 -0.686713
vn 0.989854 -0.136965 -0.037804
vn 0.073427 -0.471860 -0.878611
vn 0.081872 -0.190303 -0.978306
vn 0.999870 0.016132 0.000000
vn 0.999870 0.016132 0.000000
vn -0.999870 0.016138 0.000000
vn -0.999870 0.016138 0.000000
vn 0.801957 -0.597382 0.000000
vn 0.776400 -0.629426 -0.032026
vn 0.827121 -0.560662 -0.039101
vn 0.840024 -0.542549 -0.000116
vn 0.032630 -0.849346 -0.526828
vn -0.032630 -0.849346 -0.526828
vn -0.072970 -0.748026 -0.659645
vn 0.072970 -0.748027 -0.659645
vn -0.776403 -0.629422 -0.032022
vn -0.801957 -0.597382 0.000000
vn -0.840016 -0.542562 -0.000116
vn -0.827113 -0.560674 -0.039100
vn 0.000005 1.000000 -0.000000
vn 0.000001 1.000000 -0.000002
vn 0.000002 1.000000 -0.000001
vn 1.000000 0.000001 0.000000
vn 0.998443 0.000631 -0.055785
vn 0.998481 0.000623 -0.055096
vn 1.000000 0.000001 0.000000
vn 0.075410 0.000915 -0.997152
vn -0.075350 0.000893 -0.997157
vn -0.072858 0.000863 -0.997342
vn 0.072799 0.000883 -0.997346
vn -0.998435 0.000632 -0.055918
vn -1.000000 0.000001 0.000000
vn -1.000000 0.000001 0.000000
vn -0.998474 0.000624 -0.055227
vn 0.000006 -1.000000 -0.000000
vn 0.000006 -1.000000 -0.000000
vn 0.000000 -1.000000 -0.000002
vn -0.000000 -1.000000 -0.000002
vn -0.000000 -1.000000 -0.000002
vn 0.000000 -1.000000 -0.000002
vn -0.000006 -1.000000 -0.000000
vn -0.000006 -1.000000 -0.000000
vn 1.000000 0.000000 0.000000
vn 0.998632 -0.000153 -0.052293
vn 0.998623 -0.000153 -0.052464
vn 1.000000 0.000000 0.000000
vn 0.068650 -0.000213 -0.997641
vn -0.068646 -0.000214 -0.997641
vn -0.069279 -0.000216 -0.997597
vn 0.069276 -0.000215 -0.997598
vn -0.998625 -0.000153 -0.052428
vn -1.000000 -0.000000 0.000000
vn -1.000000 -0.000000 0.000000
vn -0.998616 -0.000154 -0.052599
vn -0.935121 -0.354328 0.000033
vn -0.990331 -0.138725 0.000134
vn 0.990332 -0.138720 0.000135
vn 0.935128 -0.354309 0.000035
vn 0.999331 -0.000065 -0.036560
vn 1.000000 0.000000 0.000000
vn 1.000000 0.000000 0.000000
vn 1.000000 0.000000 0.000000
vn -0.068271 -0.000132 -0.997667
vn 0.068271 -0.000130 -0.997667
vn -1.000000 -0.000000 0.000000
vn -1.000000 -0.000000 0.000000
vn -1.000000 -0.000000 0.000000
vn -0.999331 -0.000067 -0.036560
vn 0.000000 -1.000000 0.000000
vn 0.000000 -1.000000 0.000000
vn 0.000000 -1.000000 0.000000
vn 0.000000 -1.000000 0.000000
vn 0.000000 -1.000000 0.000000
vn 0.000000 -1.000000 0.000000
vn 0.000000 -1.000000 0.000000
vn 0.000000 -1.000000 0.000000
vn 0.000000 1.000000 0.000000
vn 0.000000 1.000000 0.000000
vn 0.000000 1.000000 0.000000
vn 0.000000 1.000000 0.000000
vn 0.000000 1.000000 0.000000
vn 0.000000 1.000000 0.000000
vn 0.000000 1.000000 0.000000
vn 0.000000 1.000000 0.000000
vn -0.301470 -0.866196 -0.398523
vn -0.432072 -0.786106 -0.441984
vn 0.301460 -0.866198 -0.398525
vn 0.432065 -0.786110 -0.441986
vn 0.686184 0.004842 -0.727412
vn 0.684885 0.004841 -0.728635
vn -0.686191 0.004786 -0.727406
vn -0.684893 0.004785 -0.728628
vn 0.000001 -1.000000 -0.000002
vn 0.000003 -1.000000 -0.000002
vn -0.000001 -1.000000 -0.000002
vn -0.000003 -1.000000 -0.000002
vn 0.685387 -0.001247 -0.728177
vn 0.685724 -0.001247 -0.727861
vn -0.685370 -0.001250 -0.728194
vn -0.685706 -0.001250 -0.727877
vn -0.685847 -0.000784 -0.727745
vn 0.685842 -0.000766 -0.727750
vn -0.000001 1.000000 -0.000002
vn -0.000005 1.000000 -0.000000
vn -0.000001 1.000000 -0.000002
vn 0.000000 1.000000 -0.000002
vn 0.000000 1.000000 -0.000002
vn 0.686572 0.000089 -0.727061
vn 0.686572 0.000089 -0.727061
vn 0.686572 0.000089 -0.727062
vn 0.686572 0.000089 -0.727061
vn 0.000000 -1.000000 0.000000
vn 0.000000 -1.000000 -0.000001
vn 0.000000 -1.000000 -0.000000
vn 0.000000 -1.000000 0.000000
vn -0.684532 0.000084 -0.728983
vn -0.684532 0.000084 -0.728983
vn -0.684532 0.000084 -0.728983
vn -0.684532 0.000084 -0.728983
vn 0.000000 -1.000000 -0.000001
vn 0.000000 -1.000000 -0.000001
vn 0.000000 -1.000000 -0.000000
vn 0.000000 -1.000000 -0.000002
vn 0.686594 -0.000574 -0.727041
vn 0.686594 -0.000574 -0.727041
vn 0.686594 -0.000574 -0.727041
vn 0.686594 -0.000574 -0.727041
vn -0.684477 -0.000525 -0.729034
vn -0.684477 -0.000525 -0.729034
vn -0.684477 -0.000525 -0.729034
vn -0.684477 -0.000525 -0.729034
vn 1.000000 0.000000 0.000000
vn 1.000000 0.000000 0.000000
vn 0.002613 -0.000000 -0.999997
vn 0.002613 -0.000000 -0.999997
vn 0.002613 -0.000000 -0.999997
vn 0.002613 -0.000000 -0.999997
vn -1.000000 0.000000 0.000000
vn -1.000000 0.000000 0.000000
vn 1.000000 0.000000 0.000000
vn 1.000000 0.000000 0.000000
vn 1.000000 0.000000 0.000000
vn 1.000000 0.000000 0.000000
vn 0.002718 -0.000000 -0.999996
vn 0.002718 -0.000000 -0.999996
vn 0.002718 -0.000000 -0.999996
vn 0.002718 -0.000000 -0.999996
vn -1.000000 -0.000000 0.000000
vn -1.000000 -0.000000 0.000000
vn -1.000000 -0.000000 0.000000
vn -1.000000 -0.000000 0.000000
vn 0.000000 1.000000 0.000000
vn 0.000000 1.000000 0.000001
s off
g Toilet1
usemtl lambert15SG
f 1/107/1 2/108/2 4/109/3 3/110/4
f 13/73/5 14/74/6 104/75/7 103/76/8 106/77/9 105/78/10
s 1
f 3/110/11 4/109/12 6/111/13 5/112/14
f 7/118/15 8/117/16 10/119/17 9/120/18
s 3
f 9/79/19 10/80/20 12/81/21 11/82/22
s off
f 11/121/23 12/122/24 14/123/25 13/124/26
f 16/45/27 15/46/28 17/47/29 18/48/30
s 4
f 18/187/31 17/188/32 19/189/33 20/190/34
s off
f 20/56/35 19/57/36 21/58/37 22/59/38
s 1
f 24/115/39 23/114/40 25/113/41 26/116/42
f 5/112/14 6/111/13 25/113/41 23/114/40
f 24/115/39 26/116/42 8/117/16 7/118/15
s 5
f 29/23/43 28/27/44 31/28/45 30/24/46
f 28/133/44 27/134/47 32/135/48 31/136/45
f 35/137/49 34/139/50 38/140/51 37/138/52
f 34/5/50 33/3/53 36/2/54 38/6/51
s 7
f 47/203/55 46/204/56 49/205/57 48/206/58
f 46/204/56 45/207/59 50/208/60 49/205/57
f 53/212/61 52/219/62 55/220/63 54/213/64
f 52/219/62 51/223/65 56/224/66 55/220/63
s 9
f 77/141/67 76/142/68 79/143/69 78/144/70
f 76/36/68 75/32/71 80/34/72 79/41/69
f 83/9/73 82/12/74 85/15/75 84/14/76
f 82/150/74 81/148/77 86/147/78 85/151/75
s 5
f 27/134/47 35/137/49 37/138/52 32/135/48
f 2/1/79 36/2/54 33/3/53 4/4/80
f 29/23/43 30/24/46 1/25/81 3/26/82
s 9
f 4/4/83 33/3/84 39/7/85 6/8/86
f 35/159/87 27/158/88 42/170/89 41/169/90
f 29/23/91 3/26/92 5/29/93 44/30/94
s 7
f 45/207/59 53/212/61 54/213/64 50/208/60
f 51/223/65 93/221/95 96/216/96 16/218/97 56/224/66
s 14
f 15/46/98 48/49/99 57/50/100 17/47/101
f 50/184/102 54/185/103 60/186/104 59/53/105
f 56/54/106 16/45/107 18/48/108 62/55/109
s 4
f 17/188/32 57/191/110 63/192/111 19/189/33
f 59/199/112 60/201/113 66/202/114 65/200/115
f 62/193/116 18/187/31 20/190/34 68/194/117
s 18
f 19/57/118 63/60/119 70/61/120 21/58/121
f 65/62/122 66/63/123 73/64/124 69/65/125
f 68/157/126 20/156/127 22/155/128 72/66/129
s 9
f 23/31/130 24/33/131 80/34/72 75/32/71
f 26/13/132 25/10/133 83/9/73 84/14/76
f 86/147/78 81/148/77 77/141/67 78/144/70
f 6/8/86 39/7/85 83/9/73 25/10/133
f 41/152/90 42/153/89 77/141/67 81/148/77
f 44/30/94 5/29/93 23/31/130 75/32/71
f 26/13/132 84/14/76 47/16/134 87/17/135 90/18/136 8/19/137
f 86/147/78 78/144/70 53/146/138 45/149/139
f 80/34/72 24/33/131 7/37/140 94/38/141 93/39/142 51/40/143
s off
f 36/91/144 2/92/145 1/93/146 30/94/147 31/95/148 32/96/149 37/97/150 38/98/151
f 72/99/152 22/100/153 21/101/154 70/102/155 71/103/156 69/104/157 73/105/158 74/106/159
s 9
f 27/158/88 28/168/160 43/167/161 42/170/89
f 28/27/160 29/23/91 44/30/94 43/35/161
f 33/3/84 34/5/162 40/11/163 39/7/85
f 34/166/162 35/159/87 41/169/90 40/165/163
s 14
f 48/49/99 49/125/164 58/126/165 57/50/100
f 49/125/164 50/184/102 59/53/105 58/126/165
f 54/51/103 55/127/166 61/128/167 60/52/104
f 55/127/166 56/54/106 62/55/109 61/128/167
s 4
f 57/191/110 58/195/168 64/196/169 63/192/111
f 58/195/168 59/199/112 65/200/115 64/196/169
f 60/201/113 61/197/170 67/198/171 66/202/114
f 61/197/170 62/193/116 68/194/117 67/198/171
s 18
f 63/60/119 64/129/172 71/130/173 70/61/120
f 64/129/172 65/62/122 69/65/125 71/130/173
f 66/63/123 67/131/174 74/132/175 73/64/124
f 67/131/174 68/157/126 72/66/129 74/132/175
s 9
f 42/170/89 43/167/161 76/160/68 77/161/67
f 43/35/161 44/30/94 75/32/71 76/36/68
f 51/40/143 52/44/176 79/41/69 80/34/72
f 52/145/176 53/146/138 78/144/70 79/143/69
f 39/7/85 40/11/163 82/12/74 83/9/73
f 40/165/163 41/169/90 81/162/77 82/183/74
f 45/149/139 46/154/177 85/151/75 86/147/78
f 46/20/177 47/16/134 84/14/76 85/15/75
s 7
f 88/209/178 87/210/179 47/203/55 48/206/58 15/211/180
f 96/216/96 95/217/181 89/214/182 88/209/178 15/211/180 16/218/97
s off
f 90/171/183 89/172/184 92/173/185 91/174/186
s 3
f 91/83/187 92/87/188 100/88/189 99/84/190
s off
f 95/175/191 94/177/192 98/178/193 97/176/194
s 3
f 97/89/195 98/85/196 102/86/197 101/90/198
s off
f 99/67/199 100/68/200 103/69/201 104/70/202
f 101/71/203 102/164/204 105/163/205 106/72/206
s 9
f 8/19/137 90/18/136 91/21/207 10/22/208
s off
f 92/173/209 89/172/210 95/175/211 97/176/212
s 9
f 98/42/213 94/38/141 7/37/140 9/43/214
s 3
f 10/80/20 91/83/187 99/84/190 12/81/21
f 92/87/188 97/89/195 101/90/198 100/88/189
f 98/85/196 9/79/19 11/82/22 102/86/197
s off
f 12/179/215 99/67/216 104/70/217 14/180/218
f 100/68/219 101/71/220 106/72/221 103/69/222
f 102/164/223 11/181/224 13/182/225 105/163/226
s 7
f 87/210/179 88/209/178 89/214/182 90/215/227
f 93/221/95 94/222/228 95/217/181 96/216/96
