# This file uses centimeters as units for non-parametric coordinates.

mtllib Bathroom2Walls.mtl
g default
v 860.609466 45.802765 185.518949
v 874.729217 45.802765 185.518949
v 860.609466 45.802765 170.379544
v 860.609466 45.802765 374.234097
v 1279.789794 45.802765 170.379544
v 1265.894286 45.802582 185.518949
v 874.729217 45.802582 546.349637
v 874.729217 45.802590 533.509000
v 1279.789794 45.802582 185.518949
v 1279.789794 45.802765 564.306302
v 860.609466 21.048790 170.379544
v 860.609466 21.048790 185.518949
v 1265.894286 45.802582 546.349637
v 874.729217 21.048790 185.518949
v 874.729217 21.048790 374.234097
v 860.609466 21.048790 374.234097
v 874.729217 45.802670 374.234097
v 1265.894286 45.802582 564.306302
v 1279.789794 21.048790 170.379544
v 1265.894286 21.048790 185.518949
v 860.609466 21.048790 533.509000
v 860.609466 21.048790 564.306302
v 860.609466 45.802765 564.306302
v 860.609466 45.802765 533.509000
v 874.729217 21.048790 546.349637
v 874.729217 21.048790 533.509000
v 874.729217 45.802582 564.306302
v 874.729217 21.048790 564.306302
v 1279.789794 21.048790 185.518949
v 1265.894286 21.048790 546.349637
v 1265.894286 21.048790 564.306302
v 1279.789794 21.048790 564.306302
vt 0.185595 0.215195
vt 0.221642 0.215195
vt 0.221642 0.490000
vt 0.185595 0.490000
vt 0.243838 0.251241
vt 0.225140 0.251241
vt 0.225140 0.215195
vt 0.243838 0.215195
vt 0.182097 0.740632
vt 0.146051 0.740632
vt 0.146051 0.215195
vt 0.182097 0.215195
vt 0.102907 0.784805
vt 0.066861 0.784805
vt 0.066861 0.215195
vt 0.102907 0.215195
vt 0.142553 0.784805
vt 0.106507 0.784805
vt 0.106507 0.215195
vt 0.142553 0.215195
vn 0.000000 1.000000 0.000006
vn 0.000000 1.000000 0.000006
vn 0.000000 1.000000 0.000006
vn 0.000000 1.000000 0.000006
vn 0.000000 1.000000 0.000006
vn 0.000000 1.000000 0.000006
vn 0.000003 1.000000 0.000000
vn 0.000003 1.000000 0.000000
vn 0.000003 1.000000 0.000000
vn 0.000003 1.000000 0.000000
vn -0.000007 1.000000 -0.000000
vn -0.000007 1.000000 -0.000000
vn -0.000007 1.000000 -0.000000
vn -0.000007 1.000000 -0.000000
vn -0.000007 1.000000 -0.000000
vn -1.000000 0.000000 0.000000
vn -1.000000 0.000000 0.000000
vn -1.000000 0.000000 0.000000
vn -1.000000 0.000000 0.000000
vn 0.000000 -1.000000 0.000000
vn 0.000000 -1.000000 0.000000
vn 0.000000 -1.000000 0.000000
vn 0.000000 -1.000000 0.000000
vn -1.000000 0.000000 0.000000
vn -1.000000 0.000000 0.000000
vn -1.000000 0.000000 0.000000
vn -1.000000 0.000000 0.000000
vn 1.000000 0.000000 0.000000
vn 1.000000 0.000000 0.000000
vn 1.000000 0.000000 0.000000
vn 1.000000 0.000000 0.000000
vn 0.000000 0.000000 -1.000000
vn 0.000000 0.000000 -1.000000
vn 0.000000 0.000000 -1.000000
vn 0.000000 0.000000 -1.000000
vn -0.000000 0.000000 1.000000
vn -0.000000 0.000000 1.000000
vn -0.000000 0.000000 1.000000
vn -0.000000 0.000000 1.000000
vn -1.000000 0.000000 0.000000
vn -1.000000 0.000000 0.000000
vn -1.000000 0.000000 0.000000
vn -1.000000 0.000000 0.000000
vn 1.000000 0.000000 0.000000
vn 1.000000 0.000000 0.000000
vn 1.000000 0.000000 0.000000
vn 1.000000 0.000000 0.000000
vn 0.000013 1.000000 0.000000
vn 0.000013 1.000000 0.000000
vn 0.000013 1.000000 0.000000
vn 0.000013 1.000000 0.000000
vn 0.000013 1.000000 0.000000
vn 0.000000 0.000000 1.000000
vn 0.000000 0.000000 1.000000
vn 0.000000 0.000000 1.000000
vn 0.000000 0.000000 1.000000
vn 1.000000 0.000000 0.000000
vn 1.000000 0.000000 0.000000
vn 1.000000 0.000000 0.000000
vn 1.000000 0.000000 0.000000
vn 0.000000 -1.000000 0.000000
vn 0.000000 -1.000000 0.000000
vn 0.000000 -1.000000 0.000000
vn 0.000000 -1.000000 0.000000
vn 0.000000 0.000000 -1.000000
vn 0.000000 0.000000 -1.000000
vn 0.000000 0.000000 -1.000000
vn 0.000000 0.000000 -1.000000
vn -1.000000 0.000000 0.000000
vn -1.000000 0.000000 0.000000
vn -1.000000 0.000000 0.000000
vn -1.000000 0.000000 0.000000
vn 0.000000 0.000000 1.000000
vn 0.000000 0.000000 1.000000
vn 0.000000 0.000000 1.000000
vn 0.000000 0.000000 1.000000
vn 0.000000 1.000000 0.000000
vn 0.000000 1.000000 0.000000
vn 0.000000 1.000000 0.000000
vn 0.000000 1.000000 0.000000
vn 1.000000 0.000000 0.000000
vn 1.000000 0.000000 0.000000
vn 1.000000 0.000000 0.000000
vn 1.000000 0.000000 0.000000
vn 1.000000 0.000000 0.000000
vn 1.000000 0.000000 0.000000
vn 1.000000 0.000000 0.000000
vn 1.000000 0.000000 0.000000
vn -1.000000 0.000000 0.000000
vn -1.000000 0.000000 0.000000
vn -1.000000 0.000000 0.000000
vn -1.000000 0.000000 0.000000
vn 0.000001 0.000000 1.000000
vn 0.000001 0.000000 1.000000
vn 0.000001 0.000000 1.000000
vn 0.000001 0.000000 1.000000
vn 0.000000 -1.000000 0.000000
vn 0.000000 -1.000000 0.000000
vn 0.000000 -1.000000 0.000000
vn 0.000000 -1.000000 0.000000
vn 0.000000 -1.000000 0.000000
vn 0.000000 -1.000000 0.000000
vn 0.000000 -1.000000 0.000000
vn 0.000000 -1.000000 0.000000
vn 0.000000 -1.000000 0.000000
vn 0.000000 -1.000000 0.000000
vn 0.000000 -1.000000 0.000000
vn 0.000002 0.000000 1.000000
vn 0.000002 0.000000 1.000000
vn 0.000002 0.000000 1.000000
vn 0.000002 0.000000 1.000000
vn 0.000000 -1.000000 0.000000
vn 0.000000 -1.000000 0.000000
vn 0.000000 -1.000000 0.000000
vn 0.000000 -1.000000 0.000000
vn 0.000000 -1.000000 0.000000
vn -0.000001 0.000000 -1.000000
vn -0.000001 0.000000 -1.000000
vn -0.000001 0.000000 -1.000000
vn -0.000001 0.000000 -1.000000
s off
g Bathroom2Walls
usemtl lambert69SG
f 5//1 3//2 1//3 2//4 6//5 9//6
f 1//7 4//8 17//9 2//10
f 10//11 9//12 6//13 13//14 18//15
f 11//16 12//17 1//18 3//19
f 12//20 14//21 15//22 16//23
f 1//24 12//25 16//26 4//27
f 14/1/28 2/2/29 17/3/30 15/4/31
f 3//32 5//33 19//34 11//35
f 2/13/36 14/14/37 20/15/38 6/16/39
f 21//40 22//41 23//42 24//43
f 8/5/44 7/6/45 25/7/46 26/8/47
f 24//48 23//49 27//50 7//51 8//52
f 22//53 28//54 27//55 23//56
f 29//57 19//58 5//59 9//60
f 28//61 25//62 30//63 31//64
f 25/17/65 7/18/66 13/19/67 30/20/68
f 6/9/69 20/10/70 30/11/71 13/12/72
f 27//73 28//74 31//75 18//76
f 7//77 27//78 18//79 13//80
f 29//81 9//82 10//83 32//84
f 30//85 13//86 18//87 31//88
f 13//89 30//90 31//91 18//92
f 18//93 31//94 32//95 10//96
f 26//97 25//98 28//99 22//100 21//101
f 11//102 19//103 29//104 20//105 14//106 12//107
f 4//108 16//109 15//110 17//111
f 20//112 29//113 32//114 31//115 30//116
f 8//117 26//118 21//119 24//120
