# This file uses centimeters as units for non-parametric coordinates.

mtllib Bathroom2Floor.mtl
g default
v 860.609746 3.385690 564.258575
v 1279.789820 3.385690 564.258506
v 860.609746 20.792335 564.258575
v 1279.789820 20.792338 564.258506
v 860.609746 20.792335 170.379530
v 1279.789820 20.792338 170.379461
v 860.609746 3.385690 170.379530
v 1279.789820 3.385690 170.379461
vt 0.096742 0.891860
vt 0.096742 0.077717
vt 0.865084 0.077717
vt 0.865084 0.891860
vn 0.000000 0.000000 1.000000
vn 0.000000 0.000000 1.000000
vn 0.000000 0.000000 1.000000
vn 0.000000 0.000000 1.000000
vn -0.000000 1.000000 0.000000
vn -0.000000 1.000000 0.000000
vn -0.000000 1.000000 0.000000
vn -0.000000 1.000000 0.000000
vn -0.000000 0.000000 -1.000000
vn -0.000000 0.000000 -1.000000
vn -0.000000 0.000000 -1.000000
vn -0.000000 0.000000 -1.000000
vn 0.000000 -1.000000 0.000000
vn 0.000000 -1.000000 0.000000
vn 0.000000 -1.000000 0.000000
vn 0.000000 -1.000000 0.000000
vn 1.000000 0.000000 0.000000
vn 1.000000 0.000000 0.000000
vn 1.000000 0.000000 0.000000
vn 1.000000 0.000000 0.000000
vn -1.000000 0.000000 0.000000
vn -1.000000 0.000000 0.000000
vn -1.000000 0.000000 0.000000
vn -1.000000 0.000000 0.000000
s off
g Bathroom2Floor
usemtl lambert21SG
f 1//1 2//2 4//3 3//4
f 3/1/5 4/2/6 6/3/7 5/4/8
f 5//9 6//10 8//11 7//12
f 7//13 8//14 2//15 1//16
f 2//17 8//18 6//19 4//20
f 7//21 1//22 3//23 5//24
