# This file uses centimeters as units for non-parametric coordinates.

mtllib Bathroom2Doorframe.mtl
g default
v -1649.500296 301.693756 1013.492887
v -1597.684378 301.693756 1013.492887
v -1597.684378 301.693756 845.589559
v -1649.500296 301.693756 845.589574
v -1649.500296 293.226685 1005.655874
v -1649.500296 293.226685 853.295171
v -1597.684378 293.226685 853.295156
v -1597.684378 293.226685 1005.655874
v -1649.500296 14.760117 1013.492887
v -1597.684378 14.760117 1013.492887
v -1597.684378 14.760117 1005.655874
v -1649.500296 14.760117 1005.655874
v -1649.500296 14.760117 853.295171
v -1597.684378 14.760117 853.295156
v -1597.684378 14.760117 845.589559
v -1649.500296 14.760117 845.589559
vt 0.199455 0.001992
vt 0.213424 0.001992
vt 0.213424 0.498341
vt 0.413323 0.498341
vt 0.413323 0.001992
vt 0.427058 0.001992
vt 0.427058 0.513433
vt 0.199455 0.513433
vt 0.432733 0.001992
vt 0.446467 0.001992
vt 0.446467 0.498341
vt 0.646366 0.498341
vt 0.646366 0.001992
vt 0.660335 0.001992
vt 0.660335 0.513433
vt 0.432733 0.513433
vt 0.639733 0.516751
vt 0.732092 0.516751
vt 0.732092 0.744354
vt 0.639733 0.744354
vt 0.542275 0.716650
vt 0.542275 0.516751
vt 0.634633 0.516751
vt 0.634633 0.716650
vt 0.523206 0.516751
vt 0.537175 0.516751
vt 0.537175 0.609110
vt 0.523206 0.609110
vt 0.504372 0.609110
vt 0.504372 0.516751
vt 0.518106 0.516751
vt 0.518106 0.609110
vt 0.001656 0.001992
vt 0.094015 0.001992
vt 0.094015 0.513433
vt 0.001656 0.513433
vt 0.758369 0.001992
vt 0.758369 0.498341
vt 0.666010 0.498341
vt 0.666010 0.001992
vt 0.737192 0.998008
vt 0.737192 0.501659
vt 0.829550 0.501659
vt 0.829550 0.998008
vt 0.100637 0.001992
vt 0.192995 0.001992
vt 0.192995 0.513433
vt 0.100637 0.513433
vn 0.000000 1.000000 0.000000
vn 0.000000 1.000000 0.000000
vn 0.000000 1.000000 0.000000
vn 0.000000 1.000000 0.000000
vn 0.000000 -1.000000 0.000000
vn 0.000000 -1.000000 0.000000
vn 0.000000 -1.000000 0.000000
vn 0.000000 -1.000000 0.000000
vn 0.000000 0.000000 1.000000
vn 0.000000 0.000000 1.000000
vn 0.000000 0.000000 1.000000
vn 0.000000 0.000000 1.000000
vn 0.000000 0.000000 -1.000000
vn 0.000000 0.000000 -1.000000
vn 0.000000 0.000000 -1.000000
vn 0.000000 0.000000 -1.000000
vn 0.000000 0.000000 1.000000
vn 0.000000 0.000000 1.000000
vn 0.000000 0.000000 1.000000
vn 0.000000 0.000000 1.000000
vn -0.000000 0.000000 -1.000000
vn -0.000000 0.000000 -1.000000
vn -0.000000 0.000000 -1.000000
vn -0.000000 0.000000 -1.000000
vn 0.000000 -1.000000 0.000000
vn 0.000000 -1.000000 0.000000
vn 0.000000 -1.000000 0.000000
vn 0.000000 -1.000000 0.000000
vn 0.000000 -1.000000 0.000000
vn 0.000000 -1.000000 0.000000
vn 0.000000 -1.000000 0.000000
vn 0.000000 -1.000000 0.000000
vn 1.000000 -0.000005 0.000000
vn 1.000000 -0.000005 0.000000
vn 1.000000 -0.000005 0.000000
vn 1.000000 -0.000005 0.000000
vn 1.000000 -0.000005 0.000000
vn 1.000000 -0.000005 0.000000
vn 1.000000 -0.000005 0.000000
vn 1.000000 -0.000005 0.000000
vn -1.000000 -0.000004 0.000000
vn -1.000000 -0.000004 0.000000
vn -1.000000 -0.000004 0.000000
vn -1.000000 -0.000004 0.000000
vn -1.000000 -0.000004 0.000000
vn -1.000000 -0.000004 0.000000
vn -1.000000 -0.000004 0.000000
vn -1.000000 -0.000004 0.000000
s off
g Bathroom2Doorframe DoorFrame
usemtl lambert5SG
f 1/17/1 2/18/2 3/19/3 4/20/4
f 5/21/5 6/22/6 7/23/7 8/24/8
f 9/33/9 10/34/10 2/35/11 1/36/12
f 8/37/13 11/38/14 12/39/15 5/40/16
f 6/41/17 13/42/18 14/43/19 7/44/20
f 4/45/21 3/46/22 15/47/23 16/48/24
f 11/25/25 10/26/26 9/27/27 12/28/28
f 16/29/29 15/30/30 14/31/31 13/32/32
f 10/1/33 11/2/34 8/3/35 7/4/36 14/5/37 15/6/38 3/7/39 2/8/40
f 16/9/41 13/10/42 6/11/43 5/12/44 12/13/45 9/14/46 1/15/47 4/16/48
