# This file uses centimeters as units for non-parametric coordinates.

mtllib Bathroom2Floor.mtl
g default
v -2044.598347 0.097060 1043.057442
v -1625.418273 0.097060 1043.057366
v -2044.598347 17.503706 1043.057442
v -1625.418273 17.503708 1043.057366
v -2044.598347 17.503706 704.710395
v -1625.418273 17.503708 704.710319
v -2044.598347 0.097060 704.710395
v -1625.418273 0.097060 704.710319
vt 0.001126 0.998008
vt 0.001126 0.001992
vt 0.564098 0.001992
vt 0.564098 0.998008
vn 0.000000 0.000000 1.000000
vn 0.000000 0.000000 1.000000
vn 0.000000 0.000000 1.000000
vn 0.000000 0.000000 1.000000
vn -0.000000 1.000000 0.000000
vn -0.000000 1.000000 0.000000
vn -0.000000 1.000000 0.000000
vn -0.000000 1.000000 0.000000
vn -0.000000 0.000000 -1.000000
vn -0.000000 0.000000 -1.000000
vn -0.000000 0.000000 -1.000000
vn -0.000000 0.000000 -1.000000
vn 0.000000 -1.000000 0.000000
vn 0.000000 -1.000000 0.000000
vn 0.000000 -1.000000 0.000000
vn 0.000000 -1.000000 0.000000
vn 1.000000 0.000000 0.000000
vn 1.000000 0.000000 0.000000
vn 1.000000 0.000000 0.000000
vn 1.000000 0.000000 0.000000
vn -1.000000 0.000000 0.000000
vn -1.000000 0.000000 0.000000
vn -1.000000 0.000000 0.000000
vn -1.000000 0.000000 0.000000
s off
g Bathroom2Floor
usemtl lambert21SG
f 1//1 2//2 4//3 3//4
f 3/1/5 4/2/6 6/3/7 5/4/8
f 5//9 6//10 8//11 7//12
f 7//13 8//14 2//15 1//16
f 2//17 8//18 6//19 4//20
f 7//21 1//22 3//23 5//24
