# This file uses centimeters as units for non-parametric coordinates.

mtllib Bathroom2Door.mtl
g default
v -1623.480277 14.760122 1005.655844
v -1623.480277 14.760122 853.087866
v -1623.480277 291.733595 1005.655844
v -1623.480277 291.733595 853.087866
v -1633.232785 291.733595 1005.655844
v -1633.232785 291.733595 853.087866
v -1633.232785 14.760122 1005.655844
v -1633.232785 14.760122 853.087866
vt 0.105825 0.031670
vt 0.554320 0.031670
vt 0.554320 0.976651
vt 0.105825 0.976651
vt 0.105825 0.976651
vt 0.554320 0.976651
vt 0.554320 0.031670
vt 0.105825 0.031670
vt 0.847474 0.437461
vt 0.909544 0.437461
vt 0.909544 0.632259
vt 0.847474 0.632259
vt 0.911931 0.437461
vt 0.974000 0.437461
vt 0.974000 0.632259
vt 0.911931 0.632259
vt 0.719080 0.639112
vt 0.719080 0.437461
vt 0.781149 0.437461
vt 0.781149 0.639112
vt 0.783018 0.639112
vt 0.783018 0.437461
vt 0.845087 0.437461
vt 0.845087 0.639112
vn 1.000000 0.000000 0.000000
vn 1.000000 0.000000 0.000000
vn 1.000000 0.000000 0.000000
vn 1.000000 0.000000 0.000000
vn 0.000000 1.000000 0.000000
vn 0.000000 1.000000 0.000000
vn 0.000000 1.000000 0.000000
vn 0.000000 1.000000 0.000000
vn -1.000000 0.000000 -0.000000
vn -1.000000 0.000000 -0.000000
vn -1.000000 0.000000 -0.000000
vn -1.000000 0.000000 -0.000000
vn 0.000000 -1.000000 0.000000
vn 0.000000 -1.000000 0.000000
vn 0.000000 -1.000000 0.000000
vn 0.000000 -1.000000 0.000000
vn 0.000000 0.000000 -1.000000
vn 0.000000 0.000000 -1.000000
vn 0.000000 0.000000 -1.000000
vn 0.000000 0.000000 -1.000000
vn 0.000000 0.000000 1.000000
vn 0.000000 0.000000 1.000000
vn 0.000000 0.000000 1.000000
vn 0.000000 0.000000 1.000000
s off
g Bathroom2Door Door
usemtl lambert36SG
f 1/1/1 2/2/2 4/3/3 3/4/4
f 3/17/5 4/18/6 6/19/7 5/20/8
f 5/5/9 6/6/10 8/7/11 7/8/12
f 7/21/13 8/22/14 2/23/15 1/24/16
f 2/9/17 8/10/18 6/11/19 4/12/20
f 7/13/21 1/14/22 3/15/23 5/16/24
