# This file uses centimeters as units for non-parametric coordinates.

mtllib Bedroom1Walls.mtl
g default
v -841.108277 165.430123 -829.422977
v -841.108277 165.430123 -1059.169589
v -841.108277 312.352608 -829.422977
v -841.108277 312.352608 -1059.169589
v -855.228028 312.352608 -829.422977
v -855.228028 312.352608 -1059.169589
v -855.228028 165.430123 -829.422977
v -855.228028 165.430123 -1059.169589
v -11.204774 45.802605 -703.511966
v 2.690734 45.802788 -703.511966
v -11.204774 45.802605 -721.468722
v 2.690734 21.048790 -703.511966
v 2.690673 45.802765 -1129.167392
v -11.204774 45.802765 -1129.167392
v 2.690734 371.238564 -1187.585544
v 2.690673 371.238533 -1151.747409
v 2.690734 21.048790 -1187.585544
v -11.204774 21.048790 -703.511966
v -11.204774 21.048790 -721.468722
v -11.204774 371.238564 -1187.585544
v -11.204774 371.238533 -1151.747409
v -606.803223 45.802746 -703.511966
v -606.803223 45.802746 -721.468722
v -606.803223 21.048790 -703.511966
v 2.690734 21.048790 -1202.724948
v 2.690734 371.238564 -1202.724948
v -606.803223 21.048790 -721.468722
v -841.108277 371.238564 -721.468722
v -841.108277 371.238564 -703.511966
v -805.272340 371.238564 -703.511966
v -805.272340 371.238564 -721.468722
v -782.689210 45.802788 -703.511966
v -782.689210 45.802788 -721.468722
v -855.228028 21.048790 -703.511966
v -841.108277 21.048790 -703.511966
v -855.228028 371.238564 -703.511966
v -841.108277 371.238564 -1187.585544
v -841.108277 21.048790 -1187.585544
v -11.204774 21.048790 -1187.585544
v -855.228028 371.238564 -1202.724948
v -855.228028 21.048790 -1202.724948
v -766.078126 45.802784 -703.511966
v -766.078126 45.802784 -721.468722
v -766.078126 21.048790 -721.468722
v -766.078126 21.048790 -703.511966
v -841.108277 21.048790 -721.468722
v -855.228028 371.238564 -1187.585544
v -855.228028 21.048790 -1187.585544
v -539.105836 312.352608 -1187.665500
v -309.359254 312.352608 -1187.665500
v -309.359254 165.430123 -1187.665500
v -539.105836 165.430123 -1187.665500
v -539.105836 165.430123 -1202.724948
v -309.359254 165.430123 -1202.724948
v -309.359254 312.352608 -1202.724948
v -539.105836 312.352608 -1202.724948
vt 0.375000 -0.000000
vt 0.625001 -0.000000
vt 0.375000 0.250000
vt 0.625000 0.250000
vt 0.375000 0.500000
vt 0.625000 0.500000
vt 0.375000 0.750000
vt 0.625000 0.750000
vt 0.375000 1.000000
vt 0.625000 1.000000
vt 0.875002 0.000000
vt 0.875001 0.250000
vt 0.125000 -0.000000
vt 0.125000 0.250000
vt 0.016212 0.708851
vt 0.016212 0.020261
vt 0.044831 0.020261
vt 0.044831 0.708851
vt 0.960195 0.979739
vt 0.892119 0.630585
vt 0.892119 0.364968
vt 0.722257 0.364968
vt 0.722257 0.630585
vt 0.555329 0.979739
vt 0.555329 0.020261
vt 0.960195 0.020261
vt 0.052516 0.020261
vt 0.457382 0.020261
vt 0.457382 0.559154
vt 0.389304 0.434350
vt 0.389302 0.168734
vt 0.219437 0.168730
vt 0.219443 0.434346
vt 0.052516 0.559154
vt 0.463965 0.425127
vt 0.463965 0.020261
vt 0.505396 0.020261
vt 0.531505 0.396508
vt 0.550709 0.396508
vt 0.550709 0.425127
vt 0.375000 0.250000
vt 0.375000 0.500000
vt 0.625000 0.500000
vt 0.625000 0.250000
vt 0.375000 0.750000
vt 0.375000 1.000000
vt 0.625000 1.000000
vt 0.625000 0.750000
vt 0.625003 0.000001
vt 0.875002 0.250002
vt 0.875003 0.000003
vt 0.124997 -0.000000
vt 0.124998 0.250001
vt 0.374999 -0.000000
vn 0.000000 -1.000000 0.000000
vn 0.000000 -1.000000 0.000000
vn 0.000000 -1.000000 0.000000
vn 0.000000 -1.000000 0.000000
vn 0.000000 1.000000 0.000000
vn 0.000000 1.000000 0.000000
vn 0.000000 1.000000 0.000000
vn 0.000000 1.000000 0.000000
vn 0.000000 0.000000 1.000000
vn 0.000000 0.000000 1.000000
vn 0.000000 0.000000 1.000000
vn 0.000000 0.000000 1.000000
vn 0.000000 0.000000 -1.000000
vn 0.000000 0.000000 -1.000000
vn 0.000000 0.000000 -1.000000
vn 0.000000 0.000000 -1.000000
vn -0.000007 1.000000 0.000000
vn -0.000007 1.000000 0.000000
vn -0.000007 1.000000 0.000000
vn -0.000007 1.000000 0.000000
vn -0.000007 1.000000 0.000000
vn 1.000000 0.000001 0.000001
vn 1.000000 0.000001 0.000001
vn 1.000000 0.000001 0.000001
vn 1.000000 0.000001 0.000001
vn 1.000000 0.000001 0.000001
vn 1.000000 0.000001 0.000001
vn -0.000001 0.000000 1.000000
vn -0.000001 0.000000 1.000000
vn -0.000001 0.000000 1.000000
vn -0.000001 0.000000 1.000000
vn 1.000000 0.000000 0.000000
vn 1.000000 0.000000 0.000000
vn 1.000000 0.000000 0.000000
vn 1.000000 0.000000 0.000000
vn -1.000000 0.000000 0.000000
vn -1.000000 0.000000 0.000000
vn -1.000000 0.000000 0.000000
vn -1.000000 0.000000 0.000000
vn 0.000000 1.000000 0.000001
vn 0.000000 1.000000 0.000001
vn 0.000000 1.000000 0.000001
vn 0.000000 1.000000 0.000001
vn 0.000000 0.069218 0.997602
vn 0.000000 0.069218 0.997602
vn 0.000000 0.069218 0.997602
vn 0.000000 0.069218 0.997602
vn 0.000000 1.000000 0.000000
vn 0.000000 1.000000 0.000000
vn 0.000000 1.000000 0.000000
vn 0.000000 1.000000 0.000000
vn 0.000000 0.000000 1.000000
vn 0.000000 0.000000 1.000000
vn 0.000000 0.000000 1.000000
vn 0.000000 0.000000 1.000000
vn 1.000000 0.000000 0.000000
vn 1.000000 0.000000 0.000000
vn 1.000000 0.000000 0.000000
vn 1.000000 0.000000 0.000000
vn 0.000000 0.000000 -1.000000
vn 0.000000 0.000000 -1.000000
vn 0.000000 0.000000 -1.000000
vn 0.000000 0.000000 -1.000000
vn 0.000000 -1.000000 0.000000
vn 0.000000 -1.000000 0.000000
vn 0.000000 -1.000000 0.000000
vn 0.000000 -1.000000 0.000000
vn 0.000000 1.000000 0.000000
vn 0.000000 1.000000 0.000000
vn 0.000000 1.000000 0.000000
vn 0.000000 1.000000 0.000000
vn -1.000000 0.000000 0.000000
vn -1.000000 0.000000 0.000000
vn -1.000000 0.000000 0.000000
vn -1.000000 0.000000 0.000000
vn 0.997601 0.069227 0.000000
vn 0.997601 0.069227 0.000000
vn 0.997601 0.069227 0.000000
vn 0.997601 0.069227 0.000000
vn 0.000000 0.000000 1.000000
vn 0.000000 0.000000 1.000000
vn 0.000000 0.000000 1.000000
vn 0.000000 0.000000 1.000000
vn 0.000170 0.000000 1.000000
vn -0.000035 0.000000 1.000000
vn -0.000109 0.000000 1.000000
vn -0.000109 0.000000 1.000000
vn -0.000021 0.000000 1.000000
vn 0.000082 0.000000 1.000000
vn -0.000109 0.000000 1.000000
vn -0.000109 0.000000 1.000000
vn -0.000000 0.000000 -1.000000
vn 0.000000 0.000000 -1.000000
vn 0.000000 0.000000 -1.000000
vn -0.000000 0.000000 -1.000000
vn 0.000000 0.000000 -1.000000
vn 0.000000 0.000000 -1.000000
vn 0.000000 0.000000 -1.000000
vn 0.000000 0.000000 -1.000000
vn 0.000000 1.000000 0.000000
vn 0.000000 1.000000 0.000000
vn 0.000000 1.000000 0.000000
vn 0.000000 1.000000 0.000000
vn 1.000000 0.000000 0.000000
vn 1.000000 0.000000 0.000000
vn 1.000000 0.000000 0.000000
vn 1.000000 0.000000 0.000000
vn 0.000000 -1.000000 0.000000
vn 0.000000 -1.000000 0.000000
vn 0.000000 -1.000000 0.000000
vn 0.000000 -1.000000 0.000000
vn 0.000000 -1.000000 0.000000
vn 0.000000 -1.000000 0.000000
vn 0.000000 -1.000000 0.000000
vn 0.000000 -1.000000 0.000000
vn 0.000000 -1.000000 0.000000
vn 1.000000 0.000000 0.000000
vn 1.000000 0.000000 0.000000
vn 1.000000 0.000000 0.000000
vn 1.000000 0.000000 0.000000
vn 1.000000 0.000000 0.000000
vn 1.000000 0.000000 0.000000
vn 1.000000 0.000000 0.000000
vn 1.000000 0.000000 0.000000
vn -1.000000 0.000000 0.000000
vn -1.000000 0.000000 0.000000
vn -1.000000 0.000000 0.000000
vn -1.000000 0.000000 0.000000
vn -1.000000 0.000000 0.000000
vn -1.000000 0.000000 0.000000
vn -1.000000 0.000000 0.000000
vn -1.000000 0.000000 0.000000
vn -1.000000 0.000000 0.000000
vn -1.000000 0.000000 0.000000
vn -1.000000 0.000000 0.000000
vn -1.000000 0.000000 0.000000
vn 0.000000 1.000000 0.000000
vn 0.000000 1.000000 0.000000
vn 0.000000 1.000000 0.000000
vn 0.000000 1.000000 0.000000
vn 0.000000 1.000000 0.000000
vn -1.000000 -0.000001 0.000000
vn -1.000000 -0.000001 0.000000
vn -1.000000 -0.000001 0.000000
vn -1.000000 -0.000001 0.000000
vn -1.000000 -0.000001 0.000000
vn -1.000000 -0.000001 0.000000
vn 0.000000 -1.000000 0.000000
vn 0.000000 -1.000000 0.000000
vn 0.000000 -1.000000 0.000000
vn 0.000000 -1.000000 0.000000
vn 0.000000 -1.000000 0.000000
vn 0.000000 1.000000 0.000000
vn 0.000000 1.000000 0.000000
vn 0.000000 1.000000 0.000000
vn 0.000000 1.000000 0.000000
vn 0.000000 1.000000 0.000000
vn 0.000000 1.000000 0.000000
vn 0.000000 0.000000 1.000000
vn 0.000000 0.000000 1.000000
vn 0.000000 0.000000 1.000000
vn 0.000000 0.000000 1.000000
vn 0.000000 0.000000 1.000000
vn 0.000000 0.000000 1.000000
vn -0.000000 0.000000 -1.000000
vn -0.000000 0.000000 -1.000000
vn -0.000000 0.000000 -1.000000
vn -0.000000 0.000000 -1.000000
vn -0.000000 0.000000 -1.000000
vn -0.000000 0.000000 -1.000000
vn 0.000000 -1.000000 -0.000000
vn 0.000000 -1.000000 -0.000000
vn 0.000000 -1.000000 -0.000000
vn 0.000000 -1.000000 -0.000000
vn 0.000000 -1.000000 -0.000000
vn 0.000000 -1.000000 -0.000000
vn 0.000000 -1.000000 0.000000
vn 0.000000 -1.000000 0.000000
vn 0.000000 -1.000000 0.000000
vn 0.000000 -1.000000 0.000000
vn 0.000000 1.000000 0.000000
vn 0.000000 1.000000 0.000000
vn 0.000000 1.000000 0.000000
vn 0.000000 1.000000 0.000000
vn -1.000000 0.000000 0.000000
vn -1.000000 0.000000 0.000000
vn -1.000000 0.000000 0.000000
vn -1.000000 0.000000 0.000000
vn 1.000000 0.000000 0.000000
vn 1.000000 0.000000 0.000000
vn 1.000000 0.000000 0.000000
vn 1.000000 0.000000 0.000000
s off
g Bedroom1Walls
usemtl initialShadingGroup
f 3/3/1 5/5/2 6/6/3 4/4/4
f 7/7/5 1/9/6 2/10/7 8/8/8
f 2/2/9 4/4/10 6/12/11 8/11/12
f 7/13/13 5/14/14 3/3/15 1/1/16
usemtl lambert67SG
f 14//17 11//18 9//19 10//20 13//21
f 13//22 10//23 12//24 17//25 15//26 16//27
f 9//28 18//29 12//30 10//31
f 19//32 11//33 9//34 18//35
f 11//36 19//37 18//38 9//39
f 15//40 20//41 21//42 16//43
f 16//44 21//45 14//46 13//47
f 22//48 9//49 11//50 23//51
f 24//52 18//53 9//54 22//55
f 17//56 25//57 26//58 15//59
f 23/15/60 11/16/61 19/17/62 27/18/63
f 27//64 19//65 18//66 24//67
f 28//68 29//69 30//70 31//71
f 23//72 27//73 24//74 22//75
f 31//76 30//77 32//78 33//79
f 34//80 35//81 29//82 36//83
s 1
f 37/19/84 49/20/85 50/21/86 51/22/87 52/23/88 38/24/89 39/25/90 20/26/91
s 2
f 40//92 26//93 25//94 41//95 53//96 54//97 55//98 56//99
s off
f 33//100 32//101 42//102 43//103
f 44//104 43//105 42//106 45//107
f 35//108 46//109 44//110 45//111
f 39//112 17//113 12//114 18//115 19//116
s 3
f 38/27/117 37/28/118 28/29/119 3/30/120 4/31/121 2/32/122 1/33/123 46/34/124
s 4
f 47//125 48//126 34//127 7//128 8//129 6//130 5//131 36//132
s off
f 41//133 48//134 47//135 40//136
f 37//137 47//138 36//139 29//140 28//141
f 20//142 39//143 19//144 11//145 14//146 21//147
f 48//148 38//149 46//150 35//151 34//152
f 47//153 37//154 20//155 15//156 26//157 40//158
f 29//159 35//160 45//161 42//162 32//163 30//164
f 46/35/165 28/36/166 31/37/167 33/38/168 43/39/169 44/40/170
f 41//171 25//172 17//173 39//174 38//175 48//176
s 1
f 37/19/84 38/24/89 52/23/88 49/20/85
s 3
f 46/34/124 1/33/123 3/30/120 28/29/119
s 2
f 40//92 56//99 53//96 41//95
s 4
f 36//132 5//131 7//128 34//127
s off
usemtl initialShadingGroup
f 49/41/177 56/42/178 55/43/179 50/44/180
f 53/45/181 52/46/182 51/47/183 54/48/184
f 51/49/185 50/44/186 55/50/187 54/51/188
f 53/52/189 56/53/190 49/41/191 52/54/192
