# This file uses centimeters as units for non-parametric coordinates.

mtllib Closet.mtl
g default
v -595.121441 32.324736 -52.644875
v -595.121441 32.324736 -131.108067
v -595.121441 289.479846 -52.644875
v -595.121441 289.479846 -131.108067
v -764.523279 289.479846 -52.644875
v -764.523279 289.479846 -131.108067
v -764.523279 32.324736 -52.644875
v -764.523279 32.324736 -131.108067
v -764.523279 32.324736 -123.261804
v -595.121441 32.324736 -123.261804
v -764.523279 32.324736 -60.590914
v -595.121441 32.324736 -60.590914
v -603.367248 32.324736 -131.108067
v -603.461602 32.324736 -123.261804
v -604.214256 32.324736 -60.590914
v -604.309795 32.324736 -52.644875
v -755.611110 32.324736 -131.108067
v -755.579611 32.324736 -123.261804
v -755.328070 32.324736 -60.590914
v -755.296171 32.324736 -52.644875
v -764.523279 18.830260 -52.644875
v -764.523279 18.830260 -60.590914
v -755.328070 18.830260 -60.590914
v -755.296171 18.830260 -52.644875
v -755.611110 18.830260 -131.108067
v -755.579611 18.830260 -123.261804
v -764.523279 18.830260 -123.261804
v -764.523279 18.830260 -131.108067
v -603.461602 18.830260 -123.261804
v -595.121441 18.830260 -123.261804
v -603.367248 18.830260 -131.108067
v -595.121441 18.830260 -131.108067
v -604.214256 18.830260 -60.590914
v -604.309795 18.830260 -52.644875
v -595.121441 18.830260 -60.590914
v -595.121441 18.830260 -52.644875
v -759.624328 37.706172 -52.644875
v -750.930904 37.706172 -52.644875
v -608.677301 37.706172 -52.644875
v -600.020392 37.706172 -52.644875
v -600.020392 284.098358 -52.644875
v -759.624328 284.098358 -52.644875
v -759.624328 37.706172 -119.504418
v -750.930904 37.706172 -119.504418
v -608.677301 37.706172 -119.504418
v -600.020392 37.706172 -119.504418
v -600.020392 284.098358 -119.504418
v -759.624328 284.098358 -119.504418
v -761.622237 285.671099 -46.736719
v -761.622237 285.671099 -52.495398
v -761.622237 35.694622 -46.736719
v -761.622237 35.694622 -52.495398
v -680.382607 285.671099 -46.736719
v -680.382607 285.671099 -52.495398
v -680.382607 35.694622 -52.495398
v -680.382607 35.694622 -46.736719
v -689.009627 139.320148 -44.398372
v -689.009627 139.320148 -46.776139
v -689.009627 171.703094 -44.398372
v -689.009627 171.703094 -46.776139
v -691.424032 171.703094 -44.398372
v -691.424032 171.703094 -46.776139
v -691.424032 139.320148 -44.398372
v -691.424032 139.320148 -46.776139
v -598.331168 285.671099 -46.736719
v -598.331168 285.671099 -52.495398
v -598.331168 35.694622 -46.736719
v -598.331168 35.694622 -52.495398
v -679.570799 285.671099 -46.736719
v -679.570799 285.671099 -52.495398
v -679.570799 35.694622 -52.495398
v -679.570799 35.694622 -46.736719
v -670.943779 139.320148 -44.398372
v -670.943779 139.320148 -46.776139
v -670.943779 171.703094 -44.398372
v -670.943779 171.703094 -46.776139
v -668.529368 171.703094 -44.398372
v -668.529368 171.703094 -46.776139
v -668.529368 139.320148 -44.398372
v -668.529368 139.320148 -46.776139
vt 0.848160 0.027501
vt 0.858739 0.027501
vt 0.858739 0.156529
vt 0.848160 0.156529
vt 0.911254 0.160306
vt 0.921834 0.160306
vt 0.921834 0.171048
vt 0.911254 0.171048
vt 0.864756 0.027501
vt 0.875336 0.027501
vt 0.875336 0.156529
vt 0.864756 0.156529
vt 0.894870 0.160305
vt 0.905449 0.160305
vt 0.905449 0.171048
vt 0.894870 0.171048
vt 0.881353 0.027501
vt 0.892096 0.027501
vt 0.892096 0.156529
vt 0.881353 0.156529
vt 0.897950 0.027501
vt 0.908692 0.027501
vt 0.908692 0.156529
vt 0.897950 0.156529
vt 0.848160 0.027501
vt 0.858739 0.027501
vt 0.858739 0.156529
vt 0.848160 0.156529
vt 0.911254 0.160306
vt 0.921834 0.160306
vt 0.921834 0.171048
vt 0.911254 0.171048
vt 0.864756 0.027501
vt 0.875336 0.027501
vt 0.875336 0.156529
vt 0.864756 0.156529
vt 0.894870 0.160305
vt 0.905449 0.160305
vt 0.905449 0.171048
vt 0.894870 0.171048
vt 0.881353 0.027501
vt 0.892096 0.027501
vt 0.892096 0.156529
vt 0.881353 0.156529
vt 0.897950 0.027501
vt 0.908692 0.027501
vt 0.908692 0.156529
vt 0.897950 0.156529
vt 0.749602 0.795797
vt 0.749800 0.940431
vt 0.351252 0.940977
vt 0.351054 0.796343
vt 0.942512 0.494928
vt 0.942512 0.893476
vt 0.797878 0.893476
vt 0.797878 0.494928
vt 0.704300 0.626348
vt 0.714553 0.626348
vt 0.714553 0.770982
vt 0.704300 0.770982
vt 0.717565 0.626348
vt 0.727818 0.626348
vt 0.727818 0.770982
vt 0.717565 0.770982
vt 0.730830 0.770982
vt 0.730830 0.626348
vt 0.741083 0.626348
vt 0.741083 0.770982
vt 0.744095 0.770982
vt 0.744095 0.626348
vt 0.754348 0.626348
vt 0.754348 0.770982
vt 0.749583 0.782449
vt 0.749597 0.792701
vt 0.351050 0.793247
vt 0.351035 0.782995
vt 0.781600 0.893476
vt 0.771347 0.893476
vt 0.771347 0.494928
vt 0.781600 0.494928
vt 0.784612 0.893476
vt 0.784612 0.494928
vt 0.794865 0.494928
vt 0.794865 0.893476
vt 0.955704 0.494928
vt 0.955704 0.893476
vt 0.945452 0.893476
vt 0.945452 0.494928
vt 0.234840 0.043606
vt 0.244894 0.043606
vt 0.430518 0.043606
vt 0.441384 0.043606
vt 0.441384 0.324387
vt 0.234840 0.324387
vt 0.234840 0.028872
vt 0.244894 0.028872
vt 0.430518 0.028872
vt 0.441384 0.028872
vt 0.515144 0.327097
vt 0.525743 0.327097
vt 0.699187 0.327097
vt 0.709742 0.327097
vt 0.709742 0.596126
vt 0.515144 0.596126
vt 0.130949 0.539138
vt 0.119737 0.539138
vt 0.119737 0.524404
vt 0.130949 0.524404
vt 0.457774 0.043606
vt 0.446524 0.043606
vt 0.446524 0.028872
vt 0.457774 0.028872
vt 0.463096 0.049482
vt 0.452497 0.049482
vt 0.641865 0.043606
vt 0.636540 0.049482
vt 0.446524 0.324387
vt 0.452497 0.318511
vt 0.653068 0.043606
vt 0.647095 0.049482
vt 0.653068 0.324387
vt 0.647095 0.318511
vt 0.641865 0.028872
vt 0.653068 0.028872
vt 0.175625 0.551085
vt 0.164720 0.551085
vt 0.164720 0.536350
vt 0.175625 0.536350
vt 0.190765 0.551085
vt 0.180596 0.551085
vt 0.180596 0.536350
vt 0.190765 0.536350
vt 0.235343 0.551085
vt 0.224256 0.551085
vt 0.224256 0.536350
vt 0.235343 0.536350
vt 0.243945 0.327097
vt 0.339612 0.327097
vt 0.339612 0.533641
vt 0.243945 0.533641
vt 0.240132 0.536350
vt 0.249821 0.536350
vt 0.249821 0.547562
vt 0.240132 0.547601
vt 0.278805 0.547216
vt 0.269239 0.547255
vt 0.269239 0.536350
vt 0.278805 0.536350
vt 0.230214 0.338001
vt 0.153802 0.338308
vt 0.153802 0.327097
vt 0.230214 0.327097
vt 0.230214 0.523472
vt 0.153802 0.522554
vt 0.153802 0.533641
vt 0.230214 0.533641
vt 0.144114 0.338347
vt 0.144114 0.522438
vt 0.239780 0.523587
vt 0.239780 0.337963
vt 0.283792 0.546519
vt 0.283792 0.536350
vt 0.293359 0.536465
vt 0.293359 0.546519
vt 0.254686 0.536350
vt 0.264374 0.536467
vt 0.264374 0.547553
vt 0.254686 0.547553
vt 0.058430 0.521695
vt 0.058430 0.511095
vt 0.139949 0.511095
vt 0.139949 0.521695
vt 0.058430 0.337652
vt 0.139949 0.337652
vt 0.058430 0.327097
vt 0.139949 0.327097
vt 0.033608 0.719002
vt 0.033608 0.524404
vt 0.115127 0.524404
vt 0.115127 0.719002
vt 0.033608 0.043606
vt 0.043297 0.043606
vt 0.119708 0.043606
vt 0.129275 0.043606
vt 0.129275 0.324387
vt 0.033608 0.324387
vt 0.033608 0.028872
vt 0.043297 0.028872
vt 0.119708 0.028872
vt 0.129275 0.028872
vt 0.134291 0.028872
vt 0.229957 0.028872
vt 0.229957 0.309653
vt 0.220391 0.309653
vt 0.143979 0.309653
vt 0.134291 0.309653
vt 0.229957 0.324387
vt 0.220391 0.324387
vt 0.143979 0.324387
vt 0.134291 0.324387
vt 0.145302 0.551085
vt 0.135614 0.551085
vt 0.135614 0.536350
vt 0.145302 0.536350
vt 0.159733 0.551085
vt 0.150167 0.551085
vt 0.150167 0.536350
vt 0.159733 0.536350
vt 0.195150 0.536350
vt 0.204716 0.536350
vt 0.204716 0.551085
vt 0.195150 0.551085
vt 0.209703 0.536350
vt 0.219391 0.536350
vt 0.219391 0.551085
vt 0.209703 0.551085
vt 0.429460 0.596126
vt 0.429460 0.327097
vt 0.510979 0.327097
vt 0.510979 0.596126
vt 0.343777 0.596126
vt 0.343777 0.327097
vt 0.425295 0.327097
vt 0.425295 0.596126
vn 1.000000 0.000000 0.000000
vn 1.000000 0.000000 0.000000
vn 1.000000 0.000000 0.000000
vn 1.000000 0.000000 0.000000
vn 1.000000 0.000000 0.000000
vn 1.000000 0.000000 0.000000
vn 0.000000 1.000000 0.000000
vn 0.000000 1.000000 0.000000
vn 0.000000 1.000000 0.000000
vn 0.000000 1.000000 0.000000
vn -1.000000 0.000000 -0.000000
vn -1.000000 0.000000 -0.000000
vn -1.000000 0.000000 -0.000000
vn -1.000000 0.000000 -0.000000
vn -1.000000 0.000000 -0.000000
vn -1.000000 0.000000 -0.000000
vn 0.000000 -1.000000 0.000000
vn 0.000000 -1.000000 0.000000
vn 0.000000 -1.000000 0.000000
vn 0.000000 -1.000000 0.000000
vn 0.000000 -0.000000 -1.000000
vn 0.000000 -0.000000 -1.000000
vn 0.000000 -0.000000 -1.000000
vn 0.000000 -0.000000 -1.000000
vn 0.000000 -0.000000 -1.000000
vn 0.000000 -0.000000 -1.000000
vn 0.000000 -0.000000 1.000000
vn 0.000000 -0.000000 1.000000
vn 0.000000 -0.000000 1.000000
vn 0.000000 -0.000000 1.000000
vn 0.000000 -0.000000 1.000000
vn 0.000000 -0.000000 1.000000
vn 0.000000 -1.000000 0.000000
vn 0.000000 -1.000000 0.000000
vn 0.000000 -1.000000 0.000000
vn 0.000000 -1.000000 0.000000
vn 0.000000 -1.000000 0.000000
vn 0.000000 -1.000000 0.000000
vn 0.000000 -1.000000 0.000000
vn 0.000000 -1.000000 0.000000
vn 0.000000 -1.000000 0.000000
vn 0.000000 -1.000000 0.000000
vn 0.000000 -1.000000 0.000000
vn 0.000000 -1.000000 0.000000
vn 0.000000 -1.000000 0.000000
vn 0.000000 -1.000000 0.000000
vn 0.000000 -1.000000 0.000000
vn 0.000000 -1.000000 0.000000
vn 0.000000 -1.000000 0.000000
vn 0.000000 -1.000000 0.000000
vn 0.000000 -1.000000 0.000000
vn 0.000000 -1.000000 0.000000
vn 0.000000 -1.000000 0.000000
vn 0.000000 -1.000000 0.000000
vn 0.000000 -1.000000 0.000000
vn 0.000000 -1.000000 0.000000
vn -1.000000 0.000000 -0.000000
vn -1.000000 0.000000 -0.000000
vn 0.000000 0.000000 -1.000000
vn 0.000000 0.000000 -1.000000
vn 0.000000 0.000000 -1.000000
vn 0.000000 0.000000 -1.000000
vn 0.999992 0.000000 -0.004015
vn 0.999992 0.000000 -0.004015
vn 0.999992 0.000000 -0.004015
vn 0.999992 0.000000 -0.004015
vn 0.000000 0.000000 1.000000
vn 0.000000 0.000000 1.000000
vn 0.000000 0.000000 1.000000
vn 0.000000 0.000000 1.000000
vn 0.999992 0.000000 -0.004014
vn 0.999992 0.000000 -0.004014
vn 0.999992 0.000000 -0.004014
vn 0.999992 0.000000 -0.004014
vn 0.000000 0.000000 1.000000
vn 0.000000 0.000000 1.000000
vn 0.000000 0.000000 1.000000
vn 0.000000 0.000000 1.000000
vn -1.000000 0.000000 -0.000000
vn -1.000000 0.000000 -0.000000
vn 0.000000 0.000000 -1.000000
vn 0.000000 0.000000 -1.000000
vn 0.000000 0.000000 1.000000
vn 0.000000 0.000000 1.000000
vn 0.000000 0.000000 1.000000
vn 0.000000 0.000000 1.000000
vn -0.999928 0.000000 -0.012024
vn -0.999928 0.000000 -0.012024
vn -0.999928 0.000000 -0.012024
vn -0.999928 0.000000 -0.012024
vn 0.000000 0.000000 -1.000000
vn 0.000000 0.000000 -1.000000
vn 1.000000 0.000000 0.000000
vn 1.000000 0.000000 0.000000
vn -0.999928 0.000000 -0.012023
vn -0.999928 0.000000 -0.012023
vn -0.999928 0.000000 -0.012023
vn -0.999928 0.000000 -0.012023
vn 0.000000 0.000000 -1.000000
vn 0.000000 0.000000 -1.000000
vn 0.000000 0.000000 -1.000000
vn 0.000000 0.000000 -1.000000
vn 1.000000 0.000000 0.000000
vn 1.000000 0.000000 0.000000
vn 0.000000 0.000000 1.000000
vn 0.000000 0.000000 1.000000
vn 0.000000 0.000000 1.000000
vn 0.000000 0.000000 1.000000
vn 0.000000 0.000012 1.000000
vn 0.000000 0.000012 1.000000
vn 0.000000 0.000012 1.000000
vn 0.000000 0.000012 1.000000
vn 0.000000 -0.000005 1.000000
vn 0.000000 -0.000005 1.000000
vn 0.000000 -0.000005 1.000000
vn 0.000000 -0.000005 1.000000
vn 0.000000 0.000006 1.000000
vn 0.000000 0.000006 1.000000
vn 0.000000 0.000006 1.000000
vn 0.000000 0.000006 1.000000
vn 0.000000 0.000000 1.000000
vn 0.000000 0.000000 1.000000
vn 0.000000 0.000000 1.000000
vn 0.000000 0.000000 1.000000
vn 0.000000 0.000005 1.000000
vn 0.000000 0.000005 1.000000
vn 0.000000 0.000005 1.000000
vn 0.000000 0.000005 1.000000
vn 0.000000 0.000000 1.000000
vn 0.000000 0.000000 1.000000
vn 0.000000 0.000000 1.000000
vn 0.000000 0.000000 1.000000
vn 0.000000 1.000000 0.000000
vn 0.000000 1.000000 0.000000
vn 0.000000 1.000000 0.000000
vn 0.000000 1.000000 0.000000
vn 0.000000 1.000000 0.000000
vn 0.000000 1.000000 0.000000
vn 0.000000 1.000000 0.000000
vn 0.000000 1.000000 0.000000
vn -1.000000 0.000000 -0.000000
vn -1.000000 0.000000 -0.000000
vn -1.000000 0.000000 -0.000000
vn -1.000000 0.000000 -0.000000
vn 0.000000 -1.000000 0.000000
vn 0.000000 -1.000000 0.000000
vn 0.000000 -1.000000 0.000000
vn 0.000000 -1.000000 0.000000
vn 1.000000 0.000000 0.000000
vn 1.000000 0.000000 0.000000
vn 1.000000 0.000000 0.000000
vn 1.000000 0.000000 0.000000
vn 0.000000 1.000000 0.000000
vn 0.000000 1.000000 0.000000
vn 0.000000 1.000000 0.000000
vn 0.000000 1.000000 0.000000
vn -1.000000 0.000000 -0.000000
vn -1.000000 0.000000 -0.000000
vn -1.000000 0.000000 -0.000000
vn -1.000000 0.000000 -0.000000
vn 0.000000 -1.000000 0.000000
vn 0.000000 -1.000000 0.000000
vn 0.000000 -1.000000 0.000000
vn 0.000000 -1.000000 0.000000
vn 0.000000 0.000000 -1.000000
vn 0.000000 0.000000 -1.000000
vn 0.000000 0.000000 -1.000000
vn 0.000000 0.000000 -1.000000
vn 0.000000 0.000000 1.000000
vn 0.000000 0.000000 1.000000
vn 0.000000 0.000000 1.000000
vn 0.000000 0.000000 1.000000
vn 1.000000 0.000000 0.000000
vn 1.000000 0.000000 0.000000
vn 1.000000 0.000000 0.000000
vn 1.000000 0.000000 0.000000
vn 0.000000 1.000000 0.000000
vn 0.000000 1.000000 0.000000
vn 0.000000 1.000000 0.000000
vn 0.000000 1.000000 0.000000
vn -1.000000 0.000000 -0.000000
vn -1.000000 0.000000 -0.000000
vn -1.000000 0.000000 -0.000000
vn -1.000000 0.000000 -0.000000
vn 0.000000 -1.000000 0.000000
vn 0.000000 -1.000000 0.000000
vn 0.000000 -1.000000 0.000000
vn 0.000000 -1.000000 0.000000
vn 0.000000 0.000000 -1.000000
vn 0.000000 0.000000 -1.000000
vn 0.000000 0.000000 -1.000000
vn 0.000000 0.000000 -1.000000
vn 0.000000 0.000000 1.000000
vn 0.000000 0.000000 1.000000
vn 0.000000 0.000000 1.000000
vn 0.000000 0.000000 1.000000
vn 1.000000 0.000000 0.000000
vn 1.000000 0.000000 0.000000
vn 1.000000 0.000000 0.000000
vn 1.000000 0.000000 0.000000
vn 0.000000 1.000000 0.000000
vn 0.000000 1.000000 0.000000
vn 0.000000 1.000000 0.000000
vn 0.000000 1.000000 0.000000
vn 1.000000 0.000000 0.000000
vn 1.000000 0.000000 0.000000
vn 1.000000 0.000000 0.000000
vn 1.000000 0.000000 0.000000
vn 0.000000 -1.000000 0.000000
vn 0.000000 -1.000000 0.000000
vn 0.000000 -1.000000 0.000000
vn 0.000000 -1.000000 0.000000
vn 0.000000 0.000000 -1.000000
vn 0.000000 0.000000 -1.000000
vn 0.000000 0.000000 -1.000000
vn 0.000000 0.000000 -1.000000
vn 0.000000 0.000000 1.000000
vn 0.000000 0.000000 1.000000
vn 0.000000 0.000000 1.000000
vn 0.000000 0.000000 1.000000
vn -1.000000 0.000000 -0.000000
vn -1.000000 0.000000 -0.000000
vn -1.000000 0.000000 -0.000000
vn -1.000000 0.000000 -0.000000
vn 0.000000 1.000000 0.000000
vn 0.000000 1.000000 0.000000
vn 0.000000 1.000000 0.000000
vn 0.000000 1.000000 0.000000
vn 1.000000 0.000000 0.000000
vn 1.000000 0.000000 0.000000
vn 1.000000 0.000000 0.000000
vn 1.000000 0.000000 0.000000
vn 0.000000 -1.000000 0.000000
vn 0.000000 -1.000000 0.000000
vn 0.000000 -1.000000 0.000000
vn 0.000000 -1.000000 0.000000
vn 0.000000 0.000000 -1.000000
vn 0.000000 0.000000 -1.000000
vn 0.000000 0.000000 -1.000000
vn 0.000000 0.000000 -1.000000
vn 0.000000 0.000000 1.000000
vn 0.000000 0.000000 1.000000
vn 0.000000 0.000000 1.000000
vn 0.000000 0.000000 1.000000
vn -1.000000 0.000000 -0.000000
vn -1.000000 0.000000 -0.000000
vn -1.000000 0.000000 -0.000000
vn -1.000000 0.000000 -0.000000
s 1
g Closet
usemtl lambert37SG
f 1/181/1 12/182/2 10/183/3 2/184/4 4/185/5 3/186/6
s off
f 3/137/7 4/138/8 6/139/9 5/140/10
s 2
f 5/191/11 6/192/12 8/193/13 9/194/14 11/195/15 7/196/16
s off
f 21/141/17 22/142/18 23/143/19 24/144/20
s 3
f 2/89/21 13/90/22 17/91/23 8/92/24 6/93/25 4/94/26
s off
f 43/99/27 44/100/28 45/101/29 46/102/30 47/103/31 48/104/32
f 25/145/33 26/146/34 27/147/35 28/148/36
s 4
f 18/149/37 19/150/38 11/151/39 9/152/40
s off
f 30/161/41 29/162/42 31/163/43 32/164/44
s 4
f 12/155/45 15/154/46 14/153/47 10/156/48
s off
f 34/165/49 33/166/50 35/167/51 36/168/52
s 4
f 13/159/53 14/153/47 18/149/37 17/160/54
f 14/153/47 15/154/46 19/150/38 18/149/37
f 20/157/55 19/150/38 15/154/46 16/158/56
s 2
f 7/196/16 11/195/15 22/199/57 21/200/58
s off
f 11/105/59 19/106/60 23/107/61 22/108/62
f 19/201/63 20/202/64 24/203/65 23/204/66
f 20/109/67 7/110/68 21/111/69 24/112/70
f 17/205/71 18/206/72 26/207/73 25/208/74
f 18/125/75 9/126/76 27/127/77 26/128/78
s 2
f 9/194/14 8/193/13 28/197/79 27/198/80
s 3
f 8/92/24 17/91/23 25/97/81 28/98/82
s off
f 10/129/83 14/130/84 29/131/85 30/132/86
f 14/209/87 13/210/88 31/211/89 29/212/90
s 3
f 13/90/22 2/89/21 32/95/91 31/96/92
s 1
f 2/184/4 10/183/3 30/189/93 32/190/94
s off
f 16/213/95 15/214/96 33/215/97 34/216/98
f 15/133/99 12/134/100 35/135/101 33/136/102
s 1
f 12/182/2 1/181/1 36/187/103 35/188/104
s off
f 1/119/105 16/115/106 34/123/107 36/124/108
f 7/110/109 20/109/110 38/113/111 37/114/112
f 20/109/113 16/115/114 39/116/115 38/113/116
f 16/115/117 1/119/118 40/120/119 39/116/120
f 1/119/121 3/121/122 41/122/123 40/120/124
f 3/121/125 5/117/126 42/118/127 41/122/128
f 5/117/129 7/110/130 37/114/131 42/118/132
s 5
f 37/169/133 38/170/134 44/171/135 43/172/136
f 38/170/134 39/173/137 45/174/138 44/171/135
f 39/173/137 40/175/139 46/176/140 45/174/138
s off
f 40/217/141 41/218/142 47/219/143 46/220/144
f 41/177/145 42/178/146 48/179/147 47/180/148
f 42/221/149 37/222/150 43/223/151 48/224/152
f 53/57/153 54/58/154 50/59/155 49/60/156
f 49/73/157 50/74/158 52/75/159 51/76/160
f 51/61/161 52/62/162 55/63/163 56/64/164
f 54//165 55//166 52//167 50//168
f 51/49/169 56/50/170 53/51/171 49/52/172
f 57/1/173 58/2/174 60/3/175 59/4/176
f 59/5/177 60/6/178 62/7/179 61/8/180
f 61/9/181 62/10/182 64/11/183 63/12/184
f 63/13/185 64/14/186 58/15/187 57/16/188
f 58/17/189 64/18/190 62/19/191 60/20/192
f 63/21/193 57/22/194 59/23/195 61/24/196
f 54/77/197 53/78/198 56/79/199 55/80/200
f 69/65/201 65/66/202 66/67/203 70/68/204
f 65/81/205 67/82/206 68/83/207 66/84/208
f 67/69/209 72/70/210 71/71/211 68/72/212
f 70//213 66//214 68//215 71//216
f 67/53/217 65/54/218 69/55/219 72/56/220
f 73/25/221 75/28/222 76/27/223 74/26/224
f 75/29/225 77/32/226 78/31/227 76/30/228
f 77/33/229 79/36/230 80/35/231 78/34/232
f 79/37/233 73/40/234 74/39/235 80/38/236
f 74/41/237 76/44/238 78/43/239 80/42/240
f 79/45/241 77/48/242 75/47/243 73/46/244
f 70/85/245 71/86/246 72/87/247 69/88/248
