# This file uses centimeters as units for non-parametric coordinates.

mtllib Lampshade.mtl
g default
v -1167.801550 239.366723 210.576742
v -1112.994312 239.366723 193.220705
v -1167.801550 240.722986 210.576742
v -1112.994312 240.722986 193.220705
v -1168.265423 240.722986 209.113157
v -1113.457680 240.722986 191.757101
v -1168.265423 239.366723 209.113157
v -1113.457680 239.366723 191.757101
v -1114.081340 17.766988 181.878438
v -1130.489191 17.766988 169.957501
v -1150.770184 17.766988 169.957501
v -1167.177891 17.766988 181.878438
v -1173.445245 17.766988 201.166921
v -1167.177891 17.766988 220.455424
v -1150.770184 17.766988 232.376361
v -1130.489191 17.766988 232.376361
v -1114.081340 17.766988 220.455424
v -1107.814129 17.766988 201.166921
v -1114.081340 20.686469 181.878438
v -1130.489191 20.686469 169.957501
v -1150.770184 20.686469 169.957501
v -1167.177891 20.686469 181.878438
v -1173.445245 20.686469 201.166921
v -1167.177891 20.686469 220.455424
v -1150.770184 20.686469 232.376361
v -1130.489191 20.686469 232.376361
v -1114.081340 20.686469 220.455424
v -1107.814129 20.686469 201.166921
v -1140.629687 17.766988 201.166922
v -1137.596471 20.686469 198.963204
v -1139.471123 20.686469 197.601233
v -1141.788251 20.686469 197.601233
v -1143.662759 20.686469 198.963204
v -1144.379063 20.686469 201.166922
v -1143.662759 20.686469 203.370639
v -1141.788251 20.686469 204.732611
v -1139.471123 20.686469 204.732611
v -1137.596471 20.686469 203.370639
v -1136.880528 20.686469 201.166922
v -1138.286553 252.938232 199.464376
v -1139.734794 252.938232 198.412162
v -1141.524942 252.938232 198.412126
v -1142.973183 252.938232 199.464357
v -1143.526530 252.938232 201.166921
v -1142.973183 252.938232 202.869539
v -1141.524942 252.938232 203.921735
v -1139.734794 252.938232 203.921681
v -1138.286552 252.938232 202.869467
v -1137.733205 252.938232 201.166921
v -1109.786181 208.276155 178.757674
v -1128.848312 208.276155 164.908126
v -1152.411063 208.276155 164.907658
v -1171.473554 208.276155 178.757206
v -1178.754814 208.276155 201.166850
v -1171.473554 208.276155 223.576692
v -1152.411063 208.276155 237.426258
v -1128.848312 208.276155 237.425555
v -1109.786181 208.276155 223.576026
v -1102.504561 208.276155 201.166850
v -1117.316198 261.634501 184.228687
v -1131.724767 261.634501 173.760349
v -1149.534824 261.634501 173.759971
v -1163.943536 261.634501 184.228326
v -1169.447184 261.634501 201.166868
v -1163.943536 261.634501 218.105571
v -1149.534824 261.634501 228.573891
v -1131.724767 261.634501 228.573350
v -1117.316198 261.634501 218.105067
v -1111.812551 261.634501 201.166868
v -1119.279821 261.634501 185.655279
v -1132.474786 261.634501 176.068652
v -1148.784949 261.634501 176.068292
v -1161.979770 261.634501 185.654955
v -1167.019689 261.634501 201.166904
v -1161.979770 261.634501 216.678942
v -1148.784949 261.634501 226.265552
v -1132.474786 261.634501 226.265065
v -1119.279821 261.634501 216.678474
v -1114.239542 261.634501 201.166868
v -1129.831960 208.276155 167.935003
v -1112.361000 208.276155 180.628400
v -1151.427775 208.276155 167.934552
v -1168.898735 208.276155 180.627967
v -1175.572185 208.276155 201.166868
v -1168.898735 208.276155 221.705912
v -1151.427775 208.276155 234.399309
v -1129.831960 208.276155 234.398661
v -1112.361000 208.276155 221.705318
v -1105.687550 208.276155 201.166868
vt 0.049730 0.052354
vt 0.055074 0.052354
vt 0.055074 0.057960
vt 0.049730 0.057960
vt 0.064836 0.052354
vt 0.070181 0.052354
vt 0.070181 0.057960
vt 0.064836 0.057960
vt 0.593877 0.083058
vt 0.649626 0.095730
vt 0.593877 0.095730
vt 0.147883 0.083058
vt 0.147883 0.095730
vt 0.203632 0.083058
vt 0.203632 0.095730
vt 0.259381 0.083058
vt 0.259381 0.095730
vt 0.315131 0.083058
vt 0.315131 0.095730
vt 0.370880 0.083058
vt 0.370880 0.095730
vt 0.426629 0.083058
vt 0.426629 0.095730
vt 0.482378 0.083058
vt 0.482378 0.095730
vt 0.538128 0.083058
vt 0.951675 0.030559
vt 0.961596 0.030559
vt 0.961597 0.947307
vt 0.951675 0.947307
vt 0.872299 0.030559
vt 0.873006 0.947307
vt 0.882221 0.030559
vt 0.882332 0.947307
vt 0.892143 0.030559
vt 0.892143 0.947307
vt 0.902066 0.030559
vt 0.902066 0.947307
vt 0.911987 0.030559
vt 0.911987 0.947307
vt 0.921909 0.030559
vt 0.921909 0.947307
vt 0.931831 0.030559
vt 0.931831 0.947307
vt 0.941753 0.030559
vt 0.941753 0.947307
vt 0.271951 0.659688
vt 0.349531 0.659688
vt 0.349531 0.942590
vt 0.271951 0.942590
vt 0.427112 0.659688
vt 0.427112 0.942590
vt 0.504691 0.659688
vt 0.504692 0.942590
vt 0.582273 0.659688
vt 0.582273 0.942590
vt 0.659855 0.659688
vt 0.659854 0.942590
vt 0.737433 0.942590
vt 0.039211 0.659688
vt 0.039210 0.942590
vt 0.116791 0.659688
vt 0.116791 0.942590
vt 0.194371 0.659688
vt 0.194371 0.942590
vt 0.349531 0.942590
vt 0.349531 0.659688
vt 0.271951 0.659688
vt 0.271951 0.942590
vt 0.427113 0.942590
vt 0.427113 0.659688
vt 0.504691 0.942590
vt 0.504691 0.659688
vt 0.582273 0.942590
vt 0.582273 0.659688
vt 0.659855 0.942590
vt 0.659854 0.659688
vt 0.737433 0.942590
vt 0.039211 0.942590
vt 0.039211 0.659688
vt 0.116791 0.942590
vt 0.116791 0.659688
vt 0.068674 0.262244
vt 0.068850 0.060821
vt 0.076223 0.060604
vt 0.075870 0.263321
vt 0.050340 0.262247
vt 0.050326 0.060824
vt 0.059587 0.060823
vt 0.059601 0.262246
vt 0.150024 0.324638
vt 0.196593 0.260542
vt 0.271942 0.364252
vt 0.271942 0.236060
vt 0.150024 0.403866
vt 0.347292 0.260542
vt 0.196593 0.467962
vt 0.393861 0.324638
vt 0.271942 0.492445
vt 0.393861 0.403866
vt 0.347292 0.467962
vt 0.347292 0.260542
vt 0.393861 0.324638
vt 0.285871 0.359726
vt 0.280551 0.352403
vt 0.393861 0.403866
vt 0.285871 0.368778
vt 0.271942 0.236060
vt 0.271942 0.349606
vt 0.347292 0.467962
vt 0.280551 0.376101
vt 0.196593 0.260542
vt 0.263334 0.352403
vt 0.271942 0.492445
vt 0.271942 0.378898
vt 0.150024 0.324638
vt 0.258013 0.359726
vt 0.196593 0.467962
vt 0.263334 0.376101
vt 0.150024 0.403866
vt 0.258013 0.368778
vt 0.714078 0.285233
vt 0.752303 0.337846
vt 0.743875 0.340584
vt 0.708869 0.292403
vt 0.752305 0.402879
vt 0.743876 0.400141
vt 0.652229 0.265136
vt 0.652229 0.273999
vt 0.714080 0.455492
vt 0.708870 0.448322
vt 0.590379 0.285233
vt 0.595588 0.292403
vt 0.652229 0.475589
vt 0.652229 0.466726
vt 0.552154 0.337846
vt 0.560583 0.340584
vt 0.590377 0.455492
vt 0.595586 0.448322
vt 0.552152 0.402879
vt 0.560581 0.400141
vt 0.517127 0.329369
vt 0.567699 0.259763
vt 0.574530 0.269165
vt 0.528180 0.332961
vt 0.649526 0.233176
vt 0.649526 0.244797
vt 0.517125 0.415409
vt 0.528178 0.411818
vt 0.731353 0.259763
vt 0.724522 0.269165
vt 0.567697 0.485015
vt 0.574528 0.475613
vt 0.781924 0.329369
vt 0.770872 0.332961
vt 0.649526 0.511603
vt 0.649526 0.499981
vt 0.781927 0.415409
vt 0.770874 0.411818
vt 0.731355 0.485015
vt 0.724524 0.475613
vt 0.070168 0.272553
vt 0.070168 0.279091
vt 0.066326 0.284379
vt 0.060109 0.286398
vt 0.053892 0.284378
vt 0.050050 0.279090
vt 0.050050 0.272553
vt 0.053892 0.267266
vt 0.060109 0.265245
vt 0.066326 0.267265
vt 0.042955 0.261177
vt 0.042955 0.061047
vt 0.970812 0.947307
vt 0.971518 0.030559
vt 0.815015 0.942590
vt 0.737433 0.659688
vt 0.815015 0.659688
vt 0.815015 0.942590
vt 0.815015 0.659688
vt 0.737434 0.659688
vt 0.194371 0.659688
vt 0.194371 0.942590
vt 0.538128 0.095730
vt 0.649626 0.083058
vt 0.705375 0.083058
vt 0.705375 0.095730
vn 0.301898 0.000000 0.953340
vn 0.301898 0.000000 0.953340
vn 0.301898 0.000000 0.953340
vn 0.301898 0.000000 0.953340
vn 0.000000 1.000000 -0.000013
vn 0.000000 1.000000 -0.000013
vn 0.000000 1.000000 -0.000013
vn 0.000000 1.000000 -0.000013
vn -0.301899 0.000000 -0.953340
vn -0.301899 0.000000 -0.953340
vn -0.301899 0.000000 -0.953340
vn -0.301899 0.000000 -0.953340
vn 0.000000 -1.000000 0.000007
vn 0.000000 -1.000000 0.000007
vn 0.000000 -1.000000 0.000007
vn 0.000000 -1.000000 0.000007
vn 0.953361 0.000000 -0.301832
vn 0.953361 0.000000 -0.301832
vn 0.953361 0.000000 -0.301832
vn 0.953361 0.000000 -0.301832
vn -0.953267 0.000000 0.302130
vn -0.953267 0.000000 0.302130
vn -0.953267 0.000000 0.302130
vn -0.953267 0.000000 0.302130
vn 0.587783 0.000000 -0.809019
vn 0.587783 0.000000 -0.809019
vn 0.587783 0.000000 -0.809019
vn 0.587783 0.000000 -0.809019
vn 0.000000 0.000000 -1.000000
vn 0.000000 0.000000 -1.000000
vn 0.000000 0.000000 -1.000000
vn 0.000000 0.000000 -1.000000
vn -0.587786 0.000000 -0.809016
vn -0.587786 0.000000 -0.809016
vn -0.587786 0.000000 -0.809016
vn -0.587786 0.000000 -0.809016
vn -0.951054 0.000000 -0.309023
vn -0.951054 0.000000 -0.309023
vn -0.951054 0.000000 -0.309023
vn -0.951054 0.000000 -0.309023
vn -0.951054 0.000000 0.309023
vn -0.951054 0.000000 0.309023
vn -0.951054 0.000000 0.309023
vn -0.951054 0.000000 0.309023
vn -0.587787 0.000000 0.809016
vn -0.587787 0.000000 0.809016
vn -0.587787 0.000000 0.809016
vn -0.587787 0.000000 0.809016
vn 0.000000 0.000000 1.000000
vn 0.000000 0.000000 1.000000
vn 0.000000 0.000000 1.000000
vn 0.000000 0.000000 1.000000
vn 0.587783 0.000000 0.809019
vn 0.587783 0.000000 0.809019
vn 0.587783 0.000000 0.809019
vn 0.587783 0.000000 0.809019
vn 0.951057 0.000000 0.309017
vn 0.951057 0.000000 0.309017
vn 0.951057 0.000000 0.309017
vn 0.951057 0.000000 0.309017
vn 0.951056 0.000000 -0.309017
vn 0.951056 0.000000 -0.309017
vn 0.951056 0.000000 -0.309017
vn 0.951056 0.000000 -0.309017
vn 0.000000 -1.000000 0.000000
vn 0.000000 -1.000000 -0.000000
vn 0.000000 -1.000000 -0.000000
vn 0.000000 -1.000000 0.000000
vn 0.000000 -1.000000 -0.000000
vn 0.000000 -1.000000 0.000000
vn 0.000000 -1.000000 0.000000
vn 0.000000 -1.000000 -0.000000
vn 0.000000 -1.000000 -0.000000
vn 0.000000 -1.000000 0.000000
vn 0.000000 -1.000000 0.000000
vn 0.000000 1.000000 0.000000
vn 0.000000 1.000000 0.000000
vn 0.000000 1.000000 0.000000
vn 0.000000 1.000000 0.000000
vn 0.000000 1.000000 -0.000000
vn 0.000000 1.000000 -0.000000
vn 0.000000 1.000000 -0.000000
vn 0.000000 1.000000 -0.000000
vn 0.000000 1.000000 -0.000000
vn 0.000000 1.000000 -0.000000
vn 0.000000 1.000000 -0.000000
vn 0.000000 1.000000 -0.000000
vn 0.000000 1.000000 0.000000
vn 0.000000 1.000000 0.000000
vn 0.000000 1.000000 0.000000
vn 0.000000 1.000000 0.000000
vn 0.000000 1.000000 0.000000
vn 0.000000 1.000000 0.000000
vn 0.000000 1.000000 0.000000
vn 0.000000 1.000000 0.000000
vn 0.000000 1.000000 0.000000
vn 0.000000 1.000000 0.000000
vn 0.000000 1.000000 0.000000
vn 0.000000 1.000000 0.000000
vn 0.000000 1.000000 0.000000
vn 0.000000 1.000000 0.000000
vn 0.000000 1.000000 0.000000
vn 0.000000 1.000000 0.000000
vn 0.000000 1.000000 0.000000
vn 0.000000 1.000000 0.000000
vn 0.000000 1.000000 0.000000
vn 0.000000 1.000000 0.000000
vn 0.000000 1.000000 -0.000000
vn 0.000000 1.000000 -0.000000
vn 0.000000 1.000000 -0.000000
vn 0.000000 1.000000 -0.000000
vn 0.000000 1.000000 0.000000
vn 0.000000 1.000000 0.000000
vn 0.000000 1.000000 0.000000
vn 0.000000 1.000000 0.000000
vn 0.809005 0.003672 -0.587790
vn 0.309017 0.003671 -0.951050
vn 0.309016 0.003671 -0.951050
vn 0.809005 0.003672 -0.587791
vn -0.309015 0.003671 -0.951050
vn -0.309016 0.003671 -0.951050
vn -0.808993 0.003670 -0.587806
vn -0.808993 0.003670 -0.587806
vn -0.999993 0.003671 0.000000
vn -0.999993 0.003671 0.000000
vn -0.808994 0.003670 0.587805
vn -0.808994 0.003670 0.587805
vn -0.309009 0.003671 0.951052
vn -0.309009 0.003671 0.951052
vn 0.309019 0.003671 0.951049
vn 0.309018 0.003671 0.951049
vn 0.809005 0.003672 0.587790
vn 0.809005 0.003672 0.587791
vn 0.999993 0.003672 -0.000000
vn 0.999993 0.003672 -0.000000
vn 0.796979 0.171845 -0.579045
vn 0.304427 0.171844 -0.936906
vn 0.304427 0.171844 -0.936907
vn 0.796979 0.171844 -0.579045
vn -0.304406 0.171845 -0.936913
vn -0.304406 0.171845 -0.936913
vn -0.796982 0.171844 -0.579042
vn -0.796983 0.171844 -0.579041
vn -0.985125 0.171842 -0.000000
vn -0.985125 0.171842 0.000000
vn -0.796983 0.171844 0.579040
vn -0.796984 0.171844 0.579039
vn -0.304402 0.171846 0.936914
vn -0.304401 0.171846 0.936915
vn 0.304431 0.171844 0.936905
vn 0.304430 0.171844 0.936906
vn 0.796979 0.171844 0.579046
vn 0.796979 0.171844 0.579045
vn 0.985124 0.171845 -0.000000
vn 0.985124 0.171845 -0.000000
vn 0.000000 1.000000 0.000003
vn 0.000000 1.000000 0.000003
vn 0.000000 1.000000 0.000003
vn 0.000000 1.000000 0.000003
vn 0.000000 1.000000 0.000000
vn 0.000000 1.000000 0.000000
vn 0.000000 1.000000 0.000000
vn 0.000000 1.000000 0.000000
vn 0.000000 1.000000 -0.000000
vn 0.000000 1.000000 -0.000000
vn 0.000000 1.000000 -0.000000
vn 0.000000 1.000000 -0.000000
vn 0.000000 1.000000 -0.000003
vn 0.000000 1.000000 -0.000003
vn 0.000000 1.000000 -0.000003
vn 0.000000 1.000000 -0.000003
vn 0.000000 1.000000 0.000003
vn 0.000000 1.000000 0.000003
vn 0.000000 1.000000 0.000003
vn 0.000000 1.000000 0.000003
vn 0.000000 1.000000 -0.000003
vn 0.000000 1.000000 -0.000003
vn 0.000000 1.000000 -0.000003
vn 0.000000 1.000000 -0.000003
vn 0.000000 1.000000 -0.000000
vn 0.000000 1.000000 -0.000000
vn 0.000000 1.000000 -0.000000
vn 0.000000 1.000000 -0.000000
vn 0.000000 1.000000 0.000000
vn 0.000000 1.000000 0.000000
vn 0.000000 1.000000 0.000000
vn 0.000000 1.000000 0.000000
vn 0.000000 1.000000 0.000001
vn 0.000000 1.000000 0.000001
vn 0.000000 1.000000 0.000001
vn 0.000000 1.000000 0.000001
vn 0.000000 1.000000 -0.000003
vn 0.000000 1.000000 -0.000003
vn 0.000000 1.000000 -0.000003
vn 0.000000 1.000000 -0.000003
vn 0.000000 -1.000000 -0.000002
vn 0.000000 -1.000000 -0.000002
vn 0.000000 -1.000000 -0.000002
vn 0.000000 -1.000000 -0.000002
vn 0.000000 -1.000000 -0.000001
vn 0.000000 -1.000000 -0.000001
vn 0.000000 -1.000000 -0.000001
vn 0.000000 -1.000000 -0.000001
vn 0.000000 -1.000000 0.000002
vn 0.000000 -1.000000 0.000002
vn 0.000000 -1.000000 0.000002
vn 0.000000 -1.000000 0.000002
vn 0.000000 -1.000000 -0.000001
vn 0.000000 -1.000000 -0.000001
vn 0.000000 -1.000000 -0.000001
vn 0.000000 -1.000000 -0.000001
vn 0.000000 -1.000000 0.000001
vn 0.000000 -1.000000 0.000001
vn 0.000000 -1.000000 0.000001
vn 0.000000 -1.000000 0.000001
vn 0.000000 -1.000000 -0.000001
vn 0.000000 -1.000000 -0.000001
vn 0.000000 -1.000000 -0.000001
vn 0.000000 -1.000000 -0.000001
vn 0.000000 -1.000000 -0.000002
vn 0.000000 -1.000000 -0.000002
vn 0.000000 -1.000000 -0.000002
vn 0.000000 -1.000000 -0.000002
vn 0.000000 -1.000000 0.000003
vn 0.000000 -1.000000 0.000003
vn 0.000000 -1.000000 0.000003
vn 0.000000 -1.000000 0.000003
vn 0.000000 -1.000000 0.000000
vn 0.000000 -1.000000 0.000000
vn 0.000000 -1.000000 0.000000
vn 0.000000 -1.000000 0.000000
vn 0.000000 -1.000000 0.000001
vn 0.000000 -1.000000 0.000001
vn 0.000000 -1.000000 0.000001
vn 0.000000 -1.000000 0.000001
vn -0.305129 -0.158259 0.939069
vn -0.305128 -0.158259 0.939069
vn -0.798819 -0.158258 0.580381
vn -0.798819 -0.158258 0.580381
vn 0.305109 -0.158261 0.939075
vn 0.305110 -0.158261 0.939075
vn 0.798826 -0.158262 0.580370
vn 0.798826 -0.158262 0.580371
vn 0.987397 -0.158262 -0.000000
vn 0.987397 -0.158262 0.000000
vn 0.798827 -0.158262 -0.580369
vn 0.798827 -0.158262 -0.580370
vn 0.305104 -0.158261 -0.939077
vn 0.305105 -0.158261 -0.939076
vn -0.305132 -0.158258 -0.939068
vn -0.305131 -0.158258 -0.939068
vn -0.798819 -0.158257 -0.580382
vn -0.798819 -0.158257 -0.580382
vn -0.987398 -0.158257 -0.000000
vn -0.987398 -0.158257 -0.000000
vn 0.000000 1.000000 0.000000
vn 0.000000 1.000000 0.000000
vn 0.000000 1.000000 0.000000
vn 0.000000 1.000000 0.000000
vn 0.000000 1.000000 0.000000
vn 0.000000 1.000000 0.000000
vn 0.000000 1.000000 0.000000
vn 0.000000 1.000000 0.000000
vn 0.000000 1.000000 0.000000
vn 0.000000 1.000000 0.000000
s off
g Lampshade
usemtl lambert4SG
f 1/90/1 2/89/2 4/84/3 3/83/4
f 3/83/5 4/84/6 6/85/7 5/86/8
f 5/172/9 6/173/10 8/88/11 7/87/12
f 7/87/13 8/88/14 2/89/15 1/90/16
f 2/1/17 8/2/18 6/3/19 4/4/20
f 7/5/21 1/6/22 3/7/23 5/8/24
usemtl initialShadingGroup
f 9/9/25 10/185/26 20/10/27 19/11/28
f 10/185/29 11/186/30 21/187/31 20/10/32
f 11/12/33 12/14/34 22/15/35 21/13/36
f 12/14/37 13/16/38 23/17/39 22/15/40
f 13/16/41 14/18/42 24/19/43 23/17/44
f 14/18/45 15/20/46 25/21/47 24/19/48
f 15/20/49 16/22/50 26/23/51 25/21/52
f 16/22/53 17/24/54 27/25/55 26/23/56
f 17/24/57 18/26/58 28/184/59 27/25/60
f 18/26/61 9/9/62 19/11/63 28/184/64
s 1
f 10/91/65 9/92/66 29/93/67
f 11/95/68 10/91/65 29/93/67
f 12/97/69 11/95/68 29/93/67
f 13/99/70 12/97/69 29/93/67
f 14/101/71 13/99/70 29/93/67
f 15/100/72 14/101/71 29/93/67
f 16/98/73 15/100/72 29/93/67
f 17/96/74 16/98/73 29/93/67
f 18/94/75 17/96/74 29/93/67
f 9/92/66 18/94/75 29/93/67
s off
f 19/102/76 20/103/77 31/104/78 30/105/79
f 20/103/80 21/106/81 32/107/82 31/104/83
f 21/106/84 22/110/85 33/111/86 32/107/87
f 22/110/88 23/114/89 34/115/90 33/111/91
f 23/114/92 24/118/93 35/119/94 34/115/95
f 24/118/96 25/120/97 36/121/98 35/119/99
f 25/120/100 26/116/101 37/117/102 36/121/103
f 26/116/104 27/112/105 38/113/106 37/117/107
f 27/112/108 28/108/109 39/109/110 38/113/111
f 28/108/112 19/102/113 30/105/114 39/109/115
s 2
f 30/27/116 31/28/117 41/29/118 40/30/119
f 31/28/117 32/175/120 42/174/121 41/29/118
f 32/31/120 33/33/122 43/34/123 42/32/121
f 33/33/122 34/35/124 44/36/125 43/34/123
f 34/35/124 35/37/126 45/38/127 44/36/125
f 35/37/126 36/39/128 46/40/129 45/38/127
f 36/39/128 37/41/130 47/42/131 46/40/129
f 37/41/130 38/43/132 48/44/133 47/42/131
f 38/43/132 39/45/134 49/46/135 48/44/133
f 39/45/134 30/27/116 40/30/119 49/46/135
s 3
usemtl lambert4SG
f 50/47/136 51/48/137 61/49/138 60/50/139
f 51/48/137 52/51/140 62/52/141 61/49/138
f 52/51/140 53/53/142 63/54/143 62/52/141
f 53/53/142 54/55/144 64/56/145 63/54/143
f 54/55/144 55/57/146 65/58/147 64/56/145
f 55/57/146 56/181/148 66/59/149 65/58/147
f 56/181/148 57/180/150 67/179/151 66/59/149
f 57/60/150 58/62/152 68/63/153 67/61/151
f 58/62/152 59/64/154 69/65/155 68/63/153
f 59/64/154 50/47/136 60/50/139 69/65/155
s off
f 60/122/156 61/123/157 71/124/158 70/125/159
f 61/123/160 62/126/161 72/127/162 71/124/163
f 62/126/164 63/130/165 73/131/166 72/127/167
f 63/130/168 64/134/169 74/135/170 73/131/171
f 64/134/172 65/138/173 75/139/174 74/135/175
f 65/138/176 66/140/177 76/141/178 75/139/179
f 66/140/180 67/136/181 77/137/182 76/141/183
f 67/136/184 68/132/185 78/133/186 77/137/187
f 68/132/188 69/128/189 79/129/190 78/133/191
f 69/128/192 60/122/193 70/125/194 79/129/195
f 51/142/196 50/143/197 81/144/198 80/145/199
f 52/148/200 51/142/201 80/145/202 82/149/203
f 53/152/204 52/148/205 82/149/206 83/153/207
f 54/156/208 53/152/209 83/153/210 84/157/211
f 55/160/212 54/156/213 84/157/214 85/161/215
f 56/158/216 55/160/217 85/161/218 86/159/219
f 57/154/220 56/158/221 86/159/222 87/155/223
f 58/150/224 57/154/225 87/155/226 88/151/227
f 59/146/228 58/150/229 88/151/230 89/147/231
f 50/143/232 59/146/233 89/147/234 81/144/235
s 4
f 71/66/236 80/67/237 81/68/238 70/69/239
f 72/70/240 82/71/241 80/67/237 71/66/236
f 73/72/242 83/73/243 82/71/241 72/70/240
f 74/74/244 84/75/245 83/73/243 73/72/242
f 75/76/246 85/77/247 84/75/245 74/74/244
f 76/78/248 86/177/249 85/77/247 75/76/246
f 77/176/250 87/178/251 86/177/249 76/78/248
f 78/81/252 88/82/253 87/80/251 77/79/250
f 79/183/254 89/182/255 88/82/253 78/81/252
f 70/69/239 81/68/238 89/182/255 79/183/254
s off
f 41/162/256 42/163/257 43/164/258 44/165/259 45/166/260 46/167/261 47/168/262 48/169/263 49/170/264 40/171/265
