# This file uses centimeters as units for non-parametric coordinates.

mtllib Counter.mtl
g default
v 1173.279182 30.057600 1088.829016
v 1173.279182 30.057600 1208.438428
v 1173.279182 104.628317 1088.829016
v 1173.279182 104.395828 1208.438428
v 1173.279182 104.512073 1148.361710
v 1173.279182 30.057600 1148.361710
v 1173.279182 104.453947 1149.848067
v 1173.279182 30.057600 1149.848067
v 1169.997991 104.453947 1149.848067
v 1169.997991 30.057600 1149.848067
v 1169.997991 30.057600 1208.438428
v 1169.997991 104.395828 1208.438428
v 1169.997991 30.057600 1088.829016
v 1169.997991 30.057600 1148.361710
v 1169.997991 104.512073 1148.361710
v 1169.997991 104.628317 1088.829016
v 1173.279182 123.143137 1086.676558
v 1265.868231 123.143137 1086.676558
v 1265.868231 112.913950 1086.676558
v 1173.279182 112.913950 1086.676558
v 1165.760395 112.913950 1086.676558
v 1165.760395 123.143137 1086.676558
v 1265.868231 20.851339 1086.676540
v 1173.279182 20.851339 1086.676540
v 1173.279182 30.057600 1086.676540
v 1173.279182 104.628317 1086.676540
v 1173.279182 112.913950 1210.590922
v 1173.279182 123.143137 1210.590922
v 1165.760395 123.143137 1210.590922
v 1165.760395 112.913950 1210.590922
v 1265.868231 112.913950 1210.590922
v 1265.868231 123.143137 1210.590922
v 1265.868231 20.851339 1210.590904
v 1173.279182 104.395828 1210.590904
v 1173.279182 30.057600 1210.590904
v 1173.279182 20.851339 1210.590904
vt 0.478369 0.413430
vt 0.445902 0.413430
vt 0.445902 0.077069
vt 0.478369 0.077069
vt 0.512040 0.076577
vt 0.512040 0.412938
vt 0.479572 0.412938
vt 0.479572 0.076577
vt 0.442959 0.077069
vt 0.442959 0.401745
vt 0.106598 0.401745
vt 0.106598 0.077069
vt 0.442959 0.428111
vt 0.106598 0.428111
vt 0.035661 0.401745
vt 0.035661 0.077069
vt 0.068129 0.077069
vt 0.068129 0.401745
vt 0.068129 0.428111
vt 0.035661 0.428111
vt 0.071176 0.401745
vt 0.103644 0.401745
vt 0.103644 0.428111
vt 0.071176 0.428111
vt 0.071176 0.077069
vt 0.103644 0.077069
vt 0.480179 0.943596
vt 0.480179 0.553441
vt 0.742956 0.553441
vt 0.742956 0.943292
vt 0.162186 0.553441
vt 0.429190 0.553441
vt 0.429190 0.943901
vt 0.162186 0.944511
vt 0.844296 0.642451
vt 0.844296 0.905228
vt 0.825285 0.905228
vt 0.825285 0.642451
vt 0.821406 0.642451
vt 0.821406 0.905228
vt 0.802396 0.905228
vt 0.802396 0.642451
vt 0.890074 0.642146
vt 0.890074 0.909150
vt 0.871063 0.909150
vt 0.871063 0.642146
vt 0.867185 0.642451
vt 0.867185 0.909455
vt 0.848174 0.909455
vt 0.848174 0.642451
vt 0.766544 0.553441
vt 0.766544 0.943596
vt 0.747534 0.943596
vt 0.747534 0.553441
vt 0.789953 0.553441
vt 0.789953 0.943292
vt 0.770943 0.943292
vt 0.770943 0.553441
vt 0.475780 0.553441
vt 0.475780 0.943901
vt 0.456770 0.943901
vt 0.456770 0.553441
vt 0.452372 0.553441
vt 0.452372 0.944511
vt 0.433361 0.944511
vt 0.433361 0.553441
vt 0.715412 0.251833
vt 0.705277 0.251833
vt 0.705277 0.249581
vt 0.705135 0.187302
vt 0.705063 0.185747
vt 0.704992 0.124454
vt 0.704992 0.122202
vt 0.715412 0.122202
vt 0.614059 0.249581
vt 0.614059 0.251833
vt 0.614059 0.187302
vt 0.614059 0.185747
vt 0.614059 0.124454
vt 0.614059 0.122202
vt 0.602798 0.251833
vt 0.602798 0.122202
vt 0.842863 0.122202
vt 0.842863 0.251833
vt 0.730248 0.251833
vt 0.730248 0.122202
vt 0.717854 0.122202
vt 0.728016 0.122202
vt 0.728016 0.251833
vt 0.717854 0.251833
vt 0.954683 0.253243
vt 0.954683 0.382874
vt 0.829556 0.382874
vt 0.829556 0.253243
vt 0.714774 0.253243
vt 0.827388 0.253243
vt 0.827388 0.378370
vt 0.816969 0.378370
vt 0.726035 0.378370
vt 0.714774 0.378370
vt 0.602798 0.383192
vt 0.602798 0.258065
vt 0.715412 0.258065
vt 0.715412 0.383192
vt 0.704151 0.383192
vt 0.612933 0.383192
vn 0.000000 0.000000 -1.000000
vn 0.000000 0.000000 -1.000000
vn 0.000000 0.000000 -1.000000
vn 0.000000 0.000000 -1.000000
vn -1.000000 0.000000 0.000000
vn -1.000000 0.000000 0.000000
vn -1.000000 0.000000 0.000000
vn -1.000000 0.000000 0.000000
vn -1.000000 0.000001 0.000000
vn -1.000000 0.000001 0.000000
vn -1.000000 0.000001 0.000000
vn -1.000000 0.000000 0.000000
vn -1.000000 0.000000 0.000000
vn -1.000000 0.000001 0.000000
vn -1.000000 0.000001 0.000000
vn -1.000000 0.000001 0.000000
vn -0.000000 -0.000000 1.000000
vn 0.000000 0.000000 1.000000
vn 0.000000 0.000000 1.000000
vn 0.000000 0.000000 1.000000
vn 0.000000 0.000000 -1.000000
vn 0.000000 0.000000 -1.000000
vn -1.000000 -0.000000 0.000000
vn -1.000000 -0.000000 0.000000
vn -1.000000 -0.000000 0.000000
vn -1.000000 -0.000000 0.000000
vn -1.000000 -0.000000 0.000000
vn -1.000000 -0.000000 0.000000
vn -1.000000 -0.000000 0.000000
vn -1.000000 -0.000000 0.000000
vn -1.000000 0.000000 0.000000
vn -1.000000 0.000000 0.000000
vn -1.000000 0.000000 0.000000
vn -1.000000 0.000000 0.000000
vn -0.000000 -0.000000 1.000000
vn 0.000000 0.000000 1.000000
vn -1.000000 0.000000 0.000000
vn -1.000000 0.000000 0.000000
vn -1.000000 0.000000 0.000000
vn -1.000000 0.000000 0.000000
vn 0.000000 0.000000 -1.000000
vn 0.000000 0.000000 -1.000000
vn 0.000000 0.000000 -1.000000
vn 0.000000 0.000000 -1.000000
vn 0.000000 -1.000000 0.000000
vn 0.000000 -1.000000 0.000000
vn 0.000000 -1.000000 0.000000
vn 0.000000 -1.000000 0.000000
vn 0.000000 0.000000 1.000000
vn 0.000000 0.000000 1.000000
vn 0.000000 0.000000 1.000000
vn 0.000000 0.000000 1.000000
vn 0.000000 1.000000 0.000992
vn 0.000000 1.000000 0.000992
vn 0.000000 1.000000 0.000992
vn 0.000000 1.000000 0.000992
vn 0.000000 -1.000000 0.000000
vn 0.000000 -1.000000 0.000000
vn 0.000000 -1.000000 0.000000
vn 0.000000 -1.000000 0.000000
vn 0.000000 0.000000 1.000000
vn 0.000000 0.000000 1.000000
vn 0.000000 0.000000 1.000000
vn 0.000000 0.000000 1.000000
vn 0.000000 0.999998 0.001953
vn 0.000000 0.999998 0.001953
vn 0.000000 0.999998 0.001953
vn 0.000000 0.999998 0.001953
vn 0.000000 0.000000 -1.000000
vn 0.000000 0.000000 -1.000000
vn 0.000000 0.000000 -1.000000
vn 0.000000 0.000000 -1.000000
vn -0.000000 -0.000000 1.000000
vn -0.000000 -0.000000 1.000000
vn -0.000000 -0.000000 1.000000
vn -0.000000 -0.000000 1.000000
vn 0.000000 0.000000 -1.000000
vn 0.000000 0.000000 -1.000000
vn 0.000000 0.000000 -1.000000
vn 0.000000 0.000000 -1.000000
vn 0.000000 1.000000 0.000000
vn 0.000000 1.000000 0.000000
vn 0.000000 1.000000 0.000000
vn 0.000000 1.000000 0.000000
vn 0.000000 -1.000000 0.000000
vn 0.000000 -1.000000 0.000000
vn 0.000000 -1.000000 0.000000
vn 0.000000 -1.000000 0.000000
vn -1.000000 0.000000 0.000000
vn -1.000000 0.000000 0.000000
vn -1.000000 0.000000 0.000000
vn -1.000000 0.000000 0.000000
vn 0.000000 1.000000 0.000000
vn 0.000000 1.000000 0.000000
vn 0.000000 1.000000 0.000000
vn 0.000000 1.000000 0.000000
vn 1.000000 0.000000 0.000000
vn 1.000000 0.000000 0.000000
vn 1.000000 0.000000 0.000000
vn 1.000000 0.000000 0.000000
vn 1.000000 0.000000 0.000000
vn 1.000000 0.000000 0.000000
vn 1.000000 0.000000 0.000000
vn 1.000000 0.000000 0.000000
vn -1.000000 0.000000 0.000000
vn -1.000000 0.000000 0.000000
vn -1.000000 0.000000 0.000000
vn -1.000000 0.000000 0.000000
vn 0.000000 -1.000000 0.000000
vn 0.000000 -1.000000 0.000000
vn 0.000000 -1.000000 0.000000
vn 0.000000 -1.000000 0.000000
s 1
g Counter2
usemtl lambert56SG
f 17/15/1 18/16/2 19/17/3 20/18/4
s off
f 22/1/5 21/2/6 30/3/7 29/4/8
s 2
f 20/67/9 26/68/10 3/69/11 5/70/12 7/71/13 4/72/14 34/73/15 27/74/16
s 3
f 27/21/17 28/22/18 29/23/19 30/24/20
s 1
f 17/15/1 20/18/4 21/19/21 22/20/22
s 2
f 2/79/23 8/78/24 6/77/25 1/75/26 25/76/27 24/81/28 36/82/29 35/80/30
s off
f 9/27/31 10/28/32 11/29/33 12/30/34
s 3
f 27/21/17 31/25/35 32/26/36 28/22/18
s off
f 13/31/37 14/32/38 15/33/39 16/34/40
s 2
f 5/70/12 6/77/25 8/78/24 7/71/13
s off
f 7/51/41 8/52/42 10/53/43 9/54/44
f 8/35/45 2/36/46 11/37/47 10/38/48
f 2/55/49 4/56/50 12/57/51 11/58/52
f 4/39/53 7/40/54 9/41/55 12/42/56
f 1/43/57 6/44/58 14/45/59 13/46/60
f 6/59/61 5/60/62 15/61/63 14/62/64
f 5/47/65 3/48/66 16/49/67 15/50/68
f 3/63/69 1/64/70 13/65/71 16/66/72
s 3
f 33/95/73 31/96/35 27/97/17 34/98/74 35/99/75 36/100/76
s 1
f 20/101/4 19/102/3 23/103/77 24/104/78 25/105/79 26/106/80
s off
f 18/9/81 17/10/82 28/11/83 32/12/84
f 21/87/85 20/88/86 27/89/87 30/90/88
f 1/75/89 3/69/90 26/68/91 25/76/92
f 22/13/93 29/14/94 28/11/95 17/10/96
f 18/5/97 32/6/98 31/7/99 19/8/100
f 19/83/101 31/84/102 33/85/103 23/86/104
f 4/72/105 2/79/106 35/80/107 34/73/108
f 23/91/109 33/92/110 36/93/111 24/94/112
