# This file uses centimeters as units for non-parametric coordinates.

mtllib Fridge.mtl
g default
v 1054.765265 21.055304 1358.586559
v 1054.765265 21.055304 1458.430521
v 1054.765265 261.528603 1358.586559
v 1054.765265 261.528603 1458.430521
v 1165.530723 261.528603 1358.586559
v 1165.530723 261.528603 1458.430521
v 1165.530723 21.055304 1358.586559
v 1165.530723 21.055304 1458.430521
v 1058.975437 261.528603 1358.586559
v 1161.320551 261.528603 1358.586559
v 1161.320551 21.055304 1358.586559
v 1058.975437 21.055304 1358.586559
v 1161.320551 256.675600 1358.586559
v 1161.320551 25.908316 1358.586559
v 1058.975437 25.908316 1358.586559
v 1058.975437 256.675600 1358.586559
v 1161.320551 193.718641 1358.586559
v 1161.320551 191.051790 1358.586559
v 1058.975437 191.051808 1358.586559
v 1058.975437 193.718641 1358.586559
v 1153.858941 256.675581 1358.586559
v 1146.036646 256.675600 1358.586559
v 1153.858941 193.718641 1358.586559
v 1146.036646 193.718641 1358.586559
v 1146.036646 191.051790 1358.586559
v 1153.858941 191.051790 1358.586559
v 1146.036646 25.908316 1358.586559
v 1153.858941 25.908316 1358.586559
v 1153.858941 256.675581 1355.575861
v 1153.858941 193.718641 1355.575861
v 1161.320551 256.675600 1355.575861
v 1161.320551 193.718641 1355.575861
v 1146.036646 256.675600 1355.575861
v 1058.975437 256.675600 1355.575861
v 1146.036646 193.718641 1355.575861
v 1058.975437 193.718641 1355.575861
v 1153.858941 191.051790 1355.575861
v 1153.858941 25.908316 1355.575861
v 1161.320551 191.051790 1355.575861
v 1161.320551 25.908316 1355.575861
v 1058.975437 191.051808 1355.575861
v 1146.036646 191.051790 1355.575861
v 1146.036646 25.908316 1355.575861
v 1058.975437 25.908316 1355.575861
v 1146.036646 193.718641 1351.626200
v 1146.036646 256.675600 1351.626200
v 1153.858941 256.675581 1351.626200
v 1153.858941 193.718641 1351.626200
v 1146.036646 25.908316 1351.626200
v 1146.036646 191.051790 1351.626200
v 1153.858941 191.051790 1351.626200
v 1153.858941 25.908316 1351.626200
vt 0.580892 0.838054
vt 0.718406 0.838054
vt 0.718406 0.975568
vt 0.580892 0.975568
vt 0.726694 0.975568
vt 0.726694 0.972793
vt 0.735958 0.972793
vt 0.745669 0.972793
vt 0.853755 0.972793
vt 0.853755 0.975568
vt 0.721467 0.838054
vt 0.726694 0.838054
vt 0.726694 0.840830
vt 0.726694 0.935266
vt 0.726694 0.936792
vt 0.721467 0.975568
vt 0.853755 0.936792
vt 0.853755 0.935266
vt 0.853755 0.840830
vt 0.853755 0.838054
vt 0.858981 0.838054
vt 0.858981 0.975568
vt 0.745669 0.840830
vt 0.735958 0.840830
vt 0.745669 0.936792
vt 0.735958 0.936792
vt 0.735958 0.935266
vt 0.745669 0.935266
vt 0.721467 0.697378
vt 0.721467 0.559864
vt 0.858981 0.559864
vt 0.858981 0.697378
vt 0.853755 0.697378
vt 0.726694 0.697378
vt 0.697949 0.836473
vt 0.697949 0.698959
vt 0.835463 0.698959
vt 0.835463 0.836473
vt 0.830237 0.836473
vt 0.703176 0.836473
vt 0.580892 0.697378
vt 0.580892 0.559864
vt 0.718406 0.559864
vt 0.718406 0.697378
vt 0.837893 0.698959
vt 0.975408 0.698959
vt 0.975408 0.836473
vt 0.837893 0.836473
vt 0.910859 0.342717
vt 0.910859 0.447133
vt 0.883992 0.447133
vt 0.883992 0.342717
vt 0.533832 0.066831
vt 0.533832 0.380313
vt 0.429415 0.380313
vt 0.429415 0.066831
vt 0.904278 0.066831
vt 0.904278 0.340727
vt 0.877411 0.340727
vt 0.877411 0.066831
vt 0.811254 0.066831
vt 0.811254 0.380313
vt 0.537358 0.380313
vt 0.537358 0.066831
vt 0.850763 0.382302
vt 0.850763 0.409169
vt 0.838737 0.409169
vt 0.838737 0.382302
vt 0.835678 0.382302
vt 0.835678 0.409169
vt 0.823652 0.409169
vt 0.823652 0.382302
vt 0.827257 0.066831
vt 0.827257 0.380313
vt 0.815230 0.380313
vt 0.815230 0.066831
vt 0.842802 0.066831
vt 0.842802 0.380313
vt 0.830775 0.380313
vt 0.830775 0.066831
vt 0.820593 0.382302
vt 0.820593 0.409169
vt 0.808567 0.409169
vt 0.808567 0.382302
vt 0.805508 0.382302
vt 0.805508 0.409169
vt 0.793482 0.409169
vt 0.793482 0.382302
vt 0.858347 0.066831
vt 0.858347 0.380313
vt 0.846321 0.380313
vt 0.846321 0.066831
vt 0.873893 0.066831
vt 0.873893 0.380313
vt 0.861866 0.380313
vt 0.861866 0.066831
vt 0.880933 0.382302
vt 0.880933 0.486718
vt 0.868907 0.486718
vt 0.868907 0.382302
vt 0.865848 0.382302
vt 0.865848 0.486719
vt 0.853822 0.486719
vt 0.853822 0.382302
vt 0.919557 0.066831
vt 0.919557 0.340727
vt 0.907530 0.340727
vt 0.907530 0.066831
vt 0.925944 0.342717
vt 0.925944 0.616613
vt 0.913917 0.616613
vt 0.913917 0.342717
vt 0.276535 0.568776
vt 0.276535 0.939974
vt 0.245963 0.939974
vt 0.245963 0.568776
vt 0.142074 0.006692
vt 0.142074 0.980388
vt 0.111502 0.980388
vt 0.111502 0.006692
vt 0.372655 0.568776
vt 0.372655 0.668904
vt 0.342477 0.668904
vt 0.342477 0.568776
vt 0.404646 0.568776
vt 0.404646 0.668905
vt 0.374467 0.668905
vt 0.374467 0.568776
vt 0.426493 0.672541
vt 0.426493 0.772670
vt 0.396315 0.772670
vt 0.396315 0.672541
vt 0.394608 0.672542
vt 0.394608 0.772671
vt 0.364429 0.772671
vt 0.364429 0.672542
vt 0.308674 0.568776
vt 0.308674 0.939974
vt 0.278496 0.939974
vt 0.278496 0.568776
vt 0.340665 0.568776
vt 0.340665 0.939973
vt 0.310486 0.939973
vt 0.310486 0.568776
vt 0.174268 0.006692
vt 0.174268 0.980388
vt 0.144089 0.980388
vt 0.144089 0.006692
vt 0.206258 0.006692
vt 0.206258 0.980387
vt 0.176080 0.980387
vt 0.176080 0.006692
vn -1.000000 0.000000 0.000000
vn -1.000000 0.000000 0.000000
vn -1.000000 0.000000 0.000000
vn -1.000000 0.000000 0.000000
vn 0.000000 1.000000 0.000000
vn 0.000000 1.000000 0.000000
vn 0.000000 1.000000 0.000000
vn 0.000000 1.000000 0.000000
vn 0.000000 1.000000 0.000000
vn 0.000000 1.000000 0.000000
vn 1.000000 0.000000 0.000000
vn 1.000000 0.000000 0.000000
vn 1.000000 0.000000 0.000000
vn 1.000000 0.000000 0.000000
vn 0.000000 -1.000000 0.000000
vn 0.000000 -1.000000 0.000000
vn 0.000000 -1.000000 0.000000
vn 0.000000 -1.000000 0.000000
vn 0.000000 -1.000000 0.000000
vn 0.000000 -1.000000 0.000000
vn 0.000000 0.000000 1.000000
vn 0.000000 0.000000 1.000000
vn 0.000000 0.000000 1.000000
vn 0.000000 0.000000 1.000000
vn -0.000000 0.000000 -1.000000
vn -0.000000 0.000000 -1.000000
vn -0.000000 0.000000 -1.000000
vn -0.000000 0.000000 -1.000000
vn -0.000000 0.000000 -1.000000
vn -0.000000 0.000000 -1.000000
vn -0.000000 0.000000 -1.000000
vn -0.000000 0.000000 -1.000000
vn -0.000000 0.000000 -1.000000
vn -0.000000 0.000000 -1.000000
vn -0.000000 0.000000 -1.000000
vn -0.000000 0.000000 -1.000000
vn -0.000000 0.000000 -1.000000
vn -0.000000 0.000000 -1.000000
vn -0.000000 0.000000 -1.000000
vn -0.000000 0.000000 -1.000000
vn -0.000000 0.000000 -1.000000
vn -0.000000 0.000000 -1.000000
vn -0.000000 0.000000 -1.000000
vn -0.000000 0.000000 -1.000000
vn -0.000000 0.000000 -1.000000
vn -0.000000 0.000000 -1.000000
vn -0.000000 0.000000 -1.000000
vn -0.000000 0.000000 -1.000000
vn -0.000000 0.000000 -1.000000
vn -0.000000 0.000000 -1.000000
vn -0.000000 0.000000 -1.000000
vn -0.000000 0.000000 -1.000000
vn -0.000000 0.000001 -1.000000
vn -0.000000 0.000001 -1.000000
vn -0.000000 0.000001 -1.000000
vn -0.000000 0.000001 -1.000000
vn -0.000000 0.000000 -1.000000
vn -0.000000 0.000000 -1.000000
vn -0.000000 0.000000 -1.000000
vn -0.000000 0.000000 -1.000000
vn -0.000000 0.000000 -1.000000
vn -0.000000 0.000000 -1.000000
vn -0.000000 0.000000 -1.000000
vn -0.000000 0.000000 -1.000000
vn -0.000000 0.000000 -1.000000
vn -0.000000 0.000000 -1.000000
vn -0.000000 0.000000 -1.000000
vn -0.000000 0.000000 -1.000000
vn -0.000000 0.000000 -1.000000
vn -0.000000 0.000000 -1.000000
vn -0.000000 0.000000 -1.000000
vn -0.000000 0.000000 -1.000000
vn -1.000000 0.000000 0.000000
vn -1.000000 0.000000 0.000000
vn -1.000000 0.000000 0.000000
vn -1.000000 0.000000 0.000000
vn -0.000002 1.000000 0.000000
vn -0.000002 1.000000 0.000000
vn -0.000002 1.000000 0.000000
vn -0.000002 1.000000 0.000000
vn 1.000000 0.000000 0.000000
vn 1.000000 0.000000 0.000000
vn 1.000000 0.000000 0.000000
vn 1.000000 0.000000 0.000000
vn 0.000000 -1.000000 0.000000
vn 0.000000 -1.000000 0.000000
vn 0.000000 -1.000000 0.000000
vn 0.000000 -1.000000 0.000000
vn 0.000000 1.000000 0.000000
vn 0.000000 1.000000 0.000000
vn 0.000000 1.000000 0.000000
vn 0.000000 1.000000 0.000000
vn 1.000000 0.000000 0.000000
vn 1.000000 0.000000 0.000000
vn 1.000000 0.000000 0.000000
vn 1.000000 0.000000 0.000000
vn 0.000000 -1.000000 0.000000
vn 0.000000 -1.000000 0.000000
vn 0.000000 -1.000000 0.000000
vn 0.000000 -1.000000 0.000000
vn -1.000000 0.000000 0.000000
vn -1.000000 0.000000 0.000000
vn -1.000000 0.000000 0.000000
vn -1.000000 0.000000 0.000000
vn -1.000000 0.000000 0.000000
vn -1.000000 0.000000 0.000000
vn -1.000000 0.000000 0.000000
vn -1.000000 0.000000 0.000000
vn 0.000000 1.000000 0.000000
vn 0.000000 1.000000 0.000000
vn 0.000000 1.000000 0.000000
vn 0.000000 1.000000 0.000000
vn 1.000000 0.000000 0.000000
vn 1.000000 0.000000 0.000000
vn 1.000000 0.000000 0.000000
vn 1.000000 0.000000 0.000000
vn 0.000000 -1.000000 0.000000
vn 0.000000 -1.000000 0.000000
vn 0.000000 -1.000000 0.000000
vn 0.000000 -1.000000 0.000000
vn 0.000000 1.000000 0.000000
vn 0.000000 1.000000 0.000000
vn 0.000000 1.000000 0.000000
vn 0.000000 1.000000 0.000000
vn 1.000000 0.000000 0.000000
vn 1.000000 0.000000 0.000000
vn 1.000000 0.000000 0.000000
vn 1.000000 0.000000 0.000000
vn 0.000000 -1.000000 0.000000
vn 0.000000 -1.000000 0.000000
vn 0.000000 -1.000000 0.000000
vn 0.000000 -1.000000 0.000000
vn -1.000000 0.000000 0.000000
vn -1.000000 0.000000 0.000000
vn -1.000000 0.000000 0.000000
vn -1.000000 0.000000 0.000000
vn -1.000000 0.000000 0.000000
vn -1.000000 0.000000 0.000000
vn -1.000000 0.000000 0.000000
vn -1.000000 0.000000 0.000000
vn 0.000001 1.000000 0.000000
vn 0.000001 1.000000 0.000000
vn 0.000001 1.000000 0.000000
vn 0.000001 1.000000 0.000000
vn 1.000000 0.000000 0.000000
vn 1.000000 0.000000 0.000000
vn 1.000000 0.000000 0.000000
vn 1.000000 0.000000 0.000000
vn 0.000000 -1.000000 0.000000
vn 0.000000 -1.000000 0.000000
vn 0.000000 -1.000000 0.000000
vn 0.000000 -1.000000 0.000000
vn -1.000000 0.000000 0.000000
vn -1.000000 0.000000 0.000000
vn -1.000000 0.000000 0.000000
vn -1.000000 0.000000 0.000000
vn 0.000000 1.000000 0.000000
vn 0.000000 1.000000 0.000000
vn 0.000000 1.000000 0.000000
vn 0.000000 1.000000 0.000000
vn 1.000000 0.000000 0.000000
vn 1.000000 0.000000 0.000000
vn 1.000000 0.000000 0.000000
vn 1.000000 0.000000 0.000000
vn 0.000000 -1.000000 0.000000
vn 0.000000 -1.000000 0.000000
vn 0.000000 -1.000000 0.000000
vn 0.000000 -1.000000 0.000000
s off
g Fridge
usemtl lambert51SG
f 1/41/1 2/42/2 4/43/3 3/44/4
f 3/29/5 4/30/6 6/31/7 5/32/8 10/33/9 9/34/10
f 5/45/11 6/46/12 8/47/13 7/48/14
f 7/35/15 8/36/16 2/37/17 1/38/18 12/39/19 11/40/20
f 2/1/21 8/2/22 6/3/23 4/4/24
s 1
f 10/5/25 13/6/26 21/7/27 22/8/28 16/9/29 9/10/30
f 7/11/31 11/12/32 14/13/33 18/14/34 17/15/35 13/6/26 10/5/25 5/16/36
f 9/10/30 16/9/29 20/17/37 19/18/38 15/19/39 12/20/40 1/21/41 3/22/42
f 15/19/39 27/23/43 28/24/44 14/13/33 11/12/32 12/20/40
s off
f 45/113/45 46/114/46 47/115/47 48/116/48
f 49/117/49 50/118/50 51/119/51 52/120/52
s 1
f 20/17/37 24/25/53 23/26/54 17/15/35 18/14/34 26/27/55 25/28/56 19/18/38
s off
f 30/49/57 29/50/58 31/51/59 32/52/60
f 34/53/61 33/54/62 35/55/63 36/56/64
f 38/57/65 37/58/66 39/59/67 40/60/68
f 41/61/69 42/62/70 43/63/71 44/64/72
f 23//73 21//74 29//75 30//76
f 21/65/77 13/66/78 31/67/79 29/68/80
f 13/97/81 17/98/82 32/99/83 31/100/84
f 17/69/85 23/70/86 30/71/87 32/72/88
f 16/73/89 22/74/90 33/75/91 34/76/92
f 22//93 24//94 35//95 33//96
f 24/77/97 20/78/98 36/79/99 35/80/100
f 20/101/101 16/102/102 34/103/103 36/104/104
f 28//105 26//106 37//107 38//108
f 26/81/109 18/82/110 39/83/111 37/84/112
f 18/105/113 14/106/114 40/107/115 39/108/116
f 14/85/117 28/86/118 38/87/119 40/88/120
f 19/89/121 25/90/122 42/91/123 41/92/124
f 25//125 27//126 43//127 42//128
f 27/93/129 15/94/130 44/95/131 43/96/132
f 15/109/133 19/110/134 41/111/135 44/112/136
f 24/137/137 22/138/138 46/139/139 45/140/140
f 22/121/141 21/122/142 47/123/143 46/124/144
f 21/141/145 23/142/146 48/143/147 47/144/148
f 23/125/149 24/126/150 45/127/151 48/128/152
f 27/145/153 25/146/154 50/147/155 49/148/156
f 25/129/157 26/130/158 51/131/159 50/132/160
f 26/149/161 28/150/162 52/151/163 51/152/164
f 28/133/165 27/134/166 49/135/167 52/136/168
