# This file uses centimeters as units for non-parametric coordinates.

mtllib Microwave.mtl
g default
v 486.067792 122.982829 1387.189701
v 486.067792 123.026827 1440.626032
v 486.032107 166.391885 1387.153959
v 486.032107 166.435884 1440.590291
v 555.935972 166.449350 1387.153912
v 555.935972 166.493348 1440.590243
v 555.971657 123.040294 1387.189654
v 555.971657 123.084292 1440.625985
v 501.240394 166.404388 1387.153949
v 501.276079 122.995331 1387.189691
v 501.859050 166.404896 1387.153949
v 501.894735 122.995840 1387.189690
v 501.240394 166.402947 1385.404451
v 501.276079 122.993891 1385.440192
v 486.067792 122.981389 1385.440203
v 486.032107 166.390445 1385.404461
v 555.971657 123.038854 1385.440155
v 501.894735 122.994399 1385.440192
v 501.859050 166.403456 1385.404450
v 555.935972 166.447910 1385.404413
v 506.696697 166.407432 1385.404447
v 506.732381 122.998376 1385.440189
v 503.165258 166.404529 1385.404449
v 503.200942 122.995473 1385.440191
v 506.696697 166.405508 1383.066542
v 506.732381 122.996451 1383.102284
v 503.200942 122.993548 1383.102286
v 503.165258 166.402604 1383.066545
vt 0.062868 0.840182
vt 0.203394 0.840182
vt 0.203394 0.980707
vt 0.062868 0.980707
vt 0.206337 0.980707
vt 0.206337 0.840182
vt 0.207580 0.840182
vt 0.207580 0.980707
vt 0.206337 0.696498
vt 0.206337 0.555973
vt 0.346862 0.555973
vt 0.346862 0.696498
vt 0.238153 0.696498
vt 0.236909 0.696498
vt 0.173371 0.838603
vt 0.173371 0.698077
vt 0.313897 0.698077
vt 0.313897 0.838603
vt 0.283324 0.838603
vt 0.282080 0.838603
vt 0.062868 0.696498
vt 0.062868 0.555973
vt 0.203394 0.555973
vt 0.203394 0.696498
vt 0.316324 0.838603
vt 0.316324 0.698077
vt 0.456849 0.698077
vt 0.456849 0.838603
vt 0.596887 0.942997
vt 0.596887 0.579372
vt 0.603681 0.579372
vt 0.603681 0.942997
vt 0.921850 0.807090
vt 0.980806 0.807090
vt 0.980806 0.932064
vt 0.921850 0.932064
vt 0.904882 0.579372
vt 0.904882 0.860668
vt 0.892977 0.860668
vt 0.892977 0.853874
vt 0.892977 0.835504
vt 0.892977 0.579372
vt 0.919195 0.579372
vt 0.919195 0.860668
vt 0.907290 0.860668
vt 0.907290 0.604536
vt 0.907290 0.586166
vt 0.907290 0.579372
vt 0.617965 0.579372
vt 0.617965 0.942997
vt 0.606060 0.942997
vt 0.606060 0.579372
vt 0.632278 0.579372
vt 0.632278 0.942997
vt 0.620373 0.942997
vt 0.620373 0.579372
vt 0.612564 0.518793
vt 0.612564 0.073330
vt 0.829257 0.073330
vt 0.829257 0.518793
vt 0.947330 0.073330
vt 0.947330 0.170245
vt 0.914720 0.170245
vt 0.914720 0.073330
vt 0.987111 0.073330
vt 0.987111 0.170245
vt 0.954502 0.170245
vt 0.954502 0.073330
vt 0.867767 0.073330
vt 0.867767 0.518793
vt 0.835158 0.518793
vt 0.835158 0.073330
vt 0.907549 0.073330
vt 0.907549 0.518793
vt 0.874939 0.518793
vt 0.874939 0.073330
vt 0.143613 0.515933
vt 0.143613 0.033256
vt 0.193931 0.033256
vt 0.193931 0.515933
vt 0.343419 0.033256
vt 0.343419 0.057640
vt 0.299842 0.057640
vt 0.299842 0.033256
vt 0.392986 0.033256
vt 0.392986 0.057640
vt 0.349409 0.057640
vt 0.349409 0.033256
vt 0.244284 0.033256
vt 0.244284 0.515933
vt 0.200708 0.515933
vt 0.200708 0.033256
vt 0.293852 0.033256
vt 0.293852 0.515933
vt 0.250275 0.515933
vt 0.250275 0.033256
vn -1.000000 -0.000822 0.000001
vn -1.000000 -0.000822 0.000001
vn -1.000000 -0.000822 0.000001
vn -1.000000 -0.000822 0.000001
vn -0.000822 0.999999 -0.000823
vn -0.000822 0.999999 -0.000823
vn -0.000822 0.999999 -0.000823
vn -0.000822 0.999999 -0.000823
vn -0.000822 0.999999 -0.000823
vn -0.000822 0.999999 -0.000823
vn 1.000000 0.000822 -0.000001
vn 1.000000 0.000822 -0.000001
vn 1.000000 0.000822 -0.000001
vn 1.000000 0.000822 -0.000001
vn 0.000822 -0.999999 0.000823
vn 0.000822 -0.999999 0.000823
vn 0.000822 -0.999999 0.000823
vn 0.000822 -0.999999 0.000823
vn 0.000822 -0.999999 0.000823
vn 0.000822 -0.999999 0.000823
vn 0.000000 0.000823 1.000000
vn 0.000000 0.000823 1.000000
vn 0.000000 0.000823 1.000000
vn 0.000000 0.000823 1.000000
vn -0.000000 -0.000823 -1.000000
vn -0.000000 -0.000823 -1.000000
vn -0.000000 -0.000823 -1.000000
vn -0.000000 -0.000823 -1.000000
vn -0.000000 -0.000823 -1.000000
vn -0.000000 -0.000823 -1.000000
vn -0.000000 -0.000823 -1.000000
vn -0.000000 -0.000823 -1.000000
vn -0.000000 -0.000823 -1.000000
vn -0.000000 -0.000823 -1.000000
vn -0.000000 -0.000823 -1.000000
vn -0.000000 -0.000823 -1.000000
vn 1.000000 0.000822 -0.000001
vn 1.000000 0.000822 -0.000001
vn 1.000000 0.000822 -0.000001
vn 1.000000 0.000822 -0.000001
vn 0.000822 -0.999999 0.000823
vn 0.000822 -0.999999 0.000823
vn -1.000000 -0.000822 0.000001
vn -1.000000 -0.000822 0.000001
vn -0.000822 0.999999 -0.000823
vn -0.000822 0.999999 -0.000823
vn 0.000822 -0.999999 0.000823
vn 0.000822 -0.999999 0.000823
vn 0.000822 -0.999999 0.000823
vn 0.000822 -0.999999 0.000823
vn -1.000000 -0.000822 0.000001
vn -1.000000 -0.000822 0.000001
vn -1.000000 -0.000822 0.000001
vn -1.000000 -0.000822 0.000001
vn -0.000822 0.999999 -0.000823
vn -0.000822 0.999999 -0.000823
vn -0.000822 0.999999 -0.000823
vn -0.000822 0.999999 -0.000823
vn 1.000000 0.000822 -0.000001
vn 1.000000 0.000822 -0.000001
vn -0.000000 -0.000823 -1.000000
vn -0.000000 -0.000823 -1.000000
vn -0.000000 -0.000823 -1.000000
vn -0.000000 -0.000823 -1.000000
vn -0.000000 -0.000823 -1.000000
vn -0.000000 -0.000823 -1.000000
vn -0.000000 -0.000823 -1.000000
vn -0.000000 -0.000823 -1.000000
vn 1.000000 0.000822 -0.000001
vn 1.000000 0.000822 -0.000001
vn 1.000000 0.000822 -0.000001
vn 1.000000 0.000822 -0.000001
vn 0.000822 -0.999999 0.000823
vn 0.000822 -0.999999 0.000823
vn -1.000000 -0.000822 0.000001
vn -1.000000 -0.000822 0.000001
vn -1.000000 -0.000822 0.000001
vn -1.000000 -0.000822 0.000001
vn -0.000822 0.999999 -0.000823
vn -0.000822 0.999999 -0.000823
s 1
g Microwave
usemtl lambert52SG
f 1/21/1 2/22/2 4/23/3 3/24/4
s 2
f 3/9/5 4/10/6 6/11/7 5/12/8 11/13/9 9/14/10
s 3
f 5/25/11 6/26/12 8/27/13 7/28/14
s 4
f 7/15/15 8/16/16 2/17/17 1/18/18 10/19/19 12/20/20
s off
f 2/1/21 8/2/22 6/3/23 4/4/24
f 13/57/25 14/58/26 15/59/27 16/60/28
f 11/5/29 12/6/30 10/7/31 9/8/32
f 23/29/33 24/30/34 18/31/35 19/32/36
f 9/69/37 10/70/38 14/71/39 13/72/40
s 4
f 10/61/19 1/62/18 15/63/41 14/64/42
s 1
f 1/73/1 3/74/4 16/75/43 15/76/44
s 2
f 3/65/5 9/66/10 13/67/45 16/68/46
s 4
f 7/37/15 12/38/20 18/39/47 24/40/48 22/41/49 17/42/50
s off
f 12/49/51 11/50/52 19/51/53 18/52/54
s 2
f 11/43/9 5/44/8 20/45/55 21/46/56 23/47/57 19/48/58
s 3
f 5/53/11 7/54/14 17/55/59 20/56/60
s off
f 17/33/61 22/34/62 21/35/63 20/36/64
f 25/77/65 26/78/66 27/79/67 28/80/68
f 21/89/69 22/90/70 26/91/71 25/92/72
s 4
f 22/81/49 24/82/48 27/83/73 26/84/74
s off
f 24/93/75 23/94/76 28/95/77 27/96/78
s 2
f 23/85/57 21/86/56 25/87/79 28/88/80
