# This file uses centimeters as units for non-parametric coordinates.

mtllib LivingRoomDoor.mtl
g default
v 92.770675 267.448093 536.395842
v 66.077622 300.920096 536.395842
v 27.505092 319.495677 536.395842
v -15.307237 319.495677 536.395842
v -53.879826 300.920126 536.395842
v -80.572879 267.448123 536.395842
v -90.099477 225.709219 536.395842
v -90.091375 21.051227 536.395842
v 102.298984 20.791281 536.395842
v 102.297274 225.709204 536.395842
v 92.770675 267.448093 586.396384
v 66.077622 300.920096 586.396384
v 27.505092 319.495677 586.396384
v -15.307237 319.495677 586.396384
v -53.879826 300.920126 586.396384
v -80.572879 267.448123 586.396384
v -90.099477 225.709219 586.396384
v -90.091375 21.051227 586.396384
v 102.298984 20.791281 586.396378
v 102.297274 225.709206 586.396378
v 85.423197 263.909736 536.395836
v 60.993006 294.544194 536.395836
v 25.690413 311.545058 536.395836
v -13.492554 311.545058 536.395836
v -48.795203 294.544216 536.395836
v -73.225393 263.909758 536.395836
v -81.944391 225.709218 536.395836
v -81.936281 21.053516 536.395836
v 94.143890 20.787318 536.395836
v 94.142188 225.709204 536.395836
v 85.423197 263.909732 586.396378
v 60.993006 294.544194 586.396378
v 25.690416 311.545058 586.396378
v -13.492554 311.545058 586.396378
v -48.795210 294.544216 586.396378
v -73.225401 263.909762 586.396378
v -81.944391 225.709221 586.396378
v -81.936274 21.053531 586.396378
v 94.143898 20.787318 586.396384
v 94.142188 225.709204 586.396384
vt 0.640776 0.088456
vt 0.597420 0.034089
vt 0.534769 0.003918
vt 0.465231 0.003918
vt 0.402580 0.034089
vt 0.359224 0.088456
vt 0.343750 0.156250
vt 0.359224 0.224044
vt 0.640776 0.224044
vt 0.656250 0.156250
vt 0.375000 0.312500
vt 0.392857 0.312500
vt 0.410714 0.312500
vt 0.428571 0.312500
vt 0.446429 0.312500
vt 0.464286 0.312500
vt 0.482143 0.312500
vt 0.500000 0.312500
vt 0.589286 0.312500
vt 0.607143 0.312500
vt 0.625000 0.312500
vt 0.375000 0.688440
vt 0.392857 0.688440
vt 0.410714 0.688440
vt 0.428571 0.688440
vt 0.446429 0.688440
vt 0.464286 0.688440
vt 0.482143 0.688440
vt 0.500000 0.688440
vt 0.589286 0.688440
vt 0.607143 0.688440
vt 0.625000 0.688440
vt 0.640776 0.775956
vt 0.359224 0.775956
vt 0.343750 0.843750
vt 0.359224 0.911544
vt 0.402580 0.965911
vt 0.465231 0.996082
vt 0.534769 0.996082
vt 0.597420 0.965911
vt 0.640776 0.911544
vt 0.656250 0.843750
vt 0.597420 0.034089
vt 0.640776 0.088456
vt 0.534769 0.003918
vt 0.465231 0.003918
vt 0.402580 0.034089
vt 0.359224 0.088456
vt 0.343750 0.156250
vt 0.359224 0.224044
vt 0.640776 0.224044
vt 0.656250 0.156250
vt 0.640776 0.911544
vt 0.597420 0.965911
vt 0.534769 0.996082
vt 0.465231 0.996082
vt 0.402580 0.965911
vt 0.359224 0.911544
vt 0.343750 0.843750
vt 0.359224 0.775956
vt 0.640776 0.775956
vt 0.656250 0.843750
vn 0.900969 0.433884 -0.000000
vn 0.623490 0.781831 0.000000
vn 0.623490 0.781831 0.000000
vn 0.900969 0.433884 -0.000000
vn 0.222521 0.974928 0.000000
vn 0.222521 0.974928 0.000000
vn -0.222521 0.974928 0.000000
vn -0.222521 0.974928 0.000000
vn -0.623489 0.781832 0.000000
vn -0.623489 0.781832 0.000000
vn -0.900969 0.433884 0.000000
vn -0.900969 0.433884 0.000000
vn -0.974928 0.222520 0.000000
vn -0.974928 0.222520 0.000000
vn -1.000000 -0.000040 0.000000
vn -1.000000 -0.000040 0.000000
vn -1.000000 -0.000040 0.000000
vn -1.000000 -0.000040 0.000000
vn 1.000000 0.000008 0.000000
vn 1.000000 0.000008 0.000000
vn 1.000000 0.000008 0.000000
vn 1.000000 0.000008 0.000000
vn 0.974928 0.222520 -0.000000
vn 0.974928 0.222520 -0.000000
vn 0.000001 0.000000 -1.000000
vn 0.000001 0.000000 -1.000000
vn 0.000001 0.000000 -1.000000
vn 0.000001 0.000000 -1.000000
vn 0.000000 0.000001 -1.000000
vn 0.000000 0.000001 -1.000000
vn 0.000000 0.000001 -1.000000
vn 0.000000 0.000001 -1.000000
vn 0.000000 0.000001 -1.000000
vn 0.000000 0.000001 -1.000000
vn 0.000000 0.000001 -1.000000
vn 0.000000 0.000001 -1.000000
vn -0.000000 0.000001 -1.000000
vn -0.000000 0.000001 -1.000000
vn -0.000000 0.000001 -1.000000
vn -0.000000 0.000001 -1.000000
vn -0.000001 0.000000 -1.000000
vn -0.000001 0.000000 -1.000000
vn -0.000001 0.000000 -1.000000
vn -0.000001 0.000000 -1.000000
vn -0.000001 0.000000 -1.000000
vn -0.000001 0.000000 -1.000000
vn -0.000001 0.000000 -1.000000
vn -0.000001 0.000000 -1.000000
vn -0.000001 0.000000 -1.000000
vn -0.000001 0.000000 -1.000000
vn -0.000001 0.000000 -1.000000
vn -0.000001 0.000000 -1.000000
vn 0.000001 -0.000000 -1.000000
vn 0.000001 -0.000000 -1.000000
vn 0.000001 -0.000000 -1.000000
vn 0.000001 -0.000000 -1.000000
vn 0.000001 0.000000 -1.000000
vn 0.000001 0.000000 -1.000000
vn 0.000001 0.000000 -1.000000
vn 0.000001 0.000000 -1.000000
vn -0.000001 -0.000000 1.000000
vn -0.000001 -0.000000 1.000000
vn -0.000001 -0.000000 1.000000
vn -0.000001 -0.000000 1.000000
vn -0.000000 -0.000001 1.000000
vn -0.000000 -0.000001 1.000000
vn -0.000000 -0.000001 1.000000
vn -0.000000 -0.000001 1.000000
vn 0.000000 -0.000001 1.000000
vn 0.000000 -0.000001 1.000000
vn 0.000000 -0.000001 1.000000
vn 0.000000 -0.000001 1.000000
vn 0.000000 -0.000001 1.000000
vn 0.000000 -0.000001 1.000000
vn 0.000000 -0.000001 1.000000
vn 0.000000 -0.000001 1.000000
vn 0.000001 -0.000000 1.000000
vn 0.000001 -0.000000 1.000000
vn 0.000001 -0.000000 1.000000
vn 0.000001 -0.000000 1.000000
vn 0.000001 -0.000000 1.000000
vn 0.000001 -0.000000 1.000000
vn 0.000001 -0.000000 1.000000
vn 0.000001 -0.000000 1.000000
vn 0.000001 0.000000 1.000000
vn 0.000001 0.000000 1.000000
vn 0.000001 0.000000 1.000000
vn 0.000001 0.000000 1.000000
vn 0.000001 0.000000 1.000000
vn 0.000001 0.000000 1.000000
vn 0.000001 0.000000 1.000000
vn 0.000001 0.000000 1.000000
vn -0.000000 0.000000 1.000000
vn -0.000000 0.000000 1.000000
vn -0.000000 0.000000 1.000000
vn -0.000000 0.000000 1.000000
vn 0.623489 -0.781832 0.000000
vn 0.623489 -0.781832 0.000000
vn 0.222521 -0.974928 0.000000
vn 0.222521 -0.974928 0.000000
vn 0.000487 -1.000000 0.000000
vn 0.000487 -1.000000 0.000000
vn 0.000487 -1.000000 0.000000
vn 0.000487 -1.000000 0.000000
vn -1.000000 -0.000008 0.000000
vn -1.000000 -0.000008 0.000000
vn -1.000000 -0.000008 0.000000
vn -1.000000 -0.000008 0.000000
vn -0.900969 -0.433884 0.000000
vn -0.900969 -0.433884 0.000000
vn -0.974928 -0.222520 0.000000
vn -0.974928 -0.222520 0.000000
vn -0.623490 -0.781831 0.000000
vn -0.623490 -0.781831 0.000000
vn -0.222521 -0.974928 0.000000
vn -0.222521 -0.974928 0.000000
vn 0.900969 -0.433884 0.000000
vn 0.900969 -0.433884 0.000000
vn 0.974928 -0.222520 0.000000
vn 0.974928 -0.222520 0.000000
vn 1.000000 0.000040 0.000000
vn 1.000000 0.000040 0.000000
vn 1.000000 0.000040 0.000000
vn 1.000000 0.000040 0.000000
vn 0.000284 -1.000000 0.000000
vn 0.000284 -1.000000 0.000000
vn 0.000284 -1.000000 0.000000
vn 0.000284 -1.000000 0.000000
s 1
g DoorFrameLivingRoom DoorFrame
usemtl lambert5SG
f 1/11/1 2/12/2 12/23/3 11/22/4
f 2/12/2 3/13/5 13/24/6 12/23/3
f 3/13/5 4/14/7 14/25/8 13/24/6
f 4/14/7 5/15/9 15/26/10 14/25/8
f 5/15/9 6/16/11 16/27/12 15/26/10
f 6/16/11 7/17/13 17/28/14 16/27/12
s off
f 7/17/15 8/18/16 18/29/17 17/28/18
f 9/19/19 10/20/20 20/31/21 19/30/22
s 1
f 10/20/23 1/21/1 11/32/4 20/31/24
s off
f 2/2/25 1/1/26 21/44/27 22/43/28
f 3/3/29 2/2/30 22/43/31 23/45/32
f 4/4/33 3/3/34 23/45/35 24/46/36
f 5/5/37 4/4/38 24/46/39 25/47/40
f 6/6/41 5/5/42 25/47/43 26/48/44
f 7/7/45 6/6/46 26/48/47 27/49/48
f 8/8/49 7/7/50 27/49/51 28/50/52
f 10/10/53 9/9/54 29/51/55 30/52/56
f 1/1/57 10/10/58 30/52/59 21/44/60
f 11/41/61 12/40/62 32/54/63 31/53/64
f 12/40/65 13/39/66 33/55/67 32/54/68
f 13/39/69 14/38/70 34/56/71 33/55/72
f 14/38/73 15/37/74 35/57/75 34/56/76
f 15/37/77 16/36/78 36/58/79 35/57/80
f 16/36/81 17/35/82 37/59/83 36/58/84
f 17/35/85 18/34/86 38/60/87 37/59/88
f 19/33/89 20/42/90 40/62/91 39/61/92
f 20/42/93 11/41/94 31/53/95 40/62/96
s 2
f 35/57/97 25/47/98 24/46/99 34/56/100
s off
f 39/61/101 29/51/102 9/19/103 19/33/104
f 40/62/105 30/52/106 29/51/107 39/61/108
s 2
f 31/53/109 21/44/110 30/52/111 40/62/112
f 32/54/113 22/43/114 21/44/110 31/53/109
f 33/55/115 23/45/116 22/43/114 32/54/113
f 34/56/100 24/46/99 23/45/116 33/55/115
f 36/58/117 26/48/118 25/47/98 35/57/97
f 37/59/119 27/49/120 26/48/118 36/58/117
s off
f 38/60/121 28/50/122 27/49/123 37/59/124
f 18/29/125 8/8/126 28/50/127 38/60/128
