# This file uses centimeters as units for non-parametric coordinates.

mtllib MediumSofa.mtl
g default
v -95.582945 43.880933 151.241746
v -95.582945 43.880933 265.173581
v -95.582945 68.151339 151.241746
v -95.582945 68.151339 265.173581
v 121.684300 68.151339 151.241746
v 121.684300 68.151339 265.173581
v 121.684300 43.880933 151.241746
v 121.684300 43.880933 265.173581
v 108.409468 62.476134 151.241746
v 108.409468 68.151339 265.173581
v 111.911358 43.880933 265.173581
v 111.911358 43.880933 151.241746
v -84.844713 62.476134 151.241746
v -84.844713 68.151339 265.173581
v -84.608307 43.880933 265.173581
v -84.844713 43.880933 151.241746
v 108.409468 108.095305 151.241746
v 108.409468 108.095305 265.173581
v 121.684300 108.095305 265.173581
v 121.684300 108.095305 151.241746
v -95.582945 108.095305 151.241746
v -95.582945 108.095305 265.173581
v -84.844713 108.095305 265.173581
v -84.844713 108.095305 151.241746
v -84.844713 62.476134 249.401023
v 108.409468 62.476134 249.401023
v -84.844713 154.143739 263.625276
v 108.409468 154.143739 263.625276
v -84.844713 154.143739 279.397834
v 108.409468 154.143739 279.397834
v -84.844713 62.476134 143.967986
v -84.844713 62.476134 249.388801
v 108.409468 62.476134 249.388801
v 108.409468 62.476134 143.967986
v -84.844713 75.565566 143.967986
v -84.844713 75.565566 249.388801
v 108.409468 75.565566 249.388801
v 108.409468 75.565566 143.967986
v 121.684300 43.880933 253.780382
v 111.911358 43.880938 253.780382
v -84.608307 43.880938 253.780382
v -95.582945 43.880933 253.780382
v 121.684300 43.880938 161.318456
v 111.911358 43.880933 161.318456
v -84.895803 43.880933 161.318456
v -95.582945 43.880938 161.318456
v 121.684300 21.033351 151.241746
v 121.684300 21.033351 161.318456
v 111.911358 21.033351 161.318456
v 111.911358 21.033351 151.241746
v -84.895803 21.033351 161.318456
v -84.844713 21.033351 151.241746
v -95.582945 21.033351 161.318456
v -95.582945 21.033351 151.241746
v 121.684300 21.033351 253.780382
v 111.911358 21.033351 253.780382
v 121.684300 21.033351 265.173581
v 111.911358 21.033351 265.173581
v -84.608307 21.033351 253.780382
v -95.582945 21.033351 253.780382
v -84.608307 21.033351 265.173581
v -95.582945 21.033351 265.173581
vt 0.215582 0.143060
vt 0.219251 0.070396
vt 0.229490 0.070396
vt 0.229490 0.143060
vt 0.013104 0.143060
vt 0.013351 0.070396
vt 0.219251 0.001992
vt 0.229490 0.001992
vt 0.229490 0.262649
vt 0.215582 0.262649
vt 0.001853 0.070396
vt 0.001853 0.143060
vt 0.215582 0.400515
vt 0.013104 0.400515
vt 0.001853 0.001992
vt 0.013351 0.001992
vt 0.013104 0.262649
vt 0.001853 0.262649
vt 0.402673 0.760028
vt 0.412912 0.760028
vt 0.416581 0.815701
vt 0.402673 0.832692
vt 0.402673 0.691625
vt 0.412912 0.691625
vt 0.619059 0.760028
vt 0.619059 0.815701
vt 0.416581 0.952281
vt 0.402673 0.952281
vt 0.630310 0.760028
vt 0.630310 0.832692
vt 0.619059 0.691625
vt 0.630310 0.691625
vt 0.630310 0.952281
vt 0.619059 0.952281
vt 0.001853 0.723562
vt 0.204331 0.723562
vt 0.204331 0.998008
vt 0.001853 0.998008
vt 0.727172 0.894102
vt 0.727172 0.691624
vt 0.766361 0.691624
vt 0.766361 0.894102
vt 0.772493 0.894102
vt 0.772493 0.691624
vt 0.811682 0.691624
vt 0.811682 0.894102
vt 0.828053 0.760028
vt 0.817814 0.760028
vt 0.817814 0.691624
vt 0.828053 0.691624
vt 0.917840 0.760028
vt 0.906643 0.760028
vt 0.906643 0.691624
vt 0.917840 0.691624
vt 0.928310 0.832145
vt 0.918071 0.832145
vt 0.918071 0.763741
vt 0.928310 0.763741
vt 0.872547 0.832145
vt 0.861049 0.832145
vt 0.861049 0.763741
vt 0.872547 0.763741
vt 0.502379 0.343096
vt 0.502379 0.001992
vt 0.516288 0.001992
vt 0.516288 0.343096
vt 0.772134 0.927984
vt 0.772134 0.897815
vt 0.782373 0.897815
vt 0.782373 0.927984
vt 0.101165 0.719849
vt 0.101165 0.404227
vt 0.303643 0.404227
vt 0.303643 0.719849
vt 0.710913 0.687912
vt 0.710913 0.657743
vt 0.917113 0.657743
vt 0.917060 0.687912
vt 0.710913 0.380919
vt 0.916812 0.380919
vt 0.700673 0.657743
vt 0.700673 0.380919
vt 0.710913 0.346808
vt 0.916812 0.346808
vt 0.928310 0.657743
vt 0.928310 0.380919
vt 0.683716 0.687912
vt 0.683716 0.346808
vt 0.694966 0.346808
vt 0.694966 0.687912
vt 0.755176 0.927984
vt 0.755230 0.897815
vt 0.766427 0.897815
vt 0.766427 0.927984
vt 0.636530 0.894102
vt 0.636530 0.691624
vt 0.683751 0.691624
vt 0.683751 0.894102
vt 0.690951 0.691624
vt 0.690951 0.894102
vt 0.690915 0.894102
vt 0.690915 0.691624
vt 0.719943 0.691624
vt 0.719943 0.894102
vt 0.698166 0.894102
vt 0.698166 0.691624
vt 0.815524 0.931925
vt 0.805285 0.931925
vt 0.805285 0.897815
vt 0.815524 0.897815
vt 0.799578 0.931925
vt 0.788080 0.931925
vt 0.788080 0.897815
vt 0.799578 0.897815
vt 0.304295 0.343095
vt 0.304295 0.312927
vt 0.304295 0.036102
vt 0.304295 0.001992
vt 0.376959 0.001992
vt 0.376959 0.343095
vt 0.235891 0.343095
vt 0.235891 0.312927
vt 0.235891 0.036102
vt 0.235891 0.001992
vt 0.496548 0.001992
vt 0.496548 0.343095
vt 0.641909 0.343096
vt 0.641909 0.001992
vt 0.714573 0.001992
vt 0.714573 0.036102
vt 0.714573 0.312927
vt 0.714573 0.343096
vt 0.522320 0.343096
vt 0.522320 0.001992
vt 0.782977 0.001992
vt 0.782977 0.036102
vt 0.782977 0.312927
vt 0.782977 0.343096
vt 0.541428 0.687912
vt 0.541428 0.394030
vt 0.558420 0.346808
vt 0.678009 0.346808
vt 0.678009 0.687912
vt 0.518730 0.346808
vt 0.535722 0.394030
vt 0.535722 0.687912
vt 0.399141 0.687912
vt 0.399141 0.346808
vt 0.210511 0.723562
vt 0.257733 0.740553
vt 0.300319 0.998008
vt 0.253098 0.998008
vt 0.353814 0.981017
vt 0.306592 0.998008
vt 0.349178 0.723562
vt 0.396400 0.723562
vt 0.354246 0.640690
vt 0.354246 0.346808
vt 0.354246 0.346845
vt 0.354246 0.662467
vt 0.393434 0.346845
vt 0.393434 0.662467
vt 0.348539 0.346808
vt 0.348539 0.640690
vt 0.348539 0.662467
vt 0.348539 0.346845
vt 0.309350 0.662467
vt 0.309350 0.346845
vt 0.864298 0.760028
vt 0.834130 0.760028
vt 0.834130 0.691624
vt 0.864298 0.691624
vt 0.870386 0.691624
vt 0.900555 0.691624
vt 0.900555 0.760029
vt 0.870386 0.760029
vt 0.912364 0.832145
vt 0.878254 0.832145
vt 0.878254 0.763741
vt 0.912364 0.763741
vt 0.821231 0.763741
vt 0.855342 0.763741
vt 0.855342 0.832145
vt 0.821231 0.832145
vn -1.000000 0.000000 -0.000000
vn -1.000000 0.000000 -0.000000
vn -1.000000 0.000000 -0.000000
vn -1.000000 0.000000 -0.000000
vn -1.000000 0.000000 -0.000000
vn -1.000000 0.000000 -0.000000
vn -0.000000 1.000000 0.000000
vn -0.000000 1.000000 0.000000
vn -0.000000 1.000000 0.000000
vn -0.000000 1.000000 0.000000
vn 1.000000 0.000000 0.000000
vn 1.000000 0.000000 0.000000
vn 1.000000 0.000000 0.000000
vn 1.000000 0.000000 0.000000
vn 1.000000 0.000000 0.000000
vn 1.000000 0.000000 0.000000
vn 0.000000 -1.000000 0.000000
vn 0.000000 -1.000000 0.000000
vn 0.000000 -1.000000 0.000000
vn 0.000000 -1.000000 0.000000
vn -0.000000 -0.122336 0.992489
vn -0.000000 0.000000 1.000000
vn -0.000000 0.000000 1.000000
vn -0.000000 0.000000 1.000000
vn 0.000000 0.000000 -1.000000
vn 0.000000 0.000000 -1.000000
vn 0.000000 0.000000 -1.000000
vn 0.000000 0.000000 -1.000000
vn -0.000000 1.000000 0.000000
vn -0.000000 1.000000 0.000000
vn -0.000000 1.000000 0.000000
vn -0.000000 1.000000 0.000000
vn -0.000000 -0.123813 0.992305
vn -0.000000 0.000000 1.000000
vn 0.000000 -1.000000 0.000000
vn -0.000000 -1.000000 0.000000
vn -0.000000 -1.000000 0.000000
vn 0.000000 -1.000000 0.000000
vn 0.000000 0.000000 -1.000000
vn 0.000000 0.000000 -1.000000
vn -0.000000 1.000000 0.000000
vn -0.000000 1.000000 0.000000
vn -0.000000 1.000000 0.000000
vn -0.000000 1.000000 0.000000
vn -0.000000 0.000000 1.000000
vn -0.000000 0.000000 1.000000
vn 0.000000 -1.000000 0.000000
vn 0.000000 -1.000000 0.000000
vn 0.000000 -1.000000 0.000000
vn 0.000000 -1.000000 0.000000
vn 0.000000 0.000000 -1.000000
vn 0.000000 0.000000 -1.000000
vn -1.000000 0.000000 -0.000000
vn -1.000000 0.000000 -0.000000
vn -1.000000 0.000000 -0.000000
vn -1.000000 0.000000 -0.000000
vn -1.000000 0.000000 -0.000000
vn -0.000000 0.000000 1.000000
vn -0.000000 0.000000 1.000000
vn 1.000000 0.000000 0.000000
vn 1.000000 0.000000 0.000000
vn 0.000000 0.000000 -1.000000
vn 0.000000 0.000000 -1.000000
vn -1.000000 0.000000 -0.000000
vn -1.000000 0.000000 -0.000000
vn -0.000000 0.000000 1.000000
vn -0.000000 0.000000 1.000000
vn 1.000000 0.000000 0.000000
vn 1.000000 0.000000 0.000000
vn 1.000000 0.000000 0.000000
vn 1.000000 0.000000 0.000000
vn 1.000000 0.000000 0.000000
vn 0.000000 0.000000 -1.000000
vn 0.000000 0.000000 -1.000000
vn -0.000000 1.000000 0.000000
vn -0.000000 1.000000 0.000000
vn -0.000000 1.000000 0.000000
vn -0.000000 1.000000 0.000000
vn 0.000000 0.153337 -0.988174
vn 0.000000 0.153337 -0.988174
vn 0.000000 0.153337 -0.988174
vn 0.000000 0.153337 -0.988174
vn -1.000000 0.000000 0.000000
vn -1.000000 0.000000 0.000000
vn -1.000000 0.000000 0.000000
vn -1.000000 0.000000 0.000000
vn -0.000000 -0.163195 0.986594
vn -0.000000 -0.163195 0.986594
vn 1.000000 0.000000 0.000001
vn 1.000000 0.000000 0.000001
vn 1.000000 0.000000 0.000001
vn 1.000000 0.000000 0.000001
vn -1.000000 0.000000 -0.000000
vn -0.000000 0.000000 -0.000000
vn -1.000000 0.000000 -0.000000
vn -1.000000 0.000000 -0.000000
vn -0.000000 1.000000 0.000000
vn -0.000000 1.000000 0.000000
vn -0.000000 1.000000 0.000000
vn -0.000000 1.000000 0.000000
vn 0.000000 0.000000 0.000000
vn 1.000000 0.000000 0.000000
vn 1.000000 0.000000 0.000000
vn 1.000000 0.000000 0.000000
vn 0.000000 -1.000000 0.000000
vn 0.000000 -1.000000 0.000000
vn 0.000000 -1.000000 0.000000
vn 0.000000 -1.000000 0.000000
vn -1.000000 0.000000 -0.000000
vn -1.000000 0.000000 -0.000000
vn -0.000000 0.000000 1.000000
vn -0.000000 0.000000 1.000000
vn -0.000000 0.000000 1.000000
vn -0.000000 0.000000 1.000000
vn 1.000000 0.000000 0.000000
vn 1.000000 0.000000 0.000000
vn 0.000000 0.000000 -1.000000
vn 0.000000 0.000000 -1.000000
vn 0.000000 0.000000 -1.000000
vn 0.000000 0.000000 -1.000000
vn 0.000000 -1.000000 0.000000
vn 0.000000 -1.000000 0.000000
vn 0.000000 -1.000000 0.000000
vn 0.000000 -1.000000 0.000000
vn -0.000000 -1.000000 0.000000
vn -0.000000 -1.000000 0.000000
vn 0.000000 -1.000000 -0.000000
vn 0.000000 -1.000000 -0.000000
vn 0.000000 -1.000000 0.000000
vn 0.000000 -1.000000 0.000000
vn 0.000000 -1.000000 0.000000
vn 0.000000 -1.000000 0.000000
vn 0.000000 -1.000000 0.000000
vn 0.000000 -1.000000 0.000000
vn 0.000000 -1.000000 0.000000
vn 0.000000 -1.000000 0.000000
vn 1.000000 0.000000 0.000000
vn 1.000000 0.000000 0.000000
vn -0.000000 0.000000 1.000000
vn -0.000000 0.000000 1.000000
vn -0.000000 0.000000 1.000000
vn -0.000000 0.000000 1.000000
vn -1.000000 0.000000 -0.000000
vn -1.000000 0.000000 -0.000000
vn -1.000000 0.000000 -0.000000
vn -1.000000 0.000000 -0.000000
vn 0.000000 0.000000 -1.000000
vn 0.000000 0.000000 -1.000000
vn 0.999987 0.000000 0.005070
vn 0.999987 0.000000 0.005070
vn 0.999987 0.000000 0.005070
vn 0.999987 0.000000 0.005070
vn -0.000000 0.000000 1.000000
vn -0.000000 0.000000 1.000000
vn -0.000000 0.000000 1.000000
vn -0.000000 0.000000 1.000000
vn -1.000000 0.000000 -0.000000
vn -1.000000 0.000000 -0.000000
vn 0.000000 0.000000 -1.000000
vn 0.000000 0.000000 -1.000000
vn 0.000000 0.000000 -1.000000
vn 0.000000 0.000000 -1.000000
vn 0.000000 0.000000 -1.000000
vn 0.000000 0.000000 -1.000000
vn 1.000000 0.000000 0.000000
vn 1.000000 0.000000 0.000000
vn -0.000000 0.000000 1.000000
vn -0.000000 0.000000 1.000000
vn -1.000000 0.000000 -0.000000
vn -1.000000 0.000000 -0.000000
vn -1.000000 0.000000 -0.000000
vn -1.000000 0.000000 -0.000000
vn 0.000000 0.000000 -1.000000
vn 0.000000 0.000000 -1.000000
vn 0.000000 0.000000 -1.000000
vn 0.000000 0.000000 -1.000000
vn 1.000000 0.000000 0.000000
vn 1.000000 0.000000 0.000000
vn 1.000000 0.000000 0.000000
vn 1.000000 0.000000 0.000000
vn -0.000000 0.000000 1.000000
vn -0.000000 0.000000 1.000000
vn -1.000000 0.000000 -0.000000
vn -1.000000 0.000000 -0.000000
s 1
g MediumSofa
usemtl lambert43SG
f 1/115/1 46/116/2 42/117/3 2/118/4 4/119/5 3/120/6
s off
f 17/63/7 18/64/8 19/65/9 20/66/10
s 2
f 5/127/11 6/128/12 8/129/13 39/130/14 43/131/15 7/132/16
s off
f 47/67/17 48/68/18 49/69/19 50/70/20
s 3
f 10/1/21 11/2/22 8/3/23 6/4/24
s 4
f 7/19/25 12/20/26 9/21/27 5/22/28
s off
f 35/71/29 36/72/30 37/73/31 38/74/32
s 3
f 14/5/33 15/6/34 11/2/22 10/1/21
s 5
f 12/75/35 44/76/36 45/77/37 16/78/38
s 4
f 9/21/27 12/20/26 16/25/39 13/26/40
s off
f 21/87/41 22/88/42 23/89/43 24/90/44
s 3
f 2/11/45 15/6/34 14/5/33 4/12/46
s off
f 52/91/47 51/92/48 53/93/49 54/94/50
s 4
f 13/26/40 16/25/39 1/29/51 3/30/52
s off
f 9/139/53 26/140/54 10/141/55 18/142/56 17/143/57
s 3
f 10/1/21 6/4/24 19/9/58 18/10/59
s 2
f 6/128/12 5/127/11 20/133/60 19/134/61
s 4
f 5/22/28 9/21/27 17/27/62 20/28/63
s 1
f 3/120/6 4/119/5 22/125/64 21/126/65
s 3
f 4/12/46 14/5/33 23/17/66 22/18/67
s off
f 14/144/68 25/145/69 13/146/70 24/147/71 23/148/72
s 4
f 13/26/40 3/30/52 21/33/73 24/34/74
s off
f 28/95/75 27/96/76 29/97/77 30/98/78
f 26/35/79 25/36/80 27/37/81 28/38/82
f 25/149/83 14/150/84 29/151/85 27/152/86
s 3
f 14/5/33 10/1/21 30/13/87 29/14/88
s off
f 10/153/89 26/154/90 28/155/91 30/156/92
s 6
f 13/157/93 25/158/94 32/159/95 31/160/96
s off
f 25/99/97 26/100/98 33/101/99 32/102/100
s 7
f 26/163/101 9/164/102 34/165/103 33/166/104
s off
f 9/103/105 13/104/106 31/105/107 34/106/108
s 6
f 31/160/96 32/159/95 36/161/109 35/162/110
s off
f 32/39/111 33/40/112 37/41/113 36/42/114
s 7
f 33/166/104 34/165/103 38/167/115 37/168/116
s off
f 34/43/117 31/44/118 35/45/119 38/46/120
f 56/107/121 55/108/122 57/109/123 58/110/124
s 5
f 41/80/125 40/79/126 11/83/127 15/84/128
s off
f 60/111/129 59/112/130 61/113/131 62/114/132
s 5
f 44/76/36 43/81/133 39/82/134 40/79/126
f 45/77/37 44/76/36 40/79/126 41/80/125
f 46/85/135 45/77/37 41/80/125 42/86/136
s 2
f 7/132/16 43/131/15 48/137/137 47/138/138
s off
f 43/47/139 44/48/140 49/49/141 48/50/142
f 44/169/143 12/170/144 50/171/145 49/172/146
s 4
f 12/20/26 7/19/25 47/23/147 50/24/148
s off
f 16/173/149 45/174/150 51/175/151 52/176/152
f 45/51/153 46/52/154 53/53/155 51/54/156
s 1
f 46/116/2 1/115/1 54/121/157 53/122/158
s 4
f 1/29/51 16/25/39 52/31/159 54/32/160
s off
f 40/55/161 39/56/162 55/57/163 56/58/164
s 2
f 39/130/14 8/129/13 57/135/165 55/136/166
s 3
f 8/3/23 11/2/22 58/7/167 57/8/168
s off
f 11/177/169 40/178/170 56/179/171 58/180/172
f 42/59/173 41/60/174 59/61/175 60/62/176
f 41/181/177 15/182/178 61/183/179 59/184/180
s 3
f 15/6/34 2/11/45 62/15/181 61/16/182
s 1
f 2/118/4 42/117/3 60/123/183 62/124/184
