# This file uses centimeters as units for non-parametric coordinates.

mtllib TableLivingRoom.mtl
g default
v -193.949750 33.608504 161.832561
v -193.949750 33.608504 250.041947
v -193.949750 68.840911 161.832561
v -193.949750 68.840911 250.041947
v -105.740370 68.840911 161.832561
v -105.740370 68.840911 250.041947
v -105.740370 33.608504 161.832561
v -105.740370 33.608504 250.041947
v -193.949750 102.523996 161.832564
v -193.949750 102.523996 250.041947
v -193.949750 109.600424 161.832564
v -193.949750 109.600424 250.041947
v -105.740370 109.600424 161.832564
v -105.740370 109.600424 250.041947
v -105.740370 102.523996 161.832564
v -105.740370 102.523996 250.041947
v -105.740370 102.523996 170.653500
v -105.740370 102.523996 241.221014
v -193.949750 102.523996 170.653500
v -193.949750 102.523996 241.221014
v -114.561277 102.523996 161.832564
v -185.128741 102.523996 161.832564
v -114.561277 102.523996 170.653500
v -185.128741 102.523996 170.653500
v -185.128741 102.523996 241.221014
v -114.561277 102.523996 241.221014
v -114.561277 102.523996 250.041947
v -185.128741 102.523996 250.041947
v -105.740370 21.395918 161.832564
v -105.740370 21.395918 170.653500
v -114.561277 21.395918 170.653500
v -114.561277 21.395918 161.832564
v -114.561277 21.395918 241.221014
v -114.561277 21.395918 250.041947
v -105.740370 21.395918 241.221014
v -105.740370 21.395918 250.041947
v -193.949750 21.395918 241.221014
v -185.128741 21.395918 241.221014
v -185.128741 21.395918 250.041947
v -193.949750 21.395918 250.041947
v -185.128741 21.395918 170.653500
v -185.128741 21.395918 161.832564
v -193.949750 21.395918 170.653500
v -193.949750 21.395918 161.832564
v -184.185189 40.288074 159.450888
v -184.185189 40.288074 162.395809
v -184.185189 63.222033 159.450888
v -184.185189 63.222033 162.395809
v -114.939702 63.222033 159.450888
v -114.939702 63.222033 162.395809
v -114.939702 40.288074 159.450888
v -114.939702 40.288074 162.395809
v -167.467804 50.544920 157.454005
v -167.467804 50.544920 161.487656
v -167.467804 52.965194 157.454005
v -167.467804 52.965194 161.487656
v -131.657088 52.965194 157.454005
v -131.657088 52.965194 161.487656
v -131.657088 50.544920 157.454005
v -131.657088 50.544920 161.487656
vt 0.251466 0.732128
vt 0.682983 0.735318
vt 0.681926 0.878235
vt 0.250409 0.875046
vt 0.683138 0.714346
vt 0.683002 0.732698
vt 0.251485 0.729508
vt 0.251621 0.711156
vt 0.250385 0.878370
vt 0.681902 0.881559
vt 0.681766 0.899911
vt 0.250249 0.896722
vt 0.681747 0.902451
vt 0.681612 0.920803
vt 0.538694 0.919747
vt 0.538830 0.901395
vt 0.681593 0.923343
vt 0.681457 0.941694
vt 0.538540 0.940638
vt 0.538675 0.922286
vt 0.084397 0.648984
vt 0.084397 0.300239
vt 0.107967 0.300239
vt 0.107967 0.648984
vt 0.043087 0.300239
vt 0.082369 0.300239
vt 0.082369 0.648984
vt 0.043087 0.648984
vt 0.110415 0.648984
vt 0.110415 0.300239
vt 0.149696 0.300239
vt 0.149696 0.648984
vt 0.152295 0.339521
vt 0.152295 0.300239
vt 0.175866 0.300239
vt 0.175866 0.339521
vt 0.178313 0.339521
vt 0.178313 0.300239
vt 0.201883 0.300239
vt 0.201883 0.339521
vt 0.588319 0.237659
vt 0.588319 0.047874
vt 0.664123 0.047874
vt 0.664123 0.237659
vt 0.669425 0.237659
vt 0.669425 0.047874
vt 0.745228 0.047874
vt 0.745228 0.237659
vt 0.600657 0.623058
vt 0.600657 0.604079
vt 0.600657 0.452251
vt 0.600657 0.433273
vt 0.615882 0.433273
vt 0.615882 0.623058
vt 0.426108 0.623058
vt 0.426108 0.604079
vt 0.426108 0.452251
vt 0.426108 0.433273
vt 0.795596 0.623058
vt 0.795596 0.604080
vt 0.795596 0.452252
vt 0.795596 0.433273
vt 0.810821 0.433273
vt 0.810821 0.623058
vt 0.621046 0.623058
vt 0.621046 0.604080
vt 0.621046 0.452252
vt 0.621046 0.433273
vt 0.834963 0.607822
vt 0.815984 0.607822
vt 0.815984 0.433273
vt 0.834963 0.433273
vt 0.907531 0.607822
vt 0.888553 0.607822
vt 0.888553 0.433273
vt 0.907531 0.433273
vt 0.931721 0.607822
vt 0.912742 0.607822
vt 0.912742 0.433273
vt 0.931721 0.433273
vt 0.934749 0.785286
vt 0.915770 0.785286
vt 0.915770 0.610737
vt 0.934749 0.610737
vt 0.861948 0.759720
vt 0.861948 0.610737
vt 0.911291 0.610737
vt 0.911291 0.759720
vt 0.852261 0.687785
vt 0.852261 0.610737
vt 0.857469 0.610737
vt 0.857469 0.687785
vt 0.312275 0.047874
vt 0.502060 0.047874
vt 0.502060 0.237659
vt 0.312275 0.237659
vt 0.750531 0.237659
vt 0.750531 0.047874
vt 0.940316 0.047874
vt 0.940316 0.237659
vt 0.574168 0.240574
vt 0.763953 0.240574
vt 0.763953 0.430359
vt 0.574168 0.430359
vt 0.231027 0.452251
vt 0.250005 0.452251
vt 0.250005 0.604079
vt 0.231027 0.604079
vt 0.401834 0.604079
vt 0.401834 0.452251
vt 0.250005 0.623058
vt 0.401834 0.623058
vt 0.250005 0.433273
vt 0.401834 0.433273
vt 0.420812 0.604079
vt 0.420812 0.452251
vt 0.828804 0.629715
vt 0.828804 0.610737
vt 0.847782 0.610737
vt 0.847782 0.629715
vt 0.824324 0.625972
vt 0.824324 0.644951
vt 0.805346 0.644951
vt 0.805346 0.625972
vt 0.781888 0.644951
vt 0.781888 0.625972
vt 0.800866 0.625972
vt 0.800866 0.644951
vt 0.758430 0.625972
vt 0.777409 0.625972
vt 0.777409 0.644951
vt 0.758430 0.644951
vt 0.231027 0.237659
vt 0.231027 0.047874
vt 0.306831 0.047874
vt 0.306831 0.237659
vt 0.507213 0.237659
vt 0.507213 0.047874
vt 0.583017 0.047874
vt 0.583017 0.237659
vt 0.942982 0.430359
vt 0.942982 0.411380
vt 0.942982 0.259552
vt 0.942982 0.240574
vt 0.958207 0.240574
vt 0.958207 0.430359
vt 0.768432 0.430359
vt 0.768432 0.411380
vt 0.768432 0.259552
vt 0.768432 0.240574
vt 0.379914 0.430359
vt 0.379914 0.240574
vt 0.395139 0.240574
vt 0.395139 0.259552
vt 0.395139 0.411380
vt 0.395139 0.430359
vt 0.569688 0.240574
vt 0.569688 0.259552
vt 0.569688 0.411380
vt 0.569688 0.430359
vt 0.859152 0.607822
vt 0.840174 0.607822
vt 0.840174 0.433273
vt 0.859152 0.433273
vt 0.883342 0.607822
vt 0.864363 0.607822
vt 0.864363 0.433273
vt 0.883342 0.433273
vt 0.936932 0.433273
vt 0.955910 0.433273
vt 0.955910 0.607822
vt 0.936932 0.607822
vt 0.939228 0.610737
vt 0.958207 0.610737
vt 0.958207 0.785286
vt 0.939228 0.785286
vn -1.000000 0.000000 0.000000
vn -1.000000 0.000000 0.000000
vn -1.000000 0.000000 0.000000
vn -1.000000 0.000000 0.000000
vn 0.000000 1.000000 0.000000
vn 0.000000 1.000000 0.000000
vn 0.000000 1.000000 0.000000
vn 0.000000 1.000000 0.000000
vn 1.000000 0.000000 0.000000
vn 1.000000 0.000000 0.000000
vn 1.000000 0.000000 0.000000
vn 1.000000 0.000000 0.000000
vn 0.000000 0.000000 1.000000
vn 0.000000 0.000000 1.000000
vn 0.000000 0.000000 1.000000
vn 0.000000 0.000000 1.000000
vn -0.000000 0.000000 -1.000000
vn -0.000000 0.000000 -1.000000
vn -0.000000 0.000000 -1.000000
vn -0.000000 0.000000 -1.000000
vn 0.000000 -1.000000 0.000000
vn 0.000000 -1.000000 0.000000
vn 0.000000 -1.000000 0.000000
vn 0.000000 -1.000000 0.000000
vn -1.000000 0.000000 0.000000
vn -1.000000 0.000000 0.000000
vn -1.000000 0.000000 0.000000
vn -1.000000 0.000000 0.000000
vn -1.000000 0.000000 0.000000
vn -1.000000 0.000000 0.000000
vn 0.000000 1.000000 0.000000
vn 0.000000 1.000000 0.000000
vn 0.000000 1.000000 0.000000
vn 0.000000 1.000000 0.000000
vn 1.000000 0.000000 0.000000
vn 1.000000 0.000000 0.000000
vn 1.000000 0.000000 0.000000
vn 1.000000 0.000000 0.000000
vn 1.000000 0.000000 0.000000
vn 1.000000 0.000000 0.000000
vn 0.000000 -1.000000 0.000000
vn 0.000000 -1.000000 0.000000
vn 0.000000 -1.000000 0.000000
vn 0.000000 -1.000000 0.000000
vn 0.000000 0.000000 1.000000
vn 0.000000 0.000000 1.000000
vn 0.000000 0.000000 1.000000
vn 0.000000 0.000000 1.000000
vn 0.000000 0.000000 1.000000
vn 0.000000 0.000000 1.000000
vn -0.000000 0.000000 -1.000000
vn -0.000000 0.000000 -1.000000
vn -0.000000 0.000000 -1.000000
vn -0.000000 0.000000 -1.000000
vn -0.000000 0.000000 -1.000000
vn -0.000000 0.000000 -1.000000
vn 0.000000 -1.000000 0.000000
vn 0.000000 -1.000000 0.000000
vn 0.000000 -1.000000 0.000000
vn 0.000000 -1.000000 0.000000
vn 0.000000 -1.000000 0.000000
vn 0.000000 -1.000000 0.000000
vn 0.000000 -1.000000 0.000000
vn 0.000000 -1.000000 0.000000
vn 0.000000 -1.000000 0.000000
vn 0.000000 -1.000000 0.000000
vn 0.000000 -1.000000 0.000000
vn 0.000000 -1.000000 0.000000
vn 0.000000 -1.000000 0.000000
vn 0.000000 -1.000000 0.000000
vn 0.000000 -1.000000 0.000000
vn 0.000000 -1.000000 0.000000
vn 0.000000 -1.000000 0.000000
vn 0.000000 -1.000000 0.000000
vn 0.000000 -1.000000 0.000000
vn 0.000000 -1.000000 0.000000
vn 0.000000 -1.000000 0.000000
vn 0.000000 -1.000000 0.000000
vn 0.000000 -1.000000 0.000000
vn 0.000000 -1.000000 0.000000
vn 1.000000 0.000000 0.000000
vn 1.000000 0.000000 0.000000
vn 1.000000 0.000000 0.000000
vn 1.000000 0.000000 0.000000
vn 0.000000 0.000000 1.000000
vn 0.000000 0.000000 1.000000
vn 0.000000 0.000000 1.000000
vn 0.000000 0.000000 1.000000
vn -1.000000 0.000000 0.000000
vn -1.000000 0.000000 0.000000
vn -1.000000 0.000000 0.000000
vn -1.000000 0.000000 0.000000
vn -0.000000 0.000000 -1.000000
vn -0.000000 0.000000 -1.000000
vn -0.000000 0.000000 -1.000000
vn -0.000000 0.000000 -1.000000
vn -1.000000 0.000000 0.000000
vn -1.000000 0.000000 0.000000
vn -1.000000 0.000000 0.000000
vn -1.000000 0.000000 0.000000
vn -0.000000 0.000000 -1.000000
vn -0.000000 0.000000 -1.000000
vn -0.000000 0.000000 -1.000000
vn -0.000000 0.000000 -1.000000
vn 1.000000 0.000000 0.000000
vn 1.000000 0.000000 0.000000
vn 1.000000 0.000000 0.000000
vn 1.000000 0.000000 0.000000
vn 0.000000 0.000000 1.000000
vn 0.000000 0.000000 1.000000
vn 0.000000 0.000000 1.000000
vn 0.000000 0.000000 1.000000
vn -0.000000 0.000000 -1.000000
vn -0.000000 0.000000 -1.000000
vn -0.000000 0.000000 -1.000000
vn -0.000000 0.000000 -1.000000
vn 1.000000 0.000000 0.000000
vn 1.000000 0.000000 0.000000
vn 1.000000 0.000000 0.000000
vn 1.000000 0.000000 0.000000
vn 0.000000 0.000000 1.000000
vn 0.000000 0.000000 1.000000
vn 0.000000 0.000000 1.000000
vn 0.000000 0.000000 1.000000
vn -1.000000 0.000000 0.000000
vn -1.000000 0.000000 0.000000
vn -1.000000 0.000000 0.000000
vn -1.000000 0.000000 0.000000
vn 1.000000 0.000000 0.000000
vn 1.000000 0.000000 0.000000
vn 1.000000 0.000000 0.000000
vn 1.000000 0.000000 0.000000
vn 0.000000 0.000000 1.000000
vn 0.000000 0.000000 1.000000
vn 0.000000 0.000000 1.000000
vn 0.000000 0.000000 1.000000
vn -1.000000 0.000000 0.000000
vn -1.000000 0.000000 0.000000
vn -1.000000 0.000000 0.000000
vn -1.000000 0.000000 0.000000
vn -0.000000 0.000000 -1.000000
vn -0.000000 0.000000 -1.000000
vn -0.000000 0.000000 -1.000000
vn -0.000000 0.000000 -1.000000
vn -1.000000 0.000000 0.000000
vn -1.000000 0.000000 0.000000
vn -1.000000 0.000000 0.000000
vn -1.000000 0.000000 0.000000
vn 0.000000 1.000000 0.000000
vn 0.000000 1.000000 0.000000
vn 0.000000 1.000000 0.000000
vn 0.000000 1.000000 0.000000
vn 1.000000 0.000000 0.000000
vn 1.000000 0.000000 0.000000
vn 1.000000 0.000000 0.000000
vn 1.000000 0.000000 0.000000
vn 0.000000 0.000000 1.000000
vn 0.000000 0.000000 1.000000
vn 0.000000 0.000000 1.000000
vn 0.000000 0.000000 1.000000
vn -0.000000 0.000000 -1.000000
vn -0.000000 0.000000 -1.000000
vn -0.000000 0.000000 -1.000000
vn -0.000000 0.000000 -1.000000
vn 0.000000 -1.000000 0.000000
vn 0.000000 -1.000000 0.000000
vn 0.000000 -1.000000 0.000000
vn 0.000000 -1.000000 0.000000
vn -1.000000 0.000000 0.000000
vn -1.000000 0.000000 0.000000
vn -1.000000 0.000000 0.000000
vn -1.000000 0.000000 0.000000
vn 0.000000 1.000000 0.000000
vn 0.000000 1.000000 0.000000
vn 0.000000 1.000000 0.000000
vn 0.000000 1.000000 0.000000
vn 1.000000 0.000000 0.000000
vn 1.000000 0.000000 0.000000
vn 1.000000 0.000000 0.000000
vn 1.000000 0.000000 0.000000
vn 0.000000 0.000000 1.000000
vn 0.000000 0.000000 1.000000
vn 0.000000 0.000000 1.000000
vn 0.000000 0.000000 1.000000
vn -0.000000 0.000000 -1.000000
vn -0.000000 0.000000 -1.000000
vn -0.000000 0.000000 -1.000000
vn -0.000000 0.000000 -1.000000
vn 0.000000 -1.000000 0.000000
vn 0.000000 -1.000000 0.000000
vn 0.000000 -1.000000 0.000000
vn 0.000000 -1.000000 0.000000
s off
g TableLivingroom
usemtl lambert44SG
f 1/133/1 2/134/2 4/135/3 3/136/4
f 3/93/5 4/94/6 6/95/7 5/96/8
f 5/137/9 6/138/10 8/139/11 7/140/12
f 2/41/13 8/42/14 6/43/15 4/44/16
f 7/45/17 1/46/18 3/47/19 5/48/20
f 1/97/21 7/98/22 8/99/23 2/100/24
f 9/141/25 19/142/26 20/143/27 10/144/28 12/145/29 11/146/30
f 11/101/31 12/102/32 14/103/33 13/104/34
f 13/151/35 14/152/36 16/153/37 18/154/38 17/155/39 15/156/40
s 1
f 21/105/41 23/106/42 24/107/43 22/108/44
s off
f 10/49/45 28/50/46 27/51/47 16/52/48 14/53/49 12/54/50
f 15/59/51 21/60/52 22/61/53 9/62/54 11/63/55 13/64/56
s 1
f 28/115/57 25/109/58 26/110/59 27/116/60
f 25/109/58 24/107/43 23/106/42 26/110/59
s off
f 29/117/61 30/118/62 31/119/63 32/120/64
s 1
f 26/110/59 23/106/42 17/113/65 18/114/66
s off
f 34/121/67 33/122/68 35/123/69 36/124/70
f 37/125/71 38/126/72 39/127/73 40/128/74
s 1
f 19/111/75 24/107/43 25/109/58 20/112/76
s off
f 42/129/77 41/130/78 43/131/79 44/132/80
f 15/156/81 17/155/82 30/159/83 29/160/84
f 17/69/85 23/70/86 31/71/87 30/72/88
f 23/161/89 21/162/90 32/163/91 31/164/92
f 21/60/93 15/59/94 29/65/95 32/66/96
f 27/165/97 26/166/98 33/167/99 34/168/100
f 26/73/101 18/74/102 35/75/103 33/76/104
f 18/154/105 16/153/106 36/157/107 35/158/108
f 16/52/109 27/51/110 34/57/111 36/58/112
f 20/77/113 25/78/114 38/79/115 37/80/116
f 25/169/117 28/170/118 39/171/119 38/172/120
f 28/50/121 10/49/122 40/55/123 39/56/124
f 10/144/125 20/143/126 37/149/127 40/150/128
f 22/173/129 24/174/130 41/175/131 42/176/132
f 24/81/133 19/82/134 43/83/135 41/84/136
f 19/142/137 9/141/138 44/147/139 43/148/140
f 9/62/141 22/61/142 42/67/143 44/68/144
f 45/13/145 46/14/146 48/15/147 47/16/148
f 47/5/149 48/6/150 50/7/151 49/8/152
f 49/17/153 50/18/154 52/19/155 51/20/156
f 46/85/157 52/86/158 50/87/159 48/88/160
f 51/1/161 45/2/162 47/3/163 49/4/164
f 45/9/165 51/10/166 52/11/167 46/12/168
f 53/33/169 54/34/170 56/35/171 55/36/172
f 55/25/173 56/26/174 58/27/175 57/28/176
f 57/37/177 58/38/178 60/39/179 59/40/180
f 54/89/181 60/90/182 58/91/183 56/92/184
f 59/21/185 53/22/186 55/23/187 57/24/188
f 53/29/189 59/30/190 60/31/191 54/32/192
